%TF.GenerationSoftware,KiCad,Pcbnew,7.0.5*%
%TF.CreationDate,2023-06-08T23:10:45+10:00*%
%TF.ProjectId,Klotz_02_Plate,4b6c6f74-7a5f-4303-925f-506c6174652e,0.1*%
%TF.SameCoordinates,Original*%
%TF.FileFunction,Drillmap*%
%TF.FilePolarity,Positive*%
%FSLAX45Y45*%
G04 Gerber Fmt 4.5, Leading zero omitted, Abs format (unit mm)*
G04 Created by KiCad (PCBNEW 7.0.5) date 2023-06-08 23:10:45*
%MOMM*%
%LPD*%
G01*
G04 APERTURE LIST*
%ADD10C,0.010000*%
%ADD11C,0.200000*%
%ADD12C,0.220000*%
%ADD13C,0.320000*%
G04 APERTURE END LIST*
D10*
X11768706Y-5352311D02*
X11768706Y-5839145D01*
X20478789Y-7493672D02*
X19836733Y-7380784D01*
X10583372Y-12898228D02*
X9196956Y-13092256D01*
X14195817Y-8964756D02*
X12795289Y-8964756D01*
X19833205Y-13113423D02*
X19833205Y-11536506D01*
X16559428Y-11716422D02*
X16563045Y-11716514D01*
X16566615Y-11716788D01*
X16570136Y-11717239D01*
X16573601Y-11717862D01*
X16577007Y-11718653D01*
X16580349Y-11719608D01*
X16583623Y-11720721D01*
X16586823Y-11721989D01*
X16589946Y-11723407D01*
X16592987Y-11724970D01*
X16595942Y-11726674D01*
X16598805Y-11728514D01*
X16601573Y-11730486D01*
X16604241Y-11732585D01*
X16606804Y-11734807D01*
X16609258Y-11737148D01*
X16611598Y-11739601D01*
X16613820Y-11742165D01*
X16615919Y-11744832D01*
X16617891Y-11747600D01*
X16619731Y-11750463D01*
X16621435Y-11753418D01*
X16622998Y-11756459D01*
X16624416Y-11759582D01*
X16625684Y-11762783D01*
X16626798Y-11766056D01*
X16627752Y-11769398D01*
X16628543Y-11772804D01*
X16629167Y-11776270D01*
X16629617Y-11779790D01*
X16629891Y-11783361D01*
X16629983Y-11786978D01*
X10639817Y-8904784D02*
X8484344Y-8904784D01*
X17857650Y-9359867D02*
X16460649Y-9261089D01*
X12795289Y-7264367D02*
X12795289Y-7260349D01*
X12795289Y-7248638D01*
X12795289Y-7229747D01*
X12795289Y-7204188D01*
X12795289Y-7172474D01*
X12795289Y-7135119D01*
X12795289Y-7092635D01*
X12795289Y-7045534D01*
X12795289Y-6994331D01*
X12795289Y-6939537D01*
X12795289Y-6881666D01*
X12795289Y-6821231D01*
X12795289Y-6758744D01*
X12795289Y-6694719D01*
X12795289Y-6629667D01*
X12795289Y-6564103D01*
X12795289Y-6498539D01*
X12795289Y-6433487D01*
X12795289Y-6369462D01*
X12795289Y-6306975D01*
X12795289Y-6246539D01*
X12795289Y-6188668D01*
X12795289Y-6133875D01*
X12795289Y-6082671D01*
X12795289Y-6035571D01*
X12795289Y-5993087D01*
X12795289Y-5955732D01*
X12795289Y-5924018D01*
X12795289Y-5898459D01*
X12795289Y-5879568D01*
X12795289Y-5867857D01*
X12795289Y-5863839D01*
X16580595Y-7564228D02*
X16679372Y-6167228D01*
X15853872Y-11645867D02*
X15853965Y-11649483D01*
X15854238Y-11653054D01*
X15854689Y-11656574D01*
X15855312Y-11660040D01*
X15856104Y-11663446D01*
X15857058Y-11666788D01*
X15858172Y-11670061D01*
X15859440Y-11673262D01*
X15860857Y-11676385D01*
X15862420Y-11679426D01*
X15864124Y-11682381D01*
X15865965Y-11685244D01*
X15867937Y-11688012D01*
X15870036Y-11690679D01*
X15872258Y-11693243D01*
X15874598Y-11695696D01*
X15877052Y-11698037D01*
X15879615Y-11700259D01*
X15882283Y-11702358D01*
X15885050Y-11704330D01*
X15887914Y-11706170D01*
X15890868Y-11707874D01*
X15893909Y-11709437D01*
X15897032Y-11710855D01*
X15900233Y-11712123D01*
X15903507Y-11713236D01*
X15906849Y-11714191D01*
X15910255Y-11714982D01*
X15913720Y-11715605D01*
X15917241Y-11716056D01*
X15920811Y-11716330D01*
X15924428Y-11716422D01*
X20182455Y-7719450D02*
X19939039Y-9098811D01*
X14195817Y-5863839D02*
X14195817Y-7264367D01*
X9002928Y-11705839D02*
X10389344Y-11511811D01*
X20531706Y-7578339D02*
X20532595Y-7574392D01*
X20533282Y-7570490D01*
X20533770Y-7566637D01*
X20534062Y-7562836D01*
X20534164Y-7559093D01*
X20534078Y-7555410D01*
X20533808Y-7551792D01*
X20533359Y-7548243D01*
X20532735Y-7544766D01*
X20531938Y-7541365D01*
X20530974Y-7538044D01*
X20529845Y-7534807D01*
X20528557Y-7531658D01*
X20527111Y-7528600D01*
X20525514Y-7525639D01*
X20523768Y-7522777D01*
X20521877Y-7520018D01*
X20519846Y-7517366D01*
X20517677Y-7514825D01*
X20515376Y-7512400D01*
X20512945Y-7510093D01*
X20510389Y-7507909D01*
X20507712Y-7505852D01*
X20504916Y-7503925D01*
X20502008Y-7502132D01*
X20498989Y-7500478D01*
X20495865Y-7498966D01*
X20492638Y-7497600D01*
X20489314Y-7496383D01*
X20485895Y-7495321D01*
X20482385Y-7494416D01*
X20478789Y-7493672D01*
X8895000Y-9470000D02*
X10575000Y-9470000D01*
X10957317Y-11444783D02*
X12354317Y-11370700D01*
X10996122Y-6131950D02*
X12396650Y-6131950D01*
X19349900Y-12446672D02*
X17970539Y-12203256D01*
X16559427Y-7864089D02*
X17956427Y-7962867D01*
X10996122Y-9232867D02*
X10996122Y-7832339D01*
X8895000Y-10860000D02*
X10575000Y-10860000D01*
X19889650Y-9395145D02*
X19646234Y-10774506D01*
X18510289Y-9151728D02*
X19889650Y-9395145D01*
X8484344Y-13113423D02*
X8484437Y-13117039D01*
X8484710Y-13120610D01*
X8485161Y-13124131D01*
X8485784Y-13127596D01*
X8486576Y-13131002D01*
X8487530Y-13134344D01*
X8488644Y-13137618D01*
X8489912Y-13140818D01*
X8491329Y-13143941D01*
X8492893Y-13146982D01*
X8494596Y-13149937D01*
X8496437Y-13152800D01*
X8498409Y-13155568D01*
X8500508Y-13158236D01*
X8502730Y-13160799D01*
X8505070Y-13163253D01*
X8507524Y-13165593D01*
X8510087Y-13167815D01*
X8512755Y-13169914D01*
X8515523Y-13171886D01*
X8518386Y-13173726D01*
X8521340Y-13175430D01*
X8524381Y-13176993D01*
X8527505Y-13178411D01*
X8530705Y-13179679D01*
X8533979Y-13180792D01*
X8537321Y-13181747D01*
X8540727Y-13182538D01*
X8544192Y-13183161D01*
X8547713Y-13183612D01*
X8551283Y-13183886D01*
X8554900Y-13183978D01*
X10996122Y-7532478D02*
X10996122Y-6131950D01*
X16679372Y-6167228D02*
X18076372Y-6266006D01*
X14594455Y-8534367D02*
X15994983Y-8534367D01*
X16629983Y-11786978D02*
X16629983Y-13014644D01*
X8554900Y-13183978D02*
X8879456Y-13183978D01*
X10780928Y-5909700D02*
X10777311Y-5909792D01*
X10773741Y-5910066D01*
X10770220Y-5910517D01*
X10766755Y-5911140D01*
X10763349Y-5911931D01*
X10760007Y-5912886D01*
X10756733Y-5913999D01*
X10753533Y-5915267D01*
X10750409Y-5916685D01*
X10747368Y-5918248D01*
X10744414Y-5919952D01*
X10741550Y-5921792D01*
X10738783Y-5923764D01*
X10736115Y-5925864D01*
X10733552Y-5928086D01*
X10731098Y-5930426D01*
X10728758Y-5932880D01*
X10726536Y-5935443D01*
X10724437Y-5938110D01*
X10722465Y-5940878D01*
X10720624Y-5943742D01*
X10718920Y-5946696D01*
X10717357Y-5949737D01*
X10715940Y-5952860D01*
X10714672Y-5956061D01*
X10713558Y-5959334D01*
X10712604Y-5962677D01*
X10711812Y-5966083D01*
X10711189Y-5969548D01*
X10710738Y-5973068D01*
X10710465Y-5976639D01*
X10710372Y-5980256D01*
X10996122Y-10929728D02*
X10996122Y-9529200D01*
X17741234Y-11053200D02*
X16344233Y-10954422D01*
X8484344Y-8904784D02*
X8484344Y-13113423D01*
X15994983Y-9934895D02*
X14594455Y-9934895D01*
X19836733Y-7380784D02*
X19836733Y-5422867D01*
X17840011Y-9656200D02*
X17741234Y-11053200D01*
X11698150Y-5909700D02*
X10780928Y-5909700D01*
X16460649Y-9261089D02*
X16559427Y-7864089D01*
X14594455Y-5137117D02*
X15994983Y-5137117D01*
X10575000Y-9470000D02*
X10575000Y-10860000D01*
X14594455Y-6537645D02*
X14594455Y-5137117D01*
X12396650Y-9529200D02*
X12396650Y-10929728D01*
X15994983Y-8534367D02*
X15994983Y-9934895D01*
X16344233Y-10954422D02*
X16443011Y-9557422D01*
X18803094Y-7476034D02*
X20182455Y-7719450D01*
X12795289Y-5863839D02*
X14195817Y-5863839D01*
X17970539Y-12203256D02*
X18213956Y-10823895D01*
X15994983Y-6833978D02*
X15994983Y-8234506D01*
X12795289Y-7564228D02*
X14195817Y-7564228D01*
X19646234Y-10774506D02*
X18266872Y-10531089D01*
X12428400Y-12767700D02*
X11031400Y-12841783D01*
X18266872Y-10531089D02*
X18510289Y-9151728D01*
X19766178Y-5352311D02*
X16312483Y-5352311D01*
X15924428Y-11716422D02*
X16559428Y-11716422D01*
X17977595Y-7663006D02*
X16580595Y-7564228D01*
X11031400Y-12841783D02*
X10957317Y-11444783D01*
X14195817Y-7264367D02*
X12795289Y-7264367D01*
X11768706Y-5839145D02*
X11768613Y-5842761D01*
X11768339Y-5846332D01*
X11767889Y-5849852D01*
X11767265Y-5853318D01*
X11766474Y-5856724D01*
X11765520Y-5860066D01*
X11764406Y-5863339D01*
X11763138Y-5866540D01*
X11761720Y-5869663D01*
X11760157Y-5872704D01*
X11758453Y-5875659D01*
X11756613Y-5878522D01*
X11754641Y-5881290D01*
X11752542Y-5883957D01*
X11750320Y-5886521D01*
X11747980Y-5888974D01*
X11745526Y-5891315D01*
X11742963Y-5893537D01*
X11740295Y-5895636D01*
X11737527Y-5897608D01*
X11734664Y-5899448D01*
X11731709Y-5901152D01*
X11728668Y-5902715D01*
X11725545Y-5904133D01*
X11722345Y-5905401D01*
X11719071Y-5906514D01*
X11715729Y-5907469D01*
X11712323Y-5908260D01*
X11708858Y-5908883D01*
X11705337Y-5909334D01*
X11701767Y-5909608D01*
X11698150Y-5909700D01*
X14195817Y-9264617D02*
X14195817Y-10665145D01*
X12354317Y-11370700D02*
X12428400Y-12767700D01*
X15994983Y-6537645D02*
X14594455Y-6537645D01*
X15994983Y-5137117D02*
X15994983Y-6537645D01*
X9196956Y-13092256D02*
X9002928Y-11705839D01*
X16241928Y-4854895D02*
X14329872Y-4854895D01*
X19910817Y-11102590D02*
X20531706Y-7578339D01*
X17956427Y-7962867D02*
X17857650Y-9359867D01*
X12396650Y-9232867D02*
X10996122Y-9232867D01*
X12795289Y-8964756D02*
X12795289Y-8960738D01*
X12795289Y-8949027D01*
X12795289Y-8930136D01*
X12795289Y-8904577D01*
X12795289Y-8872863D01*
X12795289Y-8835508D01*
X12795289Y-8793024D01*
X12795289Y-8745924D01*
X12795289Y-8694720D01*
X12795289Y-8639927D01*
X12795289Y-8582056D01*
X12795289Y-8521620D01*
X12795289Y-8459133D01*
X12795289Y-8395108D01*
X12795289Y-8330056D01*
X12795289Y-8264492D01*
X12795289Y-8198928D01*
X12795289Y-8133876D01*
X12795289Y-8069851D01*
X12795289Y-8007364D01*
X12795289Y-7946928D01*
X12795289Y-7889057D01*
X12795289Y-7834264D01*
X12795289Y-7783060D01*
X12795289Y-7735960D01*
X12795289Y-7693476D01*
X12795289Y-7656120D01*
X12795289Y-7624407D01*
X12795289Y-7598848D01*
X12795289Y-7579956D01*
X12795289Y-7568246D01*
X12795289Y-7564228D01*
X15853872Y-10965005D02*
X15853872Y-11645867D01*
X19593317Y-11067312D02*
X19349900Y-12446672D01*
X16312483Y-5352311D02*
X16312483Y-4925450D01*
X14594455Y-9934895D02*
X14594455Y-8534367D01*
X14594455Y-6833978D02*
X15994983Y-6833978D01*
X8879456Y-13183978D02*
X8900622Y-13342728D01*
X12752955Y-13014644D02*
X12752955Y-10965005D01*
X10996122Y-9529200D02*
X12396650Y-9529200D01*
X18213956Y-10823895D02*
X19593317Y-11067312D01*
X8900622Y-13342728D02*
X8901365Y-13346325D01*
X8902269Y-13349836D01*
X8903327Y-13353259D01*
X8904536Y-13356591D01*
X8905889Y-13359831D01*
X8907381Y-13362975D01*
X8909008Y-13366021D01*
X8910765Y-13368966D01*
X8912645Y-13371808D01*
X8914644Y-13374544D01*
X8916756Y-13377171D01*
X8918978Y-13379687D01*
X8921302Y-13382090D01*
X8923725Y-13384376D01*
X8926241Y-13386544D01*
X8928844Y-13388590D01*
X8931531Y-13390511D01*
X8934295Y-13392307D01*
X8937131Y-13393973D01*
X8940034Y-13395507D01*
X8942999Y-13396907D01*
X8946022Y-13398170D01*
X8949096Y-13399294D01*
X8952216Y-13400275D01*
X8955378Y-13401112D01*
X8958576Y-13401801D01*
X8961804Y-13402341D01*
X8965059Y-13402728D01*
X8968335Y-13402960D01*
X8971626Y-13403035D01*
X8974927Y-13402949D01*
X8978233Y-13402700D01*
X14329872Y-4854895D02*
X14326256Y-4854987D01*
X14322685Y-4855261D01*
X14319165Y-4855712D01*
X14315699Y-4856335D01*
X14312293Y-4857126D01*
X14308951Y-4858081D01*
X14305678Y-4859194D01*
X14302477Y-4860462D01*
X14299354Y-4861880D01*
X14296313Y-4863443D01*
X14293358Y-4865147D01*
X14290495Y-4866987D01*
X14287727Y-4868959D01*
X14285059Y-4871058D01*
X14282496Y-4873280D01*
X14280043Y-4875620D01*
X14277702Y-4878074D01*
X14275480Y-4880637D01*
X14273381Y-4883305D01*
X14271409Y-4886073D01*
X14269569Y-4888936D01*
X14267865Y-4891891D01*
X14266302Y-4894932D01*
X14264884Y-4898055D01*
X14263616Y-4901255D01*
X14262503Y-4904529D01*
X14261548Y-4907871D01*
X14260757Y-4911277D01*
X14260134Y-4914743D01*
X14259683Y-4918263D01*
X14259409Y-4921834D01*
X14259317Y-4925450D01*
X19833205Y-11536506D02*
X19910817Y-11102590D01*
X16629983Y-13014644D02*
X12752955Y-13014644D01*
X12396650Y-6131950D02*
X12396650Y-7532478D01*
X14195817Y-7564228D02*
X14195817Y-8964756D01*
X16312483Y-4925450D02*
X16312391Y-4921834D01*
X16312117Y-4918263D01*
X16311667Y-4914743D01*
X16311043Y-4911277D01*
X16310252Y-4907871D01*
X16309298Y-4904529D01*
X16308184Y-4901255D01*
X16306916Y-4898055D01*
X16305498Y-4894932D01*
X16303935Y-4891891D01*
X16302231Y-4888936D01*
X16300391Y-4886073D01*
X16298419Y-4883305D01*
X16296320Y-4880637D01*
X16294098Y-4878074D01*
X16291758Y-4875620D01*
X16289304Y-4873280D01*
X16286741Y-4871058D01*
X16284073Y-4868959D01*
X16281305Y-4866987D01*
X16278442Y-4865147D01*
X16275487Y-4863443D01*
X16272446Y-4861880D01*
X16269323Y-4860462D01*
X16266123Y-4859194D01*
X16262849Y-4858081D01*
X16259507Y-4857126D01*
X16256101Y-4856335D01*
X16252636Y-4855712D01*
X16249115Y-4855261D01*
X16245545Y-4854987D01*
X16241928Y-4854895D01*
X12396650Y-7532478D02*
X10996122Y-7532478D01*
X10996122Y-7832339D02*
X12396650Y-7832339D01*
X10710372Y-8834228D02*
X10710280Y-8837845D01*
X10710006Y-8841415D01*
X10709555Y-8844936D01*
X10708932Y-8848401D01*
X10708141Y-8851807D01*
X10707186Y-8855149D01*
X10706073Y-8858423D01*
X10704805Y-8861623D01*
X10703387Y-8864746D01*
X10701824Y-8867788D01*
X10700120Y-8870742D01*
X10698280Y-8873605D01*
X10696308Y-8876373D01*
X10694209Y-8879041D01*
X10691987Y-8881604D01*
X10689647Y-8884058D01*
X10687193Y-8886398D01*
X10684630Y-8888620D01*
X10681962Y-8890719D01*
X10679194Y-8892691D01*
X10676331Y-8894532D01*
X10673376Y-8896235D01*
X10670335Y-8897799D01*
X10667212Y-8899216D01*
X10664012Y-8900484D01*
X10660738Y-8901598D01*
X10657396Y-8902552D01*
X10653990Y-8903344D01*
X10650524Y-8903967D01*
X10647004Y-8904418D01*
X10643433Y-8904691D01*
X10639817Y-8904784D01*
X12795289Y-10665145D02*
X12795289Y-10661127D01*
X12795289Y-10649416D01*
X12795289Y-10630525D01*
X12795289Y-10604966D01*
X12795289Y-10573252D01*
X12795289Y-10535897D01*
X12795289Y-10493413D01*
X12795289Y-10446312D01*
X12795289Y-10395109D01*
X12795289Y-10340315D01*
X12795289Y-10282444D01*
X12795289Y-10222009D01*
X12795289Y-10159522D01*
X12795289Y-10095496D01*
X12795289Y-10030445D01*
X12795289Y-9964881D01*
X12795289Y-9899317D01*
X12795289Y-9834265D01*
X12795289Y-9770240D01*
X12795289Y-9707753D01*
X12795289Y-9647317D01*
X12795289Y-9589446D01*
X12795289Y-9534653D01*
X12795289Y-9483449D01*
X12795289Y-9436349D01*
X12795289Y-9393865D01*
X12795289Y-9356509D01*
X12795289Y-9324796D01*
X12795289Y-9299237D01*
X12795289Y-9280345D01*
X12795289Y-9268634D01*
X12795289Y-9264617D01*
X18076372Y-6266006D02*
X17977595Y-7663006D01*
X12795289Y-9264617D02*
X14195817Y-9264617D01*
X18559677Y-8855395D02*
X18803094Y-7476034D01*
X14259317Y-4925450D02*
X14259317Y-5352311D01*
X16443011Y-9557422D02*
X17840011Y-9656200D01*
X19939039Y-9098811D02*
X18559677Y-8855395D01*
X10710372Y-5980256D02*
X10710372Y-8834228D01*
X19762650Y-13183978D02*
X19766266Y-13183886D01*
X19769837Y-13183612D01*
X19773358Y-13183161D01*
X19776823Y-13182538D01*
X19780229Y-13181747D01*
X19783571Y-13180792D01*
X19786845Y-13179679D01*
X19790045Y-13178411D01*
X19793168Y-13176993D01*
X19796209Y-13175430D01*
X19799164Y-13173726D01*
X19802027Y-13171886D01*
X19804795Y-13169914D01*
X19807463Y-13167815D01*
X19810026Y-13165593D01*
X19812480Y-13163253D01*
X19814820Y-13160799D01*
X19817042Y-13158236D01*
X19819141Y-13155568D01*
X19821113Y-13152800D01*
X19822953Y-13149937D01*
X19824657Y-13146982D01*
X19826220Y-13143941D01*
X19827638Y-13140818D01*
X19828906Y-13137618D01*
X19830019Y-13134344D01*
X19830974Y-13131002D01*
X19831765Y-13127596D01*
X19832388Y-13124131D01*
X19832839Y-13120610D01*
X19833113Y-13117039D01*
X19833205Y-13113423D01*
X15994983Y-8234506D02*
X14594455Y-8234506D01*
X8978233Y-13402700D02*
X10526928Y-13183978D01*
X12752955Y-10965005D02*
X15853872Y-10965005D01*
X12396650Y-7832339D02*
X12396650Y-9232867D01*
X12396650Y-10929728D02*
X10996122Y-10929728D01*
X14259317Y-5352311D02*
X11768706Y-5352311D01*
X10526928Y-13183978D02*
X19762650Y-13183978D01*
X14594455Y-8234506D02*
X14594455Y-6833978D01*
X10389344Y-11511811D02*
X10583372Y-12898228D01*
X14195817Y-10665145D02*
X12795289Y-10665145D01*
X19836733Y-5422867D02*
X19836641Y-5419250D01*
X19836367Y-5415680D01*
X19835916Y-5412159D01*
X19835293Y-5408694D01*
X19834502Y-5405288D01*
X19833547Y-5401946D01*
X19832434Y-5398672D01*
X19831166Y-5395471D01*
X19829748Y-5392348D01*
X19828185Y-5389307D01*
X19826481Y-5386353D01*
X19824641Y-5383489D01*
X19822669Y-5380722D01*
X19820570Y-5378054D01*
X19818348Y-5375491D01*
X19816008Y-5373037D01*
X19813554Y-5370697D01*
X19810991Y-5368475D01*
X19808323Y-5366376D01*
X19805555Y-5364404D01*
X19802692Y-5362563D01*
X19799737Y-5360860D01*
X19796696Y-5359296D01*
X19793573Y-5357879D01*
X19790373Y-5356611D01*
X19787099Y-5355497D01*
X19783757Y-5354543D01*
X19780351Y-5353751D01*
X19776886Y-5353128D01*
X19773365Y-5352677D01*
X19769794Y-5352404D01*
X19766178Y-5352311D01*
X8895000Y-9470000D02*
X8895000Y-9471145D01*
X8895000Y-9472715D01*
X8895000Y-9475302D01*
X8895000Y-9479163D01*
X8895000Y-9484550D01*
X8895000Y-9491719D01*
X8895000Y-9500924D01*
X8895000Y-9512419D01*
X8895000Y-9526460D01*
X8895000Y-9543301D01*
X8895000Y-9563195D01*
X8895000Y-9586399D01*
X8895000Y-9613166D01*
X8895000Y-9643750D01*
X8895000Y-9678407D01*
X8895000Y-9717390D01*
X8895000Y-9760955D01*
X8895000Y-9809355D01*
X8895000Y-9862846D01*
X8895000Y-9921682D01*
X8895000Y-9986117D01*
X8895000Y-10056406D01*
X8895000Y-10132804D01*
X8895000Y-10215564D01*
X8895000Y-10304942D01*
X8895000Y-10401191D01*
X8895000Y-10504568D01*
X8895000Y-10615325D01*
X8895000Y-10733717D01*
X8895000Y-10860000D01*
D11*
D12*
X8780000Y-11293000D02*
X9000000Y-11513000D01*
X9000000Y-11293000D02*
X8780000Y-11513000D01*
X12055214Y-5645369D02*
X12275214Y-5865369D01*
X12275214Y-5645369D02*
X12055214Y-5865369D01*
X14708216Y-10429239D02*
X14928216Y-10649239D01*
X14928216Y-10429239D02*
X14708216Y-10649239D01*
X19329801Y-5645369D02*
X19549801Y-5865369D01*
X19549801Y-5645369D02*
X19329801Y-5865369D01*
X19329801Y-12665946D02*
X19549801Y-12885946D01*
X19549801Y-12665946D02*
X19329801Y-12885946D01*
D13*
X17013200Y-5779700D02*
G75*
G03*
X17013200Y-5779700I-160000J0D01*
G01*
X17585400Y-5817800D02*
G75*
G03*
X17585400Y-5817800I-160000J0D01*
G01*
X18156300Y-5865000D02*
G75*
G03*
X18156300Y-5865000I-160000J0D01*
G01*
D11*
X8744621Y-13718212D02*
X8744621Y-13518212D01*
X8744621Y-13518212D02*
X8792240Y-13518212D01*
X8792240Y-13518212D02*
X8820812Y-13527736D01*
X8820812Y-13527736D02*
X8839859Y-13546784D01*
X8839859Y-13546784D02*
X8849383Y-13565831D01*
X8849383Y-13565831D02*
X8858907Y-13603926D01*
X8858907Y-13603926D02*
X8858907Y-13632498D01*
X8858907Y-13632498D02*
X8849383Y-13670593D01*
X8849383Y-13670593D02*
X8839859Y-13689641D01*
X8839859Y-13689641D02*
X8820812Y-13708688D01*
X8820812Y-13708688D02*
X8792240Y-13718212D01*
X8792240Y-13718212D02*
X8744621Y-13718212D01*
X8944621Y-13718212D02*
X8944621Y-13584879D01*
X8944621Y-13622974D02*
X8954145Y-13603926D01*
X8954145Y-13603926D02*
X8963669Y-13594403D01*
X8963669Y-13594403D02*
X8982716Y-13584879D01*
X8982716Y-13584879D02*
X9001764Y-13584879D01*
X9068431Y-13718212D02*
X9068431Y-13584879D01*
X9068431Y-13518212D02*
X9058907Y-13527736D01*
X9058907Y-13527736D02*
X9068431Y-13537260D01*
X9068431Y-13537260D02*
X9077955Y-13527736D01*
X9077955Y-13527736D02*
X9068431Y-13518212D01*
X9068431Y-13518212D02*
X9068431Y-13537260D01*
X9192240Y-13718212D02*
X9173193Y-13708688D01*
X9173193Y-13708688D02*
X9163669Y-13689641D01*
X9163669Y-13689641D02*
X9163669Y-13518212D01*
X9297002Y-13718212D02*
X9277955Y-13708688D01*
X9277955Y-13708688D02*
X9268431Y-13689641D01*
X9268431Y-13689641D02*
X9268431Y-13518212D01*
X9525574Y-13718212D02*
X9525574Y-13518212D01*
X9525574Y-13518212D02*
X9592240Y-13661069D01*
X9592240Y-13661069D02*
X9658907Y-13518212D01*
X9658907Y-13518212D02*
X9658907Y-13718212D01*
X9839859Y-13718212D02*
X9839859Y-13613450D01*
X9839859Y-13613450D02*
X9830336Y-13594403D01*
X9830336Y-13594403D02*
X9811288Y-13584879D01*
X9811288Y-13584879D02*
X9773193Y-13584879D01*
X9773193Y-13584879D02*
X9754145Y-13594403D01*
X9839859Y-13708688D02*
X9820812Y-13718212D01*
X9820812Y-13718212D02*
X9773193Y-13718212D01*
X9773193Y-13718212D02*
X9754145Y-13708688D01*
X9754145Y-13708688D02*
X9744621Y-13689641D01*
X9744621Y-13689641D02*
X9744621Y-13670593D01*
X9744621Y-13670593D02*
X9754145Y-13651546D01*
X9754145Y-13651546D02*
X9773193Y-13642022D01*
X9773193Y-13642022D02*
X9820812Y-13642022D01*
X9820812Y-13642022D02*
X9839859Y-13632498D01*
X9935097Y-13584879D02*
X9935097Y-13784879D01*
X9935097Y-13594403D02*
X9954145Y-13584879D01*
X9954145Y-13584879D02*
X9992240Y-13584879D01*
X9992240Y-13584879D02*
X10011288Y-13594403D01*
X10011288Y-13594403D02*
X10020812Y-13603926D01*
X10020812Y-13603926D02*
X10030336Y-13622974D01*
X10030336Y-13622974D02*
X10030336Y-13680117D01*
X10030336Y-13680117D02*
X10020812Y-13699165D01*
X10020812Y-13699165D02*
X10011288Y-13708688D01*
X10011288Y-13708688D02*
X9992240Y-13718212D01*
X9992240Y-13718212D02*
X9954145Y-13718212D01*
X9954145Y-13718212D02*
X9935097Y-13708688D01*
X10116050Y-13699165D02*
X10125574Y-13708688D01*
X10125574Y-13708688D02*
X10116050Y-13718212D01*
X10116050Y-13718212D02*
X10106526Y-13708688D01*
X10106526Y-13708688D02*
X10116050Y-13699165D01*
X10116050Y-13699165D02*
X10116050Y-13718212D01*
X10116050Y-13594403D02*
X10125574Y-13603926D01*
X10125574Y-13603926D02*
X10116050Y-13613450D01*
X10116050Y-13613450D02*
X10106526Y-13603926D01*
X10106526Y-13603926D02*
X10116050Y-13594403D01*
X10116050Y-13594403D02*
X10116050Y-13613450D01*
X8283844Y-13946728D02*
X8483844Y-14146728D01*
X8483844Y-13946728D02*
X8283844Y-14146728D01*
X8735097Y-13957260D02*
X8744621Y-13947736D01*
X8744621Y-13947736D02*
X8763669Y-13938212D01*
X8763669Y-13938212D02*
X8811288Y-13938212D01*
X8811288Y-13938212D02*
X8830336Y-13947736D01*
X8830336Y-13947736D02*
X8839859Y-13957260D01*
X8839859Y-13957260D02*
X8849383Y-13976307D01*
X8849383Y-13976307D02*
X8849383Y-13995355D01*
X8849383Y-13995355D02*
X8839859Y-14023926D01*
X8839859Y-14023926D02*
X8725574Y-14138212D01*
X8725574Y-14138212D02*
X8849383Y-14138212D01*
X8935097Y-14119165D02*
X8944621Y-14128688D01*
X8944621Y-14128688D02*
X8935097Y-14138212D01*
X8935097Y-14138212D02*
X8925574Y-14128688D01*
X8925574Y-14128688D02*
X8935097Y-14119165D01*
X8935097Y-14119165D02*
X8935097Y-14138212D01*
X9020812Y-13957260D02*
X9030336Y-13947736D01*
X9030336Y-13947736D02*
X9049383Y-13938212D01*
X9049383Y-13938212D02*
X9097002Y-13938212D01*
X9097002Y-13938212D02*
X9116050Y-13947736D01*
X9116050Y-13947736D02*
X9125574Y-13957260D01*
X9125574Y-13957260D02*
X9135097Y-13976307D01*
X9135097Y-13976307D02*
X9135097Y-13995355D01*
X9135097Y-13995355D02*
X9125574Y-14023926D01*
X9125574Y-14023926D02*
X9011288Y-14138212D01*
X9011288Y-14138212D02*
X9135097Y-14138212D01*
X9258907Y-13938212D02*
X9277955Y-13938212D01*
X9277955Y-13938212D02*
X9297002Y-13947736D01*
X9297002Y-13947736D02*
X9306526Y-13957260D01*
X9306526Y-13957260D02*
X9316050Y-13976307D01*
X9316050Y-13976307D02*
X9325574Y-14014403D01*
X9325574Y-14014403D02*
X9325574Y-14062022D01*
X9325574Y-14062022D02*
X9316050Y-14100117D01*
X9316050Y-14100117D02*
X9306526Y-14119165D01*
X9306526Y-14119165D02*
X9297002Y-14128688D01*
X9297002Y-14128688D02*
X9277955Y-14138212D01*
X9277955Y-14138212D02*
X9258907Y-14138212D01*
X9258907Y-14138212D02*
X9239859Y-14128688D01*
X9239859Y-14128688D02*
X9230336Y-14119165D01*
X9230336Y-14119165D02*
X9220812Y-14100117D01*
X9220812Y-14100117D02*
X9211288Y-14062022D01*
X9211288Y-14062022D02*
X9211288Y-14014403D01*
X9211288Y-14014403D02*
X9220812Y-13976307D01*
X9220812Y-13976307D02*
X9230336Y-13957260D01*
X9230336Y-13957260D02*
X9239859Y-13947736D01*
X9239859Y-13947736D02*
X9258907Y-13938212D01*
X9449383Y-13938212D02*
X9468431Y-13938212D01*
X9468431Y-13938212D02*
X9487478Y-13947736D01*
X9487478Y-13947736D02*
X9497002Y-13957260D01*
X9497002Y-13957260D02*
X9506526Y-13976307D01*
X9506526Y-13976307D02*
X9516050Y-14014403D01*
X9516050Y-14014403D02*
X9516050Y-14062022D01*
X9516050Y-14062022D02*
X9506526Y-14100117D01*
X9506526Y-14100117D02*
X9497002Y-14119165D01*
X9497002Y-14119165D02*
X9487478Y-14128688D01*
X9487478Y-14128688D02*
X9468431Y-14138212D01*
X9468431Y-14138212D02*
X9449383Y-14138212D01*
X9449383Y-14138212D02*
X9430336Y-14128688D01*
X9430336Y-14128688D02*
X9420812Y-14119165D01*
X9420812Y-14119165D02*
X9411288Y-14100117D01*
X9411288Y-14100117D02*
X9401764Y-14062022D01*
X9401764Y-14062022D02*
X9401764Y-14014403D01*
X9401764Y-14014403D02*
X9411288Y-13976307D01*
X9411288Y-13976307D02*
X9420812Y-13957260D01*
X9420812Y-13957260D02*
X9430336Y-13947736D01*
X9430336Y-13947736D02*
X9449383Y-13938212D01*
X9601764Y-14138212D02*
X9601764Y-14004879D01*
X9601764Y-14023926D02*
X9611288Y-14014403D01*
X9611288Y-14014403D02*
X9630336Y-14004879D01*
X9630336Y-14004879D02*
X9658907Y-14004879D01*
X9658907Y-14004879D02*
X9677955Y-14014403D01*
X9677955Y-14014403D02*
X9687478Y-14033450D01*
X9687478Y-14033450D02*
X9687478Y-14138212D01*
X9687478Y-14033450D02*
X9697002Y-14014403D01*
X9697002Y-14014403D02*
X9716050Y-14004879D01*
X9716050Y-14004879D02*
X9744621Y-14004879D01*
X9744621Y-14004879D02*
X9763669Y-14014403D01*
X9763669Y-14014403D02*
X9773193Y-14033450D01*
X9773193Y-14033450D02*
X9773193Y-14138212D01*
X9868431Y-14138212D02*
X9868431Y-14004879D01*
X9868431Y-14023926D02*
X9877955Y-14014403D01*
X9877955Y-14014403D02*
X9897002Y-14004879D01*
X9897002Y-14004879D02*
X9925574Y-14004879D01*
X9925574Y-14004879D02*
X9944621Y-14014403D01*
X9944621Y-14014403D02*
X9954145Y-14033450D01*
X9954145Y-14033450D02*
X9954145Y-14138212D01*
X9954145Y-14033450D02*
X9963669Y-14014403D01*
X9963669Y-14014403D02*
X9982717Y-14004879D01*
X9982717Y-14004879D02*
X10011288Y-14004879D01*
X10011288Y-14004879D02*
X10030336Y-14014403D01*
X10030336Y-14014403D02*
X10039859Y-14033450D01*
X10039859Y-14033450D02*
X10039859Y-14138212D01*
X10430336Y-13928688D02*
X10258907Y-14185831D01*
X10687479Y-13938212D02*
X10706526Y-13938212D01*
X10706526Y-13938212D02*
X10725574Y-13947736D01*
X10725574Y-13947736D02*
X10735098Y-13957260D01*
X10735098Y-13957260D02*
X10744621Y-13976307D01*
X10744621Y-13976307D02*
X10754145Y-14014403D01*
X10754145Y-14014403D02*
X10754145Y-14062022D01*
X10754145Y-14062022D02*
X10744621Y-14100117D01*
X10744621Y-14100117D02*
X10735098Y-14119165D01*
X10735098Y-14119165D02*
X10725574Y-14128688D01*
X10725574Y-14128688D02*
X10706526Y-14138212D01*
X10706526Y-14138212D02*
X10687479Y-14138212D01*
X10687479Y-14138212D02*
X10668431Y-14128688D01*
X10668431Y-14128688D02*
X10658907Y-14119165D01*
X10658907Y-14119165D02*
X10649383Y-14100117D01*
X10649383Y-14100117D02*
X10639860Y-14062022D01*
X10639860Y-14062022D02*
X10639860Y-14014403D01*
X10639860Y-14014403D02*
X10649383Y-13976307D01*
X10649383Y-13976307D02*
X10658907Y-13957260D01*
X10658907Y-13957260D02*
X10668431Y-13947736D01*
X10668431Y-13947736D02*
X10687479Y-13938212D01*
X10839860Y-14119165D02*
X10849383Y-14128688D01*
X10849383Y-14128688D02*
X10839860Y-14138212D01*
X10839860Y-14138212D02*
X10830336Y-14128688D01*
X10830336Y-14128688D02*
X10839860Y-14119165D01*
X10839860Y-14119165D02*
X10839860Y-14138212D01*
X10973193Y-13938212D02*
X10992241Y-13938212D01*
X10992241Y-13938212D02*
X11011288Y-13947736D01*
X11011288Y-13947736D02*
X11020812Y-13957260D01*
X11020812Y-13957260D02*
X11030336Y-13976307D01*
X11030336Y-13976307D02*
X11039860Y-14014403D01*
X11039860Y-14014403D02*
X11039860Y-14062022D01*
X11039860Y-14062022D02*
X11030336Y-14100117D01*
X11030336Y-14100117D02*
X11020812Y-14119165D01*
X11020812Y-14119165D02*
X11011288Y-14128688D01*
X11011288Y-14128688D02*
X10992241Y-14138212D01*
X10992241Y-14138212D02*
X10973193Y-14138212D01*
X10973193Y-14138212D02*
X10954145Y-14128688D01*
X10954145Y-14128688D02*
X10944621Y-14119165D01*
X10944621Y-14119165D02*
X10935098Y-14100117D01*
X10935098Y-14100117D02*
X10925574Y-14062022D01*
X10925574Y-14062022D02*
X10925574Y-14014403D01*
X10925574Y-14014403D02*
X10935098Y-13976307D01*
X10935098Y-13976307D02*
X10944621Y-13957260D01*
X10944621Y-13957260D02*
X10954145Y-13947736D01*
X10954145Y-13947736D02*
X10973193Y-13938212D01*
X11154145Y-14023926D02*
X11135098Y-14014403D01*
X11135098Y-14014403D02*
X11125574Y-14004879D01*
X11125574Y-14004879D02*
X11116050Y-13985831D01*
X11116050Y-13985831D02*
X11116050Y-13976307D01*
X11116050Y-13976307D02*
X11125574Y-13957260D01*
X11125574Y-13957260D02*
X11135098Y-13947736D01*
X11135098Y-13947736D02*
X11154145Y-13938212D01*
X11154145Y-13938212D02*
X11192240Y-13938212D01*
X11192240Y-13938212D02*
X11211288Y-13947736D01*
X11211288Y-13947736D02*
X11220812Y-13957260D01*
X11220812Y-13957260D02*
X11230336Y-13976307D01*
X11230336Y-13976307D02*
X11230336Y-13985831D01*
X11230336Y-13985831D02*
X11220812Y-14004879D01*
X11220812Y-14004879D02*
X11211288Y-14014403D01*
X11211288Y-14014403D02*
X11192240Y-14023926D01*
X11192240Y-14023926D02*
X11154145Y-14023926D01*
X11154145Y-14023926D02*
X11135098Y-14033450D01*
X11135098Y-14033450D02*
X11125574Y-14042974D01*
X11125574Y-14042974D02*
X11116050Y-14062022D01*
X11116050Y-14062022D02*
X11116050Y-14100117D01*
X11116050Y-14100117D02*
X11125574Y-14119165D01*
X11125574Y-14119165D02*
X11135098Y-14128688D01*
X11135098Y-14128688D02*
X11154145Y-14138212D01*
X11154145Y-14138212D02*
X11192240Y-14138212D01*
X11192240Y-14138212D02*
X11211288Y-14128688D01*
X11211288Y-14128688D02*
X11220812Y-14119165D01*
X11220812Y-14119165D02*
X11230336Y-14100117D01*
X11230336Y-14100117D02*
X11230336Y-14062022D01*
X11230336Y-14062022D02*
X11220812Y-14042974D01*
X11220812Y-14042974D02*
X11211288Y-14033450D01*
X11211288Y-14033450D02*
X11192240Y-14023926D01*
X11401764Y-13938212D02*
X11363669Y-13938212D01*
X11363669Y-13938212D02*
X11344621Y-13947736D01*
X11344621Y-13947736D02*
X11335098Y-13957260D01*
X11335098Y-13957260D02*
X11316050Y-13985831D01*
X11316050Y-13985831D02*
X11306526Y-14023926D01*
X11306526Y-14023926D02*
X11306526Y-14100117D01*
X11306526Y-14100117D02*
X11316050Y-14119165D01*
X11316050Y-14119165D02*
X11325574Y-14128688D01*
X11325574Y-14128688D02*
X11344621Y-14138212D01*
X11344621Y-14138212D02*
X11382717Y-14138212D01*
X11382717Y-14138212D02*
X11401764Y-14128688D01*
X11401764Y-14128688D02*
X11411288Y-14119165D01*
X11411288Y-14119165D02*
X11420812Y-14100117D01*
X11420812Y-14100117D02*
X11420812Y-14052498D01*
X11420812Y-14052498D02*
X11411288Y-14033450D01*
X11411288Y-14033450D02*
X11401764Y-14023926D01*
X11401764Y-14023926D02*
X11382717Y-14014403D01*
X11382717Y-14014403D02*
X11344621Y-14014403D01*
X11344621Y-14014403D02*
X11325574Y-14023926D01*
X11325574Y-14023926D02*
X11316050Y-14033450D01*
X11316050Y-14033450D02*
X11306526Y-14052498D01*
X11592240Y-13938212D02*
X11554145Y-13938212D01*
X11554145Y-13938212D02*
X11535098Y-13947736D01*
X11535098Y-13947736D02*
X11525574Y-13957260D01*
X11525574Y-13957260D02*
X11506526Y-13985831D01*
X11506526Y-13985831D02*
X11497002Y-14023926D01*
X11497002Y-14023926D02*
X11497002Y-14100117D01*
X11497002Y-14100117D02*
X11506526Y-14119165D01*
X11506526Y-14119165D02*
X11516050Y-14128688D01*
X11516050Y-14128688D02*
X11535098Y-14138212D01*
X11535098Y-14138212D02*
X11573193Y-14138212D01*
X11573193Y-14138212D02*
X11592240Y-14128688D01*
X11592240Y-14128688D02*
X11601764Y-14119165D01*
X11601764Y-14119165D02*
X11611288Y-14100117D01*
X11611288Y-14100117D02*
X11611288Y-14052498D01*
X11611288Y-14052498D02*
X11601764Y-14033450D01*
X11601764Y-14033450D02*
X11592240Y-14023926D01*
X11592240Y-14023926D02*
X11573193Y-14014403D01*
X11573193Y-14014403D02*
X11535098Y-14014403D01*
X11535098Y-14014403D02*
X11516050Y-14023926D01*
X11516050Y-14023926D02*
X11506526Y-14033450D01*
X11506526Y-14033450D02*
X11497002Y-14052498D01*
X11687479Y-13938212D02*
X11687479Y-13976307D01*
X11763669Y-13938212D02*
X11763669Y-13976307D01*
X12058907Y-14214403D02*
X12049383Y-14204879D01*
X12049383Y-14204879D02*
X12030336Y-14176307D01*
X12030336Y-14176307D02*
X12020812Y-14157260D01*
X12020812Y-14157260D02*
X12011288Y-14128688D01*
X12011288Y-14128688D02*
X12001764Y-14081069D01*
X12001764Y-14081069D02*
X12001764Y-14042974D01*
X12001764Y-14042974D02*
X12011288Y-13995355D01*
X12011288Y-13995355D02*
X12020812Y-13966784D01*
X12020812Y-13966784D02*
X12030336Y-13947736D01*
X12030336Y-13947736D02*
X12049383Y-13919165D01*
X12049383Y-13919165D02*
X12058907Y-13909641D01*
X12230336Y-13938212D02*
X12135098Y-13938212D01*
X12135098Y-13938212D02*
X12125574Y-14033450D01*
X12125574Y-14033450D02*
X12135098Y-14023926D01*
X12135098Y-14023926D02*
X12154145Y-14014403D01*
X12154145Y-14014403D02*
X12201764Y-14014403D01*
X12201764Y-14014403D02*
X12220812Y-14023926D01*
X12220812Y-14023926D02*
X12230336Y-14033450D01*
X12230336Y-14033450D02*
X12239860Y-14052498D01*
X12239860Y-14052498D02*
X12239860Y-14100117D01*
X12239860Y-14100117D02*
X12230336Y-14119165D01*
X12230336Y-14119165D02*
X12220812Y-14128688D01*
X12220812Y-14128688D02*
X12201764Y-14138212D01*
X12201764Y-14138212D02*
X12154145Y-14138212D01*
X12154145Y-14138212D02*
X12135098Y-14128688D01*
X12135098Y-14128688D02*
X12125574Y-14119165D01*
X12477955Y-14138212D02*
X12477955Y-13938212D01*
X12563669Y-14138212D02*
X12563669Y-14033450D01*
X12563669Y-14033450D02*
X12554145Y-14014403D01*
X12554145Y-14014403D02*
X12535098Y-14004879D01*
X12535098Y-14004879D02*
X12506526Y-14004879D01*
X12506526Y-14004879D02*
X12487479Y-14014403D01*
X12487479Y-14014403D02*
X12477955Y-14023926D01*
X12687479Y-14138212D02*
X12668431Y-14128688D01*
X12668431Y-14128688D02*
X12658907Y-14119165D01*
X12658907Y-14119165D02*
X12649383Y-14100117D01*
X12649383Y-14100117D02*
X12649383Y-14042974D01*
X12649383Y-14042974D02*
X12658907Y-14023926D01*
X12658907Y-14023926D02*
X12668431Y-14014403D01*
X12668431Y-14014403D02*
X12687479Y-14004879D01*
X12687479Y-14004879D02*
X12716050Y-14004879D01*
X12716050Y-14004879D02*
X12735098Y-14014403D01*
X12735098Y-14014403D02*
X12744622Y-14023926D01*
X12744622Y-14023926D02*
X12754145Y-14042974D01*
X12754145Y-14042974D02*
X12754145Y-14100117D01*
X12754145Y-14100117D02*
X12744622Y-14119165D01*
X12744622Y-14119165D02*
X12735098Y-14128688D01*
X12735098Y-14128688D02*
X12716050Y-14138212D01*
X12716050Y-14138212D02*
X12687479Y-14138212D01*
X12868431Y-14138212D02*
X12849383Y-14128688D01*
X12849383Y-14128688D02*
X12839860Y-14109641D01*
X12839860Y-14109641D02*
X12839860Y-13938212D01*
X13020812Y-14128688D02*
X13001764Y-14138212D01*
X13001764Y-14138212D02*
X12963669Y-14138212D01*
X12963669Y-14138212D02*
X12944622Y-14128688D01*
X12944622Y-14128688D02*
X12935098Y-14109641D01*
X12935098Y-14109641D02*
X12935098Y-14033450D01*
X12935098Y-14033450D02*
X12944622Y-14014403D01*
X12944622Y-14014403D02*
X12963669Y-14004879D01*
X12963669Y-14004879D02*
X13001764Y-14004879D01*
X13001764Y-14004879D02*
X13020812Y-14014403D01*
X13020812Y-14014403D02*
X13030336Y-14033450D01*
X13030336Y-14033450D02*
X13030336Y-14052498D01*
X13030336Y-14052498D02*
X12935098Y-14071546D01*
X13106526Y-14128688D02*
X13125574Y-14138212D01*
X13125574Y-14138212D02*
X13163669Y-14138212D01*
X13163669Y-14138212D02*
X13182717Y-14128688D01*
X13182717Y-14128688D02*
X13192241Y-14109641D01*
X13192241Y-14109641D02*
X13192241Y-14100117D01*
X13192241Y-14100117D02*
X13182717Y-14081069D01*
X13182717Y-14081069D02*
X13163669Y-14071546D01*
X13163669Y-14071546D02*
X13135098Y-14071546D01*
X13135098Y-14071546D02*
X13116050Y-14062022D01*
X13116050Y-14062022D02*
X13106526Y-14042974D01*
X13106526Y-14042974D02*
X13106526Y-14033450D01*
X13106526Y-14033450D02*
X13116050Y-14014403D01*
X13116050Y-14014403D02*
X13135098Y-14004879D01*
X13135098Y-14004879D02*
X13163669Y-14004879D01*
X13163669Y-14004879D02*
X13182717Y-14014403D01*
X13258907Y-14214403D02*
X13268431Y-14204879D01*
X13268431Y-14204879D02*
X13287479Y-14176307D01*
X13287479Y-14176307D02*
X13297003Y-14157260D01*
X13297003Y-14157260D02*
X13306526Y-14128688D01*
X13306526Y-14128688D02*
X13316050Y-14081069D01*
X13316050Y-14081069D02*
X13316050Y-14042974D01*
X13316050Y-14042974D02*
X13306526Y-13995355D01*
X13306526Y-13995355D02*
X13297003Y-13966784D01*
X13297003Y-13966784D02*
X13287479Y-13947736D01*
X13287479Y-13947736D02*
X13268431Y-13919165D01*
X13268431Y-13919165D02*
X13258907Y-13909641D01*
X13620812Y-14214403D02*
X13611288Y-14204879D01*
X13611288Y-14204879D02*
X13592241Y-14176307D01*
X13592241Y-14176307D02*
X13582717Y-14157260D01*
X13582717Y-14157260D02*
X13573193Y-14128688D01*
X13573193Y-14128688D02*
X13563669Y-14081069D01*
X13563669Y-14081069D02*
X13563669Y-14042974D01*
X13563669Y-14042974D02*
X13573193Y-13995355D01*
X13573193Y-13995355D02*
X13582717Y-13966784D01*
X13582717Y-13966784D02*
X13592241Y-13947736D01*
X13592241Y-13947736D02*
X13611288Y-13919165D01*
X13611288Y-13919165D02*
X13620812Y-13909641D01*
X13697003Y-14004879D02*
X13697003Y-14138212D01*
X13697003Y-14023926D02*
X13706526Y-14014403D01*
X13706526Y-14014403D02*
X13725574Y-14004879D01*
X13725574Y-14004879D02*
X13754145Y-14004879D01*
X13754145Y-14004879D02*
X13773193Y-14014403D01*
X13773193Y-14014403D02*
X13782717Y-14033450D01*
X13782717Y-14033450D02*
X13782717Y-14138212D01*
X13906526Y-14138212D02*
X13887479Y-14128688D01*
X13887479Y-14128688D02*
X13877955Y-14119165D01*
X13877955Y-14119165D02*
X13868431Y-14100117D01*
X13868431Y-14100117D02*
X13868431Y-14042974D01*
X13868431Y-14042974D02*
X13877955Y-14023926D01*
X13877955Y-14023926D02*
X13887479Y-14014403D01*
X13887479Y-14014403D02*
X13906526Y-14004879D01*
X13906526Y-14004879D02*
X13935098Y-14004879D01*
X13935098Y-14004879D02*
X13954145Y-14014403D01*
X13954145Y-14014403D02*
X13963669Y-14023926D01*
X13963669Y-14023926D02*
X13973193Y-14042974D01*
X13973193Y-14042974D02*
X13973193Y-14100117D01*
X13973193Y-14100117D02*
X13963669Y-14119165D01*
X13963669Y-14119165D02*
X13954145Y-14128688D01*
X13954145Y-14128688D02*
X13935098Y-14138212D01*
X13935098Y-14138212D02*
X13906526Y-14138212D01*
X14030336Y-14004879D02*
X14106526Y-14004879D01*
X14058907Y-13938212D02*
X14058907Y-14109641D01*
X14058907Y-14109641D02*
X14068431Y-14128688D01*
X14068431Y-14128688D02*
X14087479Y-14138212D01*
X14087479Y-14138212D02*
X14106526Y-14138212D01*
X14325574Y-14004879D02*
X14325574Y-14204879D01*
X14325574Y-14014403D02*
X14344622Y-14004879D01*
X14344622Y-14004879D02*
X14382717Y-14004879D01*
X14382717Y-14004879D02*
X14401765Y-14014403D01*
X14401765Y-14014403D02*
X14411288Y-14023926D01*
X14411288Y-14023926D02*
X14420812Y-14042974D01*
X14420812Y-14042974D02*
X14420812Y-14100117D01*
X14420812Y-14100117D02*
X14411288Y-14119165D01*
X14411288Y-14119165D02*
X14401765Y-14128688D01*
X14401765Y-14128688D02*
X14382717Y-14138212D01*
X14382717Y-14138212D02*
X14344622Y-14138212D01*
X14344622Y-14138212D02*
X14325574Y-14128688D01*
X14535098Y-14138212D02*
X14516050Y-14128688D01*
X14516050Y-14128688D02*
X14506526Y-14109641D01*
X14506526Y-14109641D02*
X14506526Y-13938212D01*
X14697003Y-14138212D02*
X14697003Y-14033450D01*
X14697003Y-14033450D02*
X14687479Y-14014403D01*
X14687479Y-14014403D02*
X14668431Y-14004879D01*
X14668431Y-14004879D02*
X14630336Y-14004879D01*
X14630336Y-14004879D02*
X14611288Y-14014403D01*
X14697003Y-14128688D02*
X14677955Y-14138212D01*
X14677955Y-14138212D02*
X14630336Y-14138212D01*
X14630336Y-14138212D02*
X14611288Y-14128688D01*
X14611288Y-14128688D02*
X14601765Y-14109641D01*
X14601765Y-14109641D02*
X14601765Y-14090593D01*
X14601765Y-14090593D02*
X14611288Y-14071546D01*
X14611288Y-14071546D02*
X14630336Y-14062022D01*
X14630336Y-14062022D02*
X14677955Y-14062022D01*
X14677955Y-14062022D02*
X14697003Y-14052498D01*
X14763669Y-14004879D02*
X14839860Y-14004879D01*
X14792241Y-13938212D02*
X14792241Y-14109641D01*
X14792241Y-14109641D02*
X14801765Y-14128688D01*
X14801765Y-14128688D02*
X14820812Y-14138212D01*
X14820812Y-14138212D02*
X14839860Y-14138212D01*
X14982717Y-14128688D02*
X14963669Y-14138212D01*
X14963669Y-14138212D02*
X14925574Y-14138212D01*
X14925574Y-14138212D02*
X14906526Y-14128688D01*
X14906526Y-14128688D02*
X14897003Y-14109641D01*
X14897003Y-14109641D02*
X14897003Y-14033450D01*
X14897003Y-14033450D02*
X14906526Y-14014403D01*
X14906526Y-14014403D02*
X14925574Y-14004879D01*
X14925574Y-14004879D02*
X14963669Y-14004879D01*
X14963669Y-14004879D02*
X14982717Y-14014403D01*
X14982717Y-14014403D02*
X14992241Y-14033450D01*
X14992241Y-14033450D02*
X14992241Y-14052498D01*
X14992241Y-14052498D02*
X14897003Y-14071546D01*
X15163669Y-14138212D02*
X15163669Y-13938212D01*
X15163669Y-14128688D02*
X15144622Y-14138212D01*
X15144622Y-14138212D02*
X15106526Y-14138212D01*
X15106526Y-14138212D02*
X15087479Y-14128688D01*
X15087479Y-14128688D02*
X15077955Y-14119165D01*
X15077955Y-14119165D02*
X15068431Y-14100117D01*
X15068431Y-14100117D02*
X15068431Y-14042974D01*
X15068431Y-14042974D02*
X15077955Y-14023926D01*
X15077955Y-14023926D02*
X15087479Y-14014403D01*
X15087479Y-14014403D02*
X15106526Y-14004879D01*
X15106526Y-14004879D02*
X15144622Y-14004879D01*
X15144622Y-14004879D02*
X15163669Y-14014403D01*
X15239860Y-14214403D02*
X15249384Y-14204879D01*
X15249384Y-14204879D02*
X15268431Y-14176307D01*
X15268431Y-14176307D02*
X15277955Y-14157260D01*
X15277955Y-14157260D02*
X15287479Y-14128688D01*
X15287479Y-14128688D02*
X15297003Y-14081069D01*
X15297003Y-14081069D02*
X15297003Y-14042974D01*
X15297003Y-14042974D02*
X15287479Y-13995355D01*
X15287479Y-13995355D02*
X15277955Y-13966784D01*
X15277955Y-13966784D02*
X15268431Y-13947736D01*
X15268431Y-13947736D02*
X15249384Y-13919165D01*
X15249384Y-13919165D02*
X15239860Y-13909641D01*
X8483844Y-14366728D02*
G75*
G03*
X8483844Y-14366728I-100000J0D01*
G01*
X8725574Y-14258212D02*
X8849383Y-14258212D01*
X8849383Y-14258212D02*
X8782716Y-14334403D01*
X8782716Y-14334403D02*
X8811288Y-14334403D01*
X8811288Y-14334403D02*
X8830336Y-14343926D01*
X8830336Y-14343926D02*
X8839859Y-14353450D01*
X8839859Y-14353450D02*
X8849383Y-14372498D01*
X8849383Y-14372498D02*
X8849383Y-14420117D01*
X8849383Y-14420117D02*
X8839859Y-14439165D01*
X8839859Y-14439165D02*
X8830336Y-14448688D01*
X8830336Y-14448688D02*
X8811288Y-14458212D01*
X8811288Y-14458212D02*
X8754145Y-14458212D01*
X8754145Y-14458212D02*
X8735097Y-14448688D01*
X8735097Y-14448688D02*
X8725574Y-14439165D01*
X8935097Y-14439165D02*
X8944621Y-14448688D01*
X8944621Y-14448688D02*
X8935097Y-14458212D01*
X8935097Y-14458212D02*
X8925574Y-14448688D01*
X8925574Y-14448688D02*
X8935097Y-14439165D01*
X8935097Y-14439165D02*
X8935097Y-14458212D01*
X9020812Y-14277260D02*
X9030336Y-14267736D01*
X9030336Y-14267736D02*
X9049383Y-14258212D01*
X9049383Y-14258212D02*
X9097002Y-14258212D01*
X9097002Y-14258212D02*
X9116050Y-14267736D01*
X9116050Y-14267736D02*
X9125574Y-14277260D01*
X9125574Y-14277260D02*
X9135097Y-14296307D01*
X9135097Y-14296307D02*
X9135097Y-14315355D01*
X9135097Y-14315355D02*
X9125574Y-14343926D01*
X9125574Y-14343926D02*
X9011288Y-14458212D01*
X9011288Y-14458212D02*
X9135097Y-14458212D01*
X9258907Y-14258212D02*
X9277955Y-14258212D01*
X9277955Y-14258212D02*
X9297002Y-14267736D01*
X9297002Y-14267736D02*
X9306526Y-14277260D01*
X9306526Y-14277260D02*
X9316050Y-14296307D01*
X9316050Y-14296307D02*
X9325574Y-14334403D01*
X9325574Y-14334403D02*
X9325574Y-14382022D01*
X9325574Y-14382022D02*
X9316050Y-14420117D01*
X9316050Y-14420117D02*
X9306526Y-14439165D01*
X9306526Y-14439165D02*
X9297002Y-14448688D01*
X9297002Y-14448688D02*
X9277955Y-14458212D01*
X9277955Y-14458212D02*
X9258907Y-14458212D01*
X9258907Y-14458212D02*
X9239859Y-14448688D01*
X9239859Y-14448688D02*
X9230336Y-14439165D01*
X9230336Y-14439165D02*
X9220812Y-14420117D01*
X9220812Y-14420117D02*
X9211288Y-14382022D01*
X9211288Y-14382022D02*
X9211288Y-14334403D01*
X9211288Y-14334403D02*
X9220812Y-14296307D01*
X9220812Y-14296307D02*
X9230336Y-14277260D01*
X9230336Y-14277260D02*
X9239859Y-14267736D01*
X9239859Y-14267736D02*
X9258907Y-14258212D01*
X9449383Y-14258212D02*
X9468431Y-14258212D01*
X9468431Y-14258212D02*
X9487478Y-14267736D01*
X9487478Y-14267736D02*
X9497002Y-14277260D01*
X9497002Y-14277260D02*
X9506526Y-14296307D01*
X9506526Y-14296307D02*
X9516050Y-14334403D01*
X9516050Y-14334403D02*
X9516050Y-14382022D01*
X9516050Y-14382022D02*
X9506526Y-14420117D01*
X9506526Y-14420117D02*
X9497002Y-14439165D01*
X9497002Y-14439165D02*
X9487478Y-14448688D01*
X9487478Y-14448688D02*
X9468431Y-14458212D01*
X9468431Y-14458212D02*
X9449383Y-14458212D01*
X9449383Y-14458212D02*
X9430336Y-14448688D01*
X9430336Y-14448688D02*
X9420812Y-14439165D01*
X9420812Y-14439165D02*
X9411288Y-14420117D01*
X9411288Y-14420117D02*
X9401764Y-14382022D01*
X9401764Y-14382022D02*
X9401764Y-14334403D01*
X9401764Y-14334403D02*
X9411288Y-14296307D01*
X9411288Y-14296307D02*
X9420812Y-14277260D01*
X9420812Y-14277260D02*
X9430336Y-14267736D01*
X9430336Y-14267736D02*
X9449383Y-14258212D01*
X9601764Y-14458212D02*
X9601764Y-14324879D01*
X9601764Y-14343926D02*
X9611288Y-14334403D01*
X9611288Y-14334403D02*
X9630336Y-14324879D01*
X9630336Y-14324879D02*
X9658907Y-14324879D01*
X9658907Y-14324879D02*
X9677955Y-14334403D01*
X9677955Y-14334403D02*
X9687478Y-14353450D01*
X9687478Y-14353450D02*
X9687478Y-14458212D01*
X9687478Y-14353450D02*
X9697002Y-14334403D01*
X9697002Y-14334403D02*
X9716050Y-14324879D01*
X9716050Y-14324879D02*
X9744621Y-14324879D01*
X9744621Y-14324879D02*
X9763669Y-14334403D01*
X9763669Y-14334403D02*
X9773193Y-14353450D01*
X9773193Y-14353450D02*
X9773193Y-14458212D01*
X9868431Y-14458212D02*
X9868431Y-14324879D01*
X9868431Y-14343926D02*
X9877955Y-14334403D01*
X9877955Y-14334403D02*
X9897002Y-14324879D01*
X9897002Y-14324879D02*
X9925574Y-14324879D01*
X9925574Y-14324879D02*
X9944621Y-14334403D01*
X9944621Y-14334403D02*
X9954145Y-14353450D01*
X9954145Y-14353450D02*
X9954145Y-14458212D01*
X9954145Y-14353450D02*
X9963669Y-14334403D01*
X9963669Y-14334403D02*
X9982717Y-14324879D01*
X9982717Y-14324879D02*
X10011288Y-14324879D01*
X10011288Y-14324879D02*
X10030336Y-14334403D01*
X10030336Y-14334403D02*
X10039859Y-14353450D01*
X10039859Y-14353450D02*
X10039859Y-14458212D01*
X10430336Y-14248688D02*
X10258907Y-14505831D01*
X10687479Y-14258212D02*
X10706526Y-14258212D01*
X10706526Y-14258212D02*
X10725574Y-14267736D01*
X10725574Y-14267736D02*
X10735098Y-14277260D01*
X10735098Y-14277260D02*
X10744621Y-14296307D01*
X10744621Y-14296307D02*
X10754145Y-14334403D01*
X10754145Y-14334403D02*
X10754145Y-14382022D01*
X10754145Y-14382022D02*
X10744621Y-14420117D01*
X10744621Y-14420117D02*
X10735098Y-14439165D01*
X10735098Y-14439165D02*
X10725574Y-14448688D01*
X10725574Y-14448688D02*
X10706526Y-14458212D01*
X10706526Y-14458212D02*
X10687479Y-14458212D01*
X10687479Y-14458212D02*
X10668431Y-14448688D01*
X10668431Y-14448688D02*
X10658907Y-14439165D01*
X10658907Y-14439165D02*
X10649383Y-14420117D01*
X10649383Y-14420117D02*
X10639860Y-14382022D01*
X10639860Y-14382022D02*
X10639860Y-14334403D01*
X10639860Y-14334403D02*
X10649383Y-14296307D01*
X10649383Y-14296307D02*
X10658907Y-14277260D01*
X10658907Y-14277260D02*
X10668431Y-14267736D01*
X10668431Y-14267736D02*
X10687479Y-14258212D01*
X10839860Y-14439165D02*
X10849383Y-14448688D01*
X10849383Y-14448688D02*
X10839860Y-14458212D01*
X10839860Y-14458212D02*
X10830336Y-14448688D01*
X10830336Y-14448688D02*
X10839860Y-14439165D01*
X10839860Y-14439165D02*
X10839860Y-14458212D01*
X11039860Y-14458212D02*
X10925574Y-14458212D01*
X10982717Y-14458212D02*
X10982717Y-14258212D01*
X10982717Y-14258212D02*
X10963669Y-14286784D01*
X10963669Y-14286784D02*
X10944621Y-14305831D01*
X10944621Y-14305831D02*
X10925574Y-14315355D01*
X11116050Y-14277260D02*
X11125574Y-14267736D01*
X11125574Y-14267736D02*
X11144621Y-14258212D01*
X11144621Y-14258212D02*
X11192240Y-14258212D01*
X11192240Y-14258212D02*
X11211288Y-14267736D01*
X11211288Y-14267736D02*
X11220812Y-14277260D01*
X11220812Y-14277260D02*
X11230336Y-14296307D01*
X11230336Y-14296307D02*
X11230336Y-14315355D01*
X11230336Y-14315355D02*
X11220812Y-14343926D01*
X11220812Y-14343926D02*
X11106526Y-14458212D01*
X11106526Y-14458212D02*
X11230336Y-14458212D01*
X11401764Y-14258212D02*
X11363669Y-14258212D01*
X11363669Y-14258212D02*
X11344621Y-14267736D01*
X11344621Y-14267736D02*
X11335098Y-14277260D01*
X11335098Y-14277260D02*
X11316050Y-14305831D01*
X11316050Y-14305831D02*
X11306526Y-14343926D01*
X11306526Y-14343926D02*
X11306526Y-14420117D01*
X11306526Y-14420117D02*
X11316050Y-14439165D01*
X11316050Y-14439165D02*
X11325574Y-14448688D01*
X11325574Y-14448688D02*
X11344621Y-14458212D01*
X11344621Y-14458212D02*
X11382717Y-14458212D01*
X11382717Y-14458212D02*
X11401764Y-14448688D01*
X11401764Y-14448688D02*
X11411288Y-14439165D01*
X11411288Y-14439165D02*
X11420812Y-14420117D01*
X11420812Y-14420117D02*
X11420812Y-14372498D01*
X11420812Y-14372498D02*
X11411288Y-14353450D01*
X11411288Y-14353450D02*
X11401764Y-14343926D01*
X11401764Y-14343926D02*
X11382717Y-14334403D01*
X11382717Y-14334403D02*
X11344621Y-14334403D01*
X11344621Y-14334403D02*
X11325574Y-14343926D01*
X11325574Y-14343926D02*
X11316050Y-14353450D01*
X11316050Y-14353450D02*
X11306526Y-14372498D01*
X11544621Y-14258212D02*
X11563669Y-14258212D01*
X11563669Y-14258212D02*
X11582717Y-14267736D01*
X11582717Y-14267736D02*
X11592240Y-14277260D01*
X11592240Y-14277260D02*
X11601764Y-14296307D01*
X11601764Y-14296307D02*
X11611288Y-14334403D01*
X11611288Y-14334403D02*
X11611288Y-14382022D01*
X11611288Y-14382022D02*
X11601764Y-14420117D01*
X11601764Y-14420117D02*
X11592240Y-14439165D01*
X11592240Y-14439165D02*
X11582717Y-14448688D01*
X11582717Y-14448688D02*
X11563669Y-14458212D01*
X11563669Y-14458212D02*
X11544621Y-14458212D01*
X11544621Y-14458212D02*
X11525574Y-14448688D01*
X11525574Y-14448688D02*
X11516050Y-14439165D01*
X11516050Y-14439165D02*
X11506526Y-14420117D01*
X11506526Y-14420117D02*
X11497002Y-14382022D01*
X11497002Y-14382022D02*
X11497002Y-14334403D01*
X11497002Y-14334403D02*
X11506526Y-14296307D01*
X11506526Y-14296307D02*
X11516050Y-14277260D01*
X11516050Y-14277260D02*
X11525574Y-14267736D01*
X11525574Y-14267736D02*
X11544621Y-14258212D01*
X11687479Y-14258212D02*
X11687479Y-14296307D01*
X11763669Y-14258212D02*
X11763669Y-14296307D01*
X12058907Y-14534403D02*
X12049383Y-14524879D01*
X12049383Y-14524879D02*
X12030336Y-14496307D01*
X12030336Y-14496307D02*
X12020812Y-14477260D01*
X12020812Y-14477260D02*
X12011288Y-14448688D01*
X12011288Y-14448688D02*
X12001764Y-14401069D01*
X12001764Y-14401069D02*
X12001764Y-14362974D01*
X12001764Y-14362974D02*
X12011288Y-14315355D01*
X12011288Y-14315355D02*
X12020812Y-14286784D01*
X12020812Y-14286784D02*
X12030336Y-14267736D01*
X12030336Y-14267736D02*
X12049383Y-14239165D01*
X12049383Y-14239165D02*
X12058907Y-14229641D01*
X12116050Y-14258212D02*
X12239860Y-14258212D01*
X12239860Y-14258212D02*
X12173193Y-14334403D01*
X12173193Y-14334403D02*
X12201764Y-14334403D01*
X12201764Y-14334403D02*
X12220812Y-14343926D01*
X12220812Y-14343926D02*
X12230336Y-14353450D01*
X12230336Y-14353450D02*
X12239860Y-14372498D01*
X12239860Y-14372498D02*
X12239860Y-14420117D01*
X12239860Y-14420117D02*
X12230336Y-14439165D01*
X12230336Y-14439165D02*
X12220812Y-14448688D01*
X12220812Y-14448688D02*
X12201764Y-14458212D01*
X12201764Y-14458212D02*
X12144621Y-14458212D01*
X12144621Y-14458212D02*
X12125574Y-14448688D01*
X12125574Y-14448688D02*
X12116050Y-14439165D01*
X12477955Y-14458212D02*
X12477955Y-14258212D01*
X12563669Y-14458212D02*
X12563669Y-14353450D01*
X12563669Y-14353450D02*
X12554145Y-14334403D01*
X12554145Y-14334403D02*
X12535098Y-14324879D01*
X12535098Y-14324879D02*
X12506526Y-14324879D01*
X12506526Y-14324879D02*
X12487479Y-14334403D01*
X12487479Y-14334403D02*
X12477955Y-14343926D01*
X12687479Y-14458212D02*
X12668431Y-14448688D01*
X12668431Y-14448688D02*
X12658907Y-14439165D01*
X12658907Y-14439165D02*
X12649383Y-14420117D01*
X12649383Y-14420117D02*
X12649383Y-14362974D01*
X12649383Y-14362974D02*
X12658907Y-14343926D01*
X12658907Y-14343926D02*
X12668431Y-14334403D01*
X12668431Y-14334403D02*
X12687479Y-14324879D01*
X12687479Y-14324879D02*
X12716050Y-14324879D01*
X12716050Y-14324879D02*
X12735098Y-14334403D01*
X12735098Y-14334403D02*
X12744622Y-14343926D01*
X12744622Y-14343926D02*
X12754145Y-14362974D01*
X12754145Y-14362974D02*
X12754145Y-14420117D01*
X12754145Y-14420117D02*
X12744622Y-14439165D01*
X12744622Y-14439165D02*
X12735098Y-14448688D01*
X12735098Y-14448688D02*
X12716050Y-14458212D01*
X12716050Y-14458212D02*
X12687479Y-14458212D01*
X12868431Y-14458212D02*
X12849383Y-14448688D01*
X12849383Y-14448688D02*
X12839860Y-14429641D01*
X12839860Y-14429641D02*
X12839860Y-14258212D01*
X13020812Y-14448688D02*
X13001764Y-14458212D01*
X13001764Y-14458212D02*
X12963669Y-14458212D01*
X12963669Y-14458212D02*
X12944622Y-14448688D01*
X12944622Y-14448688D02*
X12935098Y-14429641D01*
X12935098Y-14429641D02*
X12935098Y-14353450D01*
X12935098Y-14353450D02*
X12944622Y-14334403D01*
X12944622Y-14334403D02*
X12963669Y-14324879D01*
X12963669Y-14324879D02*
X13001764Y-14324879D01*
X13001764Y-14324879D02*
X13020812Y-14334403D01*
X13020812Y-14334403D02*
X13030336Y-14353450D01*
X13030336Y-14353450D02*
X13030336Y-14372498D01*
X13030336Y-14372498D02*
X12935098Y-14391546D01*
X13106526Y-14448688D02*
X13125574Y-14458212D01*
X13125574Y-14458212D02*
X13163669Y-14458212D01*
X13163669Y-14458212D02*
X13182717Y-14448688D01*
X13182717Y-14448688D02*
X13192241Y-14429641D01*
X13192241Y-14429641D02*
X13192241Y-14420117D01*
X13192241Y-14420117D02*
X13182717Y-14401069D01*
X13182717Y-14401069D02*
X13163669Y-14391546D01*
X13163669Y-14391546D02*
X13135098Y-14391546D01*
X13135098Y-14391546D02*
X13116050Y-14382022D01*
X13116050Y-14382022D02*
X13106526Y-14362974D01*
X13106526Y-14362974D02*
X13106526Y-14353450D01*
X13106526Y-14353450D02*
X13116050Y-14334403D01*
X13116050Y-14334403D02*
X13135098Y-14324879D01*
X13135098Y-14324879D02*
X13163669Y-14324879D01*
X13163669Y-14324879D02*
X13182717Y-14334403D01*
X13258907Y-14534403D02*
X13268431Y-14524879D01*
X13268431Y-14524879D02*
X13287479Y-14496307D01*
X13287479Y-14496307D02*
X13297003Y-14477260D01*
X13297003Y-14477260D02*
X13306526Y-14448688D01*
X13306526Y-14448688D02*
X13316050Y-14401069D01*
X13316050Y-14401069D02*
X13316050Y-14362974D01*
X13316050Y-14362974D02*
X13306526Y-14315355D01*
X13306526Y-14315355D02*
X13297003Y-14286784D01*
X13297003Y-14286784D02*
X13287479Y-14267736D01*
X13287479Y-14267736D02*
X13268431Y-14239165D01*
X13268431Y-14239165D02*
X13258907Y-14229641D01*
X13620812Y-14534403D02*
X13611288Y-14524879D01*
X13611288Y-14524879D02*
X13592241Y-14496307D01*
X13592241Y-14496307D02*
X13582717Y-14477260D01*
X13582717Y-14477260D02*
X13573193Y-14448688D01*
X13573193Y-14448688D02*
X13563669Y-14401069D01*
X13563669Y-14401069D02*
X13563669Y-14362974D01*
X13563669Y-14362974D02*
X13573193Y-14315355D01*
X13573193Y-14315355D02*
X13582717Y-14286784D01*
X13582717Y-14286784D02*
X13592241Y-14267736D01*
X13592241Y-14267736D02*
X13611288Y-14239165D01*
X13611288Y-14239165D02*
X13620812Y-14229641D01*
X13697003Y-14324879D02*
X13697003Y-14458212D01*
X13697003Y-14343926D02*
X13706526Y-14334403D01*
X13706526Y-14334403D02*
X13725574Y-14324879D01*
X13725574Y-14324879D02*
X13754145Y-14324879D01*
X13754145Y-14324879D02*
X13773193Y-14334403D01*
X13773193Y-14334403D02*
X13782717Y-14353450D01*
X13782717Y-14353450D02*
X13782717Y-14458212D01*
X13906526Y-14458212D02*
X13887479Y-14448688D01*
X13887479Y-14448688D02*
X13877955Y-14439165D01*
X13877955Y-14439165D02*
X13868431Y-14420117D01*
X13868431Y-14420117D02*
X13868431Y-14362974D01*
X13868431Y-14362974D02*
X13877955Y-14343926D01*
X13877955Y-14343926D02*
X13887479Y-14334403D01*
X13887479Y-14334403D02*
X13906526Y-14324879D01*
X13906526Y-14324879D02*
X13935098Y-14324879D01*
X13935098Y-14324879D02*
X13954145Y-14334403D01*
X13954145Y-14334403D02*
X13963669Y-14343926D01*
X13963669Y-14343926D02*
X13973193Y-14362974D01*
X13973193Y-14362974D02*
X13973193Y-14420117D01*
X13973193Y-14420117D02*
X13963669Y-14439165D01*
X13963669Y-14439165D02*
X13954145Y-14448688D01*
X13954145Y-14448688D02*
X13935098Y-14458212D01*
X13935098Y-14458212D02*
X13906526Y-14458212D01*
X14030336Y-14324879D02*
X14106526Y-14324879D01*
X14058907Y-14258212D02*
X14058907Y-14429641D01*
X14058907Y-14429641D02*
X14068431Y-14448688D01*
X14068431Y-14448688D02*
X14087479Y-14458212D01*
X14087479Y-14458212D02*
X14106526Y-14458212D01*
X14325574Y-14324879D02*
X14325574Y-14524879D01*
X14325574Y-14334403D02*
X14344622Y-14324879D01*
X14344622Y-14324879D02*
X14382717Y-14324879D01*
X14382717Y-14324879D02*
X14401765Y-14334403D01*
X14401765Y-14334403D02*
X14411288Y-14343926D01*
X14411288Y-14343926D02*
X14420812Y-14362974D01*
X14420812Y-14362974D02*
X14420812Y-14420117D01*
X14420812Y-14420117D02*
X14411288Y-14439165D01*
X14411288Y-14439165D02*
X14401765Y-14448688D01*
X14401765Y-14448688D02*
X14382717Y-14458212D01*
X14382717Y-14458212D02*
X14344622Y-14458212D01*
X14344622Y-14458212D02*
X14325574Y-14448688D01*
X14535098Y-14458212D02*
X14516050Y-14448688D01*
X14516050Y-14448688D02*
X14506526Y-14429641D01*
X14506526Y-14429641D02*
X14506526Y-14258212D01*
X14697003Y-14458212D02*
X14697003Y-14353450D01*
X14697003Y-14353450D02*
X14687479Y-14334403D01*
X14687479Y-14334403D02*
X14668431Y-14324879D01*
X14668431Y-14324879D02*
X14630336Y-14324879D01*
X14630336Y-14324879D02*
X14611288Y-14334403D01*
X14697003Y-14448688D02*
X14677955Y-14458212D01*
X14677955Y-14458212D02*
X14630336Y-14458212D01*
X14630336Y-14458212D02*
X14611288Y-14448688D01*
X14611288Y-14448688D02*
X14601765Y-14429641D01*
X14601765Y-14429641D02*
X14601765Y-14410593D01*
X14601765Y-14410593D02*
X14611288Y-14391546D01*
X14611288Y-14391546D02*
X14630336Y-14382022D01*
X14630336Y-14382022D02*
X14677955Y-14382022D01*
X14677955Y-14382022D02*
X14697003Y-14372498D01*
X14763669Y-14324879D02*
X14839860Y-14324879D01*
X14792241Y-14258212D02*
X14792241Y-14429641D01*
X14792241Y-14429641D02*
X14801765Y-14448688D01*
X14801765Y-14448688D02*
X14820812Y-14458212D01*
X14820812Y-14458212D02*
X14839860Y-14458212D01*
X14982717Y-14448688D02*
X14963669Y-14458212D01*
X14963669Y-14458212D02*
X14925574Y-14458212D01*
X14925574Y-14458212D02*
X14906526Y-14448688D01*
X14906526Y-14448688D02*
X14897003Y-14429641D01*
X14897003Y-14429641D02*
X14897003Y-14353450D01*
X14897003Y-14353450D02*
X14906526Y-14334403D01*
X14906526Y-14334403D02*
X14925574Y-14324879D01*
X14925574Y-14324879D02*
X14963669Y-14324879D01*
X14963669Y-14324879D02*
X14982717Y-14334403D01*
X14982717Y-14334403D02*
X14992241Y-14353450D01*
X14992241Y-14353450D02*
X14992241Y-14372498D01*
X14992241Y-14372498D02*
X14897003Y-14391546D01*
X15163669Y-14458212D02*
X15163669Y-14258212D01*
X15163669Y-14448688D02*
X15144622Y-14458212D01*
X15144622Y-14458212D02*
X15106526Y-14458212D01*
X15106526Y-14458212D02*
X15087479Y-14448688D01*
X15087479Y-14448688D02*
X15077955Y-14439165D01*
X15077955Y-14439165D02*
X15068431Y-14420117D01*
X15068431Y-14420117D02*
X15068431Y-14362974D01*
X15068431Y-14362974D02*
X15077955Y-14343926D01*
X15077955Y-14343926D02*
X15087479Y-14334403D01*
X15087479Y-14334403D02*
X15106526Y-14324879D01*
X15106526Y-14324879D02*
X15144622Y-14324879D01*
X15144622Y-14324879D02*
X15163669Y-14334403D01*
X15239860Y-14534403D02*
X15249384Y-14524879D01*
X15249384Y-14524879D02*
X15268431Y-14496307D01*
X15268431Y-14496307D02*
X15277955Y-14477260D01*
X15277955Y-14477260D02*
X15287479Y-14448688D01*
X15287479Y-14448688D02*
X15297003Y-14401069D01*
X15297003Y-14401069D02*
X15297003Y-14362974D01*
X15297003Y-14362974D02*
X15287479Y-14315355D01*
X15287479Y-14315355D02*
X15277955Y-14286784D01*
X15277955Y-14286784D02*
X15268431Y-14267736D01*
X15268431Y-14267736D02*
X15249384Y-14239165D01*
X15249384Y-14239165D02*
X15239860Y-14229641D01*
M02*
