G04 #@! TF.GenerationSoftware,KiCad,Pcbnew,7.0.5*
G04 #@! TF.CreationDate,2023-06-08T22:56:43+10:00*
G04 #@! TF.ProjectId,Klotz,4b6c6f74-7a2e-46b6-9963-61645f706362,0.2*
G04 #@! TF.SameCoordinates,Original*
G04 #@! TF.FileFunction,Legend,Bot*
G04 #@! TF.FilePolarity,Positive*
%FSLAX46Y46*%
G04 Gerber Fmt 4.6, Leading zero omitted, Abs format (unit mm)*
G04 Created by KiCad (PCBNEW 7.0.5) date 2023-06-08 22:56:43*
%MOMM*%
%LPD*%
G01*
G04 APERTURE LIST*
G04 Aperture macros list*
%AMRoundRect*
0 Rectangle with rounded corners*
0 $1 Rounding radius*
0 $2 $3 $4 $5 $6 $7 $8 $9 X,Y pos of 4 corners*
0 Add a 4 corners polygon primitive as box body*
4,1,4,$2,$3,$4,$5,$6,$7,$8,$9,$2,$3,0*
0 Add four circle primitives for the rounded corners*
1,1,$1+$1,$2,$3*
1,1,$1+$1,$4,$5*
1,1,$1+$1,$6,$7*
1,1,$1+$1,$8,$9*
0 Add four rect primitives between the rounded corners*
20,1,$1+$1,$2,$3,$4,$5,0*
20,1,$1+$1,$4,$5,$6,$7,0*
20,1,$1+$1,$6,$7,$8,$9,0*
20,1,$1+$1,$8,$9,$2,$3,0*%
%AMRotRect*
0 Rectangle, with rotation*
0 The origin of the aperture is its center*
0 $1 length*
0 $2 width*
0 $3 Rotation angle, in degrees counterclockwise*
0 Add horizontal line*
21,1,$1,$2,0,0,$3*%
G04 Aperture macros list end*
%ADD10C,0.125000*%
%ADD11C,0.120000*%
%ADD12C,0.119999*%
%ADD13C,0.124999*%
%ADD14C,0.150000*%
%ADD15C,0.000000*%
%ADD16C,0.200000*%
%ADD17O,1.905000X2.159000*%
%ADD18R,1.905000X2.159000*%
%ADD19R,1.800000X1.500000*%
%ADD20C,1.701800*%
%ADD21C,3.000000*%
%ADD22C,3.429000*%
%ADD23R,2.600000X2.600000*%
%ADD24C,2.032000*%
%ADD25RotRect,1.800000X1.500000X350.000000*%
%ADD26C,2.000000*%
%ADD27RotRect,2.600000X2.600000X350.000000*%
%ADD28RoundRect,0.250000X0.625000X-0.375000X0.625000X0.375000X-0.625000X0.375000X-0.625000X-0.375000X0*%
%ADD29C,4.400000*%
%ADD30O,3.000000X2.000000*%
%ADD31C,1.524000*%
%ADD32O,1.524000X1.524000*%
%ADD33O,1.200000X1.750000*%
%ADD34RotRect,2.600000X2.600000X356.000000*%
%ADD35C,3.500000*%
%ADD36RotRect,2.600000X2.600000X8.000000*%
%ADD37RotRect,1.800000X1.500000X356.000000*%
%ADD38RotRect,1.800000X1.500000X8.000000*%
%ADD39RotRect,1.800000X1.500000X4.000000*%
%ADD40C,0.900000*%
%ADD41R,1.000000X0.700000*%
%ADD42R,2.800000X1.000000*%
%ADD43RotRect,2.600000X2.600000X3.000000*%
%ADD44R,0.635000X1.143000*%
%ADD45RoundRect,0.250002X-1.499998X-1.499998X1.499998X-1.499998X1.499998X1.499998X-1.499998X1.499998X0*%
G04 APERTURE END LIST*
D10*
X171900000Y-125600000D02*
X171900000Y-124572480D01*
D11*
X191404526Y-69725000D02*
X190455040Y-65817500D01*
D12*
X138663433Y-123776073D02*
X140727265Y-121712243D01*
D11*
X190455039Y-69724999D02*
X189870740Y-69140700D01*
D13*
X94180356Y-66889560D02*
X94699380Y-66370535D01*
X92934696Y-65678502D02*
X92934696Y-65678502D01*
D12*
X135900000Y-116850000D02*
X135900000Y-116850000D01*
X129708509Y-120103157D02*
X131982223Y-120103157D01*
D14*
X167755336Y-118502502D02*
X167755338Y-119552503D01*
X189334531Y-69527491D02*
X189204531Y-69527491D01*
X167755338Y-119552503D02*
X168865337Y-118442501D01*
D11*
X178358999Y-125000000D02*
X179375000Y-125000000D01*
D14*
X158075000Y-112450000D02*
X162725000Y-112450000D01*
D12*
X141706709Y-116850000D02*
X141706709Y-123776073D01*
D11*
X187307850Y-65779651D02*
X188257341Y-65779642D01*
X189870740Y-69140700D02*
X189870741Y-66401799D01*
D13*
X98297955Y-66889560D02*
X98816980Y-66370535D01*
D11*
X161213480Y-127357999D02*
X161213480Y-126341999D01*
X188565700Y-69720000D02*
X188565700Y-69312149D01*
D13*
X98816980Y-66370535D02*
X98816980Y-65678502D01*
D15*
G36*
X142695732Y-55065903D02*
G01*
X86395767Y-55065903D01*
X86395767Y-93280782D01*
X84844612Y-93280782D01*
X84844612Y-54184563D01*
X84879863Y-54149312D01*
X84879863Y-54043549D01*
X84915119Y-54008298D01*
X84915119Y-53973046D01*
X84950378Y-53937791D01*
X84950378Y-53902535D01*
X84985622Y-53867284D01*
X84985622Y-53832028D01*
X85020885Y-53796780D01*
X85056129Y-53796780D01*
X85056129Y-53761521D01*
X85091392Y-53726266D01*
X85126644Y-53726266D01*
X85126644Y-53691018D01*
X85161895Y-53691018D01*
X85197151Y-53655759D01*
X85232402Y-53620511D01*
X85302909Y-53620511D01*
X85338165Y-53585252D01*
X85373413Y-53585252D01*
X85408668Y-53550000D01*
X142695732Y-53550000D01*
X142695732Y-55065903D01*
G37*
D14*
X159686680Y-119696832D02*
X158615952Y-118167669D01*
D13*
X94699380Y-66370535D02*
X94699380Y-65678502D01*
D11*
X96430000Y-101650000D02*
X97430000Y-101650000D01*
D14*
X159650000Y-118350000D02*
X158749611Y-117064112D01*
D12*
X132716806Y-123776073D02*
X129253768Y-123776073D01*
X132856727Y-116850000D02*
X132856727Y-116850000D01*
D13*
X93453721Y-66889560D02*
X94180356Y-66889560D01*
D12*
X132856727Y-116850000D02*
X129253768Y-116850000D01*
D11*
X190455040Y-65817500D02*
X191404531Y-65817491D01*
D14*
X189354531Y-69717491D02*
X189354531Y-69527491D01*
D13*
X98297955Y-65159477D02*
X97605922Y-65159477D01*
D12*
X133836171Y-118948810D02*
X133836171Y-118948810D01*
D13*
X94180356Y-65159477D02*
X93453721Y-65159477D01*
D12*
X132856727Y-123776073D02*
X132856727Y-116850000D01*
D11*
X96930000Y-101150000D02*
X96930000Y-102150000D01*
D12*
X145134765Y-123776073D02*
X141671728Y-116850000D01*
D13*
X93453721Y-66889560D02*
X93453721Y-66889560D01*
D12*
X133836171Y-121712243D02*
X133836171Y-121712243D01*
D13*
X94180356Y-66889560D02*
X94180356Y-66889560D01*
D15*
G36*
X86391155Y-130265000D02*
G01*
X88647388Y-130265000D01*
X88823657Y-131816155D01*
X85545078Y-131816155D01*
X85474567Y-131780915D01*
X85368801Y-131780915D01*
X85333553Y-131745660D01*
X85263042Y-131745660D01*
X85227790Y-131710397D01*
X85192539Y-131710397D01*
X85157283Y-131675149D01*
X85122032Y-131675149D01*
X85122032Y-131639893D01*
X85086780Y-131604646D01*
X85051517Y-131604646D01*
X85051517Y-131569383D01*
X85016273Y-131534135D01*
X84981010Y-131498879D01*
X84945766Y-131463616D01*
X84945766Y-131428376D01*
X84910507Y-131393121D01*
X84910507Y-131322610D01*
X84875251Y-131287354D01*
X84875251Y-131181596D01*
X84840000Y-131146340D01*
X84840000Y-103331277D01*
X86391155Y-103331277D01*
X86391155Y-130265000D01*
G37*
D13*
X94699380Y-66370535D02*
X94699380Y-66370535D01*
D14*
X165265338Y-117652503D02*
X165802232Y-116177395D01*
X189204531Y-69527491D02*
X189204531Y-69717491D01*
D13*
X92934696Y-66370535D02*
X93453721Y-66889560D01*
D14*
X161150000Y-115025000D02*
X160700000Y-114575000D01*
D13*
X98297955Y-65159477D02*
X98297955Y-65159477D01*
D14*
X164183117Y-118455062D02*
X164821588Y-116700881D01*
X189204531Y-69717491D02*
X189354531Y-69717491D01*
D13*
X92934696Y-65678502D02*
X92934696Y-66370535D01*
D14*
X158615952Y-118167669D02*
X159650000Y-118350000D01*
D12*
X135900000Y-123776073D02*
X138663433Y-123776073D01*
X141706709Y-123776073D02*
X138628454Y-123776073D01*
D13*
X97086897Y-65678502D02*
X97086897Y-65678502D01*
D12*
X138663433Y-123776073D02*
X138663433Y-123776073D01*
D11*
X186723551Y-67470000D02*
X186723551Y-66363950D01*
D12*
X140727265Y-118948810D02*
X138663433Y-116850000D01*
D11*
X163740999Y-126867001D02*
X162713479Y-126867001D01*
D12*
X140727265Y-118948810D02*
X140727265Y-118948810D01*
D13*
X93453721Y-65159477D02*
X93453721Y-65159477D01*
D12*
X135900000Y-116850000D02*
X133836171Y-118948810D01*
D11*
X186723551Y-66363950D02*
X187307850Y-65779651D01*
D12*
X145134765Y-123776073D02*
X145134765Y-123776073D01*
X133836171Y-121712243D02*
X135900000Y-123776073D01*
X138663433Y-116850000D02*
X135900000Y-116850000D01*
D15*
G36*
X198072785Y-53583731D02*
G01*
X198108033Y-53618990D01*
X198178528Y-53689501D01*
X198213761Y-53724756D01*
X198249024Y-53760012D01*
X198284257Y-53795267D01*
X198319504Y-53830522D01*
X198354737Y-53865782D01*
X198390000Y-53901033D01*
X198390000Y-73819326D01*
X196874100Y-73572546D01*
X196874100Y-55064425D01*
X163171677Y-55064425D01*
X163171677Y-53548521D01*
X197685105Y-53548479D01*
X198037553Y-53548479D01*
X198072785Y-53583731D01*
G37*
D11*
X191404530Y-69725000D02*
X191404526Y-69725000D01*
X189870741Y-66401799D02*
X190455040Y-65817500D01*
D12*
X129253768Y-116850000D02*
X129253768Y-116850000D01*
D14*
X89430000Y-87910000D02*
X102142500Y-87920000D01*
D12*
X140727265Y-121712243D02*
X140727265Y-118948810D01*
D11*
X188565700Y-69312149D02*
X186723551Y-67470000D01*
D13*
X97086897Y-66370535D02*
X97605922Y-66889560D01*
D15*
G36*
X198361316Y-131050783D02*
G01*
X198361316Y-131438600D01*
X198290820Y-131509111D01*
X198255588Y-131544366D01*
X198220325Y-131579622D01*
X198185092Y-131614877D01*
X198149844Y-131650133D01*
X198114612Y-131685388D01*
X198079349Y-131720651D01*
X198044116Y-131755899D01*
X198008868Y-131791154D01*
X105609348Y-131791154D01*
X109451984Y-131262353D01*
X109451984Y-131191797D01*
X126937762Y-130275201D01*
X196880832Y-130275201D01*
X196880832Y-123859048D01*
X198361484Y-115362932D01*
X198361316Y-131050783D01*
G37*
D13*
X98816980Y-66370535D02*
X98816980Y-66370535D01*
D12*
X132856727Y-116850000D02*
X135934982Y-116850000D01*
D11*
X186690700Y-69720000D02*
X188565700Y-69720000D01*
D14*
X163675000Y-113400000D02*
X163675000Y-121975000D01*
D13*
X92934696Y-66370535D02*
X92934696Y-66370535D01*
X97086897Y-66370535D02*
X97086897Y-66370535D01*
D11*
X191404530Y-69725000D02*
X190455039Y-69724999D01*
D13*
X97605922Y-65159477D02*
X97086897Y-65678502D01*
D11*
X191988830Y-69140700D02*
X191404530Y-69725000D01*
D13*
X94699380Y-65678502D02*
X94180356Y-65159477D01*
D11*
X160705480Y-126849999D02*
X161721480Y-126850000D01*
D13*
X97086897Y-65678502D02*
X97086897Y-66370535D01*
D11*
X191988830Y-66401790D02*
X191988830Y-69140700D01*
X188257341Y-65779642D02*
X188841640Y-66363941D01*
D13*
X97605922Y-65159477D02*
X97605922Y-65159477D01*
D12*
X129253768Y-116850000D02*
X132716806Y-123776073D01*
D10*
X171392000Y-125080481D02*
X172408000Y-125080480D01*
D12*
X133836171Y-118948810D02*
X133836171Y-121712243D01*
X138663433Y-116850000D02*
X138663433Y-116850000D01*
D13*
X97605922Y-66889560D02*
X98297955Y-66889560D01*
X95080000Y-67720000D02*
X95080000Y-67720000D01*
X94180356Y-65159477D02*
X94180356Y-65159477D01*
X97605922Y-66889560D02*
X97605922Y-66889560D01*
D12*
X145134765Y-116745060D02*
X145134765Y-123776073D01*
D13*
X96775481Y-67720000D02*
X96775481Y-67720000D01*
D14*
X164821588Y-116700881D02*
X165265338Y-117652503D01*
D11*
X191404531Y-65817491D02*
X191988830Y-66401790D01*
D14*
X166435338Y-119822501D02*
X167755336Y-118502502D01*
D13*
X98816980Y-65678502D02*
X98297955Y-65159477D01*
X96775481Y-67720000D02*
X98021141Y-70280524D01*
X98297955Y-66889560D02*
X98297955Y-66889560D01*
D11*
X128050000Y-110300000D02*
X158025000Y-110300000D01*
X158025000Y-130300000D01*
X128050000Y-130300000D01*
X128050000Y-110300000D01*
D14*
X160700000Y-114575000D02*
X158050000Y-114575000D01*
D12*
X141671727Y-123776075D02*
X143385756Y-120313038D01*
D13*
X95080000Y-67720000D02*
X96775481Y-67720000D01*
D12*
X141706709Y-123776073D02*
X141706709Y-123776073D01*
D13*
X93765135Y-70349728D02*
X95080000Y-67720000D01*
D12*
X135900000Y-123776073D02*
X135900000Y-123776073D01*
D13*
X93453721Y-65159477D02*
X92934696Y-65678502D01*
D12*
X132716806Y-123776073D02*
X132716806Y-123776073D01*
D14*
X161150000Y-121950000D02*
X161150000Y-115025000D01*
X162725000Y-112450000D02*
X163675000Y-113400000D01*
D10*
X86906666Y-95874809D02*
X86906666Y-95374809D01*
X86906666Y-95374809D02*
X86716190Y-95374809D01*
X86716190Y-95374809D02*
X86668571Y-95398619D01*
X86668571Y-95398619D02*
X86644761Y-95422428D01*
X86644761Y-95422428D02*
X86620952Y-95470047D01*
X86620952Y-95470047D02*
X86620952Y-95541476D01*
X86620952Y-95541476D02*
X86644761Y-95589095D01*
X86644761Y-95589095D02*
X86668571Y-95612904D01*
X86668571Y-95612904D02*
X86716190Y-95636714D01*
X86716190Y-95636714D02*
X86906666Y-95636714D01*
X86454285Y-95374809D02*
X86335237Y-95874809D01*
X86335237Y-95874809D02*
X86239999Y-95517666D01*
X86239999Y-95517666D02*
X86144761Y-95874809D01*
X86144761Y-95874809D02*
X86025714Y-95374809D01*
X85549523Y-95874809D02*
X85716189Y-95636714D01*
X85835237Y-95874809D02*
X85835237Y-95374809D01*
X85835237Y-95374809D02*
X85644761Y-95374809D01*
X85644761Y-95374809D02*
X85597142Y-95398619D01*
X85597142Y-95398619D02*
X85573332Y-95422428D01*
X85573332Y-95422428D02*
X85549523Y-95470047D01*
X85549523Y-95470047D02*
X85549523Y-95541476D01*
X85549523Y-95541476D02*
X85573332Y-95589095D01*
X85573332Y-95589095D02*
X85597142Y-95612904D01*
X85597142Y-95612904D02*
X85644761Y-95636714D01*
X85644761Y-95636714D02*
X85835237Y-95636714D01*
X91656522Y-74162089D02*
X91894617Y-74162089D01*
X91894617Y-74162089D02*
X91894617Y-73662089D01*
X91489855Y-73900184D02*
X91323188Y-73900184D01*
X91251760Y-74162089D02*
X91489855Y-74162089D01*
X91489855Y-74162089D02*
X91489855Y-73662089D01*
X91489855Y-73662089D02*
X91251760Y-73662089D01*
X91037474Y-74162089D02*
X91037474Y-73662089D01*
X91037474Y-73662089D02*
X90918426Y-73662089D01*
X90918426Y-73662089D02*
X90846998Y-73685899D01*
X90846998Y-73685899D02*
X90799379Y-73733518D01*
X90799379Y-73733518D02*
X90775569Y-73781137D01*
X90775569Y-73781137D02*
X90751760Y-73876375D01*
X90751760Y-73876375D02*
X90751760Y-73947803D01*
X90751760Y-73947803D02*
X90775569Y-74043041D01*
X90775569Y-74043041D02*
X90799379Y-74090660D01*
X90799379Y-74090660D02*
X90846998Y-74138280D01*
X90846998Y-74138280D02*
X90918426Y-74162089D01*
X90918426Y-74162089D02*
X91037474Y-74162089D01*
X90561283Y-73709708D02*
X90537474Y-73685899D01*
X90537474Y-73685899D02*
X90489855Y-73662089D01*
X90489855Y-73662089D02*
X90370807Y-73662089D01*
X90370807Y-73662089D02*
X90323188Y-73685899D01*
X90323188Y-73685899D02*
X90299379Y-73709708D01*
X90299379Y-73709708D02*
X90275569Y-73757327D01*
X90275569Y-73757327D02*
X90275569Y-73804946D01*
X90275569Y-73804946D02*
X90299379Y-73876375D01*
X90299379Y-73876375D02*
X90585093Y-74162089D01*
X90585093Y-74162089D02*
X90275569Y-74162089D01*
X90061284Y-73971613D02*
X89680332Y-73971613D01*
X89442236Y-73971613D02*
X89061284Y-73971613D01*
X187039856Y-61359785D02*
X187001760Y-61321690D01*
X187001760Y-61321690D02*
X186925570Y-61283595D01*
X186925570Y-61283595D02*
X186735094Y-61283595D01*
X186735094Y-61283595D02*
X186658903Y-61321690D01*
X186658903Y-61321690D02*
X186620808Y-61359785D01*
X186620808Y-61359785D02*
X186582713Y-61435976D01*
X186582713Y-61435976D02*
X186582713Y-61512166D01*
X186582713Y-61512166D02*
X186620808Y-61626452D01*
X186620808Y-61626452D02*
X187077951Y-62083595D01*
X187077951Y-62083595D02*
X186582713Y-62083595D01*
X186277951Y-61359785D02*
X186239855Y-61321690D01*
X186239855Y-61321690D02*
X186163665Y-61283595D01*
X186163665Y-61283595D02*
X185973189Y-61283595D01*
X185973189Y-61283595D02*
X185896998Y-61321690D01*
X185896998Y-61321690D02*
X185858903Y-61359785D01*
X185858903Y-61359785D02*
X185820808Y-61435976D01*
X185820808Y-61435976D02*
X185820808Y-61512166D01*
X185820808Y-61512166D02*
X185858903Y-61626452D01*
X185858903Y-61626452D02*
X186316046Y-62083595D01*
X186316046Y-62083595D02*
X185820808Y-62083595D01*
X185325569Y-61283595D02*
X185249379Y-61283595D01*
X185249379Y-61283595D02*
X185173188Y-61321690D01*
X185173188Y-61321690D02*
X185135093Y-61359785D01*
X185135093Y-61359785D02*
X185096998Y-61435976D01*
X185096998Y-61435976D02*
X185058903Y-61588357D01*
X185058903Y-61588357D02*
X185058903Y-61778833D01*
X185058903Y-61778833D02*
X185096998Y-61931214D01*
X185096998Y-61931214D02*
X185135093Y-62007404D01*
X185135093Y-62007404D02*
X185173188Y-62045500D01*
X185173188Y-62045500D02*
X185249379Y-62083595D01*
X185249379Y-62083595D02*
X185325569Y-62083595D01*
X185325569Y-62083595D02*
X185401760Y-62045500D01*
X185401760Y-62045500D02*
X185439855Y-62007404D01*
X185439855Y-62007404D02*
X185477950Y-61931214D01*
X185477950Y-61931214D02*
X185516046Y-61778833D01*
X185516046Y-61778833D02*
X185516046Y-61588357D01*
X185516046Y-61588357D02*
X185477950Y-61435976D01*
X185477950Y-61435976D02*
X185439855Y-61359785D01*
X185439855Y-61359785D02*
X185401760Y-61321690D01*
X185401760Y-61321690D02*
X185325569Y-61283595D01*
X184754141Y-62083595D02*
X184563664Y-62083595D01*
X184563664Y-62083595D02*
X184563664Y-61931214D01*
X184563664Y-61931214D02*
X184639855Y-61893119D01*
X184639855Y-61893119D02*
X184716045Y-61816928D01*
X184716045Y-61816928D02*
X184754141Y-61702642D01*
X184754141Y-61702642D02*
X184754141Y-61512166D01*
X184754141Y-61512166D02*
X184716045Y-61397880D01*
X184716045Y-61397880D02*
X184639855Y-61321690D01*
X184639855Y-61321690D02*
X184525569Y-61283595D01*
X184525569Y-61283595D02*
X184373188Y-61283595D01*
X184373188Y-61283595D02*
X184258902Y-61321690D01*
X184258902Y-61321690D02*
X184182712Y-61397880D01*
X184182712Y-61397880D02*
X184144617Y-61512166D01*
X184144617Y-61512166D02*
X184144617Y-61702642D01*
X184144617Y-61702642D02*
X184182712Y-61816928D01*
X184182712Y-61816928D02*
X184258902Y-61893119D01*
X184258902Y-61893119D02*
X184335093Y-61931214D01*
X184335093Y-61931214D02*
X184335093Y-62083595D01*
X184335093Y-62083595D02*
X184144617Y-62083595D01*
X102558716Y-86631613D02*
X102177764Y-86631613D01*
X101939668Y-86631613D02*
X101558716Y-86631613D01*
X101034906Y-86774470D02*
X101058715Y-86798280D01*
X101058715Y-86798280D02*
X101130144Y-86822089D01*
X101130144Y-86822089D02*
X101177763Y-86822089D01*
X101177763Y-86822089D02*
X101249191Y-86798280D01*
X101249191Y-86798280D02*
X101296810Y-86750660D01*
X101296810Y-86750660D02*
X101320620Y-86703041D01*
X101320620Y-86703041D02*
X101344429Y-86607803D01*
X101344429Y-86607803D02*
X101344429Y-86536375D01*
X101344429Y-86536375D02*
X101320620Y-86441137D01*
X101320620Y-86441137D02*
X101296810Y-86393518D01*
X101296810Y-86393518D02*
X101249191Y-86345899D01*
X101249191Y-86345899D02*
X101177763Y-86322089D01*
X101177763Y-86322089D02*
X101130144Y-86322089D01*
X101130144Y-86322089D02*
X101058715Y-86345899D01*
X101058715Y-86345899D02*
X101034906Y-86369708D01*
X100725382Y-86322089D02*
X100630144Y-86322089D01*
X100630144Y-86322089D02*
X100582525Y-86345899D01*
X100582525Y-86345899D02*
X100534906Y-86393518D01*
X100534906Y-86393518D02*
X100511096Y-86488756D01*
X100511096Y-86488756D02*
X100511096Y-86655422D01*
X100511096Y-86655422D02*
X100534906Y-86750660D01*
X100534906Y-86750660D02*
X100582525Y-86798280D01*
X100582525Y-86798280D02*
X100630144Y-86822089D01*
X100630144Y-86822089D02*
X100725382Y-86822089D01*
X100725382Y-86822089D02*
X100773001Y-86798280D01*
X100773001Y-86798280D02*
X100820620Y-86750660D01*
X100820620Y-86750660D02*
X100844429Y-86655422D01*
X100844429Y-86655422D02*
X100844429Y-86488756D01*
X100844429Y-86488756D02*
X100820620Y-86393518D01*
X100820620Y-86393518D02*
X100773001Y-86345899D01*
X100773001Y-86345899D02*
X100725382Y-86322089D01*
X100058715Y-86822089D02*
X100296810Y-86822089D01*
X100296810Y-86822089D02*
X100296810Y-86322089D01*
X99677762Y-86488756D02*
X99677762Y-86822089D01*
X99796810Y-86298280D02*
X99915857Y-86655422D01*
X99915857Y-86655422D02*
X99606334Y-86655422D01*
X102558716Y-79014333D02*
X102177764Y-79014333D01*
X101939668Y-79014333D02*
X101558716Y-79014333D01*
X101034906Y-79157190D02*
X101058715Y-79181000D01*
X101058715Y-79181000D02*
X101130144Y-79204809D01*
X101130144Y-79204809D02*
X101177763Y-79204809D01*
X101177763Y-79204809D02*
X101249191Y-79181000D01*
X101249191Y-79181000D02*
X101296810Y-79133380D01*
X101296810Y-79133380D02*
X101320620Y-79085761D01*
X101320620Y-79085761D02*
X101344429Y-78990523D01*
X101344429Y-78990523D02*
X101344429Y-78919095D01*
X101344429Y-78919095D02*
X101320620Y-78823857D01*
X101320620Y-78823857D02*
X101296810Y-78776238D01*
X101296810Y-78776238D02*
X101249191Y-78728619D01*
X101249191Y-78728619D02*
X101177763Y-78704809D01*
X101177763Y-78704809D02*
X101130144Y-78704809D01*
X101130144Y-78704809D02*
X101058715Y-78728619D01*
X101058715Y-78728619D02*
X101034906Y-78752428D01*
X100725382Y-78704809D02*
X100630144Y-78704809D01*
X100630144Y-78704809D02*
X100582525Y-78728619D01*
X100582525Y-78728619D02*
X100534906Y-78776238D01*
X100534906Y-78776238D02*
X100511096Y-78871476D01*
X100511096Y-78871476D02*
X100511096Y-79038142D01*
X100511096Y-79038142D02*
X100534906Y-79133380D01*
X100534906Y-79133380D02*
X100582525Y-79181000D01*
X100582525Y-79181000D02*
X100630144Y-79204809D01*
X100630144Y-79204809D02*
X100725382Y-79204809D01*
X100725382Y-79204809D02*
X100773001Y-79181000D01*
X100773001Y-79181000D02*
X100820620Y-79133380D01*
X100820620Y-79133380D02*
X100844429Y-79038142D01*
X100844429Y-79038142D02*
X100844429Y-78871476D01*
X100844429Y-78871476D02*
X100820620Y-78776238D01*
X100820620Y-78776238D02*
X100773001Y-78728619D01*
X100773001Y-78728619D02*
X100725382Y-78704809D01*
X100058715Y-79204809D02*
X100296810Y-79204809D01*
X100296810Y-79204809D02*
X100296810Y-78704809D01*
X99630143Y-79204809D02*
X99915857Y-79204809D01*
X99773000Y-79204809D02*
X99773000Y-78704809D01*
X99773000Y-78704809D02*
X99820619Y-78776238D01*
X99820619Y-78776238D02*
X99868238Y-78823857D01*
X99868238Y-78823857D02*
X99915857Y-78847666D01*
X91846999Y-81782089D02*
X92013665Y-81543994D01*
X92132713Y-81782089D02*
X92132713Y-81282089D01*
X92132713Y-81282089D02*
X91942237Y-81282089D01*
X91942237Y-81282089D02*
X91894618Y-81305899D01*
X91894618Y-81305899D02*
X91870808Y-81329708D01*
X91870808Y-81329708D02*
X91846999Y-81377327D01*
X91846999Y-81377327D02*
X91846999Y-81448756D01*
X91846999Y-81448756D02*
X91870808Y-81496375D01*
X91870808Y-81496375D02*
X91894618Y-81520184D01*
X91894618Y-81520184D02*
X91942237Y-81543994D01*
X91942237Y-81543994D02*
X92132713Y-81543994D01*
X91537475Y-81282089D02*
X91442237Y-81282089D01*
X91442237Y-81282089D02*
X91394618Y-81305899D01*
X91394618Y-81305899D02*
X91346999Y-81353518D01*
X91346999Y-81353518D02*
X91323189Y-81448756D01*
X91323189Y-81448756D02*
X91323189Y-81615422D01*
X91323189Y-81615422D02*
X91346999Y-81710660D01*
X91346999Y-81710660D02*
X91394618Y-81758280D01*
X91394618Y-81758280D02*
X91442237Y-81782089D01*
X91442237Y-81782089D02*
X91537475Y-81782089D01*
X91537475Y-81782089D02*
X91585094Y-81758280D01*
X91585094Y-81758280D02*
X91632713Y-81710660D01*
X91632713Y-81710660D02*
X91656522Y-81615422D01*
X91656522Y-81615422D02*
X91656522Y-81448756D01*
X91656522Y-81448756D02*
X91632713Y-81353518D01*
X91632713Y-81353518D02*
X91585094Y-81305899D01*
X91585094Y-81305899D02*
X91537475Y-81282089D01*
X91156522Y-81282089D02*
X91037474Y-81782089D01*
X91037474Y-81782089D02*
X90942236Y-81424946D01*
X90942236Y-81424946D02*
X90846998Y-81782089D01*
X90846998Y-81782089D02*
X90727951Y-81282089D01*
X90275569Y-81782089D02*
X90561283Y-81782089D01*
X90418426Y-81782089D02*
X90418426Y-81282089D01*
X90418426Y-81282089D02*
X90466045Y-81353518D01*
X90466045Y-81353518D02*
X90513664Y-81401137D01*
X90513664Y-81401137D02*
X90561283Y-81424946D01*
X90061284Y-81591613D02*
X89680332Y-81591613D01*
X89442236Y-81591613D02*
X89061284Y-81591613D01*
X102558716Y-61240703D02*
X102177764Y-61240703D01*
X101939668Y-61240703D02*
X101558716Y-61240703D01*
X101058715Y-60954989D02*
X101106334Y-60931179D01*
X101106334Y-60931179D02*
X101177763Y-60931179D01*
X101177763Y-60931179D02*
X101249191Y-60954989D01*
X101249191Y-60954989D02*
X101296810Y-61002608D01*
X101296810Y-61002608D02*
X101320620Y-61050227D01*
X101320620Y-61050227D02*
X101344429Y-61145465D01*
X101344429Y-61145465D02*
X101344429Y-61216893D01*
X101344429Y-61216893D02*
X101320620Y-61312131D01*
X101320620Y-61312131D02*
X101296810Y-61359750D01*
X101296810Y-61359750D02*
X101249191Y-61407370D01*
X101249191Y-61407370D02*
X101177763Y-61431179D01*
X101177763Y-61431179D02*
X101130144Y-61431179D01*
X101130144Y-61431179D02*
X101058715Y-61407370D01*
X101058715Y-61407370D02*
X101034906Y-61383560D01*
X101034906Y-61383560D02*
X101034906Y-61216893D01*
X101034906Y-61216893D02*
X101130144Y-61216893D01*
X100820620Y-61431179D02*
X100820620Y-60931179D01*
X100820620Y-60931179D02*
X100534906Y-61431179D01*
X100534906Y-61431179D02*
X100534906Y-60931179D01*
X100296810Y-61431179D02*
X100296810Y-60931179D01*
X100296810Y-60931179D02*
X100177762Y-60931179D01*
X100177762Y-60931179D02*
X100106334Y-60954989D01*
X100106334Y-60954989D02*
X100058715Y-61002608D01*
X100058715Y-61002608D02*
X100034905Y-61050227D01*
X100034905Y-61050227D02*
X100011096Y-61145465D01*
X100011096Y-61145465D02*
X100011096Y-61216893D01*
X100011096Y-61216893D02*
X100034905Y-61312131D01*
X100034905Y-61312131D02*
X100058715Y-61359750D01*
X100058715Y-61359750D02*
X100106334Y-61407370D01*
X100106334Y-61407370D02*
X100177762Y-61431179D01*
X100177762Y-61431179D02*
X100296810Y-61431179D01*
X102558716Y-66318883D02*
X102177764Y-66318883D01*
X101939668Y-66318883D02*
X101558716Y-66318883D01*
X101392048Y-66009359D02*
X101225382Y-66509359D01*
X101225382Y-66509359D02*
X101058715Y-66009359D01*
X100606335Y-66461740D02*
X100630144Y-66485550D01*
X100630144Y-66485550D02*
X100701573Y-66509359D01*
X100701573Y-66509359D02*
X100749192Y-66509359D01*
X100749192Y-66509359D02*
X100820620Y-66485550D01*
X100820620Y-66485550D02*
X100868239Y-66437930D01*
X100868239Y-66437930D02*
X100892049Y-66390311D01*
X100892049Y-66390311D02*
X100915858Y-66295073D01*
X100915858Y-66295073D02*
X100915858Y-66223645D01*
X100915858Y-66223645D02*
X100892049Y-66128407D01*
X100892049Y-66128407D02*
X100868239Y-66080788D01*
X100868239Y-66080788D02*
X100820620Y-66033169D01*
X100820620Y-66033169D02*
X100749192Y-66009359D01*
X100749192Y-66009359D02*
X100701573Y-66009359D01*
X100701573Y-66009359D02*
X100630144Y-66033169D01*
X100630144Y-66033169D02*
X100606335Y-66056978D01*
X100106335Y-66461740D02*
X100130144Y-66485550D01*
X100130144Y-66485550D02*
X100201573Y-66509359D01*
X100201573Y-66509359D02*
X100249192Y-66509359D01*
X100249192Y-66509359D02*
X100320620Y-66485550D01*
X100320620Y-66485550D02*
X100368239Y-66437930D01*
X100368239Y-66437930D02*
X100392049Y-66390311D01*
X100392049Y-66390311D02*
X100415858Y-66295073D01*
X100415858Y-66295073D02*
X100415858Y-66223645D01*
X100415858Y-66223645D02*
X100392049Y-66128407D01*
X100392049Y-66128407D02*
X100368239Y-66080788D01*
X100368239Y-66080788D02*
X100320620Y-66033169D01*
X100320620Y-66033169D02*
X100249192Y-66009359D01*
X100249192Y-66009359D02*
X100201573Y-66009359D01*
X100201573Y-66009359D02*
X100130144Y-66033169D01*
X100130144Y-66033169D02*
X100106335Y-66056978D01*
X91656522Y-76702089D02*
X91894617Y-76702089D01*
X91894617Y-76702089D02*
X91894617Y-76202089D01*
X91489855Y-76440184D02*
X91323188Y-76440184D01*
X91251760Y-76702089D02*
X91489855Y-76702089D01*
X91489855Y-76702089D02*
X91489855Y-76202089D01*
X91489855Y-76202089D02*
X91251760Y-76202089D01*
X91037474Y-76702089D02*
X91037474Y-76202089D01*
X91037474Y-76202089D02*
X90918426Y-76202089D01*
X90918426Y-76202089D02*
X90846998Y-76225899D01*
X90846998Y-76225899D02*
X90799379Y-76273518D01*
X90799379Y-76273518D02*
X90775569Y-76321137D01*
X90775569Y-76321137D02*
X90751760Y-76416375D01*
X90751760Y-76416375D02*
X90751760Y-76487803D01*
X90751760Y-76487803D02*
X90775569Y-76583041D01*
X90775569Y-76583041D02*
X90799379Y-76630660D01*
X90799379Y-76630660D02*
X90846998Y-76678280D01*
X90846998Y-76678280D02*
X90918426Y-76702089D01*
X90918426Y-76702089D02*
X91037474Y-76702089D01*
X90585093Y-76202089D02*
X90275569Y-76202089D01*
X90275569Y-76202089D02*
X90442236Y-76392565D01*
X90442236Y-76392565D02*
X90370807Y-76392565D01*
X90370807Y-76392565D02*
X90323188Y-76416375D01*
X90323188Y-76416375D02*
X90299379Y-76440184D01*
X90299379Y-76440184D02*
X90275569Y-76487803D01*
X90275569Y-76487803D02*
X90275569Y-76606851D01*
X90275569Y-76606851D02*
X90299379Y-76654470D01*
X90299379Y-76654470D02*
X90323188Y-76678280D01*
X90323188Y-76678280D02*
X90370807Y-76702089D01*
X90370807Y-76702089D02*
X90513664Y-76702089D01*
X90513664Y-76702089D02*
X90561283Y-76678280D01*
X90561283Y-76678280D02*
X90585093Y-76654470D01*
X90061284Y-76511613D02*
X89680332Y-76511613D01*
X89442236Y-76511613D02*
X89061284Y-76511613D01*
X102558716Y-73936153D02*
X102177764Y-73936153D01*
X101939668Y-73936153D02*
X101558716Y-73936153D01*
X101320620Y-73864724D02*
X101153953Y-73864724D01*
X101082525Y-74126629D02*
X101320620Y-74126629D01*
X101320620Y-74126629D02*
X101320620Y-73626629D01*
X101320620Y-73626629D02*
X101082525Y-73626629D01*
X100868239Y-74126629D02*
X100868239Y-73626629D01*
X100868239Y-73626629D02*
X100582525Y-74126629D01*
X100582525Y-74126629D02*
X100582525Y-73626629D01*
X100058715Y-74079010D02*
X100082524Y-74102820D01*
X100082524Y-74102820D02*
X100153953Y-74126629D01*
X100153953Y-74126629D02*
X100201572Y-74126629D01*
X100201572Y-74126629D02*
X100273000Y-74102820D01*
X100273000Y-74102820D02*
X100320619Y-74055200D01*
X100320619Y-74055200D02*
X100344429Y-74007581D01*
X100344429Y-74007581D02*
X100368238Y-73912343D01*
X100368238Y-73912343D02*
X100368238Y-73840915D01*
X100368238Y-73840915D02*
X100344429Y-73745677D01*
X100344429Y-73745677D02*
X100320619Y-73698058D01*
X100320619Y-73698058D02*
X100273000Y-73650439D01*
X100273000Y-73650439D02*
X100201572Y-73626629D01*
X100201572Y-73626629D02*
X100153953Y-73626629D01*
X100153953Y-73626629D02*
X100082524Y-73650439D01*
X100082524Y-73650439D02*
X100058715Y-73674248D01*
X99677762Y-73864724D02*
X99606334Y-73888534D01*
X99606334Y-73888534D02*
X99582524Y-73912343D01*
X99582524Y-73912343D02*
X99558715Y-73959962D01*
X99558715Y-73959962D02*
X99558715Y-74031391D01*
X99558715Y-74031391D02*
X99582524Y-74079010D01*
X99582524Y-74079010D02*
X99606334Y-74102820D01*
X99606334Y-74102820D02*
X99653953Y-74126629D01*
X99653953Y-74126629D02*
X99844429Y-74126629D01*
X99844429Y-74126629D02*
X99844429Y-73626629D01*
X99844429Y-73626629D02*
X99677762Y-73626629D01*
X99677762Y-73626629D02*
X99630143Y-73650439D01*
X99630143Y-73650439D02*
X99606334Y-73674248D01*
X99606334Y-73674248D02*
X99582524Y-73721867D01*
X99582524Y-73721867D02*
X99582524Y-73769486D01*
X99582524Y-73769486D02*
X99606334Y-73817105D01*
X99606334Y-73817105D02*
X99630143Y-73840915D01*
X99630143Y-73840915D02*
X99677762Y-73864724D01*
X99677762Y-73864724D02*
X99844429Y-73864724D01*
X91846999Y-79242089D02*
X92013665Y-79003994D01*
X92132713Y-79242089D02*
X92132713Y-78742089D01*
X92132713Y-78742089D02*
X91942237Y-78742089D01*
X91942237Y-78742089D02*
X91894618Y-78765899D01*
X91894618Y-78765899D02*
X91870808Y-78789708D01*
X91870808Y-78789708D02*
X91846999Y-78837327D01*
X91846999Y-78837327D02*
X91846999Y-78908756D01*
X91846999Y-78908756D02*
X91870808Y-78956375D01*
X91870808Y-78956375D02*
X91894618Y-78980184D01*
X91894618Y-78980184D02*
X91942237Y-79003994D01*
X91942237Y-79003994D02*
X92132713Y-79003994D01*
X91537475Y-78742089D02*
X91442237Y-78742089D01*
X91442237Y-78742089D02*
X91394618Y-78765899D01*
X91394618Y-78765899D02*
X91346999Y-78813518D01*
X91346999Y-78813518D02*
X91323189Y-78908756D01*
X91323189Y-78908756D02*
X91323189Y-79075422D01*
X91323189Y-79075422D02*
X91346999Y-79170660D01*
X91346999Y-79170660D02*
X91394618Y-79218280D01*
X91394618Y-79218280D02*
X91442237Y-79242089D01*
X91442237Y-79242089D02*
X91537475Y-79242089D01*
X91537475Y-79242089D02*
X91585094Y-79218280D01*
X91585094Y-79218280D02*
X91632713Y-79170660D01*
X91632713Y-79170660D02*
X91656522Y-79075422D01*
X91656522Y-79075422D02*
X91656522Y-78908756D01*
X91656522Y-78908756D02*
X91632713Y-78813518D01*
X91632713Y-78813518D02*
X91585094Y-78765899D01*
X91585094Y-78765899D02*
X91537475Y-78742089D01*
X91156522Y-78742089D02*
X91037474Y-79242089D01*
X91037474Y-79242089D02*
X90942236Y-78884946D01*
X90942236Y-78884946D02*
X90846998Y-79242089D01*
X90846998Y-79242089D02*
X90727951Y-78742089D01*
X90442236Y-78742089D02*
X90394617Y-78742089D01*
X90394617Y-78742089D02*
X90346998Y-78765899D01*
X90346998Y-78765899D02*
X90323188Y-78789708D01*
X90323188Y-78789708D02*
X90299379Y-78837327D01*
X90299379Y-78837327D02*
X90275569Y-78932565D01*
X90275569Y-78932565D02*
X90275569Y-79051613D01*
X90275569Y-79051613D02*
X90299379Y-79146851D01*
X90299379Y-79146851D02*
X90323188Y-79194470D01*
X90323188Y-79194470D02*
X90346998Y-79218280D01*
X90346998Y-79218280D02*
X90394617Y-79242089D01*
X90394617Y-79242089D02*
X90442236Y-79242089D01*
X90442236Y-79242089D02*
X90489855Y-79218280D01*
X90489855Y-79218280D02*
X90513664Y-79194470D01*
X90513664Y-79194470D02*
X90537474Y-79146851D01*
X90537474Y-79146851D02*
X90561283Y-79051613D01*
X90561283Y-79051613D02*
X90561283Y-78932565D01*
X90561283Y-78932565D02*
X90537474Y-78837327D01*
X90537474Y-78837327D02*
X90513664Y-78789708D01*
X90513664Y-78789708D02*
X90489855Y-78765899D01*
X90489855Y-78765899D02*
X90442236Y-78742089D01*
X90061284Y-79051613D02*
X89680332Y-79051613D01*
X89442236Y-79051613D02*
X89061284Y-79051613D01*
X91656522Y-71622089D02*
X91894617Y-71622089D01*
X91894617Y-71622089D02*
X91894617Y-71122089D01*
X91489855Y-71360184D02*
X91323188Y-71360184D01*
X91251760Y-71622089D02*
X91489855Y-71622089D01*
X91489855Y-71622089D02*
X91489855Y-71122089D01*
X91489855Y-71122089D02*
X91251760Y-71122089D01*
X91037474Y-71622089D02*
X91037474Y-71122089D01*
X91037474Y-71122089D02*
X90918426Y-71122089D01*
X90918426Y-71122089D02*
X90846998Y-71145899D01*
X90846998Y-71145899D02*
X90799379Y-71193518D01*
X90799379Y-71193518D02*
X90775569Y-71241137D01*
X90775569Y-71241137D02*
X90751760Y-71336375D01*
X90751760Y-71336375D02*
X90751760Y-71407803D01*
X90751760Y-71407803D02*
X90775569Y-71503041D01*
X90775569Y-71503041D02*
X90799379Y-71550660D01*
X90799379Y-71550660D02*
X90846998Y-71598280D01*
X90846998Y-71598280D02*
X90918426Y-71622089D01*
X90918426Y-71622089D02*
X91037474Y-71622089D01*
X90275569Y-71622089D02*
X90561283Y-71622089D01*
X90418426Y-71622089D02*
X90418426Y-71122089D01*
X90418426Y-71122089D02*
X90466045Y-71193518D01*
X90466045Y-71193518D02*
X90513664Y-71241137D01*
X90513664Y-71241137D02*
X90561283Y-71264946D01*
X90061284Y-71431613D02*
X89680332Y-71431613D01*
X89442236Y-71431613D02*
X89061284Y-71431613D01*
X102558716Y-76475243D02*
X102177764Y-76475243D01*
X101939668Y-76475243D02*
X101558716Y-76475243D01*
X101034906Y-76618100D02*
X101058715Y-76641910D01*
X101058715Y-76641910D02*
X101130144Y-76665719D01*
X101130144Y-76665719D02*
X101177763Y-76665719D01*
X101177763Y-76665719D02*
X101249191Y-76641910D01*
X101249191Y-76641910D02*
X101296810Y-76594290D01*
X101296810Y-76594290D02*
X101320620Y-76546671D01*
X101320620Y-76546671D02*
X101344429Y-76451433D01*
X101344429Y-76451433D02*
X101344429Y-76380005D01*
X101344429Y-76380005D02*
X101320620Y-76284767D01*
X101320620Y-76284767D02*
X101296810Y-76237148D01*
X101296810Y-76237148D02*
X101249191Y-76189529D01*
X101249191Y-76189529D02*
X101177763Y-76165719D01*
X101177763Y-76165719D02*
X101130144Y-76165719D01*
X101130144Y-76165719D02*
X101058715Y-76189529D01*
X101058715Y-76189529D02*
X101034906Y-76213338D01*
X100725382Y-76165719D02*
X100630144Y-76165719D01*
X100630144Y-76165719D02*
X100582525Y-76189529D01*
X100582525Y-76189529D02*
X100534906Y-76237148D01*
X100534906Y-76237148D02*
X100511096Y-76332386D01*
X100511096Y-76332386D02*
X100511096Y-76499052D01*
X100511096Y-76499052D02*
X100534906Y-76594290D01*
X100534906Y-76594290D02*
X100582525Y-76641910D01*
X100582525Y-76641910D02*
X100630144Y-76665719D01*
X100630144Y-76665719D02*
X100725382Y-76665719D01*
X100725382Y-76665719D02*
X100773001Y-76641910D01*
X100773001Y-76641910D02*
X100820620Y-76594290D01*
X100820620Y-76594290D02*
X100844429Y-76499052D01*
X100844429Y-76499052D02*
X100844429Y-76332386D01*
X100844429Y-76332386D02*
X100820620Y-76237148D01*
X100820620Y-76237148D02*
X100773001Y-76189529D01*
X100773001Y-76189529D02*
X100725382Y-76165719D01*
X100058715Y-76665719D02*
X100296810Y-76665719D01*
X100296810Y-76665719D02*
X100296810Y-76165719D01*
X99796810Y-76165719D02*
X99749191Y-76165719D01*
X99749191Y-76165719D02*
X99701572Y-76189529D01*
X99701572Y-76189529D02*
X99677762Y-76213338D01*
X99677762Y-76213338D02*
X99653953Y-76260957D01*
X99653953Y-76260957D02*
X99630143Y-76356195D01*
X99630143Y-76356195D02*
X99630143Y-76475243D01*
X99630143Y-76475243D02*
X99653953Y-76570481D01*
X99653953Y-76570481D02*
X99677762Y-76618100D01*
X99677762Y-76618100D02*
X99701572Y-76641910D01*
X99701572Y-76641910D02*
X99749191Y-76665719D01*
X99749191Y-76665719D02*
X99796810Y-76665719D01*
X99796810Y-76665719D02*
X99844429Y-76641910D01*
X99844429Y-76641910D02*
X99868238Y-76618100D01*
X99868238Y-76618100D02*
X99892048Y-76570481D01*
X99892048Y-76570481D02*
X99915857Y-76475243D01*
X99915857Y-76475243D02*
X99915857Y-76356195D01*
X99915857Y-76356195D02*
X99892048Y-76260957D01*
X99892048Y-76260957D02*
X99868238Y-76213338D01*
X99868238Y-76213338D02*
X99844429Y-76189529D01*
X99844429Y-76189529D02*
X99796810Y-76165719D01*
X102558716Y-63779793D02*
X102177764Y-63779793D01*
X101939668Y-63779793D02*
X101558716Y-63779793D01*
X101034906Y-63970269D02*
X101201572Y-63732174D01*
X101320620Y-63970269D02*
X101320620Y-63470269D01*
X101320620Y-63470269D02*
X101130144Y-63470269D01*
X101130144Y-63470269D02*
X101082525Y-63494079D01*
X101082525Y-63494079D02*
X101058715Y-63517888D01*
X101058715Y-63517888D02*
X101034906Y-63565507D01*
X101034906Y-63565507D02*
X101034906Y-63636936D01*
X101034906Y-63636936D02*
X101058715Y-63684555D01*
X101058715Y-63684555D02*
X101082525Y-63708364D01*
X101082525Y-63708364D02*
X101130144Y-63732174D01*
X101130144Y-63732174D02*
X101320620Y-63732174D01*
X100844429Y-63946460D02*
X100773001Y-63970269D01*
X100773001Y-63970269D02*
X100653953Y-63970269D01*
X100653953Y-63970269D02*
X100606334Y-63946460D01*
X100606334Y-63946460D02*
X100582525Y-63922650D01*
X100582525Y-63922650D02*
X100558715Y-63875031D01*
X100558715Y-63875031D02*
X100558715Y-63827412D01*
X100558715Y-63827412D02*
X100582525Y-63779793D01*
X100582525Y-63779793D02*
X100606334Y-63755983D01*
X100606334Y-63755983D02*
X100653953Y-63732174D01*
X100653953Y-63732174D02*
X100749191Y-63708364D01*
X100749191Y-63708364D02*
X100796810Y-63684555D01*
X100796810Y-63684555D02*
X100820620Y-63660745D01*
X100820620Y-63660745D02*
X100844429Y-63613126D01*
X100844429Y-63613126D02*
X100844429Y-63565507D01*
X100844429Y-63565507D02*
X100820620Y-63517888D01*
X100820620Y-63517888D02*
X100796810Y-63494079D01*
X100796810Y-63494079D02*
X100749191Y-63470269D01*
X100749191Y-63470269D02*
X100630144Y-63470269D01*
X100630144Y-63470269D02*
X100558715Y-63494079D01*
X100415858Y-63470269D02*
X100130144Y-63470269D01*
X100273001Y-63970269D02*
X100273001Y-63470269D01*
X103157287Y-109419547D02*
X102890621Y-109419547D01*
X102776335Y-109838595D02*
X103157287Y-109838595D01*
X103157287Y-109838595D02*
X103157287Y-109038595D01*
X103157287Y-109038595D02*
X102776335Y-109038595D01*
X102433477Y-109838595D02*
X102433477Y-109038595D01*
X102433477Y-109038595D02*
X101976334Y-109838595D01*
X101976334Y-109838595D02*
X101976334Y-109038595D01*
X101138239Y-109762404D02*
X101176335Y-109800500D01*
X101176335Y-109800500D02*
X101290620Y-109838595D01*
X101290620Y-109838595D02*
X101366811Y-109838595D01*
X101366811Y-109838595D02*
X101481097Y-109800500D01*
X101481097Y-109800500D02*
X101557287Y-109724309D01*
X101557287Y-109724309D02*
X101595382Y-109648119D01*
X101595382Y-109648119D02*
X101633478Y-109495738D01*
X101633478Y-109495738D02*
X101633478Y-109381452D01*
X101633478Y-109381452D02*
X101595382Y-109229071D01*
X101595382Y-109229071D02*
X101557287Y-109152880D01*
X101557287Y-109152880D02*
X101481097Y-109076690D01*
X101481097Y-109076690D02*
X101366811Y-109038595D01*
X101366811Y-109038595D02*
X101290620Y-109038595D01*
X101290620Y-109038595D02*
X101176335Y-109076690D01*
X101176335Y-109076690D02*
X101138239Y-109114785D01*
X100643001Y-109038595D02*
X100490620Y-109038595D01*
X100490620Y-109038595D02*
X100414430Y-109076690D01*
X100414430Y-109076690D02*
X100338239Y-109152880D01*
X100338239Y-109152880D02*
X100300144Y-109305261D01*
X100300144Y-109305261D02*
X100300144Y-109571928D01*
X100300144Y-109571928D02*
X100338239Y-109724309D01*
X100338239Y-109724309D02*
X100414430Y-109800500D01*
X100414430Y-109800500D02*
X100490620Y-109838595D01*
X100490620Y-109838595D02*
X100643001Y-109838595D01*
X100643001Y-109838595D02*
X100719192Y-109800500D01*
X100719192Y-109800500D02*
X100795382Y-109724309D01*
X100795382Y-109724309D02*
X100833478Y-109571928D01*
X100833478Y-109571928D02*
X100833478Y-109305261D01*
X100833478Y-109305261D02*
X100795382Y-109152880D01*
X100795382Y-109152880D02*
X100719192Y-109076690D01*
X100719192Y-109076690D02*
X100643001Y-109038595D01*
X99957287Y-109838595D02*
X99957287Y-109038595D01*
X99957287Y-109038595D02*
X99766811Y-109038595D01*
X99766811Y-109038595D02*
X99652525Y-109076690D01*
X99652525Y-109076690D02*
X99576335Y-109152880D01*
X99576335Y-109152880D02*
X99538240Y-109229071D01*
X99538240Y-109229071D02*
X99500144Y-109381452D01*
X99500144Y-109381452D02*
X99500144Y-109495738D01*
X99500144Y-109495738D02*
X99538240Y-109648119D01*
X99538240Y-109648119D02*
X99576335Y-109724309D01*
X99576335Y-109724309D02*
X99652525Y-109800500D01*
X99652525Y-109800500D02*
X99766811Y-109838595D01*
X99766811Y-109838595D02*
X99957287Y-109838595D01*
X99157287Y-109419547D02*
X98890621Y-109419547D01*
X98776335Y-109838595D02*
X99157287Y-109838595D01*
X99157287Y-109838595D02*
X99157287Y-109038595D01*
X99157287Y-109038595D02*
X98776335Y-109038595D01*
X97976334Y-109838595D02*
X98243001Y-109457642D01*
X98433477Y-109838595D02*
X98433477Y-109038595D01*
X98433477Y-109038595D02*
X98128715Y-109038595D01*
X98128715Y-109038595D02*
X98052525Y-109076690D01*
X98052525Y-109076690D02*
X98014430Y-109114785D01*
X98014430Y-109114785D02*
X97976334Y-109190976D01*
X97976334Y-109190976D02*
X97976334Y-109305261D01*
X97976334Y-109305261D02*
X98014430Y-109381452D01*
X98014430Y-109381452D02*
X98052525Y-109419547D01*
X98052525Y-109419547D02*
X98128715Y-109457642D01*
X98128715Y-109457642D02*
X98433477Y-109457642D01*
X157073478Y-111169595D02*
X156540144Y-111969595D01*
X156540144Y-111169595D02*
X157073478Y-111969595D01*
X156311573Y-111169595D02*
X155778239Y-111969595D01*
X155778239Y-111169595D02*
X156311573Y-111969595D01*
X155511573Y-111245785D02*
X155473477Y-111207690D01*
X155473477Y-111207690D02*
X155397287Y-111169595D01*
X155397287Y-111169595D02*
X155206811Y-111169595D01*
X155206811Y-111169595D02*
X155130620Y-111207690D01*
X155130620Y-111207690D02*
X155092525Y-111245785D01*
X155092525Y-111245785D02*
X155054430Y-111321976D01*
X155054430Y-111321976D02*
X155054430Y-111398166D01*
X155054430Y-111398166D02*
X155092525Y-111512452D01*
X155092525Y-111512452D02*
X155549668Y-111969595D01*
X155549668Y-111969595D02*
X155054430Y-111969595D01*
X154559191Y-111169595D02*
X154483001Y-111169595D01*
X154483001Y-111169595D02*
X154406810Y-111207690D01*
X154406810Y-111207690D02*
X154368715Y-111245785D01*
X154368715Y-111245785D02*
X154330620Y-111321976D01*
X154330620Y-111321976D02*
X154292525Y-111474357D01*
X154292525Y-111474357D02*
X154292525Y-111664833D01*
X154292525Y-111664833D02*
X154330620Y-111817214D01*
X154330620Y-111817214D02*
X154368715Y-111893404D01*
X154368715Y-111893404D02*
X154406810Y-111931500D01*
X154406810Y-111931500D02*
X154483001Y-111969595D01*
X154483001Y-111969595D02*
X154559191Y-111969595D01*
X154559191Y-111969595D02*
X154635382Y-111931500D01*
X154635382Y-111931500D02*
X154673477Y-111893404D01*
X154673477Y-111893404D02*
X154711572Y-111817214D01*
X154711572Y-111817214D02*
X154749668Y-111664833D01*
X154749668Y-111664833D02*
X154749668Y-111474357D01*
X154749668Y-111474357D02*
X154711572Y-111321976D01*
X154711572Y-111321976D02*
X154673477Y-111245785D01*
X154673477Y-111245785D02*
X154635382Y-111207690D01*
X154635382Y-111207690D02*
X154559191Y-111169595D01*
X154025858Y-111169595D02*
X153530620Y-111169595D01*
X153530620Y-111169595D02*
X153797286Y-111474357D01*
X153797286Y-111474357D02*
X153683001Y-111474357D01*
X153683001Y-111474357D02*
X153606810Y-111512452D01*
X153606810Y-111512452D02*
X153568715Y-111550547D01*
X153568715Y-111550547D02*
X153530620Y-111626738D01*
X153530620Y-111626738D02*
X153530620Y-111817214D01*
X153530620Y-111817214D02*
X153568715Y-111893404D01*
X153568715Y-111893404D02*
X153606810Y-111931500D01*
X153606810Y-111931500D02*
X153683001Y-111969595D01*
X153683001Y-111969595D02*
X153911572Y-111969595D01*
X153911572Y-111969595D02*
X153987763Y-111931500D01*
X153987763Y-111931500D02*
X154025858Y-111893404D01*
X153035381Y-111169595D02*
X152959191Y-111169595D01*
X152959191Y-111169595D02*
X152883000Y-111207690D01*
X152883000Y-111207690D02*
X152844905Y-111245785D01*
X152844905Y-111245785D02*
X152806810Y-111321976D01*
X152806810Y-111321976D02*
X152768715Y-111474357D01*
X152768715Y-111474357D02*
X152768715Y-111664833D01*
X152768715Y-111664833D02*
X152806810Y-111817214D01*
X152806810Y-111817214D02*
X152844905Y-111893404D01*
X152844905Y-111893404D02*
X152883000Y-111931500D01*
X152883000Y-111931500D02*
X152959191Y-111969595D01*
X152959191Y-111969595D02*
X153035381Y-111969595D01*
X153035381Y-111969595D02*
X153111572Y-111931500D01*
X153111572Y-111931500D02*
X153149667Y-111893404D01*
X153149667Y-111893404D02*
X153187762Y-111817214D01*
X153187762Y-111817214D02*
X153225858Y-111664833D01*
X153225858Y-111664833D02*
X153225858Y-111474357D01*
X153225858Y-111474357D02*
X153187762Y-111321976D01*
X153187762Y-111321976D02*
X153149667Y-111245785D01*
X153149667Y-111245785D02*
X153111572Y-111207690D01*
X153111572Y-111207690D02*
X153035381Y-111169595D01*
X156730621Y-112838547D02*
X156616335Y-112876642D01*
X156616335Y-112876642D02*
X156578240Y-112914738D01*
X156578240Y-112914738D02*
X156540144Y-112990928D01*
X156540144Y-112990928D02*
X156540144Y-113105214D01*
X156540144Y-113105214D02*
X156578240Y-113181404D01*
X156578240Y-113181404D02*
X156616335Y-113219500D01*
X156616335Y-113219500D02*
X156692525Y-113257595D01*
X156692525Y-113257595D02*
X156997287Y-113257595D01*
X156997287Y-113257595D02*
X156997287Y-112457595D01*
X156997287Y-112457595D02*
X156730621Y-112457595D01*
X156730621Y-112457595D02*
X156654430Y-112495690D01*
X156654430Y-112495690D02*
X156616335Y-112533785D01*
X156616335Y-112533785D02*
X156578240Y-112609976D01*
X156578240Y-112609976D02*
X156578240Y-112686166D01*
X156578240Y-112686166D02*
X156616335Y-112762357D01*
X156616335Y-112762357D02*
X156654430Y-112800452D01*
X156654430Y-112800452D02*
X156730621Y-112838547D01*
X156730621Y-112838547D02*
X156997287Y-112838547D01*
X156235383Y-113029023D02*
X155854430Y-113029023D01*
X156311573Y-113257595D02*
X156044906Y-112457595D01*
X156044906Y-112457595D02*
X155778240Y-113257595D01*
X155625859Y-112457595D02*
X155168716Y-112457595D01*
X155397288Y-113257595D02*
X155397288Y-112457595D01*
X155016335Y-112457595D02*
X154559192Y-112457595D01*
X154787764Y-113257595D02*
X154787764Y-112457595D01*
X154292525Y-112838547D02*
X154025859Y-112838547D01*
X153911573Y-113257595D02*
X154292525Y-113257595D01*
X154292525Y-113257595D02*
X154292525Y-112457595D01*
X154292525Y-112457595D02*
X153911573Y-112457595D01*
X153111572Y-113257595D02*
X153378239Y-112876642D01*
X153568715Y-113257595D02*
X153568715Y-112457595D01*
X153568715Y-112457595D02*
X153263953Y-112457595D01*
X153263953Y-112457595D02*
X153187763Y-112495690D01*
X153187763Y-112495690D02*
X153149668Y-112533785D01*
X153149668Y-112533785D02*
X153111572Y-112609976D01*
X153111572Y-112609976D02*
X153111572Y-112724261D01*
X153111572Y-112724261D02*
X153149668Y-112800452D01*
X153149668Y-112800452D02*
X153187763Y-112838547D01*
X153187763Y-112838547D02*
X153263953Y-112876642D01*
X153263953Y-112876642D02*
X153568715Y-112876642D01*
X152616334Y-112876642D02*
X152616334Y-113257595D01*
X152883001Y-112457595D02*
X152616334Y-112876642D01*
X152616334Y-112876642D02*
X152349668Y-112457595D01*
X91846999Y-86862089D02*
X92013665Y-86623994D01*
X92132713Y-86862089D02*
X92132713Y-86362089D01*
X92132713Y-86362089D02*
X91942237Y-86362089D01*
X91942237Y-86362089D02*
X91894618Y-86385899D01*
X91894618Y-86385899D02*
X91870808Y-86409708D01*
X91870808Y-86409708D02*
X91846999Y-86457327D01*
X91846999Y-86457327D02*
X91846999Y-86528756D01*
X91846999Y-86528756D02*
X91870808Y-86576375D01*
X91870808Y-86576375D02*
X91894618Y-86600184D01*
X91894618Y-86600184D02*
X91942237Y-86623994D01*
X91942237Y-86623994D02*
X92132713Y-86623994D01*
X91537475Y-86362089D02*
X91442237Y-86362089D01*
X91442237Y-86362089D02*
X91394618Y-86385899D01*
X91394618Y-86385899D02*
X91346999Y-86433518D01*
X91346999Y-86433518D02*
X91323189Y-86528756D01*
X91323189Y-86528756D02*
X91323189Y-86695422D01*
X91323189Y-86695422D02*
X91346999Y-86790660D01*
X91346999Y-86790660D02*
X91394618Y-86838280D01*
X91394618Y-86838280D02*
X91442237Y-86862089D01*
X91442237Y-86862089D02*
X91537475Y-86862089D01*
X91537475Y-86862089D02*
X91585094Y-86838280D01*
X91585094Y-86838280D02*
X91632713Y-86790660D01*
X91632713Y-86790660D02*
X91656522Y-86695422D01*
X91656522Y-86695422D02*
X91656522Y-86528756D01*
X91656522Y-86528756D02*
X91632713Y-86433518D01*
X91632713Y-86433518D02*
X91585094Y-86385899D01*
X91585094Y-86385899D02*
X91537475Y-86362089D01*
X91156522Y-86362089D02*
X91037474Y-86862089D01*
X91037474Y-86862089D02*
X90942236Y-86504946D01*
X90942236Y-86504946D02*
X90846998Y-86862089D01*
X90846998Y-86862089D02*
X90727951Y-86362089D01*
X90585093Y-86362089D02*
X90275569Y-86362089D01*
X90275569Y-86362089D02*
X90442236Y-86552565D01*
X90442236Y-86552565D02*
X90370807Y-86552565D01*
X90370807Y-86552565D02*
X90323188Y-86576375D01*
X90323188Y-86576375D02*
X90299379Y-86600184D01*
X90299379Y-86600184D02*
X90275569Y-86647803D01*
X90275569Y-86647803D02*
X90275569Y-86766851D01*
X90275569Y-86766851D02*
X90299379Y-86814470D01*
X90299379Y-86814470D02*
X90323188Y-86838280D01*
X90323188Y-86838280D02*
X90370807Y-86862089D01*
X90370807Y-86862089D02*
X90513664Y-86862089D01*
X90513664Y-86862089D02*
X90561283Y-86838280D01*
X90561283Y-86838280D02*
X90585093Y-86814470D01*
X90061284Y-86671613D02*
X89680332Y-86671613D01*
X89442236Y-86671613D02*
X89061284Y-86671613D01*
X102558716Y-84092513D02*
X102177764Y-84092513D01*
X101939668Y-84092513D02*
X101558716Y-84092513D01*
X101034906Y-84235370D02*
X101058715Y-84259180D01*
X101058715Y-84259180D02*
X101130144Y-84282989D01*
X101130144Y-84282989D02*
X101177763Y-84282989D01*
X101177763Y-84282989D02*
X101249191Y-84259180D01*
X101249191Y-84259180D02*
X101296810Y-84211560D01*
X101296810Y-84211560D02*
X101320620Y-84163941D01*
X101320620Y-84163941D02*
X101344429Y-84068703D01*
X101344429Y-84068703D02*
X101344429Y-83997275D01*
X101344429Y-83997275D02*
X101320620Y-83902037D01*
X101320620Y-83902037D02*
X101296810Y-83854418D01*
X101296810Y-83854418D02*
X101249191Y-83806799D01*
X101249191Y-83806799D02*
X101177763Y-83782989D01*
X101177763Y-83782989D02*
X101130144Y-83782989D01*
X101130144Y-83782989D02*
X101058715Y-83806799D01*
X101058715Y-83806799D02*
X101034906Y-83830608D01*
X100725382Y-83782989D02*
X100630144Y-83782989D01*
X100630144Y-83782989D02*
X100582525Y-83806799D01*
X100582525Y-83806799D02*
X100534906Y-83854418D01*
X100534906Y-83854418D02*
X100511096Y-83949656D01*
X100511096Y-83949656D02*
X100511096Y-84116322D01*
X100511096Y-84116322D02*
X100534906Y-84211560D01*
X100534906Y-84211560D02*
X100582525Y-84259180D01*
X100582525Y-84259180D02*
X100630144Y-84282989D01*
X100630144Y-84282989D02*
X100725382Y-84282989D01*
X100725382Y-84282989D02*
X100773001Y-84259180D01*
X100773001Y-84259180D02*
X100820620Y-84211560D01*
X100820620Y-84211560D02*
X100844429Y-84116322D01*
X100844429Y-84116322D02*
X100844429Y-83949656D01*
X100844429Y-83949656D02*
X100820620Y-83854418D01*
X100820620Y-83854418D02*
X100773001Y-83806799D01*
X100773001Y-83806799D02*
X100725382Y-83782989D01*
X100058715Y-84282989D02*
X100296810Y-84282989D01*
X100296810Y-84282989D02*
X100296810Y-83782989D01*
X99939667Y-83782989D02*
X99630143Y-83782989D01*
X99630143Y-83782989D02*
X99796810Y-83973465D01*
X99796810Y-83973465D02*
X99725381Y-83973465D01*
X99725381Y-83973465D02*
X99677762Y-83997275D01*
X99677762Y-83997275D02*
X99653953Y-84021084D01*
X99653953Y-84021084D02*
X99630143Y-84068703D01*
X99630143Y-84068703D02*
X99630143Y-84187751D01*
X99630143Y-84187751D02*
X99653953Y-84235370D01*
X99653953Y-84235370D02*
X99677762Y-84259180D01*
X99677762Y-84259180D02*
X99725381Y-84282989D01*
X99725381Y-84282989D02*
X99868238Y-84282989D01*
X99868238Y-84282989D02*
X99915857Y-84259180D01*
X99915857Y-84259180D02*
X99939667Y-84235370D01*
X102558716Y-81553423D02*
X102177764Y-81553423D01*
X101939668Y-81553423D02*
X101558716Y-81553423D01*
X101034906Y-81696280D02*
X101058715Y-81720090D01*
X101058715Y-81720090D02*
X101130144Y-81743899D01*
X101130144Y-81743899D02*
X101177763Y-81743899D01*
X101177763Y-81743899D02*
X101249191Y-81720090D01*
X101249191Y-81720090D02*
X101296810Y-81672470D01*
X101296810Y-81672470D02*
X101320620Y-81624851D01*
X101320620Y-81624851D02*
X101344429Y-81529613D01*
X101344429Y-81529613D02*
X101344429Y-81458185D01*
X101344429Y-81458185D02*
X101320620Y-81362947D01*
X101320620Y-81362947D02*
X101296810Y-81315328D01*
X101296810Y-81315328D02*
X101249191Y-81267709D01*
X101249191Y-81267709D02*
X101177763Y-81243899D01*
X101177763Y-81243899D02*
X101130144Y-81243899D01*
X101130144Y-81243899D02*
X101058715Y-81267709D01*
X101058715Y-81267709D02*
X101034906Y-81291518D01*
X100725382Y-81243899D02*
X100630144Y-81243899D01*
X100630144Y-81243899D02*
X100582525Y-81267709D01*
X100582525Y-81267709D02*
X100534906Y-81315328D01*
X100534906Y-81315328D02*
X100511096Y-81410566D01*
X100511096Y-81410566D02*
X100511096Y-81577232D01*
X100511096Y-81577232D02*
X100534906Y-81672470D01*
X100534906Y-81672470D02*
X100582525Y-81720090D01*
X100582525Y-81720090D02*
X100630144Y-81743899D01*
X100630144Y-81743899D02*
X100725382Y-81743899D01*
X100725382Y-81743899D02*
X100773001Y-81720090D01*
X100773001Y-81720090D02*
X100820620Y-81672470D01*
X100820620Y-81672470D02*
X100844429Y-81577232D01*
X100844429Y-81577232D02*
X100844429Y-81410566D01*
X100844429Y-81410566D02*
X100820620Y-81315328D01*
X100820620Y-81315328D02*
X100773001Y-81267709D01*
X100773001Y-81267709D02*
X100725382Y-81243899D01*
X100058715Y-81743899D02*
X100296810Y-81743899D01*
X100296810Y-81743899D02*
X100296810Y-81243899D01*
X99915857Y-81291518D02*
X99892048Y-81267709D01*
X99892048Y-81267709D02*
X99844429Y-81243899D01*
X99844429Y-81243899D02*
X99725381Y-81243899D01*
X99725381Y-81243899D02*
X99677762Y-81267709D01*
X99677762Y-81267709D02*
X99653953Y-81291518D01*
X99653953Y-81291518D02*
X99630143Y-81339137D01*
X99630143Y-81339137D02*
X99630143Y-81386756D01*
X99630143Y-81386756D02*
X99653953Y-81458185D01*
X99653953Y-81458185D02*
X99939667Y-81743899D01*
X99939667Y-81743899D02*
X99630143Y-81743899D01*
X102558716Y-71397063D02*
X102177764Y-71397063D01*
X101939668Y-71397063D02*
X101558716Y-71397063D01*
X101320620Y-71325634D02*
X101153953Y-71325634D01*
X101082525Y-71587539D02*
X101320620Y-71587539D01*
X101320620Y-71587539D02*
X101320620Y-71087539D01*
X101320620Y-71087539D02*
X101082525Y-71087539D01*
X100868239Y-71587539D02*
X100868239Y-71087539D01*
X100868239Y-71087539D02*
X100582525Y-71587539D01*
X100582525Y-71587539D02*
X100582525Y-71087539D01*
X100058715Y-71539920D02*
X100082524Y-71563730D01*
X100082524Y-71563730D02*
X100153953Y-71587539D01*
X100153953Y-71587539D02*
X100201572Y-71587539D01*
X100201572Y-71587539D02*
X100273000Y-71563730D01*
X100273000Y-71563730D02*
X100320619Y-71516110D01*
X100320619Y-71516110D02*
X100344429Y-71468491D01*
X100344429Y-71468491D02*
X100368238Y-71373253D01*
X100368238Y-71373253D02*
X100368238Y-71301825D01*
X100368238Y-71301825D02*
X100344429Y-71206587D01*
X100344429Y-71206587D02*
X100320619Y-71158968D01*
X100320619Y-71158968D02*
X100273000Y-71111349D01*
X100273000Y-71111349D02*
X100201572Y-71087539D01*
X100201572Y-71087539D02*
X100153953Y-71087539D01*
X100153953Y-71087539D02*
X100082524Y-71111349D01*
X100082524Y-71111349D02*
X100058715Y-71135158D01*
X99868238Y-71444682D02*
X99630143Y-71444682D01*
X99915857Y-71587539D02*
X99749191Y-71087539D01*
X99749191Y-71087539D02*
X99582524Y-71587539D01*
X91323189Y-66065899D02*
X91370808Y-66042089D01*
X91370808Y-66042089D02*
X91442237Y-66042089D01*
X91442237Y-66042089D02*
X91513665Y-66065899D01*
X91513665Y-66065899D02*
X91561284Y-66113518D01*
X91561284Y-66113518D02*
X91585094Y-66161137D01*
X91585094Y-66161137D02*
X91608903Y-66256375D01*
X91608903Y-66256375D02*
X91608903Y-66327803D01*
X91608903Y-66327803D02*
X91585094Y-66423041D01*
X91585094Y-66423041D02*
X91561284Y-66470660D01*
X91561284Y-66470660D02*
X91513665Y-66518280D01*
X91513665Y-66518280D02*
X91442237Y-66542089D01*
X91442237Y-66542089D02*
X91394618Y-66542089D01*
X91394618Y-66542089D02*
X91323189Y-66518280D01*
X91323189Y-66518280D02*
X91299380Y-66494470D01*
X91299380Y-66494470D02*
X91299380Y-66327803D01*
X91299380Y-66327803D02*
X91394618Y-66327803D01*
X91085094Y-66542089D02*
X91085094Y-66042089D01*
X91085094Y-66042089D02*
X90799380Y-66542089D01*
X90799380Y-66542089D02*
X90799380Y-66042089D01*
X90561284Y-66542089D02*
X90561284Y-66042089D01*
X90561284Y-66042089D02*
X90442236Y-66042089D01*
X90442236Y-66042089D02*
X90370808Y-66065899D01*
X90370808Y-66065899D02*
X90323189Y-66113518D01*
X90323189Y-66113518D02*
X90299379Y-66161137D01*
X90299379Y-66161137D02*
X90275570Y-66256375D01*
X90275570Y-66256375D02*
X90275570Y-66327803D01*
X90275570Y-66327803D02*
X90299379Y-66423041D01*
X90299379Y-66423041D02*
X90323189Y-66470660D01*
X90323189Y-66470660D02*
X90370808Y-66518280D01*
X90370808Y-66518280D02*
X90442236Y-66542089D01*
X90442236Y-66542089D02*
X90561284Y-66542089D01*
X90061284Y-66351613D02*
X89680332Y-66351613D01*
X89442236Y-66351613D02*
X89061284Y-66351613D01*
X102558716Y-58701613D02*
X102177764Y-58701613D01*
X101939668Y-58701613D02*
X101558716Y-58701613D01*
X101320620Y-58701613D02*
X100939668Y-58701613D01*
X101130144Y-58892089D02*
X101130144Y-58511137D01*
X100534905Y-58630184D02*
X100463477Y-58653994D01*
X100463477Y-58653994D02*
X100439667Y-58677803D01*
X100439667Y-58677803D02*
X100415858Y-58725422D01*
X100415858Y-58725422D02*
X100415858Y-58796851D01*
X100415858Y-58796851D02*
X100439667Y-58844470D01*
X100439667Y-58844470D02*
X100463477Y-58868280D01*
X100463477Y-58868280D02*
X100511096Y-58892089D01*
X100511096Y-58892089D02*
X100701572Y-58892089D01*
X100701572Y-58892089D02*
X100701572Y-58392089D01*
X100701572Y-58392089D02*
X100534905Y-58392089D01*
X100534905Y-58392089D02*
X100487286Y-58415899D01*
X100487286Y-58415899D02*
X100463477Y-58439708D01*
X100463477Y-58439708D02*
X100439667Y-58487327D01*
X100439667Y-58487327D02*
X100439667Y-58534946D01*
X100439667Y-58534946D02*
X100463477Y-58582565D01*
X100463477Y-58582565D02*
X100487286Y-58606375D01*
X100487286Y-58606375D02*
X100534905Y-58630184D01*
X100534905Y-58630184D02*
X100701572Y-58630184D01*
X100225381Y-58749232D02*
X99987286Y-58749232D01*
X100273000Y-58892089D02*
X100106334Y-58392089D01*
X100106334Y-58392089D02*
X99939667Y-58892089D01*
X99844429Y-58392089D02*
X99558715Y-58392089D01*
X99701572Y-58892089D02*
X99701572Y-58392089D01*
X99463477Y-58392089D02*
X99177763Y-58392089D01*
X99320620Y-58892089D02*
X99320620Y-58392089D01*
X91323189Y-63525899D02*
X91370808Y-63502089D01*
X91370808Y-63502089D02*
X91442237Y-63502089D01*
X91442237Y-63502089D02*
X91513665Y-63525899D01*
X91513665Y-63525899D02*
X91561284Y-63573518D01*
X91561284Y-63573518D02*
X91585094Y-63621137D01*
X91585094Y-63621137D02*
X91608903Y-63716375D01*
X91608903Y-63716375D02*
X91608903Y-63787803D01*
X91608903Y-63787803D02*
X91585094Y-63883041D01*
X91585094Y-63883041D02*
X91561284Y-63930660D01*
X91561284Y-63930660D02*
X91513665Y-63978280D01*
X91513665Y-63978280D02*
X91442237Y-64002089D01*
X91442237Y-64002089D02*
X91394618Y-64002089D01*
X91394618Y-64002089D02*
X91323189Y-63978280D01*
X91323189Y-63978280D02*
X91299380Y-63954470D01*
X91299380Y-63954470D02*
X91299380Y-63787803D01*
X91299380Y-63787803D02*
X91394618Y-63787803D01*
X91085094Y-64002089D02*
X91085094Y-63502089D01*
X91085094Y-63502089D02*
X90799380Y-64002089D01*
X90799380Y-64002089D02*
X90799380Y-63502089D01*
X90561284Y-64002089D02*
X90561284Y-63502089D01*
X90561284Y-63502089D02*
X90442236Y-63502089D01*
X90442236Y-63502089D02*
X90370808Y-63525899D01*
X90370808Y-63525899D02*
X90323189Y-63573518D01*
X90323189Y-63573518D02*
X90299379Y-63621137D01*
X90299379Y-63621137D02*
X90275570Y-63716375D01*
X90275570Y-63716375D02*
X90275570Y-63787803D01*
X90275570Y-63787803D02*
X90299379Y-63883041D01*
X90299379Y-63883041D02*
X90323189Y-63930660D01*
X90323189Y-63930660D02*
X90370808Y-63978280D01*
X90370808Y-63978280D02*
X90442236Y-64002089D01*
X90442236Y-64002089D02*
X90561284Y-64002089D01*
X90061284Y-63811613D02*
X89680332Y-63811613D01*
X89442236Y-63811613D02*
X89061284Y-63811613D01*
X91846999Y-84322089D02*
X92013665Y-84083994D01*
X92132713Y-84322089D02*
X92132713Y-83822089D01*
X92132713Y-83822089D02*
X91942237Y-83822089D01*
X91942237Y-83822089D02*
X91894618Y-83845899D01*
X91894618Y-83845899D02*
X91870808Y-83869708D01*
X91870808Y-83869708D02*
X91846999Y-83917327D01*
X91846999Y-83917327D02*
X91846999Y-83988756D01*
X91846999Y-83988756D02*
X91870808Y-84036375D01*
X91870808Y-84036375D02*
X91894618Y-84060184D01*
X91894618Y-84060184D02*
X91942237Y-84083994D01*
X91942237Y-84083994D02*
X92132713Y-84083994D01*
X91537475Y-83822089D02*
X91442237Y-83822089D01*
X91442237Y-83822089D02*
X91394618Y-83845899D01*
X91394618Y-83845899D02*
X91346999Y-83893518D01*
X91346999Y-83893518D02*
X91323189Y-83988756D01*
X91323189Y-83988756D02*
X91323189Y-84155422D01*
X91323189Y-84155422D02*
X91346999Y-84250660D01*
X91346999Y-84250660D02*
X91394618Y-84298280D01*
X91394618Y-84298280D02*
X91442237Y-84322089D01*
X91442237Y-84322089D02*
X91537475Y-84322089D01*
X91537475Y-84322089D02*
X91585094Y-84298280D01*
X91585094Y-84298280D02*
X91632713Y-84250660D01*
X91632713Y-84250660D02*
X91656522Y-84155422D01*
X91656522Y-84155422D02*
X91656522Y-83988756D01*
X91656522Y-83988756D02*
X91632713Y-83893518D01*
X91632713Y-83893518D02*
X91585094Y-83845899D01*
X91585094Y-83845899D02*
X91537475Y-83822089D01*
X91156522Y-83822089D02*
X91037474Y-84322089D01*
X91037474Y-84322089D02*
X90942236Y-83964946D01*
X90942236Y-83964946D02*
X90846998Y-84322089D01*
X90846998Y-84322089D02*
X90727951Y-83822089D01*
X90561283Y-83869708D02*
X90537474Y-83845899D01*
X90537474Y-83845899D02*
X90489855Y-83822089D01*
X90489855Y-83822089D02*
X90370807Y-83822089D01*
X90370807Y-83822089D02*
X90323188Y-83845899D01*
X90323188Y-83845899D02*
X90299379Y-83869708D01*
X90299379Y-83869708D02*
X90275569Y-83917327D01*
X90275569Y-83917327D02*
X90275569Y-83964946D01*
X90275569Y-83964946D02*
X90299379Y-84036375D01*
X90299379Y-84036375D02*
X90585093Y-84322089D01*
X90585093Y-84322089D02*
X90275569Y-84322089D01*
X90061284Y-84131613D02*
X89680332Y-84131613D01*
X89442236Y-84131613D02*
X89061284Y-84131613D01*
X101867287Y-89253595D02*
X101867287Y-88453595D01*
X101867287Y-88453595D02*
X101410144Y-89253595D01*
X101410144Y-89253595D02*
X101410144Y-88453595D01*
X101029192Y-89253595D02*
X101029192Y-88453595D01*
X100191097Y-89177404D02*
X100229193Y-89215500D01*
X100229193Y-89215500D02*
X100343478Y-89253595D01*
X100343478Y-89253595D02*
X100419669Y-89253595D01*
X100419669Y-89253595D02*
X100533955Y-89215500D01*
X100533955Y-89215500D02*
X100610145Y-89139309D01*
X100610145Y-89139309D02*
X100648240Y-89063119D01*
X100648240Y-89063119D02*
X100686336Y-88910738D01*
X100686336Y-88910738D02*
X100686336Y-88796452D01*
X100686336Y-88796452D02*
X100648240Y-88644071D01*
X100648240Y-88644071D02*
X100610145Y-88567880D01*
X100610145Y-88567880D02*
X100533955Y-88491690D01*
X100533955Y-88491690D02*
X100419669Y-88453595D01*
X100419669Y-88453595D02*
X100343478Y-88453595D01*
X100343478Y-88453595D02*
X100229193Y-88491690D01*
X100229193Y-88491690D02*
X100191097Y-88529785D01*
X99848240Y-88834547D02*
X99581574Y-88834547D01*
X99467288Y-89253595D02*
X99848240Y-89253595D01*
X99848240Y-89253595D02*
X99848240Y-88453595D01*
X99848240Y-88453595D02*
X99467288Y-88453595D01*
X99124430Y-89177404D02*
X99086335Y-89215500D01*
X99086335Y-89215500D02*
X99124430Y-89253595D01*
X99124430Y-89253595D02*
X99162526Y-89215500D01*
X99162526Y-89215500D02*
X99124430Y-89177404D01*
X99124430Y-89177404D02*
X99124430Y-89253595D01*
X99124430Y-88948833D02*
X99162526Y-88491690D01*
X99162526Y-88491690D02*
X99124430Y-88453595D01*
X99124430Y-88453595D02*
X99086335Y-88491690D01*
X99086335Y-88491690D02*
X99124430Y-88948833D01*
X99124430Y-88948833D02*
X99124430Y-88453595D01*
X98743478Y-89253595D02*
X98743478Y-88453595D01*
X98743478Y-88453595D02*
X98286335Y-89253595D01*
X98286335Y-89253595D02*
X98286335Y-88453595D01*
X97943479Y-89025023D02*
X97562526Y-89025023D01*
X98019669Y-89253595D02*
X97753002Y-88453595D01*
X97753002Y-88453595D02*
X97486336Y-89253595D01*
X97219669Y-89253595D02*
X97219669Y-88453595D01*
X97219669Y-88453595D02*
X96762526Y-89253595D01*
X96762526Y-89253595D02*
X96762526Y-88453595D01*
X96229193Y-88453595D02*
X96076812Y-88453595D01*
X96076812Y-88453595D02*
X96000622Y-88491690D01*
X96000622Y-88491690D02*
X95924431Y-88567880D01*
X95924431Y-88567880D02*
X95886336Y-88720261D01*
X95886336Y-88720261D02*
X95886336Y-88986928D01*
X95886336Y-88986928D02*
X95924431Y-89139309D01*
X95924431Y-89139309D02*
X96000622Y-89215500D01*
X96000622Y-89215500D02*
X96076812Y-89253595D01*
X96076812Y-89253595D02*
X96229193Y-89253595D01*
X96229193Y-89253595D02*
X96305384Y-89215500D01*
X96305384Y-89215500D02*
X96381574Y-89139309D01*
X96381574Y-89139309D02*
X96419670Y-88986928D01*
X96419670Y-88986928D02*
X96419670Y-88720261D01*
X96419670Y-88720261D02*
X96381574Y-88567880D01*
X96381574Y-88567880D02*
X96305384Y-88491690D01*
X96305384Y-88491690D02*
X96229193Y-88453595D01*
D14*
X113854904Y-57182295D02*
X114121571Y-56801342D01*
X114312047Y-57182295D02*
X114312047Y-56382295D01*
X114312047Y-56382295D02*
X114007285Y-56382295D01*
X114007285Y-56382295D02*
X113931095Y-56420390D01*
X113931095Y-56420390D02*
X113893000Y-56458485D01*
X113893000Y-56458485D02*
X113854904Y-56534676D01*
X113854904Y-56534676D02*
X113854904Y-56648961D01*
X113854904Y-56648961D02*
X113893000Y-56725152D01*
X113893000Y-56725152D02*
X113931095Y-56763247D01*
X113931095Y-56763247D02*
X114007285Y-56801342D01*
X114007285Y-56801342D02*
X114312047Y-56801342D01*
X113512047Y-56763247D02*
X113245381Y-56763247D01*
X113131095Y-57182295D02*
X113512047Y-57182295D01*
X113512047Y-57182295D02*
X113512047Y-56382295D01*
X113512047Y-56382295D02*
X113131095Y-56382295D01*
X112826333Y-57144200D02*
X112712047Y-57182295D01*
X112712047Y-57182295D02*
X112521571Y-57182295D01*
X112521571Y-57182295D02*
X112445380Y-57144200D01*
X112445380Y-57144200D02*
X112407285Y-57106104D01*
X112407285Y-57106104D02*
X112369190Y-57029914D01*
X112369190Y-57029914D02*
X112369190Y-56953723D01*
X112369190Y-56953723D02*
X112407285Y-56877533D01*
X112407285Y-56877533D02*
X112445380Y-56839438D01*
X112445380Y-56839438D02*
X112521571Y-56801342D01*
X112521571Y-56801342D02*
X112673952Y-56763247D01*
X112673952Y-56763247D02*
X112750142Y-56725152D01*
X112750142Y-56725152D02*
X112788237Y-56687057D01*
X112788237Y-56687057D02*
X112826333Y-56610866D01*
X112826333Y-56610866D02*
X112826333Y-56534676D01*
X112826333Y-56534676D02*
X112788237Y-56458485D01*
X112788237Y-56458485D02*
X112750142Y-56420390D01*
X112750142Y-56420390D02*
X112673952Y-56382295D01*
X112673952Y-56382295D02*
X112483475Y-56382295D01*
X112483475Y-56382295D02*
X112369190Y-56420390D01*
X112026332Y-56763247D02*
X111759666Y-56763247D01*
X111645380Y-57182295D02*
X112026332Y-57182295D01*
X112026332Y-57182295D02*
X112026332Y-56382295D01*
X112026332Y-56382295D02*
X111645380Y-56382295D01*
X111416808Y-56382295D02*
X110959665Y-56382295D01*
X111188237Y-57182295D02*
X111188237Y-56382295D01*
D10*
X101610119Y-71742535D02*
X101633928Y-71778250D01*
X101633928Y-71778250D02*
X101705357Y-71813964D01*
X101705357Y-71813964D02*
X101752976Y-71813964D01*
X101752976Y-71813964D02*
X101824404Y-71778250D01*
X101824404Y-71778250D02*
X101872023Y-71706821D01*
X101872023Y-71706821D02*
X101895833Y-71635392D01*
X101895833Y-71635392D02*
X101919642Y-71492535D01*
X101919642Y-71492535D02*
X101919642Y-71385392D01*
X101919642Y-71385392D02*
X101895833Y-71242535D01*
X101895833Y-71242535D02*
X101872023Y-71171107D01*
X101872023Y-71171107D02*
X101824404Y-71099678D01*
X101824404Y-71099678D02*
X101752976Y-71063964D01*
X101752976Y-71063964D02*
X101705357Y-71063964D01*
X101705357Y-71063964D02*
X101633928Y-71099678D01*
X101633928Y-71099678D02*
X101610119Y-71135392D01*
X101300595Y-71063964D02*
X101205357Y-71063964D01*
X101205357Y-71063964D02*
X101157738Y-71099678D01*
X101157738Y-71099678D02*
X101110119Y-71171107D01*
X101110119Y-71171107D02*
X101086309Y-71313964D01*
X101086309Y-71313964D02*
X101086309Y-71563964D01*
X101086309Y-71563964D02*
X101110119Y-71706821D01*
X101110119Y-71706821D02*
X101157738Y-71778250D01*
X101157738Y-71778250D02*
X101205357Y-71813964D01*
X101205357Y-71813964D02*
X101300595Y-71813964D01*
X101300595Y-71813964D02*
X101348214Y-71778250D01*
X101348214Y-71778250D02*
X101395833Y-71706821D01*
X101395833Y-71706821D02*
X101419642Y-71563964D01*
X101419642Y-71563964D02*
X101419642Y-71313964D01*
X101419642Y-71313964D02*
X101395833Y-71171107D01*
X101395833Y-71171107D02*
X101348214Y-71099678D01*
X101348214Y-71099678D02*
X101300595Y-71063964D01*
X100633928Y-71813964D02*
X100872023Y-71813964D01*
X100872023Y-71813964D02*
X100872023Y-71063964D01*
X100205356Y-71813964D02*
X100491070Y-71813964D01*
X100348213Y-71813964D02*
X100348213Y-71063964D01*
X100348213Y-71063964D02*
X100395832Y-71171107D01*
X100395832Y-71171107D02*
X100443451Y-71242535D01*
X100443451Y-71242535D02*
X100491070Y-71278250D01*
X101598738Y-59113964D02*
X101765404Y-58756821D01*
X101884452Y-59113964D02*
X101884452Y-58363964D01*
X101884452Y-58363964D02*
X101693976Y-58363964D01*
X101693976Y-58363964D02*
X101646357Y-58399678D01*
X101646357Y-58399678D02*
X101622547Y-58435392D01*
X101622547Y-58435392D02*
X101598738Y-58506821D01*
X101598738Y-58506821D02*
X101598738Y-58613964D01*
X101598738Y-58613964D02*
X101622547Y-58685392D01*
X101622547Y-58685392D02*
X101646357Y-58721107D01*
X101646357Y-58721107D02*
X101693976Y-58756821D01*
X101693976Y-58756821D02*
X101884452Y-58756821D01*
X101408261Y-58899678D02*
X101170166Y-58899678D01*
X101455880Y-59113964D02*
X101289214Y-58363964D01*
X101289214Y-58363964D02*
X101122547Y-59113964D01*
X101003500Y-58363964D02*
X100884452Y-59113964D01*
X100884452Y-59113964D02*
X100789214Y-58578250D01*
X100789214Y-58578250D02*
X100693976Y-59113964D01*
X100693976Y-59113964D02*
X100574929Y-58363964D01*
X101709880Y-86597607D02*
X101638452Y-86633321D01*
X101638452Y-86633321D02*
X101614642Y-86669035D01*
X101614642Y-86669035D02*
X101590833Y-86740464D01*
X101590833Y-86740464D02*
X101590833Y-86847607D01*
X101590833Y-86847607D02*
X101614642Y-86919035D01*
X101614642Y-86919035D02*
X101638452Y-86954750D01*
X101638452Y-86954750D02*
X101686071Y-86990464D01*
X101686071Y-86990464D02*
X101876547Y-86990464D01*
X101876547Y-86990464D02*
X101876547Y-86240464D01*
X101876547Y-86240464D02*
X101709880Y-86240464D01*
X101709880Y-86240464D02*
X101662261Y-86276178D01*
X101662261Y-86276178D02*
X101638452Y-86311892D01*
X101638452Y-86311892D02*
X101614642Y-86383321D01*
X101614642Y-86383321D02*
X101614642Y-86454750D01*
X101614642Y-86454750D02*
X101638452Y-86526178D01*
X101638452Y-86526178D02*
X101662261Y-86561892D01*
X101662261Y-86561892D02*
X101709880Y-86597607D01*
X101709880Y-86597607D02*
X101876547Y-86597607D01*
X101162261Y-86240464D02*
X101257499Y-86240464D01*
X101257499Y-86240464D02*
X101305118Y-86276178D01*
X101305118Y-86276178D02*
X101328928Y-86311892D01*
X101328928Y-86311892D02*
X101376547Y-86419035D01*
X101376547Y-86419035D02*
X101400356Y-86561892D01*
X101400356Y-86561892D02*
X101400356Y-86847607D01*
X101400356Y-86847607D02*
X101376547Y-86919035D01*
X101376547Y-86919035D02*
X101352737Y-86954750D01*
X101352737Y-86954750D02*
X101305118Y-86990464D01*
X101305118Y-86990464D02*
X101209880Y-86990464D01*
X101209880Y-86990464D02*
X101162261Y-86954750D01*
X101162261Y-86954750D02*
X101138452Y-86919035D01*
X101138452Y-86919035D02*
X101114642Y-86847607D01*
X101114642Y-86847607D02*
X101114642Y-86669035D01*
X101114642Y-86669035D02*
X101138452Y-86597607D01*
X101138452Y-86597607D02*
X101162261Y-86561892D01*
X101162261Y-86561892D02*
X101209880Y-86526178D01*
X101209880Y-86526178D02*
X101305118Y-86526178D01*
X101305118Y-86526178D02*
X101352737Y-86561892D01*
X101352737Y-86561892D02*
X101376547Y-86597607D01*
X101376547Y-86597607D02*
X101400356Y-86669035D01*
X86393452Y-74290464D02*
X86560118Y-73933321D01*
X86679166Y-74290464D02*
X86679166Y-73540464D01*
X86679166Y-73540464D02*
X86488690Y-73540464D01*
X86488690Y-73540464D02*
X86441071Y-73576178D01*
X86441071Y-73576178D02*
X86417261Y-73611892D01*
X86417261Y-73611892D02*
X86393452Y-73683321D01*
X86393452Y-73683321D02*
X86393452Y-73790464D01*
X86393452Y-73790464D02*
X86417261Y-73861892D01*
X86417261Y-73861892D02*
X86441071Y-73897607D01*
X86441071Y-73897607D02*
X86488690Y-73933321D01*
X86488690Y-73933321D02*
X86679166Y-73933321D01*
X86083928Y-73540464D02*
X85988690Y-73540464D01*
X85988690Y-73540464D02*
X85941071Y-73576178D01*
X85941071Y-73576178D02*
X85893452Y-73647607D01*
X85893452Y-73647607D02*
X85869642Y-73790464D01*
X85869642Y-73790464D02*
X85869642Y-74040464D01*
X85869642Y-74040464D02*
X85893452Y-74183321D01*
X85893452Y-74183321D02*
X85941071Y-74254750D01*
X85941071Y-74254750D02*
X85988690Y-74290464D01*
X85988690Y-74290464D02*
X86083928Y-74290464D01*
X86083928Y-74290464D02*
X86131547Y-74254750D01*
X86131547Y-74254750D02*
X86179166Y-74183321D01*
X86179166Y-74183321D02*
X86202975Y-74040464D01*
X86202975Y-74040464D02*
X86202975Y-73790464D01*
X86202975Y-73790464D02*
X86179166Y-73647607D01*
X86179166Y-73647607D02*
X86131547Y-73576178D01*
X86131547Y-73576178D02*
X86083928Y-73540464D01*
X85702975Y-73540464D02*
X85583927Y-74290464D01*
X85583927Y-74290464D02*
X85488689Y-73754750D01*
X85488689Y-73754750D02*
X85393451Y-74290464D01*
X85393451Y-74290464D02*
X85274404Y-73540464D01*
X84988689Y-73540464D02*
X84941070Y-73540464D01*
X84941070Y-73540464D02*
X84893451Y-73576178D01*
X84893451Y-73576178D02*
X84869641Y-73611892D01*
X84869641Y-73611892D02*
X84845832Y-73683321D01*
X84845832Y-73683321D02*
X84822022Y-73826178D01*
X84822022Y-73826178D02*
X84822022Y-74004750D01*
X84822022Y-74004750D02*
X84845832Y-74147607D01*
X84845832Y-74147607D02*
X84869641Y-74219035D01*
X84869641Y-74219035D02*
X84893451Y-74254750D01*
X84893451Y-74254750D02*
X84941070Y-74290464D01*
X84941070Y-74290464D02*
X84988689Y-74290464D01*
X84988689Y-74290464D02*
X85036308Y-74254750D01*
X85036308Y-74254750D02*
X85060117Y-74219035D01*
X85060117Y-74219035D02*
X85083927Y-74147607D01*
X85083927Y-74147607D02*
X85107736Y-74004750D01*
X85107736Y-74004750D02*
X85107736Y-73826178D01*
X85107736Y-73826178D02*
X85083927Y-73683321D01*
X85083927Y-73683321D02*
X85060117Y-73611892D01*
X85060117Y-73611892D02*
X85036308Y-73576178D01*
X85036308Y-73576178D02*
X84988689Y-73540464D01*
X86215880Y-86661107D02*
X86144452Y-86696821D01*
X86144452Y-86696821D02*
X86120642Y-86732535D01*
X86120642Y-86732535D02*
X86096833Y-86803964D01*
X86096833Y-86803964D02*
X86096833Y-86911107D01*
X86096833Y-86911107D02*
X86120642Y-86982535D01*
X86120642Y-86982535D02*
X86144452Y-87018250D01*
X86144452Y-87018250D02*
X86192071Y-87053964D01*
X86192071Y-87053964D02*
X86382547Y-87053964D01*
X86382547Y-87053964D02*
X86382547Y-86303964D01*
X86382547Y-86303964D02*
X86215880Y-86303964D01*
X86215880Y-86303964D02*
X86168261Y-86339678D01*
X86168261Y-86339678D02*
X86144452Y-86375392D01*
X86144452Y-86375392D02*
X86120642Y-86446821D01*
X86120642Y-86446821D02*
X86120642Y-86518250D01*
X86120642Y-86518250D02*
X86144452Y-86589678D01*
X86144452Y-86589678D02*
X86168261Y-86625392D01*
X86168261Y-86625392D02*
X86215880Y-86661107D01*
X86215880Y-86661107D02*
X86382547Y-86661107D01*
X85644452Y-86303964D02*
X85882547Y-86303964D01*
X85882547Y-86303964D02*
X85906356Y-86661107D01*
X85906356Y-86661107D02*
X85882547Y-86625392D01*
X85882547Y-86625392D02*
X85834928Y-86589678D01*
X85834928Y-86589678D02*
X85715880Y-86589678D01*
X85715880Y-86589678D02*
X85668261Y-86625392D01*
X85668261Y-86625392D02*
X85644452Y-86661107D01*
X85644452Y-86661107D02*
X85620642Y-86732535D01*
X85620642Y-86732535D02*
X85620642Y-86911107D01*
X85620642Y-86911107D02*
X85644452Y-86982535D01*
X85644452Y-86982535D02*
X85668261Y-87018250D01*
X85668261Y-87018250D02*
X85715880Y-87053964D01*
X85715880Y-87053964D02*
X85834928Y-87053964D01*
X85834928Y-87053964D02*
X85882547Y-87018250D01*
X85882547Y-87018250D02*
X85906356Y-86982535D01*
X86620641Y-69238250D02*
X86549213Y-69273964D01*
X86549213Y-69273964D02*
X86430165Y-69273964D01*
X86430165Y-69273964D02*
X86382546Y-69238250D01*
X86382546Y-69238250D02*
X86358737Y-69202535D01*
X86358737Y-69202535D02*
X86334927Y-69131107D01*
X86334927Y-69131107D02*
X86334927Y-69059678D01*
X86334927Y-69059678D02*
X86358737Y-68988250D01*
X86358737Y-68988250D02*
X86382546Y-68952535D01*
X86382546Y-68952535D02*
X86430165Y-68916821D01*
X86430165Y-68916821D02*
X86525403Y-68881107D01*
X86525403Y-68881107D02*
X86573022Y-68845392D01*
X86573022Y-68845392D02*
X86596832Y-68809678D01*
X86596832Y-68809678D02*
X86620641Y-68738250D01*
X86620641Y-68738250D02*
X86620641Y-68666821D01*
X86620641Y-68666821D02*
X86596832Y-68595392D01*
X86596832Y-68595392D02*
X86573022Y-68559678D01*
X86573022Y-68559678D02*
X86525403Y-68523964D01*
X86525403Y-68523964D02*
X86406356Y-68523964D01*
X86406356Y-68523964D02*
X86334927Y-68559678D01*
X86120642Y-69273964D02*
X86120642Y-68523964D01*
X86120642Y-68523964D02*
X86001594Y-68523964D01*
X86001594Y-68523964D02*
X85930166Y-68559678D01*
X85930166Y-68559678D02*
X85882547Y-68631107D01*
X85882547Y-68631107D02*
X85858737Y-68702535D01*
X85858737Y-68702535D02*
X85834928Y-68845392D01*
X85834928Y-68845392D02*
X85834928Y-68952535D01*
X85834928Y-68952535D02*
X85858737Y-69095392D01*
X85858737Y-69095392D02*
X85882547Y-69166821D01*
X85882547Y-69166821D02*
X85930166Y-69238250D01*
X85930166Y-69238250D02*
X86001594Y-69273964D01*
X86001594Y-69273964D02*
X86120642Y-69273964D01*
X85644451Y-69059678D02*
X85406356Y-69059678D01*
X85692070Y-69273964D02*
X85525404Y-68523964D01*
X85525404Y-68523964D02*
X85358737Y-69273964D01*
X86215880Y-84121107D02*
X86144452Y-84156821D01*
X86144452Y-84156821D02*
X86120642Y-84192535D01*
X86120642Y-84192535D02*
X86096833Y-84263964D01*
X86096833Y-84263964D02*
X86096833Y-84371107D01*
X86096833Y-84371107D02*
X86120642Y-84442535D01*
X86120642Y-84442535D02*
X86144452Y-84478250D01*
X86144452Y-84478250D02*
X86192071Y-84513964D01*
X86192071Y-84513964D02*
X86382547Y-84513964D01*
X86382547Y-84513964D02*
X86382547Y-83763964D01*
X86382547Y-83763964D02*
X86215880Y-83763964D01*
X86215880Y-83763964D02*
X86168261Y-83799678D01*
X86168261Y-83799678D02*
X86144452Y-83835392D01*
X86144452Y-83835392D02*
X86120642Y-83906821D01*
X86120642Y-83906821D02*
X86120642Y-83978250D01*
X86120642Y-83978250D02*
X86144452Y-84049678D01*
X86144452Y-84049678D02*
X86168261Y-84085392D01*
X86168261Y-84085392D02*
X86215880Y-84121107D01*
X86215880Y-84121107D02*
X86382547Y-84121107D01*
X85668261Y-84013964D02*
X85668261Y-84513964D01*
X85787309Y-83728250D02*
X85906356Y-84263964D01*
X85906356Y-84263964D02*
X85596833Y-84263964D01*
X86394452Y-63479678D02*
X86442071Y-63443964D01*
X86442071Y-63443964D02*
X86513500Y-63443964D01*
X86513500Y-63443964D02*
X86584928Y-63479678D01*
X86584928Y-63479678D02*
X86632547Y-63551107D01*
X86632547Y-63551107D02*
X86656357Y-63622535D01*
X86656357Y-63622535D02*
X86680166Y-63765392D01*
X86680166Y-63765392D02*
X86680166Y-63872535D01*
X86680166Y-63872535D02*
X86656357Y-64015392D01*
X86656357Y-64015392D02*
X86632547Y-64086821D01*
X86632547Y-64086821D02*
X86584928Y-64158250D01*
X86584928Y-64158250D02*
X86513500Y-64193964D01*
X86513500Y-64193964D02*
X86465881Y-64193964D01*
X86465881Y-64193964D02*
X86394452Y-64158250D01*
X86394452Y-64158250D02*
X86370643Y-64122535D01*
X86370643Y-64122535D02*
X86370643Y-63872535D01*
X86370643Y-63872535D02*
X86465881Y-63872535D01*
X86156357Y-64193964D02*
X86156357Y-63443964D01*
X86156357Y-63443964D02*
X85870643Y-64193964D01*
X85870643Y-64193964D02*
X85870643Y-63443964D01*
X85632547Y-64193964D02*
X85632547Y-63443964D01*
X85632547Y-63443964D02*
X85513499Y-63443964D01*
X85513499Y-63443964D02*
X85442071Y-63479678D01*
X85442071Y-63479678D02*
X85394452Y-63551107D01*
X85394452Y-63551107D02*
X85370642Y-63622535D01*
X85370642Y-63622535D02*
X85346833Y-63765392D01*
X85346833Y-63765392D02*
X85346833Y-63872535D01*
X85346833Y-63872535D02*
X85370642Y-64015392D01*
X85370642Y-64015392D02*
X85394452Y-64086821D01*
X85394452Y-64086821D02*
X85442071Y-64158250D01*
X85442071Y-64158250D02*
X85513499Y-64193964D01*
X85513499Y-64193964D02*
X85632547Y-64193964D01*
X101773380Y-83994107D02*
X101701952Y-84029821D01*
X101701952Y-84029821D02*
X101678142Y-84065535D01*
X101678142Y-84065535D02*
X101654333Y-84136964D01*
X101654333Y-84136964D02*
X101654333Y-84244107D01*
X101654333Y-84244107D02*
X101678142Y-84315535D01*
X101678142Y-84315535D02*
X101701952Y-84351250D01*
X101701952Y-84351250D02*
X101749571Y-84386964D01*
X101749571Y-84386964D02*
X101940047Y-84386964D01*
X101940047Y-84386964D02*
X101940047Y-83636964D01*
X101940047Y-83636964D02*
X101773380Y-83636964D01*
X101773380Y-83636964D02*
X101725761Y-83672678D01*
X101725761Y-83672678D02*
X101701952Y-83708392D01*
X101701952Y-83708392D02*
X101678142Y-83779821D01*
X101678142Y-83779821D02*
X101678142Y-83851250D01*
X101678142Y-83851250D02*
X101701952Y-83922678D01*
X101701952Y-83922678D02*
X101725761Y-83958392D01*
X101725761Y-83958392D02*
X101773380Y-83994107D01*
X101773380Y-83994107D02*
X101940047Y-83994107D01*
X101463856Y-83708392D02*
X101440047Y-83672678D01*
X101440047Y-83672678D02*
X101392428Y-83636964D01*
X101392428Y-83636964D02*
X101273380Y-83636964D01*
X101273380Y-83636964D02*
X101225761Y-83672678D01*
X101225761Y-83672678D02*
X101201952Y-83708392D01*
X101201952Y-83708392D02*
X101178142Y-83779821D01*
X101178142Y-83779821D02*
X101178142Y-83851250D01*
X101178142Y-83851250D02*
X101201952Y-83958392D01*
X101201952Y-83958392D02*
X101487666Y-84386964D01*
X101487666Y-84386964D02*
X101178142Y-84386964D01*
X101610119Y-69237035D02*
X101633928Y-69272750D01*
X101633928Y-69272750D02*
X101705357Y-69308464D01*
X101705357Y-69308464D02*
X101752976Y-69308464D01*
X101752976Y-69308464D02*
X101824404Y-69272750D01*
X101824404Y-69272750D02*
X101872023Y-69201321D01*
X101872023Y-69201321D02*
X101895833Y-69129892D01*
X101895833Y-69129892D02*
X101919642Y-68987035D01*
X101919642Y-68987035D02*
X101919642Y-68879892D01*
X101919642Y-68879892D02*
X101895833Y-68737035D01*
X101895833Y-68737035D02*
X101872023Y-68665607D01*
X101872023Y-68665607D02*
X101824404Y-68594178D01*
X101824404Y-68594178D02*
X101752976Y-68558464D01*
X101752976Y-68558464D02*
X101705357Y-68558464D01*
X101705357Y-68558464D02*
X101633928Y-68594178D01*
X101633928Y-68594178D02*
X101610119Y-68629892D01*
X101300595Y-68558464D02*
X101205357Y-68558464D01*
X101205357Y-68558464D02*
X101157738Y-68594178D01*
X101157738Y-68594178D02*
X101110119Y-68665607D01*
X101110119Y-68665607D02*
X101086309Y-68808464D01*
X101086309Y-68808464D02*
X101086309Y-69058464D01*
X101086309Y-69058464D02*
X101110119Y-69201321D01*
X101110119Y-69201321D02*
X101157738Y-69272750D01*
X101157738Y-69272750D02*
X101205357Y-69308464D01*
X101205357Y-69308464D02*
X101300595Y-69308464D01*
X101300595Y-69308464D02*
X101348214Y-69272750D01*
X101348214Y-69272750D02*
X101395833Y-69201321D01*
X101395833Y-69201321D02*
X101419642Y-69058464D01*
X101419642Y-69058464D02*
X101419642Y-68808464D01*
X101419642Y-68808464D02*
X101395833Y-68665607D01*
X101395833Y-68665607D02*
X101348214Y-68594178D01*
X101348214Y-68594178D02*
X101300595Y-68558464D01*
X100633928Y-69308464D02*
X100872023Y-69308464D01*
X100872023Y-69308464D02*
X100872023Y-68558464D01*
X100372023Y-68558464D02*
X100324404Y-68558464D01*
X100324404Y-68558464D02*
X100276785Y-68594178D01*
X100276785Y-68594178D02*
X100252975Y-68629892D01*
X100252975Y-68629892D02*
X100229166Y-68701321D01*
X100229166Y-68701321D02*
X100205356Y-68844178D01*
X100205356Y-68844178D02*
X100205356Y-69022750D01*
X100205356Y-69022750D02*
X100229166Y-69165607D01*
X100229166Y-69165607D02*
X100252975Y-69237035D01*
X100252975Y-69237035D02*
X100276785Y-69272750D01*
X100276785Y-69272750D02*
X100324404Y-69308464D01*
X100324404Y-69308464D02*
X100372023Y-69308464D01*
X100372023Y-69308464D02*
X100419642Y-69272750D01*
X100419642Y-69272750D02*
X100443451Y-69237035D01*
X100443451Y-69237035D02*
X100467261Y-69165607D01*
X100467261Y-69165607D02*
X100491070Y-69022750D01*
X100491070Y-69022750D02*
X100491070Y-68844178D01*
X100491070Y-68844178D02*
X100467261Y-68701321D01*
X100467261Y-68701321D02*
X100443451Y-68629892D01*
X100443451Y-68629892D02*
X100419642Y-68594178D01*
X100419642Y-68594178D02*
X100372023Y-68558464D01*
X86393452Y-79497464D02*
X86560118Y-79140321D01*
X86679166Y-79497464D02*
X86679166Y-78747464D01*
X86679166Y-78747464D02*
X86488690Y-78747464D01*
X86488690Y-78747464D02*
X86441071Y-78783178D01*
X86441071Y-78783178D02*
X86417261Y-78818892D01*
X86417261Y-78818892D02*
X86393452Y-78890321D01*
X86393452Y-78890321D02*
X86393452Y-78997464D01*
X86393452Y-78997464D02*
X86417261Y-79068892D01*
X86417261Y-79068892D02*
X86441071Y-79104607D01*
X86441071Y-79104607D02*
X86488690Y-79140321D01*
X86488690Y-79140321D02*
X86679166Y-79140321D01*
X86083928Y-78747464D02*
X85988690Y-78747464D01*
X85988690Y-78747464D02*
X85941071Y-78783178D01*
X85941071Y-78783178D02*
X85893452Y-78854607D01*
X85893452Y-78854607D02*
X85869642Y-78997464D01*
X85869642Y-78997464D02*
X85869642Y-79247464D01*
X85869642Y-79247464D02*
X85893452Y-79390321D01*
X85893452Y-79390321D02*
X85941071Y-79461750D01*
X85941071Y-79461750D02*
X85988690Y-79497464D01*
X85988690Y-79497464D02*
X86083928Y-79497464D01*
X86083928Y-79497464D02*
X86131547Y-79461750D01*
X86131547Y-79461750D02*
X86179166Y-79390321D01*
X86179166Y-79390321D02*
X86202975Y-79247464D01*
X86202975Y-79247464D02*
X86202975Y-78997464D01*
X86202975Y-78997464D02*
X86179166Y-78854607D01*
X86179166Y-78854607D02*
X86131547Y-78783178D01*
X86131547Y-78783178D02*
X86083928Y-78747464D01*
X85702975Y-78747464D02*
X85583927Y-79497464D01*
X85583927Y-79497464D02*
X85488689Y-78961750D01*
X85488689Y-78961750D02*
X85393451Y-79497464D01*
X85393451Y-79497464D02*
X85274404Y-78747464D01*
X85107736Y-78818892D02*
X85083927Y-78783178D01*
X85083927Y-78783178D02*
X85036308Y-78747464D01*
X85036308Y-78747464D02*
X84917260Y-78747464D01*
X84917260Y-78747464D02*
X84869641Y-78783178D01*
X84869641Y-78783178D02*
X84845832Y-78818892D01*
X84845832Y-78818892D02*
X84822022Y-78890321D01*
X84822022Y-78890321D02*
X84822022Y-78961750D01*
X84822022Y-78961750D02*
X84845832Y-79068892D01*
X84845832Y-79068892D02*
X85131546Y-79497464D01*
X85131546Y-79497464D02*
X84822022Y-79497464D01*
X86394452Y-66019678D02*
X86442071Y-65983964D01*
X86442071Y-65983964D02*
X86513500Y-65983964D01*
X86513500Y-65983964D02*
X86584928Y-66019678D01*
X86584928Y-66019678D02*
X86632547Y-66091107D01*
X86632547Y-66091107D02*
X86656357Y-66162535D01*
X86656357Y-66162535D02*
X86680166Y-66305392D01*
X86680166Y-66305392D02*
X86680166Y-66412535D01*
X86680166Y-66412535D02*
X86656357Y-66555392D01*
X86656357Y-66555392D02*
X86632547Y-66626821D01*
X86632547Y-66626821D02*
X86584928Y-66698250D01*
X86584928Y-66698250D02*
X86513500Y-66733964D01*
X86513500Y-66733964D02*
X86465881Y-66733964D01*
X86465881Y-66733964D02*
X86394452Y-66698250D01*
X86394452Y-66698250D02*
X86370643Y-66662535D01*
X86370643Y-66662535D02*
X86370643Y-66412535D01*
X86370643Y-66412535D02*
X86465881Y-66412535D01*
X86156357Y-66733964D02*
X86156357Y-65983964D01*
X86156357Y-65983964D02*
X85870643Y-66733964D01*
X85870643Y-66733964D02*
X85870643Y-65983964D01*
X85632547Y-66733964D02*
X85632547Y-65983964D01*
X85632547Y-65983964D02*
X85513499Y-65983964D01*
X85513499Y-65983964D02*
X85442071Y-66019678D01*
X85442071Y-66019678D02*
X85394452Y-66091107D01*
X85394452Y-66091107D02*
X85370642Y-66162535D01*
X85370642Y-66162535D02*
X85346833Y-66305392D01*
X85346833Y-66305392D02*
X85346833Y-66412535D01*
X85346833Y-66412535D02*
X85370642Y-66555392D01*
X85370642Y-66555392D02*
X85394452Y-66626821D01*
X85394452Y-66626821D02*
X85442071Y-66698250D01*
X85442071Y-66698250D02*
X85513499Y-66733964D01*
X85513499Y-66733964D02*
X85632547Y-66733964D01*
X101570952Y-60876178D02*
X101618571Y-60840464D01*
X101618571Y-60840464D02*
X101690000Y-60840464D01*
X101690000Y-60840464D02*
X101761428Y-60876178D01*
X101761428Y-60876178D02*
X101809047Y-60947607D01*
X101809047Y-60947607D02*
X101832857Y-61019035D01*
X101832857Y-61019035D02*
X101856666Y-61161892D01*
X101856666Y-61161892D02*
X101856666Y-61269035D01*
X101856666Y-61269035D02*
X101832857Y-61411892D01*
X101832857Y-61411892D02*
X101809047Y-61483321D01*
X101809047Y-61483321D02*
X101761428Y-61554750D01*
X101761428Y-61554750D02*
X101690000Y-61590464D01*
X101690000Y-61590464D02*
X101642381Y-61590464D01*
X101642381Y-61590464D02*
X101570952Y-61554750D01*
X101570952Y-61554750D02*
X101547143Y-61519035D01*
X101547143Y-61519035D02*
X101547143Y-61269035D01*
X101547143Y-61269035D02*
X101642381Y-61269035D01*
X101332857Y-61590464D02*
X101332857Y-60840464D01*
X101332857Y-60840464D02*
X101047143Y-61590464D01*
X101047143Y-61590464D02*
X101047143Y-60840464D01*
X100809047Y-61590464D02*
X100809047Y-60840464D01*
X100809047Y-60840464D02*
X100689999Y-60840464D01*
X100689999Y-60840464D02*
X100618571Y-60876178D01*
X100618571Y-60876178D02*
X100570952Y-60947607D01*
X100570952Y-60947607D02*
X100547142Y-61019035D01*
X100547142Y-61019035D02*
X100523333Y-61161892D01*
X100523333Y-61161892D02*
X100523333Y-61269035D01*
X100523333Y-61269035D02*
X100547142Y-61411892D01*
X100547142Y-61411892D02*
X100570952Y-61483321D01*
X100570952Y-61483321D02*
X100618571Y-61554750D01*
X100618571Y-61554750D02*
X100689999Y-61590464D01*
X100689999Y-61590464D02*
X100809047Y-61590464D01*
X86393452Y-82008464D02*
X86560118Y-81651321D01*
X86679166Y-82008464D02*
X86679166Y-81258464D01*
X86679166Y-81258464D02*
X86488690Y-81258464D01*
X86488690Y-81258464D02*
X86441071Y-81294178D01*
X86441071Y-81294178D02*
X86417261Y-81329892D01*
X86417261Y-81329892D02*
X86393452Y-81401321D01*
X86393452Y-81401321D02*
X86393452Y-81508464D01*
X86393452Y-81508464D02*
X86417261Y-81579892D01*
X86417261Y-81579892D02*
X86441071Y-81615607D01*
X86441071Y-81615607D02*
X86488690Y-81651321D01*
X86488690Y-81651321D02*
X86679166Y-81651321D01*
X86083928Y-81258464D02*
X85988690Y-81258464D01*
X85988690Y-81258464D02*
X85941071Y-81294178D01*
X85941071Y-81294178D02*
X85893452Y-81365607D01*
X85893452Y-81365607D02*
X85869642Y-81508464D01*
X85869642Y-81508464D02*
X85869642Y-81758464D01*
X85869642Y-81758464D02*
X85893452Y-81901321D01*
X85893452Y-81901321D02*
X85941071Y-81972750D01*
X85941071Y-81972750D02*
X85988690Y-82008464D01*
X85988690Y-82008464D02*
X86083928Y-82008464D01*
X86083928Y-82008464D02*
X86131547Y-81972750D01*
X86131547Y-81972750D02*
X86179166Y-81901321D01*
X86179166Y-81901321D02*
X86202975Y-81758464D01*
X86202975Y-81758464D02*
X86202975Y-81508464D01*
X86202975Y-81508464D02*
X86179166Y-81365607D01*
X86179166Y-81365607D02*
X86131547Y-81294178D01*
X86131547Y-81294178D02*
X86083928Y-81258464D01*
X85702975Y-81258464D02*
X85583927Y-82008464D01*
X85583927Y-82008464D02*
X85488689Y-81472750D01*
X85488689Y-81472750D02*
X85393451Y-82008464D01*
X85393451Y-82008464D02*
X85274404Y-81258464D01*
X85131546Y-81258464D02*
X84822022Y-81258464D01*
X84822022Y-81258464D02*
X84988689Y-81544178D01*
X84988689Y-81544178D02*
X84917260Y-81544178D01*
X84917260Y-81544178D02*
X84869641Y-81579892D01*
X84869641Y-81579892D02*
X84845832Y-81615607D01*
X84845832Y-81615607D02*
X84822022Y-81687035D01*
X84822022Y-81687035D02*
X84822022Y-81865607D01*
X84822022Y-81865607D02*
X84845832Y-81937035D01*
X84845832Y-81937035D02*
X84869641Y-81972750D01*
X84869641Y-81972750D02*
X84917260Y-82008464D01*
X84917260Y-82008464D02*
X85060117Y-82008464D01*
X85060117Y-82008464D02*
X85107736Y-81972750D01*
X85107736Y-81972750D02*
X85131546Y-81937035D01*
X86393452Y-76893964D02*
X86560118Y-76536821D01*
X86679166Y-76893964D02*
X86679166Y-76143964D01*
X86679166Y-76143964D02*
X86488690Y-76143964D01*
X86488690Y-76143964D02*
X86441071Y-76179678D01*
X86441071Y-76179678D02*
X86417261Y-76215392D01*
X86417261Y-76215392D02*
X86393452Y-76286821D01*
X86393452Y-76286821D02*
X86393452Y-76393964D01*
X86393452Y-76393964D02*
X86417261Y-76465392D01*
X86417261Y-76465392D02*
X86441071Y-76501107D01*
X86441071Y-76501107D02*
X86488690Y-76536821D01*
X86488690Y-76536821D02*
X86679166Y-76536821D01*
X86083928Y-76143964D02*
X85988690Y-76143964D01*
X85988690Y-76143964D02*
X85941071Y-76179678D01*
X85941071Y-76179678D02*
X85893452Y-76251107D01*
X85893452Y-76251107D02*
X85869642Y-76393964D01*
X85869642Y-76393964D02*
X85869642Y-76643964D01*
X85869642Y-76643964D02*
X85893452Y-76786821D01*
X85893452Y-76786821D02*
X85941071Y-76858250D01*
X85941071Y-76858250D02*
X85988690Y-76893964D01*
X85988690Y-76893964D02*
X86083928Y-76893964D01*
X86083928Y-76893964D02*
X86131547Y-76858250D01*
X86131547Y-76858250D02*
X86179166Y-76786821D01*
X86179166Y-76786821D02*
X86202975Y-76643964D01*
X86202975Y-76643964D02*
X86202975Y-76393964D01*
X86202975Y-76393964D02*
X86179166Y-76251107D01*
X86179166Y-76251107D02*
X86131547Y-76179678D01*
X86131547Y-76179678D02*
X86083928Y-76143964D01*
X85702975Y-76143964D02*
X85583927Y-76893964D01*
X85583927Y-76893964D02*
X85488689Y-76358250D01*
X85488689Y-76358250D02*
X85393451Y-76893964D01*
X85393451Y-76893964D02*
X85274404Y-76143964D01*
X84822022Y-76893964D02*
X85107736Y-76893964D01*
X84964879Y-76893964D02*
X84964879Y-76143964D01*
X84964879Y-76143964D02*
X85012498Y-76251107D01*
X85012498Y-76251107D02*
X85060117Y-76322535D01*
X85060117Y-76322535D02*
X85107736Y-76358250D01*
X101560119Y-79299035D02*
X101583928Y-79334750D01*
X101583928Y-79334750D02*
X101655357Y-79370464D01*
X101655357Y-79370464D02*
X101702976Y-79370464D01*
X101702976Y-79370464D02*
X101774404Y-79334750D01*
X101774404Y-79334750D02*
X101822023Y-79263321D01*
X101822023Y-79263321D02*
X101845833Y-79191892D01*
X101845833Y-79191892D02*
X101869642Y-79049035D01*
X101869642Y-79049035D02*
X101869642Y-78941892D01*
X101869642Y-78941892D02*
X101845833Y-78799035D01*
X101845833Y-78799035D02*
X101822023Y-78727607D01*
X101822023Y-78727607D02*
X101774404Y-78656178D01*
X101774404Y-78656178D02*
X101702976Y-78620464D01*
X101702976Y-78620464D02*
X101655357Y-78620464D01*
X101655357Y-78620464D02*
X101583928Y-78656178D01*
X101583928Y-78656178D02*
X101560119Y-78691892D01*
X101250595Y-78620464D02*
X101155357Y-78620464D01*
X101155357Y-78620464D02*
X101107738Y-78656178D01*
X101107738Y-78656178D02*
X101060119Y-78727607D01*
X101060119Y-78727607D02*
X101036309Y-78870464D01*
X101036309Y-78870464D02*
X101036309Y-79120464D01*
X101036309Y-79120464D02*
X101060119Y-79263321D01*
X101060119Y-79263321D02*
X101107738Y-79334750D01*
X101107738Y-79334750D02*
X101155357Y-79370464D01*
X101155357Y-79370464D02*
X101250595Y-79370464D01*
X101250595Y-79370464D02*
X101298214Y-79334750D01*
X101298214Y-79334750D02*
X101345833Y-79263321D01*
X101345833Y-79263321D02*
X101369642Y-79120464D01*
X101369642Y-79120464D02*
X101369642Y-78870464D01*
X101369642Y-78870464D02*
X101345833Y-78727607D01*
X101345833Y-78727607D02*
X101298214Y-78656178D01*
X101298214Y-78656178D02*
X101250595Y-78620464D01*
X100583928Y-79370464D02*
X100822023Y-79370464D01*
X100822023Y-79370464D02*
X100822023Y-78620464D01*
X100202975Y-78870464D02*
X100202975Y-79370464D01*
X100322023Y-78584750D02*
X100441070Y-79120464D01*
X100441070Y-79120464D02*
X100131547Y-79120464D01*
X101856665Y-65983964D02*
X101689999Y-66733964D01*
X101689999Y-66733964D02*
X101523332Y-65983964D01*
X101070952Y-66662535D02*
X101094761Y-66698250D01*
X101094761Y-66698250D02*
X101166190Y-66733964D01*
X101166190Y-66733964D02*
X101213809Y-66733964D01*
X101213809Y-66733964D02*
X101285237Y-66698250D01*
X101285237Y-66698250D02*
X101332856Y-66626821D01*
X101332856Y-66626821D02*
X101356666Y-66555392D01*
X101356666Y-66555392D02*
X101380475Y-66412535D01*
X101380475Y-66412535D02*
X101380475Y-66305392D01*
X101380475Y-66305392D02*
X101356666Y-66162535D01*
X101356666Y-66162535D02*
X101332856Y-66091107D01*
X101332856Y-66091107D02*
X101285237Y-66019678D01*
X101285237Y-66019678D02*
X101213809Y-65983964D01*
X101213809Y-65983964D02*
X101166190Y-65983964D01*
X101166190Y-65983964D02*
X101094761Y-66019678D01*
X101094761Y-66019678D02*
X101070952Y-66055392D01*
X100570952Y-66662535D02*
X100594761Y-66698250D01*
X100594761Y-66698250D02*
X100666190Y-66733964D01*
X100666190Y-66733964D02*
X100713809Y-66733964D01*
X100713809Y-66733964D02*
X100785237Y-66698250D01*
X100785237Y-66698250D02*
X100832856Y-66626821D01*
X100832856Y-66626821D02*
X100856666Y-66555392D01*
X100856666Y-66555392D02*
X100880475Y-66412535D01*
X100880475Y-66412535D02*
X100880475Y-66305392D01*
X100880475Y-66305392D02*
X100856666Y-66162535D01*
X100856666Y-66162535D02*
X100832856Y-66091107D01*
X100832856Y-66091107D02*
X100785237Y-66019678D01*
X100785237Y-66019678D02*
X100713809Y-65983964D01*
X100713809Y-65983964D02*
X100666190Y-65983964D01*
X100666190Y-65983964D02*
X100594761Y-66019678D01*
X100594761Y-66019678D02*
X100570952Y-66055392D01*
X86612499Y-61758464D02*
X86612499Y-61008464D01*
X86612499Y-61008464D02*
X86493451Y-61008464D01*
X86493451Y-61008464D02*
X86422023Y-61044178D01*
X86422023Y-61044178D02*
X86374404Y-61115607D01*
X86374404Y-61115607D02*
X86350594Y-61187035D01*
X86350594Y-61187035D02*
X86326785Y-61329892D01*
X86326785Y-61329892D02*
X86326785Y-61437035D01*
X86326785Y-61437035D02*
X86350594Y-61579892D01*
X86350594Y-61579892D02*
X86374404Y-61651321D01*
X86374404Y-61651321D02*
X86422023Y-61722750D01*
X86422023Y-61722750D02*
X86493451Y-61758464D01*
X86493451Y-61758464D02*
X86612499Y-61758464D01*
X86136308Y-61544178D02*
X85898213Y-61544178D01*
X86183927Y-61758464D02*
X86017261Y-61008464D01*
X86017261Y-61008464D02*
X85850594Y-61758464D01*
X85755356Y-61008464D02*
X85469642Y-61008464D01*
X85612499Y-61758464D02*
X85612499Y-61008464D01*
X85326785Y-61544178D02*
X85088690Y-61544178D01*
X85374404Y-61758464D02*
X85207738Y-61008464D01*
X85207738Y-61008464D02*
X85041071Y-61758464D01*
X101527309Y-64193964D02*
X101693975Y-63836821D01*
X101813023Y-64193964D02*
X101813023Y-63443964D01*
X101813023Y-63443964D02*
X101622547Y-63443964D01*
X101622547Y-63443964D02*
X101574928Y-63479678D01*
X101574928Y-63479678D02*
X101551118Y-63515392D01*
X101551118Y-63515392D02*
X101527309Y-63586821D01*
X101527309Y-63586821D02*
X101527309Y-63693964D01*
X101527309Y-63693964D02*
X101551118Y-63765392D01*
X101551118Y-63765392D02*
X101574928Y-63801107D01*
X101574928Y-63801107D02*
X101622547Y-63836821D01*
X101622547Y-63836821D02*
X101813023Y-63836821D01*
X101336832Y-64158250D02*
X101265404Y-64193964D01*
X101265404Y-64193964D02*
X101146356Y-64193964D01*
X101146356Y-64193964D02*
X101098737Y-64158250D01*
X101098737Y-64158250D02*
X101074928Y-64122535D01*
X101074928Y-64122535D02*
X101051118Y-64051107D01*
X101051118Y-64051107D02*
X101051118Y-63979678D01*
X101051118Y-63979678D02*
X101074928Y-63908250D01*
X101074928Y-63908250D02*
X101098737Y-63872535D01*
X101098737Y-63872535D02*
X101146356Y-63836821D01*
X101146356Y-63836821D02*
X101241594Y-63801107D01*
X101241594Y-63801107D02*
X101289213Y-63765392D01*
X101289213Y-63765392D02*
X101313023Y-63729678D01*
X101313023Y-63729678D02*
X101336832Y-63658250D01*
X101336832Y-63658250D02*
X101336832Y-63586821D01*
X101336832Y-63586821D02*
X101313023Y-63515392D01*
X101313023Y-63515392D02*
X101289213Y-63479678D01*
X101289213Y-63479678D02*
X101241594Y-63443964D01*
X101241594Y-63443964D02*
X101122547Y-63443964D01*
X101122547Y-63443964D02*
X101051118Y-63479678D01*
X100908261Y-63443964D02*
X100622547Y-63443964D01*
X100765404Y-64193964D02*
X100765404Y-63443964D01*
X101610119Y-81937035D02*
X101633928Y-81972750D01*
X101633928Y-81972750D02*
X101705357Y-82008464D01*
X101705357Y-82008464D02*
X101752976Y-82008464D01*
X101752976Y-82008464D02*
X101824404Y-81972750D01*
X101824404Y-81972750D02*
X101872023Y-81901321D01*
X101872023Y-81901321D02*
X101895833Y-81829892D01*
X101895833Y-81829892D02*
X101919642Y-81687035D01*
X101919642Y-81687035D02*
X101919642Y-81579892D01*
X101919642Y-81579892D02*
X101895833Y-81437035D01*
X101895833Y-81437035D02*
X101872023Y-81365607D01*
X101872023Y-81365607D02*
X101824404Y-81294178D01*
X101824404Y-81294178D02*
X101752976Y-81258464D01*
X101752976Y-81258464D02*
X101705357Y-81258464D01*
X101705357Y-81258464D02*
X101633928Y-81294178D01*
X101633928Y-81294178D02*
X101610119Y-81329892D01*
X101300595Y-81258464D02*
X101205357Y-81258464D01*
X101205357Y-81258464D02*
X101157738Y-81294178D01*
X101157738Y-81294178D02*
X101110119Y-81365607D01*
X101110119Y-81365607D02*
X101086309Y-81508464D01*
X101086309Y-81508464D02*
X101086309Y-81758464D01*
X101086309Y-81758464D02*
X101110119Y-81901321D01*
X101110119Y-81901321D02*
X101157738Y-81972750D01*
X101157738Y-81972750D02*
X101205357Y-82008464D01*
X101205357Y-82008464D02*
X101300595Y-82008464D01*
X101300595Y-82008464D02*
X101348214Y-81972750D01*
X101348214Y-81972750D02*
X101395833Y-81901321D01*
X101395833Y-81901321D02*
X101419642Y-81758464D01*
X101419642Y-81758464D02*
X101419642Y-81508464D01*
X101419642Y-81508464D02*
X101395833Y-81365607D01*
X101395833Y-81365607D02*
X101348214Y-81294178D01*
X101348214Y-81294178D02*
X101300595Y-81258464D01*
X100633928Y-82008464D02*
X100872023Y-82008464D01*
X100872023Y-82008464D02*
X100872023Y-81258464D01*
X100229166Y-81258464D02*
X100467261Y-81258464D01*
X100467261Y-81258464D02*
X100491070Y-81615607D01*
X100491070Y-81615607D02*
X100467261Y-81579892D01*
X100467261Y-81579892D02*
X100419642Y-81544178D01*
X100419642Y-81544178D02*
X100300594Y-81544178D01*
X100300594Y-81544178D02*
X100252975Y-81579892D01*
X100252975Y-81579892D02*
X100229166Y-81615607D01*
X100229166Y-81615607D02*
X100205356Y-81687035D01*
X100205356Y-81687035D02*
X100205356Y-81865607D01*
X100205356Y-81865607D02*
X100229166Y-81937035D01*
X100229166Y-81937035D02*
X100252975Y-81972750D01*
X100252975Y-81972750D02*
X100300594Y-82008464D01*
X100300594Y-82008464D02*
X100419642Y-82008464D01*
X100419642Y-82008464D02*
X100467261Y-81972750D01*
X100467261Y-81972750D02*
X100491070Y-81937035D01*
X101610119Y-74287035D02*
X101633928Y-74322750D01*
X101633928Y-74322750D02*
X101705357Y-74358464D01*
X101705357Y-74358464D02*
X101752976Y-74358464D01*
X101752976Y-74358464D02*
X101824404Y-74322750D01*
X101824404Y-74322750D02*
X101872023Y-74251321D01*
X101872023Y-74251321D02*
X101895833Y-74179892D01*
X101895833Y-74179892D02*
X101919642Y-74037035D01*
X101919642Y-74037035D02*
X101919642Y-73929892D01*
X101919642Y-73929892D02*
X101895833Y-73787035D01*
X101895833Y-73787035D02*
X101872023Y-73715607D01*
X101872023Y-73715607D02*
X101824404Y-73644178D01*
X101824404Y-73644178D02*
X101752976Y-73608464D01*
X101752976Y-73608464D02*
X101705357Y-73608464D01*
X101705357Y-73608464D02*
X101633928Y-73644178D01*
X101633928Y-73644178D02*
X101610119Y-73679892D01*
X101300595Y-73608464D02*
X101205357Y-73608464D01*
X101205357Y-73608464D02*
X101157738Y-73644178D01*
X101157738Y-73644178D02*
X101110119Y-73715607D01*
X101110119Y-73715607D02*
X101086309Y-73858464D01*
X101086309Y-73858464D02*
X101086309Y-74108464D01*
X101086309Y-74108464D02*
X101110119Y-74251321D01*
X101110119Y-74251321D02*
X101157738Y-74322750D01*
X101157738Y-74322750D02*
X101205357Y-74358464D01*
X101205357Y-74358464D02*
X101300595Y-74358464D01*
X101300595Y-74358464D02*
X101348214Y-74322750D01*
X101348214Y-74322750D02*
X101395833Y-74251321D01*
X101395833Y-74251321D02*
X101419642Y-74108464D01*
X101419642Y-74108464D02*
X101419642Y-73858464D01*
X101419642Y-73858464D02*
X101395833Y-73715607D01*
X101395833Y-73715607D02*
X101348214Y-73644178D01*
X101348214Y-73644178D02*
X101300595Y-73608464D01*
X100633928Y-74358464D02*
X100872023Y-74358464D01*
X100872023Y-74358464D02*
X100872023Y-73608464D01*
X100491070Y-73679892D02*
X100467261Y-73644178D01*
X100467261Y-73644178D02*
X100419642Y-73608464D01*
X100419642Y-73608464D02*
X100300594Y-73608464D01*
X100300594Y-73608464D02*
X100252975Y-73644178D01*
X100252975Y-73644178D02*
X100229166Y-73679892D01*
X100229166Y-73679892D02*
X100205356Y-73751321D01*
X100205356Y-73751321D02*
X100205356Y-73822750D01*
X100205356Y-73822750D02*
X100229166Y-73929892D01*
X100229166Y-73929892D02*
X100514880Y-74358464D01*
X100514880Y-74358464D02*
X100205356Y-74358464D01*
X86334928Y-59113964D02*
X86573023Y-59113964D01*
X86573023Y-59113964D02*
X86573023Y-58363964D01*
X86168261Y-58721107D02*
X86001594Y-58721107D01*
X85930166Y-59113964D02*
X86168261Y-59113964D01*
X86168261Y-59113964D02*
X86168261Y-58363964D01*
X86168261Y-58363964D02*
X85930166Y-58363964D01*
X85715880Y-59113964D02*
X85715880Y-58363964D01*
X85715880Y-58363964D02*
X85596832Y-58363964D01*
X85596832Y-58363964D02*
X85525404Y-58399678D01*
X85525404Y-58399678D02*
X85477785Y-58471107D01*
X85477785Y-58471107D02*
X85453975Y-58542535D01*
X85453975Y-58542535D02*
X85430166Y-58685392D01*
X85430166Y-58685392D02*
X85430166Y-58792535D01*
X85430166Y-58792535D02*
X85453975Y-58935392D01*
X85453975Y-58935392D02*
X85477785Y-59006821D01*
X85477785Y-59006821D02*
X85525404Y-59078250D01*
X85525404Y-59078250D02*
X85596832Y-59113964D01*
X85596832Y-59113964D02*
X85715880Y-59113964D01*
X86608737Y-71778250D02*
X86537309Y-71813964D01*
X86537309Y-71813964D02*
X86418261Y-71813964D01*
X86418261Y-71813964D02*
X86370642Y-71778250D01*
X86370642Y-71778250D02*
X86346833Y-71742535D01*
X86346833Y-71742535D02*
X86323023Y-71671107D01*
X86323023Y-71671107D02*
X86323023Y-71599678D01*
X86323023Y-71599678D02*
X86346833Y-71528250D01*
X86346833Y-71528250D02*
X86370642Y-71492535D01*
X86370642Y-71492535D02*
X86418261Y-71456821D01*
X86418261Y-71456821D02*
X86513499Y-71421107D01*
X86513499Y-71421107D02*
X86561118Y-71385392D01*
X86561118Y-71385392D02*
X86584928Y-71349678D01*
X86584928Y-71349678D02*
X86608737Y-71278250D01*
X86608737Y-71278250D02*
X86608737Y-71206821D01*
X86608737Y-71206821D02*
X86584928Y-71135392D01*
X86584928Y-71135392D02*
X86561118Y-71099678D01*
X86561118Y-71099678D02*
X86513499Y-71063964D01*
X86513499Y-71063964D02*
X86394452Y-71063964D01*
X86394452Y-71063964D02*
X86323023Y-71099678D01*
X85823024Y-71742535D02*
X85846833Y-71778250D01*
X85846833Y-71778250D02*
X85918262Y-71813964D01*
X85918262Y-71813964D02*
X85965881Y-71813964D01*
X85965881Y-71813964D02*
X86037309Y-71778250D01*
X86037309Y-71778250D02*
X86084928Y-71706821D01*
X86084928Y-71706821D02*
X86108738Y-71635392D01*
X86108738Y-71635392D02*
X86132547Y-71492535D01*
X86132547Y-71492535D02*
X86132547Y-71385392D01*
X86132547Y-71385392D02*
X86108738Y-71242535D01*
X86108738Y-71242535D02*
X86084928Y-71171107D01*
X86084928Y-71171107D02*
X86037309Y-71099678D01*
X86037309Y-71099678D02*
X85965881Y-71063964D01*
X85965881Y-71063964D02*
X85918262Y-71063964D01*
X85918262Y-71063964D02*
X85846833Y-71099678D01*
X85846833Y-71099678D02*
X85823024Y-71135392D01*
X85370643Y-71813964D02*
X85608738Y-71813964D01*
X85608738Y-71813964D02*
X85608738Y-71063964D01*
X101610119Y-76787035D02*
X101633928Y-76822750D01*
X101633928Y-76822750D02*
X101705357Y-76858464D01*
X101705357Y-76858464D02*
X101752976Y-76858464D01*
X101752976Y-76858464D02*
X101824404Y-76822750D01*
X101824404Y-76822750D02*
X101872023Y-76751321D01*
X101872023Y-76751321D02*
X101895833Y-76679892D01*
X101895833Y-76679892D02*
X101919642Y-76537035D01*
X101919642Y-76537035D02*
X101919642Y-76429892D01*
X101919642Y-76429892D02*
X101895833Y-76287035D01*
X101895833Y-76287035D02*
X101872023Y-76215607D01*
X101872023Y-76215607D02*
X101824404Y-76144178D01*
X101824404Y-76144178D02*
X101752976Y-76108464D01*
X101752976Y-76108464D02*
X101705357Y-76108464D01*
X101705357Y-76108464D02*
X101633928Y-76144178D01*
X101633928Y-76144178D02*
X101610119Y-76179892D01*
X101300595Y-76108464D02*
X101205357Y-76108464D01*
X101205357Y-76108464D02*
X101157738Y-76144178D01*
X101157738Y-76144178D02*
X101110119Y-76215607D01*
X101110119Y-76215607D02*
X101086309Y-76358464D01*
X101086309Y-76358464D02*
X101086309Y-76608464D01*
X101086309Y-76608464D02*
X101110119Y-76751321D01*
X101110119Y-76751321D02*
X101157738Y-76822750D01*
X101157738Y-76822750D02*
X101205357Y-76858464D01*
X101205357Y-76858464D02*
X101300595Y-76858464D01*
X101300595Y-76858464D02*
X101348214Y-76822750D01*
X101348214Y-76822750D02*
X101395833Y-76751321D01*
X101395833Y-76751321D02*
X101419642Y-76608464D01*
X101419642Y-76608464D02*
X101419642Y-76358464D01*
X101419642Y-76358464D02*
X101395833Y-76215607D01*
X101395833Y-76215607D02*
X101348214Y-76144178D01*
X101348214Y-76144178D02*
X101300595Y-76108464D01*
X100633928Y-76858464D02*
X100872023Y-76858464D01*
X100872023Y-76858464D02*
X100872023Y-76108464D01*
X100514880Y-76108464D02*
X100205356Y-76108464D01*
X100205356Y-76108464D02*
X100372023Y-76394178D01*
X100372023Y-76394178D02*
X100300594Y-76394178D01*
X100300594Y-76394178D02*
X100252975Y-76429892D01*
X100252975Y-76429892D02*
X100229166Y-76465607D01*
X100229166Y-76465607D02*
X100205356Y-76537035D01*
X100205356Y-76537035D02*
X100205356Y-76715607D01*
X100205356Y-76715607D02*
X100229166Y-76787035D01*
X100229166Y-76787035D02*
X100252975Y-76822750D01*
X100252975Y-76822750D02*
X100300594Y-76858464D01*
X100300594Y-76858464D02*
X100443451Y-76858464D01*
X100443451Y-76858464D02*
X100491070Y-76822750D01*
X100491070Y-76822750D02*
X100514880Y-76787035D01*
D14*
D11*
X178493019Y-57478792D02*
X178493019Y-59573592D01*
X178493019Y-59573592D02*
X179493019Y-60573592D01*
D10*
X179251019Y-60978792D02*
X178235019Y-60978792D01*
D11*
X179493019Y-56478792D02*
X178493019Y-57478792D01*
X179493019Y-56478792D02*
X180918219Y-56478792D01*
X179493019Y-60573592D02*
X180993019Y-60573592D01*
X180993019Y-60573592D02*
X181743019Y-59823592D01*
X181743019Y-57303592D02*
X180918219Y-56478792D01*
X181743019Y-59823592D02*
X181743019Y-57303592D01*
D10*
X181743019Y-60468792D02*
X181743019Y-61484792D01*
X182251019Y-60976792D02*
X181235019Y-60976792D01*
D14*
X152470000Y-60680000D02*
X152470000Y-62080000D01*
X152470000Y-61380000D02*
X153370000Y-60680000D01*
X153370000Y-60680000D02*
X153370000Y-62080000D01*
X153370000Y-62080000D02*
X152470000Y-61380000D01*
X134420000Y-101970000D02*
X134420000Y-103370000D01*
X134420000Y-102670000D02*
X135320000Y-101970000D01*
X135320000Y-101970000D02*
X135320000Y-103370000D01*
X135320000Y-103370000D02*
X134420000Y-102670000D01*
X145944862Y-51365117D02*
X146944862Y-51365117D01*
X145944862Y-52365117D02*
X145944862Y-51365117D01*
X145944862Y-65365117D02*
X145944862Y-64365117D01*
X146944862Y-65365117D02*
X145944862Y-65365117D01*
X150944862Y-50665117D02*
X151444862Y-50165117D01*
X150944862Y-54165117D02*
X151444862Y-54665117D01*
X151444862Y-50165117D02*
X154444862Y-50165117D01*
X151444862Y-54665117D02*
X153944862Y-54665117D01*
X154444862Y-50165117D02*
X154944862Y-50665117D01*
X154944862Y-51665117D02*
X154944862Y-50665117D01*
X155444862Y-56165117D02*
X155444862Y-56865117D01*
X155444862Y-56865117D02*
X159944862Y-56865117D01*
X158944862Y-51365117D02*
X159944862Y-51365117D01*
X159944862Y-51365117D02*
X159944862Y-52365117D01*
X159944862Y-52165117D02*
X155444862Y-52165117D01*
X159944862Y-52765117D02*
X159944862Y-52165117D01*
X159944862Y-56865117D02*
X159944862Y-56365117D01*
X159944862Y-64365117D02*
X159944862Y-65365117D01*
X159944862Y-65365117D02*
X158944862Y-65365117D01*
X155444862Y-56165117D02*
G75*
G03*
X153944862Y-54665117I-1500000J0D01*
G01*
X154944862Y-51665117D02*
G75*
G03*
X155444862Y-52165117I500000J0D01*
G01*
X192914977Y-85088608D02*
X192671869Y-86467339D01*
X192793423Y-85777974D02*
X193801304Y-85244892D01*
X193801304Y-85244892D02*
X193558196Y-86623623D01*
X193558196Y-86623623D02*
X192793423Y-85777974D01*
D11*
X172778504Y-57168721D02*
X172778504Y-59263521D01*
X172778504Y-59263521D02*
X173778504Y-60263521D01*
D10*
X173536504Y-60668721D02*
X172520504Y-60668721D01*
D11*
X173778504Y-56168721D02*
X172778504Y-57168721D01*
X173778504Y-56168721D02*
X175203704Y-56168721D01*
X173778504Y-60263521D02*
X175278504Y-60263521D01*
X175278504Y-60263521D02*
X176028504Y-59513521D01*
X176028504Y-56993521D02*
X175203704Y-56168721D01*
X176028504Y-59513521D02*
X176028504Y-56993521D01*
D10*
X176028504Y-60158721D02*
X176028504Y-61174721D01*
X176536504Y-60666721D02*
X175520504Y-60666721D01*
D14*
X115820000Y-58570000D02*
X109820000Y-58570000D01*
X115820000Y-58320000D02*
X115820000Y-58570000D01*
X115820000Y-55070000D02*
X115820000Y-55320000D01*
X109820000Y-58570000D02*
X109820000Y-58320000D01*
X109820000Y-55320000D02*
X109820000Y-55070000D01*
X109820000Y-55070000D02*
X115820000Y-55070000D01*
X182157947Y-108255056D02*
X183142755Y-108428705D01*
X181984299Y-109239864D02*
X182157947Y-108255056D01*
X179726872Y-122042365D02*
X179900521Y-121057557D01*
X180711680Y-122216013D02*
X179726872Y-122042365D01*
X187203539Y-108433932D02*
X187782767Y-108028352D01*
X186595771Y-111880759D02*
X187001351Y-112459987D01*
X187782767Y-108028352D02*
X190737191Y-108549297D01*
X187001351Y-112459987D02*
X189463370Y-112894107D01*
X190737191Y-108549297D02*
X191142770Y-109128525D01*
X190969122Y-110113332D02*
X191142770Y-109128525D01*
X190680109Y-114631791D02*
X190558556Y-115321157D01*
X190558556Y-115321157D02*
X194990191Y-116102574D01*
X194960448Y-110512483D02*
X195945256Y-110686131D01*
X195945256Y-110686131D02*
X195771607Y-111670939D01*
X195806337Y-111473977D02*
X191374702Y-110692560D01*
X195702148Y-112064862D02*
X195806337Y-111473977D01*
X194990191Y-116102574D02*
X195077015Y-115610170D01*
X193687829Y-123488632D02*
X193514181Y-124473440D01*
X193514181Y-124473440D02*
X192529373Y-124299791D01*
X190680110Y-114631791D02*
G75*
G03*
X189463370Y-112894107I-1477212J260472D01*
G01*
X190969122Y-110113332D02*
G75*
G03*
X191374702Y-110692560I492404J-86824D01*
G01*
D11*
X189065000Y-57747936D02*
X189065000Y-58952064D01*
X190885000Y-57747936D02*
X190885000Y-58952064D01*
D14*
X127952431Y-92641867D02*
X128952431Y-92641867D01*
X127952431Y-93641867D02*
X127952431Y-92641867D01*
X127952431Y-106641867D02*
X127952431Y-105641867D01*
X128952431Y-106641867D02*
X127952431Y-106641867D01*
X132952431Y-91941867D02*
X133452431Y-91441867D01*
X132952431Y-95441867D02*
X133452431Y-95941867D01*
X133452431Y-91441867D02*
X136452431Y-91441867D01*
X133452431Y-95941867D02*
X135952431Y-95941867D01*
X136452431Y-91441867D02*
X136952431Y-91941867D01*
X136952431Y-92941867D02*
X136952431Y-91941867D01*
X137452431Y-97441867D02*
X137452431Y-98141867D01*
X137452431Y-98141867D02*
X141952431Y-98141867D01*
X140952431Y-92641867D02*
X141952431Y-92641867D01*
X141952431Y-92641867D02*
X141952431Y-93641867D01*
X141952431Y-93441867D02*
X137452431Y-93441867D01*
X141952431Y-94041867D02*
X141952431Y-93441867D01*
X141952431Y-98141867D02*
X141952431Y-97641867D01*
X141952431Y-105641867D02*
X141952431Y-106641867D01*
X141952431Y-106641867D02*
X140952431Y-106641867D01*
X137452431Y-97441867D02*
G75*
G03*
X135952431Y-95941867I-1500000J0D01*
G01*
X136952431Y-92941867D02*
G75*
G03*
X137452431Y-93441867I500000J0D01*
G01*
X116490000Y-87670000D02*
X116490000Y-89070000D01*
X116490000Y-88370000D02*
X117390000Y-87670000D01*
X117390000Y-87670000D02*
X117390000Y-89070000D01*
X117390000Y-89070000D02*
X116490000Y-88370000D01*
X134420000Y-84970000D02*
X134420000Y-86370000D01*
X134420000Y-85670000D02*
X135320000Y-84970000D01*
X135320000Y-84970000D02*
X135320000Y-86370000D01*
X135320000Y-86370000D02*
X134420000Y-85670000D01*
D16*
X126448046Y-83137726D02*
G75*
G03*
X125056372Y-87182369I18602071J-8662314D01*
G01*
X124558277Y-92875622D02*
G75*
G03*
X125226464Y-97100481I20491723J1075622D01*
G01*
X165541723Y-90724378D02*
G75*
G03*
X164873536Y-86499517I-20491723J-1075622D01*
G01*
X163651952Y-100462278D02*
G75*
G03*
X165043628Y-96417631I-18601952J8662278D01*
G01*
D11*
X165285000Y-129810000D02*
X164365000Y-129810000D01*
X165285000Y-128210000D02*
X164365000Y-128210000D01*
X165285000Y-121990000D02*
X165285000Y-129810000D01*
X164525000Y-125850000D02*
X164525000Y-124250000D01*
X164525000Y-124250000D02*
X163525000Y-124250000D01*
X164365000Y-129810000D02*
X164365000Y-128210000D01*
X164365000Y-128210000D02*
X164085000Y-128210000D01*
X163525000Y-125850000D02*
X164525000Y-125850000D01*
X163525000Y-124250000D02*
X163525000Y-125850000D01*
X162725000Y-126350000D02*
X162725000Y-121990000D01*
X161725000Y-126350000D02*
X162725000Y-126350000D01*
X161725000Y-121990000D02*
X161725000Y-126350000D01*
X160925000Y-125850000D02*
X159925000Y-125850000D01*
X160925000Y-124250000D02*
X160925000Y-125850000D01*
X160925000Y-124250000D02*
X160925000Y-121990000D01*
X160425000Y-124250000D02*
X160425000Y-121990000D01*
X160365000Y-128210000D02*
X160365000Y-129425000D01*
X160365000Y-128210000D02*
X160085000Y-128210000D01*
X160085000Y-129810000D02*
X159165000Y-129810000D01*
X160085000Y-128210000D02*
X160085000Y-129810000D01*
X159925000Y-125850000D02*
X159925000Y-124250000D01*
X159925000Y-124250000D02*
X160925000Y-124250000D01*
X159165000Y-129810000D02*
X159165000Y-121990000D01*
X159165000Y-128210000D02*
X160085000Y-128210000D01*
X159165000Y-121990000D02*
X165285000Y-121990000D01*
D14*
X164442641Y-95592720D02*
X165440205Y-95662477D01*
X164372884Y-96590284D02*
X164442641Y-95592720D01*
X163466050Y-109558617D02*
X163535807Y-108561053D01*
X164463614Y-109628374D02*
X163466050Y-109558617D01*
X169479291Y-95243208D02*
X170012951Y-94779304D01*
X169235143Y-98734682D02*
X169699047Y-99268342D01*
X170012951Y-94779304D02*
X173005643Y-94988573D01*
X169699047Y-99268342D02*
X172192957Y-99442733D01*
X173005643Y-94988573D02*
X173469547Y-95522234D01*
X173399790Y-96519798D02*
X173469547Y-95522234D01*
X173584668Y-101043714D02*
X173535839Y-101742009D01*
X173535839Y-101742009D02*
X178024877Y-102055913D01*
X177410974Y-96499554D02*
X178408538Y-96569311D01*
X178408538Y-96569311D02*
X178338781Y-97566875D01*
X178352732Y-97367362D02*
X173863694Y-97053458D01*
X178310879Y-97965901D02*
X178352732Y-97367362D01*
X178024877Y-102055913D02*
X178059755Y-101557131D01*
X177501704Y-109537644D02*
X177431947Y-110535208D01*
X177431947Y-110535208D02*
X176434383Y-110465451D01*
X173584668Y-101043714D02*
G75*
G03*
X172192957Y-99442734I-1496346J104634D01*
G01*
X173399791Y-96519798D02*
G75*
G03*
X173863694Y-97053457I498781J-34878D01*
G01*
X186989150Y-118583810D02*
X186746042Y-119962541D01*
X186867596Y-119273176D02*
X187875477Y-118740094D01*
X187875477Y-118740094D02*
X187632369Y-120118825D01*
X187632369Y-120118825D02*
X186867596Y-119273176D01*
X145944862Y-68334448D02*
X146944862Y-68334448D01*
X145944862Y-69334448D02*
X145944862Y-68334448D01*
X145944862Y-82334448D02*
X145944862Y-81334448D01*
X146944862Y-82334448D02*
X145944862Y-82334448D01*
X150944862Y-67634448D02*
X151444862Y-67134448D01*
X150944862Y-71134448D02*
X151444862Y-71634448D01*
X151444862Y-67134448D02*
X154444862Y-67134448D01*
X151444862Y-71634448D02*
X153944862Y-71634448D01*
X154444862Y-67134448D02*
X154944862Y-67634448D01*
X154944862Y-68634448D02*
X154944862Y-67634448D01*
X155444862Y-73134448D02*
X155444862Y-73834448D01*
X155444862Y-73834448D02*
X159944862Y-73834448D01*
X158944862Y-68334448D02*
X159944862Y-68334448D01*
X159944862Y-68334448D02*
X159944862Y-69334448D01*
X159944862Y-69134448D02*
X155444862Y-69134448D01*
X159944862Y-69734448D02*
X159944862Y-69134448D01*
X159944862Y-73834448D02*
X159944862Y-73334448D01*
X159944862Y-81334448D02*
X159944862Y-82334448D01*
X159944862Y-82334448D02*
X158944862Y-82334448D01*
X155444862Y-73134448D02*
G75*
G03*
X153944862Y-71634448I-1500000J0D01*
G01*
X154944862Y-68634448D02*
G75*
G03*
X155444862Y-69134448I500000J0D01*
G01*
X166806356Y-61689331D02*
X167803920Y-61759088D01*
X166736599Y-62686895D02*
X166806356Y-61689331D01*
X165829765Y-75655228D02*
X165899522Y-74657664D01*
X166827329Y-75724985D02*
X165829765Y-75655228D01*
X171843006Y-61339819D02*
X172376666Y-60875915D01*
X171598858Y-64831293D02*
X172062762Y-65364953D01*
X172376666Y-60875915D02*
X175369358Y-61085184D01*
X172062762Y-65364953D02*
X174556672Y-65539344D01*
X175369358Y-61085184D02*
X175833262Y-61618845D01*
X175763505Y-62616409D02*
X175833262Y-61618845D01*
X175948383Y-67140325D02*
X175899554Y-67838620D01*
X175899554Y-67838620D02*
X180388592Y-68152524D01*
X179774689Y-62596165D02*
X180772253Y-62665922D01*
X180772253Y-62665922D02*
X180702496Y-63663486D01*
X180716447Y-63463973D02*
X176227409Y-63150069D01*
X180674594Y-64062512D02*
X180716447Y-63463973D01*
X180388592Y-68152524D02*
X180423470Y-67653742D01*
X179865419Y-75634255D02*
X179795662Y-76631819D01*
X179795662Y-76631819D02*
X178798098Y-76562062D01*
X175948383Y-67140325D02*
G75*
G03*
X174556672Y-65539345I-1496346J104634D01*
G01*
X175763506Y-62616409D02*
G75*
G03*
X176227409Y-63150068I498781J-34878D01*
G01*
X165606853Y-78658667D02*
X166604417Y-78728424D01*
X165537096Y-79656231D02*
X165606853Y-78658667D01*
X164630262Y-92624564D02*
X164700019Y-91627000D01*
X165627826Y-92694321D02*
X164630262Y-92624564D01*
X170643503Y-78309155D02*
X171177163Y-77845251D01*
X170399355Y-81800629D02*
X170863259Y-82334289D01*
X171177163Y-77845251D02*
X174169855Y-78054520D01*
X170863259Y-82334289D02*
X173357169Y-82508680D01*
X174169855Y-78054520D02*
X174633759Y-78588181D01*
X174564002Y-79585745D02*
X174633759Y-78588181D01*
X174748880Y-84109661D02*
X174700051Y-84807956D01*
X174700051Y-84807956D02*
X179189089Y-85121860D01*
X178575186Y-79565501D02*
X179572750Y-79635258D01*
X179572750Y-79635258D02*
X179502993Y-80632822D01*
X179516944Y-80433309D02*
X175027906Y-80119405D01*
X179475091Y-81031848D02*
X179516944Y-80433309D01*
X179189089Y-85121860D02*
X179223967Y-84623078D01*
X178665916Y-92603591D02*
X178596159Y-93601155D01*
X178596159Y-93601155D02*
X177598595Y-93531398D01*
X174748880Y-84109661D02*
G75*
G03*
X173357169Y-82508681I-1496346J104634D01*
G01*
X174564003Y-79585745D02*
G75*
G03*
X175027906Y-80119404I498781J-34878D01*
G01*
X145944862Y-85339060D02*
X146944862Y-85339060D01*
X145944862Y-86339060D02*
X145944862Y-85339060D01*
X145944862Y-99339060D02*
X145944862Y-98339060D01*
X146944862Y-99339060D02*
X145944862Y-99339060D01*
X150944862Y-84639060D02*
X151444862Y-84139060D01*
X150944862Y-88139060D02*
X151444862Y-88639060D01*
X151444862Y-84139060D02*
X154444862Y-84139060D01*
X151444862Y-88639060D02*
X153944862Y-88639060D01*
X154444862Y-84139060D02*
X154944862Y-84639060D01*
X154944862Y-85639060D02*
X154944862Y-84639060D01*
X155444862Y-90139060D02*
X155444862Y-90839060D01*
X155444862Y-90839060D02*
X159944862Y-90839060D01*
X158944862Y-85339060D02*
X159944862Y-85339060D01*
X159944862Y-85339060D02*
X159944862Y-86339060D01*
X159944862Y-86139060D02*
X155444862Y-86139060D01*
X159944862Y-86739060D02*
X159944862Y-86139060D01*
X159944862Y-90839060D02*
X159944862Y-90339060D01*
X159944862Y-98339060D02*
X159944862Y-99339060D01*
X159944862Y-99339060D02*
X158944862Y-99339060D01*
X155444862Y-90139060D02*
G75*
G03*
X153944862Y-88639060I-1500000J0D01*
G01*
X154944862Y-85639060D02*
G75*
G03*
X155444862Y-86139060I500000J0D01*
G01*
X90038381Y-117074370D02*
X91028649Y-116935197D01*
X90177554Y-118064638D02*
X90038381Y-117074370D01*
X91986804Y-130938123D02*
X91847631Y-129947855D01*
X92977072Y-130798950D02*
X91986804Y-130938123D01*
X94892300Y-115685317D02*
X95317847Y-115120596D01*
X95379406Y-119151255D02*
X95944126Y-119576803D01*
X95317847Y-115120596D02*
X98288652Y-114703077D01*
X95944126Y-119576803D02*
X98419797Y-119228870D01*
X98288652Y-114703077D02*
X98853372Y-115128625D01*
X98992545Y-116118893D02*
X98853372Y-115128625D01*
X100113958Y-120505512D02*
X100211380Y-121198700D01*
X100211380Y-121198700D02*
X104667586Y-120572421D01*
X102911866Y-115265120D02*
X103902134Y-115125947D01*
X103902134Y-115125947D02*
X104041307Y-116116215D01*
X104013472Y-115918161D02*
X99557266Y-116544440D01*
X104096976Y-116512322D02*
X104013472Y-115918161D01*
X104667586Y-120572421D02*
X104597999Y-120077287D01*
X105711384Y-127999432D02*
X105850557Y-128989700D01*
X105850557Y-128989700D02*
X104860289Y-129128873D01*
X100113957Y-120505512D02*
G75*
G03*
X98419797Y-119228871I-1485401J-208760D01*
G01*
X98992545Y-116118893D02*
G75*
G03*
X99557266Y-116544440I495134J69587D01*
G01*
X152470000Y-77680000D02*
X152470000Y-79080000D01*
X152470000Y-78380000D02*
X153370000Y-77680000D01*
X153370000Y-77680000D02*
X153370000Y-79080000D01*
X153370000Y-79080000D02*
X152470000Y-78380000D01*
X171474189Y-88358241D02*
X171376529Y-89754831D01*
X171425359Y-89056536D02*
X172371996Y-88421022D01*
X172371996Y-88421022D02*
X172274337Y-89817611D01*
X172274337Y-89817611D02*
X171425359Y-89056536D01*
X109960000Y-95287813D02*
X110960000Y-95287813D01*
X109960000Y-96287813D02*
X109960000Y-95287813D01*
X109960000Y-109287813D02*
X109960000Y-108287813D01*
X110960000Y-109287813D02*
X109960000Y-109287813D01*
X114960000Y-94587813D02*
X115460000Y-94087813D01*
X114960000Y-98087813D02*
X115460000Y-98587813D01*
X115460000Y-94087813D02*
X118460000Y-94087813D01*
X115460000Y-98587813D02*
X117960000Y-98587813D01*
X118460000Y-94087813D02*
X118960000Y-94587813D01*
X118960000Y-95587813D02*
X118960000Y-94587813D01*
X119460000Y-100087813D02*
X119460000Y-100787813D01*
X119460000Y-100787813D02*
X123960000Y-100787813D01*
X122960000Y-95287813D02*
X123960000Y-95287813D01*
X123960000Y-95287813D02*
X123960000Y-96287813D01*
X123960000Y-96087813D02*
X119460000Y-96087813D01*
X123960000Y-96687813D02*
X123960000Y-96087813D01*
X123960000Y-100787813D02*
X123960000Y-100287813D01*
X123960000Y-108287813D02*
X123960000Y-109287813D01*
X123960000Y-109287813D02*
X122960000Y-109287813D01*
X119460000Y-100087813D02*
G75*
G03*
X117960000Y-98587813I-1500000J0D01*
G01*
X118960000Y-95587813D02*
G75*
G03*
X119460000Y-96087813I500000J0D01*
G01*
D11*
X186565000Y-57747936D02*
X186565000Y-58952064D01*
X188385000Y-57747936D02*
X188385000Y-58952064D01*
D14*
X189940804Y-101793406D02*
X189697696Y-103172137D01*
X189819250Y-102482772D02*
X190827131Y-101949690D01*
X190827131Y-101949690D02*
X190584023Y-103328421D01*
X190584023Y-103328421D02*
X189819250Y-102482772D01*
X152470000Y-94680000D02*
X152470000Y-96080000D01*
X152470000Y-95380000D02*
X153370000Y-94680000D01*
X153370000Y-94680000D02*
X153370000Y-96080000D01*
X153370000Y-96080000D02*
X152470000Y-95380000D01*
X97773989Y-125292993D02*
X97968831Y-126679368D01*
X97871410Y-125986181D02*
X98665230Y-125167737D01*
X98665230Y-125167737D02*
X98860072Y-126554112D01*
X98860072Y-126554112D02*
X97871410Y-125986181D01*
X116586529Y-123375169D02*
X116684189Y-124771759D01*
X116635359Y-124073464D02*
X117484337Y-123312389D01*
X117484337Y-123312389D02*
X117581996Y-124708978D01*
X117581996Y-124708978D02*
X116635359Y-124073464D01*
X188049593Y-74775018D02*
X189034401Y-74948667D01*
X187875945Y-75759826D02*
X188049593Y-74775018D01*
X185618518Y-88562327D02*
X185792167Y-87577519D01*
X186603326Y-88735975D02*
X185618518Y-88562327D01*
X193095185Y-74953894D02*
X193674413Y-74548314D01*
X192487417Y-78400721D02*
X192892997Y-78979949D01*
X193674413Y-74548314D02*
X196628837Y-75069259D01*
X192892997Y-78979949D02*
X195355016Y-79414069D01*
X196628837Y-75069259D02*
X197034416Y-75648487D01*
X196860768Y-76633294D02*
X197034416Y-75648487D01*
X196571755Y-81151753D02*
X196450202Y-81841119D01*
X196450202Y-81841119D02*
X200881837Y-82622536D01*
X200852094Y-77032445D02*
X201836902Y-77206093D01*
X201836902Y-77206093D02*
X201663253Y-78190901D01*
X201697983Y-77993939D02*
X197266348Y-77212522D01*
X201593794Y-78584824D02*
X201697983Y-77993939D01*
X200881837Y-82622536D02*
X200968661Y-82130132D01*
X199579475Y-90008594D02*
X199405827Y-90993402D01*
X199405827Y-90993402D02*
X198421019Y-90819753D01*
X196571756Y-81151753D02*
G75*
G03*
X195355016Y-79414069I-1477212J260472D01*
G01*
X196860768Y-76633294D02*
G75*
G03*
X197266348Y-77212522I492404J-86824D01*
G01*
X134420000Y-67970000D02*
X134420000Y-69370000D01*
X134420000Y-68670000D02*
X135320000Y-67970000D01*
X135320000Y-67970000D02*
X135320000Y-69370000D01*
X135320000Y-69370000D02*
X134420000Y-68670000D01*
X109960000Y-78318484D02*
X110960000Y-78318484D01*
X109960000Y-79318484D02*
X109960000Y-78318484D01*
X109960000Y-92318484D02*
X109960000Y-91318484D01*
X110960000Y-92318484D02*
X109960000Y-92318484D01*
X114960000Y-77618484D02*
X115460000Y-77118484D01*
X114960000Y-81118484D02*
X115460000Y-81618484D01*
X115460000Y-77118484D02*
X118460000Y-77118484D01*
X115460000Y-81618484D02*
X117960000Y-81618484D01*
X118460000Y-77118484D02*
X118960000Y-77618484D01*
X118960000Y-78618484D02*
X118960000Y-77618484D01*
X119460000Y-83118484D02*
X119460000Y-83818484D01*
X119460000Y-83818484D02*
X123960000Y-83818484D01*
X122960000Y-78318484D02*
X123960000Y-78318484D01*
X123960000Y-78318484D02*
X123960000Y-79318484D01*
X123960000Y-79118484D02*
X119460000Y-79118484D01*
X123960000Y-79718484D02*
X123960000Y-79118484D01*
X123960000Y-83818484D02*
X123960000Y-83318484D01*
X123960000Y-91318484D02*
X123960000Y-92318484D01*
X123960000Y-92318484D02*
X122960000Y-92318484D01*
X119460000Y-83118484D02*
G75*
G03*
X117960000Y-81618484I-1500000J0D01*
G01*
X118960000Y-78618484D02*
G75*
G03*
X119460000Y-79118484I500000J0D01*
G01*
X84845000Y-94935000D02*
X84845000Y-101685000D01*
X84845000Y-101685000D02*
X87695000Y-101685000D01*
X87695000Y-101685000D02*
X87745000Y-94935000D01*
X87745000Y-94935000D02*
X84845000Y-94935000D01*
X127952431Y-58632647D02*
X128952431Y-58632647D01*
X127952431Y-59632647D02*
X127952431Y-58632647D01*
X127952431Y-72632647D02*
X127952431Y-71632647D01*
X128952431Y-72632647D02*
X127952431Y-72632647D01*
X132952431Y-57932647D02*
X133452431Y-57432647D01*
X132952431Y-61432647D02*
X133452431Y-61932647D01*
X133452431Y-57432647D02*
X136452431Y-57432647D01*
X133452431Y-61932647D02*
X135952431Y-61932647D01*
X136452431Y-57432647D02*
X136952431Y-57932647D01*
X136952431Y-58932647D02*
X136952431Y-57932647D01*
X137452431Y-63432647D02*
X137452431Y-64132647D01*
X137452431Y-64132647D02*
X141952431Y-64132647D01*
X140952431Y-58632647D02*
X141952431Y-58632647D01*
X141952431Y-58632647D02*
X141952431Y-59632647D01*
X141952431Y-59432647D02*
X137452431Y-59432647D01*
X141952431Y-60032647D02*
X141952431Y-59432647D01*
X141952431Y-64132647D02*
X141952431Y-63632647D01*
X141952431Y-71632647D02*
X141952431Y-72632647D01*
X141952431Y-72632647D02*
X140952431Y-72632647D01*
X137452431Y-63432647D02*
G75*
G03*
X135952431Y-61932647I-1500000J0D01*
G01*
X136952431Y-58932647D02*
G75*
G03*
X137452431Y-59432647I500000J0D01*
G01*
X116490000Y-104570000D02*
X116490000Y-105970000D01*
X116490000Y-105270000D02*
X117390000Y-104570000D01*
X117390000Y-104570000D02*
X117390000Y-105970000D01*
X117390000Y-105970000D02*
X116490000Y-105270000D01*
X116490000Y-70570000D02*
X116490000Y-71970000D01*
X116490000Y-71270000D02*
X117390000Y-70570000D01*
X117390000Y-70570000D02*
X117390000Y-71970000D01*
X117390000Y-71970000D02*
X116490000Y-71270000D01*
X172674189Y-71358241D02*
X172576529Y-72754831D01*
X172625359Y-72056536D02*
X173571996Y-71421022D01*
X173571996Y-71421022D02*
X173474337Y-72817611D01*
X173474337Y-72817611D02*
X172625359Y-72056536D01*
X109960000Y-61313872D02*
X110960000Y-61313872D01*
X109960000Y-62313872D02*
X109960000Y-61313872D01*
X109960000Y-75313872D02*
X109960000Y-74313872D01*
X110960000Y-75313872D02*
X109960000Y-75313872D01*
X114960000Y-60613872D02*
X115460000Y-60113872D01*
X114960000Y-64113872D02*
X115460000Y-64613872D01*
X115460000Y-60113872D02*
X118460000Y-60113872D01*
X115460000Y-64613872D02*
X117960000Y-64613872D01*
X118460000Y-60113872D02*
X118960000Y-60613872D01*
X118960000Y-61613872D02*
X118960000Y-60613872D01*
X119460000Y-66113872D02*
X119460000Y-66813872D01*
X119460000Y-66813872D02*
X123960000Y-66813872D01*
X122960000Y-61313872D02*
X123960000Y-61313872D01*
X123960000Y-61313872D02*
X123960000Y-62313872D01*
X123960000Y-62113872D02*
X119460000Y-62113872D01*
X123960000Y-62713872D02*
X123960000Y-62113872D01*
X123960000Y-66813872D02*
X123960000Y-66313872D01*
X123960000Y-74313872D02*
X123960000Y-75313872D01*
X123960000Y-75313872D02*
X122960000Y-75313872D01*
X119460000Y-66113872D02*
G75*
G03*
X117960000Y-64613872I-1500000J0D01*
G01*
X118960000Y-61613872D02*
G75*
G03*
X119460000Y-62113872I500000J0D01*
G01*
X109603242Y-114432340D02*
X110601871Y-114380004D01*
X109655578Y-115430969D02*
X109603242Y-114432340D01*
X110335945Y-128413153D02*
X110283609Y-127414524D01*
X111334574Y-128360817D02*
X110335945Y-128413153D01*
X114559754Y-113471619D02*
X115032901Y-112946137D01*
X114742930Y-116966823D02*
X115268413Y-117439970D01*
X115032901Y-112946137D02*
X118028789Y-112789129D01*
X115268413Y-117439970D02*
X117764986Y-117309130D01*
X118028789Y-112789129D02*
X118554272Y-113262276D01*
X118606608Y-114260905D02*
X118554272Y-113262276D01*
X119341435Y-118728570D02*
X119378070Y-119427611D01*
X119378070Y-119427611D02*
X123871903Y-119192099D01*
X122585426Y-113751973D02*
X123584055Y-113699637D01*
X123584055Y-113699637D02*
X123636391Y-114698266D01*
X123625924Y-114498540D02*
X119132091Y-114734052D01*
X123657325Y-115097718D02*
X123625924Y-114498540D01*
X123871903Y-119192099D02*
X123845735Y-118692784D01*
X124264422Y-126681821D02*
X124316758Y-127680450D01*
X124316758Y-127680450D02*
X123318129Y-127732786D01*
X119341433Y-118728570D02*
G75*
G03*
X117764986Y-117309131I-1497943J-78504D01*
G01*
X118606608Y-114260905D02*
G75*
G03*
X119132091Y-114734052I499315J26168D01*
G01*
X127952431Y-75637259D02*
X128952431Y-75637259D01*
X127952431Y-76637259D02*
X127952431Y-75637259D01*
X127952431Y-89637259D02*
X127952431Y-88637259D01*
X128952431Y-89637259D02*
X127952431Y-89637259D01*
X132952431Y-74937259D02*
X133452431Y-74437259D01*
X132952431Y-78437259D02*
X133452431Y-78937259D01*
X133452431Y-74437259D02*
X136452431Y-74437259D01*
X133452431Y-78937259D02*
X135952431Y-78937259D01*
X136452431Y-74437259D02*
X136952431Y-74937259D01*
X136952431Y-75937259D02*
X136952431Y-74937259D01*
X137452431Y-80437259D02*
X137452431Y-81137259D01*
X137452431Y-81137259D02*
X141952431Y-81137259D01*
X140952431Y-75637259D02*
X141952431Y-75637259D01*
X141952431Y-75637259D02*
X141952431Y-76637259D01*
X141952431Y-76437259D02*
X137452431Y-76437259D01*
X141952431Y-77037259D02*
X141952431Y-76437259D01*
X141952431Y-81137259D02*
X141952431Y-80637259D01*
X141952431Y-88637259D02*
X141952431Y-89637259D01*
X141952431Y-89637259D02*
X140952431Y-89637259D01*
X137452431Y-80437259D02*
G75*
G03*
X135952431Y-78937259I-1500000J0D01*
G01*
X136952431Y-75937259D02*
G75*
G03*
X137452431Y-76437259I500000J0D01*
G01*
X86902500Y-57440000D02*
X89442500Y-57440000D01*
X86902500Y-87920000D02*
X86902500Y-57440000D01*
X89442500Y-57440000D02*
X89442500Y-87920000D01*
X89442500Y-87920000D02*
X86902500Y-87920000D01*
X102142500Y-57440000D02*
X104682500Y-57440000D01*
X102142500Y-87920000D02*
X102142500Y-57440000D01*
X104682500Y-57440000D02*
X104682500Y-87920000D01*
X104682500Y-87920000D02*
X102142500Y-87920000D01*
X170278330Y-105339655D02*
X170180670Y-106736245D01*
X170229500Y-106037950D02*
X171176137Y-105402436D01*
X171176137Y-105402436D02*
X171078478Y-106799025D01*
X171078478Y-106799025D02*
X170229500Y-106037950D01*
D11*
X167035254Y-56800649D02*
X167035254Y-58895449D01*
X167035254Y-58895449D02*
X168035254Y-59895449D01*
D10*
X167793254Y-60300649D02*
X166777254Y-60300649D01*
D11*
X168035254Y-55800649D02*
X167035254Y-56800649D01*
X168035254Y-55800649D02*
X169460454Y-55800649D01*
X168035254Y-59895449D02*
X169535254Y-59895449D01*
X169535254Y-59895449D02*
X170285254Y-59145449D01*
X170285254Y-56625449D02*
X169460454Y-55800649D01*
X170285254Y-59145449D02*
X170285254Y-56625449D01*
D10*
X170285254Y-59790649D02*
X170285254Y-60806649D01*
X170793254Y-60298649D02*
X169777254Y-60298649D01*
D11*
X184065000Y-57747936D02*
X184065000Y-58952064D01*
X185885000Y-57747936D02*
X185885000Y-58952064D01*
D14*
X185121406Y-91532675D02*
X186106214Y-91706324D01*
X184947758Y-92517483D02*
X185121406Y-91532675D01*
X182690331Y-105319984D02*
X182863980Y-104335176D01*
X183675139Y-105493632D02*
X182690331Y-105319984D01*
X190166998Y-91711551D02*
X190746226Y-91305971D01*
X189559230Y-95158378D02*
X189964810Y-95737606D01*
X190746226Y-91305971D02*
X193700650Y-91826916D01*
X189964810Y-95737606D02*
X192426829Y-96171726D01*
X193700650Y-91826916D02*
X194106229Y-92406144D01*
X193932581Y-93390951D02*
X194106229Y-92406144D01*
X193643568Y-97909410D02*
X193522015Y-98598776D01*
X193522015Y-98598776D02*
X197953650Y-99380193D01*
X197923907Y-93790102D02*
X198908715Y-93963750D01*
X198908715Y-93963750D02*
X198735066Y-94948558D01*
X198769796Y-94751596D02*
X194338161Y-93970179D01*
X198665607Y-95342481D02*
X198769796Y-94751596D01*
X197953650Y-99380193D02*
X198040474Y-98887789D01*
X196651288Y-106766251D02*
X196477640Y-107751059D01*
X196477640Y-107751059D02*
X195492832Y-107577410D01*
X193643569Y-97909410D02*
G75*
G03*
X192426829Y-96171726I-1477212J260472D01*
G01*
X193932581Y-93390951D02*
G75*
G03*
X194338161Y-93970179I492404J-86824D01*
G01*
X165882000Y-128361000D02*
X165882000Y-130139000D01*
X165882000Y-130139000D02*
X168168000Y-130139000D01*
X168168000Y-128361000D02*
X165882000Y-128361000D01*
X168168000Y-130139000D02*
X168168000Y-128361000D01*
X165882000Y-126586000D02*
X165882000Y-128364000D01*
X165882000Y-128364000D02*
X168168000Y-128364000D01*
X168168000Y-126586000D02*
X165882000Y-126586000D01*
X168168000Y-128364000D02*
X168168000Y-126586000D01*
D17*
X178719019Y-58478792D03*
D18*
X181243019Y-58478792D03*
D17*
X173004504Y-58168721D03*
D18*
X175528504Y-58168721D03*
D17*
X167261254Y-57800649D03*
D18*
X169785254Y-57800649D03*
%LPC*%
D17*
X178719019Y-58478792D03*
D18*
X181243019Y-58478792D03*
D19*
X151270000Y-61380000D03*
X154670000Y-61380000D03*
X133220000Y-102670000D03*
X136620000Y-102670000D03*
D20*
X147444862Y-58365117D03*
D21*
X147944862Y-54615117D03*
X152944862Y-52415117D03*
D22*
X152944862Y-58365117D03*
D21*
X157944862Y-54615117D03*
D20*
X158444862Y-58365117D03*
D23*
X149669862Y-52415117D03*
D24*
X152944862Y-64265117D03*
X147944862Y-62165117D03*
X157944862Y-62165117D03*
D23*
X161219862Y-54615117D03*
D25*
X191611654Y-85569596D03*
X194960000Y-86160000D03*
D17*
X173004504Y-58168721D03*
D18*
X175528504Y-58168721D03*
D26*
X109570000Y-56820000D03*
X116070000Y-56820000D03*
D20*
X182419621Y-115409183D03*
D21*
X183563206Y-111802978D03*
X188869271Y-110504642D03*
D22*
X187836064Y-116364248D03*
D21*
X193411283Y-113539460D03*
D20*
X193252507Y-117319313D03*
D27*
X185644025Y-109935944D03*
D24*
X186811540Y-122174614D03*
X182252162Y-119238277D03*
X192100240Y-120974758D03*
D27*
X196636529Y-114108158D03*
D28*
X189975000Y-59750000D03*
X189975000Y-56950000D03*
D20*
X129452431Y-99641867D03*
D21*
X129952431Y-95891867D03*
X134952431Y-93691867D03*
D22*
X134952431Y-99641867D03*
D21*
X139952431Y-95891867D03*
D20*
X140452431Y-99641867D03*
D23*
X131677431Y-93691867D03*
D24*
X134952431Y-105541867D03*
X129952431Y-103441867D03*
X139952431Y-103441867D03*
D23*
X143227431Y-95891867D03*
D19*
X115290000Y-88370000D03*
X118690000Y-88370000D03*
X133220000Y-85670000D03*
X136620000Y-85670000D03*
D29*
X126072491Y-90139683D03*
X164027509Y-93460317D03*
D30*
X91500000Y-97700000D03*
X91500000Y-100240000D03*
X91500000Y-102780000D03*
X91500000Y-105320000D03*
D31*
X89850000Y-94700000D03*
D32*
X91850000Y-94700000D03*
D33*
X163225000Y-128350000D03*
X161225000Y-128350000D03*
D20*
X165450692Y-102680303D03*
D21*
X166211061Y-98974316D03*
X171352345Y-97128458D03*
D22*
X170937294Y-103063964D03*
D21*
X176186701Y-99671881D03*
D20*
X176423896Y-103447625D03*
D34*
X168085323Y-96900005D03*
D24*
X170525731Y-108949592D03*
X165684399Y-106505925D03*
X175660040Y-107203490D03*
D34*
X179453723Y-99900334D03*
D35*
X194398013Y-57553692D03*
D25*
X185685827Y-119064798D03*
X189034173Y-119655202D03*
D20*
X147444862Y-75334448D03*
D21*
X147944862Y-71584448D03*
X152944862Y-69384448D03*
D22*
X152944862Y-75334448D03*
D21*
X157944862Y-71584448D03*
D20*
X158444862Y-75334448D03*
D23*
X149669862Y-69384448D03*
D24*
X152944862Y-81234448D03*
X147944862Y-79134448D03*
X157944862Y-79134448D03*
D23*
X161219862Y-71584448D03*
D35*
X148182160Y-105392393D03*
D20*
X167814407Y-68776914D03*
D21*
X168574776Y-65070927D03*
X173716060Y-63225069D03*
D22*
X173301009Y-69160575D03*
D21*
X178550416Y-65768492D03*
D20*
X178787611Y-69544236D03*
D34*
X170449038Y-62996616D03*
D24*
X172889446Y-75046203D03*
X168048114Y-72602536D03*
X178023755Y-73300101D03*
D34*
X181817438Y-65996945D03*
D20*
X166614904Y-85746250D03*
D21*
X167375273Y-82040263D03*
X172516557Y-80194405D03*
D22*
X172101506Y-86129911D03*
D21*
X177350913Y-82737828D03*
D20*
X177588108Y-86513572D03*
D34*
X169249535Y-79965952D03*
D24*
X171689943Y-92015539D03*
X166848611Y-89571872D03*
X176824252Y-90269437D03*
D34*
X180617935Y-82966281D03*
D20*
X147444862Y-92339060D03*
D21*
X147944862Y-88589060D03*
X152944862Y-86389060D03*
D22*
X152944862Y-92339060D03*
D21*
X157944862Y-88589060D03*
D20*
X158444862Y-92339060D03*
D23*
X149669862Y-86389060D03*
D24*
X152944862Y-98239060D03*
X147944862Y-96139060D03*
X157944862Y-96139060D03*
D23*
X161219862Y-88589060D03*
D20*
X92497995Y-123797487D03*
D21*
X92471230Y-120014395D03*
X97116389Y-117139940D03*
D22*
X97944469Y-123032035D03*
D21*
X102373910Y-118622664D03*
D20*
X103390943Y-122266583D03*
D36*
X93873261Y-117595732D03*
D24*
X98765590Y-128874617D03*
X93521986Y-127490919D03*
X103424667Y-126099188D03*
D36*
X105617038Y-118166872D03*
D19*
X151270000Y-78380000D03*
X154670000Y-78380000D03*
D35*
X88900000Y-114030000D03*
D37*
X170228282Y-88972828D03*
X173620000Y-89210000D03*
D20*
X111460000Y-102287813D03*
D21*
X111960000Y-98537813D03*
X116960000Y-96337813D03*
D22*
X116960000Y-102287813D03*
D21*
X121960000Y-98537813D03*
D20*
X122460000Y-102287813D03*
D23*
X113685000Y-96337813D03*
D24*
X116960000Y-108187813D03*
X111960000Y-106087813D03*
X121960000Y-106087813D03*
D23*
X125235000Y-98537813D03*
D28*
X187475000Y-59750000D03*
X187475000Y-56950000D03*
D25*
X188637481Y-102274394D03*
X191985827Y-102864798D03*
D19*
X151270000Y-95380000D03*
X154670000Y-95380000D03*
D38*
X96683088Y-126153188D03*
X100050000Y-125680000D03*
D39*
X115438282Y-124157172D03*
X118830000Y-123920000D03*
D20*
X188311267Y-81929145D03*
D21*
X189454852Y-78322940D03*
X194760917Y-77024604D03*
D22*
X193727710Y-82884210D03*
D21*
X199302929Y-80059422D03*
D20*
X199144153Y-83839275D03*
D27*
X191535671Y-76455906D03*
D24*
X192703186Y-88694576D03*
X188143808Y-85758239D03*
X197991886Y-87494720D03*
D27*
X202528175Y-80628120D03*
D35*
X121652143Y-57553692D03*
D19*
X133220000Y-68670000D03*
X136620000Y-68670000D03*
D20*
X111460000Y-85318484D03*
D21*
X111960000Y-81568484D03*
X116960000Y-79368484D03*
D22*
X116960000Y-85318484D03*
D21*
X121960000Y-81568484D03*
D20*
X122460000Y-85318484D03*
D23*
X113685000Y-79368484D03*
D24*
X116960000Y-91218484D03*
X111960000Y-89118484D03*
X121960000Y-89118484D03*
D23*
X125235000Y-81568484D03*
D40*
X86375000Y-99685000D03*
X86425000Y-96685000D03*
D41*
X88225000Y-100435000D03*
X88225000Y-97435000D03*
X88225000Y-95935000D03*
D42*
X86325000Y-94335000D03*
X86325000Y-102285000D03*
D20*
X129452431Y-65632647D03*
D21*
X129952431Y-61882647D03*
X134952431Y-59682647D03*
D22*
X134952431Y-65632647D03*
D21*
X139952431Y-61882647D03*
D20*
X140452431Y-65632647D03*
D23*
X131677431Y-59682647D03*
D24*
X134952431Y-71532647D03*
X129952431Y-69432647D03*
X139952431Y-69432647D03*
D23*
X143227431Y-61882647D03*
D19*
X115290000Y-105270000D03*
X118690000Y-105270000D03*
X115290000Y-71270000D03*
X118690000Y-71270000D03*
D37*
X171428282Y-71972828D03*
X174820000Y-72210000D03*
D20*
X111460000Y-68313872D03*
D21*
X111960000Y-64563872D03*
X116960000Y-62363872D03*
D22*
X116960000Y-68313872D03*
D21*
X121960000Y-64563872D03*
D20*
X122460000Y-68313872D03*
D23*
X113685000Y-62363872D03*
D24*
X116960000Y-74213872D03*
X111960000Y-72113872D03*
X121960000Y-72113872D03*
D23*
X125235000Y-64563872D03*
D20*
X111467538Y-121344243D03*
D21*
X111770592Y-117573214D03*
X116648601Y-115114549D03*
D22*
X116960000Y-121056395D03*
D21*
X121756888Y-117049854D03*
D20*
X122452462Y-120768547D03*
D43*
X113378089Y-115285950D03*
D24*
X117268782Y-126948309D03*
X112165729Y-125112867D03*
X122152024Y-124589507D03*
D43*
X125027400Y-116878454D03*
D35*
X194398013Y-127759458D03*
D20*
X129452431Y-82637259D03*
D21*
X129952431Y-78887259D03*
X134952431Y-76687259D03*
D22*
X134952431Y-82637259D03*
D21*
X139952431Y-78887259D03*
D20*
X140452431Y-82637259D03*
D23*
X131677431Y-76687259D03*
D24*
X134952431Y-88537259D03*
X129952431Y-86437259D03*
X139952431Y-86437259D03*
D23*
X143227431Y-78887259D03*
D31*
X88172500Y-58710000D03*
X104718900Y-57440000D03*
X88172500Y-61250000D03*
X104718900Y-59980000D03*
X88172500Y-63790000D03*
X104718900Y-62520000D03*
X88172500Y-66330000D03*
X104718900Y-65060000D03*
X88172500Y-68870000D03*
X104718900Y-67600000D03*
X88172500Y-71410000D03*
X104718900Y-70140000D03*
X88172500Y-73950000D03*
X104718900Y-72680000D03*
X88172500Y-76490000D03*
X104718900Y-75220000D03*
X88172500Y-79030000D03*
X104718900Y-77760000D03*
X88172500Y-81570000D03*
X104718900Y-80300000D03*
X88172500Y-84110000D03*
X104718900Y-82840000D03*
X88172500Y-86650000D03*
X104718900Y-85380000D03*
X89498900Y-85380000D03*
X103412500Y-86650000D03*
X89498900Y-82840000D03*
X103412500Y-84110000D03*
X89498900Y-80300000D03*
X103412500Y-81570000D03*
X89498900Y-77760000D03*
X103412500Y-79030000D03*
X89498900Y-75220000D03*
X103412500Y-76490000D03*
X89498900Y-72680000D03*
X103412500Y-73950000D03*
X89498900Y-70140000D03*
X103412500Y-71410000D03*
X89498900Y-67600000D03*
X103412500Y-68870000D03*
X89498900Y-65060000D03*
X103412500Y-66330000D03*
X89498900Y-62520000D03*
X103412500Y-63790000D03*
X89498900Y-59980000D03*
X103412500Y-61250000D03*
X89498900Y-57440000D03*
X103412500Y-58710000D03*
D37*
X169032423Y-105954242D03*
X172424141Y-106191414D03*
D17*
X167261254Y-57800649D03*
D18*
X169785254Y-57800649D03*
D28*
X184975000Y-59750000D03*
X184975000Y-56950000D03*
D20*
X185383080Y-98686802D03*
D21*
X186526665Y-95080597D03*
X191832730Y-93782261D03*
D22*
X190799523Y-99641867D03*
D21*
X196374742Y-96817079D03*
D20*
X196215966Y-100596932D03*
D27*
X188607484Y-93213563D03*
D24*
X189774999Y-105452233D03*
X185215621Y-102515896D03*
X195063699Y-104252377D03*
D27*
X199599988Y-97385777D03*
D44*
X166524620Y-129250000D03*
X167525380Y-129250000D03*
D45*
X171900000Y-127875000D03*
D35*
X178900000Y-127875000D03*
D44*
X166524620Y-127475000D03*
X167525380Y-127475000D03*
%LPD*%
M02*
