%TF.GenerationSoftware,KiCad,Pcbnew,7.0.5*%
%TF.CreationDate,2023-06-08T22:58:11+10:00*%
%TF.ProjectId,Klotz,4b6c6f74-7a2e-46b6-9963-61645f706362,0.2*%
%TF.SameCoordinates,Original*%
%TF.FileFunction,Drillmap*%
%TF.FilePolarity,Positive*%
%FSLAX45Y45*%
G04 Gerber Fmt 4.5, Leading zero omitted, Abs format (unit mm)*
G04 Created by KiCad (PCBNEW 7.0.5) date 2023-06-08 22:58:11*
%MOMM*%
%LPD*%
G01*
G04 APERTURE LIST*
%ADD10C,0.050000*%
%ADD11C,0.200000*%
%ADD12C,0.030000*%
%ADD13C,0.040000*%
%ADD14C,0.075000*%
%ADD15C,0.076200*%
%ADD16C,0.081280*%
%ADD17C,0.099060*%
%ADD18C,0.100000*%
%ADD19C,0.127000*%
%ADD20C,0.130000*%
%ADD21C,0.155000*%
%ADD22C,0.220000*%
G04 APERTURE END LIST*
D10*
X19840146Y-7381083D02*
X19840146Y-5425813D01*
X20483083Y-7494854D02*
X20483083Y-7494854D01*
X20483083Y-7494854D02*
X20483083Y-7494854D01*
X8555667Y-13180750D02*
X8881104Y-13180750D01*
X10555917Y-13180750D02*
X19766063Y-13180750D01*
X8555667Y-5354375D02*
X8548324Y-5354741D01*
X8541202Y-5355817D01*
X8534337Y-5357567D01*
X8527761Y-5359956D01*
X8521512Y-5362950D01*
X8515623Y-5366514D01*
X8510129Y-5370612D01*
X8505065Y-5375211D01*
X8500467Y-5380275D01*
X8496368Y-5385768D01*
X8492804Y-5391658D01*
X8489810Y-5397907D01*
X8487421Y-5404482D01*
X8485671Y-5411348D01*
X8484595Y-5418470D01*
X8484229Y-5425813D01*
X8979000Y-13403000D02*
X10555917Y-13180750D01*
X8484229Y-13109312D02*
X8484595Y-13116655D01*
X8485671Y-13123777D01*
X8487421Y-13130642D01*
X8489810Y-13137218D01*
X8492804Y-13143467D01*
X8496368Y-13149356D01*
X8500467Y-13154850D01*
X8505065Y-13159914D01*
X8510129Y-13164513D01*
X8515623Y-13168611D01*
X8521512Y-13172175D01*
X8527761Y-13175169D01*
X8534337Y-13177558D01*
X8541202Y-13179308D01*
X8548324Y-13180384D01*
X8555667Y-13180750D01*
X20536000Y-7576875D02*
X20537586Y-7569472D01*
X20538393Y-7562173D01*
X20538448Y-7555022D01*
X20537778Y-7548060D01*
X20536410Y-7541331D01*
X20534372Y-7534877D01*
X20531691Y-7528742D01*
X20528393Y-7522966D01*
X20524506Y-7517594D01*
X20520058Y-7512667D01*
X20515074Y-7508229D01*
X20509583Y-7504321D01*
X20503611Y-7500987D01*
X20497186Y-7498270D01*
X20490334Y-7496211D01*
X20483083Y-7494854D01*
X14262729Y-5354375D02*
X8555667Y-5354375D01*
X19837500Y-11535042D02*
X19914229Y-11101125D01*
X19837500Y-13109312D02*
X19837500Y-11535042D01*
X8484229Y-5425813D02*
X8484229Y-13109312D01*
X14334167Y-4856958D02*
X14326824Y-4857325D01*
X14319702Y-4858400D01*
X14312837Y-4860150D01*
X14306261Y-4862539D01*
X14300012Y-4865533D01*
X14294123Y-4869097D01*
X14288629Y-4873196D01*
X14283565Y-4877794D01*
X14278966Y-4882858D01*
X14274868Y-4888352D01*
X14271304Y-4894241D01*
X14268310Y-4900491D01*
X14265921Y-4907066D01*
X14264171Y-4913932D01*
X14263095Y-4921053D01*
X14262729Y-4928396D01*
X8902271Y-13342146D02*
X8904063Y-13349399D01*
X8906436Y-13356264D01*
X8909352Y-13362726D01*
X8912771Y-13368769D01*
X8916656Y-13374379D01*
X8920967Y-13379539D01*
X8925666Y-13384234D01*
X8930714Y-13388448D01*
X8936071Y-13392166D01*
X8941700Y-13395373D01*
X8947561Y-13398052D01*
X8953617Y-13400189D01*
X8959827Y-13401767D01*
X8966153Y-13402773D01*
X8972557Y-13403189D01*
X8979000Y-13403000D01*
X19766063Y-13180750D02*
X19773405Y-13180384D01*
X19780527Y-13179308D01*
X19787393Y-13177558D01*
X19793968Y-13175169D01*
X19800217Y-13172175D01*
X19806107Y-13168611D01*
X19811600Y-13164513D01*
X19816664Y-13159914D01*
X19821263Y-13154850D01*
X19825361Y-13149356D01*
X19828925Y-13143467D01*
X19831919Y-13137218D01*
X19834308Y-13130642D01*
X19836058Y-13123777D01*
X19837134Y-13116655D01*
X19837500Y-13109312D01*
X14262729Y-4928396D02*
X14262729Y-5354375D01*
X8881104Y-13180750D02*
X8902271Y-13342146D01*
X19914229Y-11101125D02*
X20536000Y-7576875D01*
X16318542Y-5354375D02*
X16318542Y-4928396D01*
X16247104Y-4856958D02*
X14334167Y-4856958D01*
X16318542Y-4928396D02*
X16318175Y-4921053D01*
X16317100Y-4913932D01*
X16315350Y-4907066D01*
X16312961Y-4900491D01*
X16309967Y-4894241D01*
X16306403Y-4888352D01*
X16302304Y-4882858D01*
X16297706Y-4877794D01*
X16292642Y-4873196D01*
X16287148Y-4869097D01*
X16281259Y-4865533D01*
X16275009Y-4862539D01*
X16268434Y-4860150D01*
X16261568Y-4858400D01*
X16254447Y-4857325D01*
X16247104Y-4856958D01*
X20483083Y-7494854D02*
X19840146Y-7381083D01*
X19768708Y-5354375D02*
X16318542Y-5354375D01*
X19840146Y-5425813D02*
X19839780Y-5418470D01*
X19838704Y-5411348D01*
X19836954Y-5404482D01*
X19834565Y-5397907D01*
X19831571Y-5391658D01*
X19828007Y-5385768D01*
X19823908Y-5380275D01*
X19819310Y-5375211D01*
X19814246Y-5370612D01*
X19808752Y-5366514D01*
X19802863Y-5362950D01*
X19796614Y-5359956D01*
X19790038Y-5357567D01*
X19783173Y-5355817D01*
X19776051Y-5354741D01*
X19768708Y-5354375D01*
D11*
D12*
X8725000Y-9802500D02*
X8755000Y-9832500D01*
X8755000Y-9802500D02*
X8725000Y-9832500D01*
X8807500Y-9804500D02*
X8837500Y-9834500D01*
X8837500Y-9804500D02*
X8807500Y-9834500D01*
X8882500Y-9802500D02*
X8912500Y-9832500D01*
X8912500Y-9802500D02*
X8882500Y-9832500D01*
X9032111Y-8399611D02*
X9062111Y-8429611D01*
X9062111Y-8399611D02*
X9032111Y-8429611D01*
X9033111Y-7890611D02*
X9063111Y-7920611D01*
X9063111Y-7890611D02*
X9033111Y-7920611D01*
X9035861Y-7125861D02*
X9065861Y-7155861D01*
X9065861Y-7125861D02*
X9035861Y-7155861D01*
X9036361Y-6871361D02*
X9066361Y-6901361D01*
X9066361Y-6871361D02*
X9036361Y-6901361D01*
X9036361Y-8141361D02*
X9066361Y-8171361D01*
X9066361Y-8141361D02*
X9036361Y-8171361D01*
X9036611Y-7379111D02*
X9066611Y-7409111D01*
X9066611Y-7379111D02*
X9036611Y-7409111D01*
X9036611Y-8649111D02*
X9066611Y-8679111D01*
X9066611Y-8649111D02*
X9036611Y-8679111D01*
X9037088Y-5857088D02*
X9067088Y-5887088D01*
X9067088Y-5857088D02*
X9037088Y-5887088D01*
X9037861Y-6107861D02*
X9067861Y-6137861D01*
X9067861Y-6107861D02*
X9037861Y-6137861D01*
X9060838Y-7633338D02*
X9090838Y-7663338D01*
X9090838Y-7633338D02*
X9060838Y-7663338D01*
X9190000Y-7380000D02*
X9220000Y-7410000D01*
X9220000Y-7380000D02*
X9190000Y-7410000D01*
X9244000Y-7126000D02*
X9274000Y-7156000D01*
X9274000Y-7126000D02*
X9244000Y-7156000D01*
X9262354Y-7634000D02*
X9292354Y-7664000D01*
X9292354Y-7634000D02*
X9262354Y-7664000D01*
X9310500Y-7888000D02*
X9340500Y-7918000D01*
X9340500Y-7888000D02*
X9310500Y-7918000D01*
X9358000Y-8142000D02*
X9388000Y-8172000D01*
X9388000Y-8142000D02*
X9358000Y-8172000D01*
X9406000Y-8396000D02*
X9436000Y-8426000D01*
X9436000Y-8396000D02*
X9406000Y-8426000D01*
X9445000Y-8650000D02*
X9475000Y-8680000D01*
X9475000Y-8650000D02*
X9445000Y-8680000D01*
X9452500Y-9755000D02*
X9482500Y-9785000D01*
X9482500Y-9755000D02*
X9452500Y-9785000D01*
X9657000Y-12806542D02*
X9687000Y-12836542D01*
X9687000Y-12806542D02*
X9657000Y-12836542D01*
X10017500Y-12740000D02*
X10047500Y-12770000D01*
X10047500Y-12740000D02*
X10017500Y-12770000D01*
X10037500Y-12350000D02*
X10067500Y-12380000D01*
X10067500Y-12350000D02*
X10037500Y-12380000D01*
X10125000Y-9430000D02*
X10155000Y-9460000D01*
X10155000Y-9430000D02*
X10125000Y-9460000D01*
X10673498Y-11510000D02*
X10703498Y-11540000D01*
X10703498Y-11510000D02*
X10673498Y-11540000D01*
X10730000Y-7880000D02*
X10760000Y-7910000D01*
X10760000Y-7880000D02*
X10730000Y-7910000D01*
X10752500Y-11067500D02*
X10782500Y-11097500D01*
X10782500Y-11067500D02*
X10752500Y-11097500D01*
X10782500Y-12595000D02*
X10812500Y-12625000D01*
X10812500Y-12595000D02*
X10782500Y-12625000D01*
X10847500Y-11435000D02*
X10877500Y-11465000D01*
X10877500Y-11435000D02*
X10847500Y-11465000D01*
X11037500Y-10835000D02*
X11067500Y-10865000D01*
X11067500Y-10835000D02*
X11037500Y-10865000D01*
X11511000Y-7317450D02*
X11541000Y-7347450D01*
X11541000Y-7317450D02*
X11511000Y-7347450D01*
X11512000Y-10715450D02*
X11542000Y-10745450D01*
X11542000Y-10715450D02*
X11512000Y-10745450D01*
X11518000Y-9028450D02*
X11548000Y-9058450D01*
X11548000Y-9028450D02*
X11518000Y-9058450D01*
X11532000Y-12605450D02*
X11562000Y-12635450D01*
X11562000Y-12605450D02*
X11532000Y-12635450D01*
X11847500Y-10682500D02*
X11877500Y-10712500D01*
X11877500Y-10682500D02*
X11847500Y-10712500D01*
X11852500Y-7287500D02*
X11882500Y-7317500D01*
X11882500Y-7287500D02*
X11852500Y-7317500D01*
X11852500Y-8995000D02*
X11882500Y-9025000D01*
X11882500Y-8995000D02*
X11852500Y-9025000D01*
X11885000Y-12557500D02*
X11915000Y-12587500D01*
X11915000Y-12557500D02*
X11885000Y-12587500D01*
X11900000Y-6945000D02*
X11930000Y-6975000D01*
X11930000Y-6945000D02*
X11900000Y-6975000D01*
X11935000Y-12177500D02*
X11965000Y-12207500D01*
X11965000Y-12177500D02*
X11935000Y-12207500D01*
X12155000Y-9135000D02*
X12185000Y-9165000D01*
X12185000Y-9135000D02*
X12155000Y-9165000D01*
X12455459Y-11039954D02*
X12485459Y-11069954D01*
X12485459Y-11039954D02*
X12455459Y-11069954D01*
X12585000Y-8580000D02*
X12615000Y-8610000D01*
X12615000Y-8580000D02*
X12585000Y-8610000D01*
X12585000Y-10455000D02*
X12615000Y-10485000D01*
X12615000Y-10455000D02*
X12585000Y-10485000D01*
X12587500Y-7067500D02*
X12617500Y-7097500D01*
X12617500Y-7067500D02*
X12587500Y-7097500D01*
X13306000Y-7051450D02*
X13336000Y-7081450D01*
X13336000Y-7051450D02*
X13306000Y-7081450D01*
X13309000Y-8760450D02*
X13339000Y-8790450D01*
X13339000Y-8760450D02*
X13309000Y-8790450D01*
X13311000Y-10455450D02*
X13341000Y-10485450D01*
X13341000Y-10455450D02*
X13311000Y-10485450D01*
X13645000Y-8727500D02*
X13675000Y-8757500D01*
X13675000Y-8727500D02*
X13645000Y-8757500D01*
X13647500Y-10422500D02*
X13677500Y-10452500D01*
X13677500Y-10422500D02*
X13647500Y-10452500D01*
X13650000Y-7022500D02*
X13680000Y-7052500D01*
X13680000Y-7022500D02*
X13650000Y-7052500D01*
X13835000Y-7160000D02*
X13865000Y-7190000D01*
X13865000Y-7160000D02*
X13835000Y-7190000D01*
X13847500Y-10577500D02*
X13877500Y-10607500D01*
X13877500Y-10577500D02*
X13847500Y-10607500D01*
X13852500Y-8865000D02*
X13882500Y-8895000D01*
X13882500Y-8865000D02*
X13852500Y-8895000D01*
X14705000Y-5202500D02*
X14735000Y-5232500D01*
X14735000Y-5202500D02*
X14705000Y-5232500D01*
X14765000Y-9837500D02*
X14795000Y-9867500D01*
X14795000Y-9837500D02*
X14765000Y-9867500D01*
X14792500Y-5997500D02*
X14822500Y-6027500D01*
X14822500Y-5997500D02*
X14792500Y-6027500D01*
X15112000Y-6330450D02*
X15142000Y-6360450D01*
X15142000Y-6330450D02*
X15112000Y-6360450D01*
X15112000Y-9725450D02*
X15142000Y-9755450D01*
X15142000Y-9725450D02*
X15112000Y-9755450D01*
X15114000Y-8027450D02*
X15144000Y-8057450D01*
X15144000Y-8027450D02*
X15114000Y-8057450D01*
X15140000Y-5072500D02*
X15170000Y-5102500D01*
X15170000Y-5072500D02*
X15140000Y-5102500D01*
X15147500Y-4965050D02*
X15177500Y-4995050D01*
X15177500Y-4965050D02*
X15147500Y-4995050D01*
X15275000Y-5530000D02*
X15305000Y-5560000D01*
X15305000Y-5530000D02*
X15275000Y-5560000D01*
X15447500Y-9692500D02*
X15477500Y-9722500D01*
X15477500Y-9692500D02*
X15447500Y-9722500D01*
X15450000Y-6290000D02*
X15480000Y-6320000D01*
X15480000Y-6290000D02*
X15450000Y-6320000D01*
X15455000Y-7985000D02*
X15485000Y-8015000D01*
X15485000Y-7985000D02*
X15455000Y-8015000D01*
X15460000Y-4986610D02*
X15490000Y-5016610D01*
X15490000Y-4986610D02*
X15460000Y-5016610D01*
X15832500Y-5185000D02*
X15862500Y-5215000D01*
X15862500Y-5185000D02*
X15832500Y-5215000D01*
X16302500Y-6127500D02*
X16332500Y-6157500D01*
X16332500Y-6127500D02*
X16302500Y-6157500D01*
X16510000Y-10870000D02*
X16540000Y-10900000D01*
X16540000Y-10870000D02*
X16510000Y-10900000D01*
X16765000Y-9110000D02*
X16795000Y-9140000D01*
X16795000Y-9110000D02*
X16765000Y-9140000D01*
X16775000Y-7510000D02*
X16805000Y-7540000D01*
X16805000Y-7510000D02*
X16775000Y-7540000D01*
X16827500Y-10392500D02*
X16857500Y-10422500D01*
X16857500Y-10392500D02*
X16827500Y-10422500D01*
X16840000Y-11027500D02*
X16870000Y-11057500D01*
X16870000Y-11027500D02*
X16840000Y-11057500D01*
X16860000Y-12910000D02*
X16890000Y-12940000D01*
X16890000Y-12910000D02*
X16860000Y-12940000D01*
X16888000Y-10791450D02*
X16918000Y-10821450D01*
X16918000Y-10791450D02*
X16888000Y-10821450D01*
X16937500Y-8687500D02*
X16967500Y-8717500D01*
X16967500Y-8687500D02*
X16937500Y-8717500D01*
X16970000Y-9325000D02*
X17000000Y-9355000D01*
X17000000Y-9325000D02*
X16970000Y-9355000D01*
X17006000Y-9099450D02*
X17036000Y-9129450D01*
X17036000Y-9099450D02*
X17006000Y-9129450D01*
X17055000Y-6992500D02*
X17085000Y-7022500D01*
X17085000Y-6992500D02*
X17055000Y-7022500D01*
X17075000Y-7625000D02*
X17105000Y-7655000D01*
X17105000Y-7625000D02*
X17075000Y-7655000D01*
X17126000Y-7396450D02*
X17156000Y-7426450D01*
X17156000Y-7396450D02*
X17126000Y-7426450D01*
X17140000Y-5967500D02*
X17170000Y-5997500D01*
X17170000Y-5967500D02*
X17140000Y-5997500D01*
X17232500Y-10790000D02*
X17262500Y-10820000D01*
X17262500Y-10790000D02*
X17232500Y-10820000D01*
X17297500Y-10442500D02*
X17327500Y-10472500D01*
X17327500Y-10442500D02*
X17297500Y-10472500D01*
X17387500Y-9102500D02*
X17417500Y-9132500D01*
X17417500Y-9102500D02*
X17387500Y-9132500D01*
X17412500Y-8742500D02*
X17442500Y-8772500D01*
X17442500Y-8742500D02*
X17412500Y-8772500D01*
X17505000Y-7390000D02*
X17535000Y-7420000D01*
X17535000Y-7390000D02*
X17505000Y-7420000D01*
X17545000Y-7055000D02*
X17575000Y-7085000D01*
X17575000Y-7055000D02*
X17545000Y-7085000D01*
X17650000Y-6125000D02*
X17680000Y-6155000D01*
X17680000Y-6125000D02*
X17650000Y-6155000D01*
X17722500Y-5617500D02*
X17752500Y-5647500D01*
X17752500Y-5617500D02*
X17722500Y-5647500D01*
X18495000Y-11672500D02*
X18525000Y-11702500D01*
X18525000Y-11672500D02*
X18495000Y-11702500D01*
X18520000Y-12117450D02*
X18550000Y-12147450D01*
X18550000Y-12117450D02*
X18520000Y-12147450D01*
X18787500Y-10012500D02*
X18817500Y-10042500D01*
X18817500Y-10012500D02*
X18787500Y-10042500D01*
X18840000Y-10440000D02*
X18870000Y-10470000D01*
X18870000Y-10440000D02*
X18840000Y-10470000D01*
X18912500Y-12132500D02*
X18942500Y-12162500D01*
X18942500Y-12132500D02*
X18912500Y-12162500D01*
X18965000Y-11800000D02*
X18995000Y-11830000D01*
X18995000Y-11800000D02*
X18965000Y-11830000D01*
X19092500Y-8342500D02*
X19122500Y-8372500D01*
X19122500Y-8342500D02*
X19092500Y-8372500D01*
X19095550Y-8750000D02*
X19125550Y-8780000D01*
X19125550Y-8750000D02*
X19095550Y-8780000D01*
X19205000Y-10455000D02*
X19235000Y-10485000D01*
X19235000Y-10455000D02*
X19205000Y-10485000D01*
X19255000Y-10130000D02*
X19285000Y-10160000D01*
X19285000Y-10130000D02*
X19255000Y-10160000D01*
X19490000Y-8785000D02*
X19520000Y-8815000D01*
X19520000Y-8785000D02*
X19490000Y-8815000D01*
X19555000Y-8445000D02*
X19585000Y-8475000D01*
X19585000Y-8445000D02*
X19555000Y-8475000D01*
X19630000Y-10762500D02*
X19660000Y-10792500D01*
X19660000Y-10762500D02*
X19630000Y-10792500D01*
X19925000Y-9080000D02*
X19955000Y-9110000D01*
X19955000Y-9080000D02*
X19925000Y-9110000D01*
D13*
X9688309Y-12615319D02*
G75*
G03*
X9688309Y-12615319I-20000J0D01*
G01*
X10025000Y-12568000D02*
G75*
G03*
X10025000Y-12568000I-20000J0D01*
G01*
X11549000Y-7127000D02*
G75*
G03*
X11549000Y-7127000I-20000J0D01*
G01*
X11549000Y-8837000D02*
G75*
G03*
X11549000Y-8837000I-20000J0D01*
G01*
X11549000Y-10527000D02*
G75*
G03*
X11549000Y-10527000I-20000J0D01*
G01*
X11563828Y-12415717D02*
G75*
G03*
X11563828Y-12415717I-20000J0D01*
G01*
X11889000Y-7127000D02*
G75*
G03*
X11889000Y-7127000I-20000J0D01*
G01*
X11889000Y-8837000D02*
G75*
G03*
X11889000Y-8837000I-20000J0D01*
G01*
X11889000Y-10527000D02*
G75*
G03*
X11889000Y-10527000I-20000J0D01*
G01*
X11903000Y-12392000D02*
G75*
G03*
X11903000Y-12392000I-20000J0D01*
G01*
X13342000Y-6867000D02*
G75*
G03*
X13342000Y-6867000I-20000J0D01*
G01*
X13342000Y-8567000D02*
G75*
G03*
X13342000Y-8567000I-20000J0D01*
G01*
X13342000Y-10267000D02*
G75*
G03*
X13342000Y-10267000I-20000J0D01*
G01*
X13682000Y-6867000D02*
G75*
G03*
X13682000Y-6867000I-20000J0D01*
G01*
X13682000Y-8567000D02*
G75*
G03*
X13682000Y-8567000I-20000J0D01*
G01*
X13682000Y-10267000D02*
G75*
G03*
X13682000Y-10267000I-20000J0D01*
G01*
X15147000Y-6138000D02*
G75*
G03*
X15147000Y-6138000I-20000J0D01*
G01*
X15147000Y-7838000D02*
G75*
G03*
X15147000Y-7838000I-20000J0D01*
G01*
X15147000Y-9538000D02*
G75*
G03*
X15147000Y-9538000I-20000J0D01*
G01*
X15487000Y-6138000D02*
G75*
G03*
X15487000Y-6138000I-20000J0D01*
G01*
X15487000Y-7838000D02*
G75*
G03*
X15487000Y-7838000I-20000J0D01*
G01*
X15487000Y-9538000D02*
G75*
G03*
X15487000Y-9538000I-20000J0D01*
G01*
X16923242Y-10595424D02*
G75*
G03*
X16923242Y-10595424I-20000J0D01*
G01*
X17042828Y-8897283D02*
G75*
G03*
X17042828Y-8897283I-20000J0D01*
G01*
X17162828Y-7197283D02*
G75*
G03*
X17162828Y-7197283I-20000J0D01*
G01*
X17262414Y-10619141D02*
G75*
G03*
X17262414Y-10619141I-20000J0D01*
G01*
X17382000Y-8921000D02*
G75*
G03*
X17382000Y-8921000I-20000J0D01*
G01*
X17502000Y-7221000D02*
G75*
G03*
X17502000Y-7221000I-20000J0D01*
G01*
X18517500Y-5695000D02*
G75*
G03*
X18517500Y-5695000I-20000J0D01*
G01*
X18517500Y-5975000D02*
G75*
G03*
X18517500Y-5975000I-20000J0D01*
G01*
X18588583Y-11906480D02*
G75*
G03*
X18588583Y-11906480I-20000J0D01*
G01*
X18767500Y-5695000D02*
G75*
G03*
X18767500Y-5695000I-20000J0D01*
G01*
X18767500Y-5975000D02*
G75*
G03*
X18767500Y-5975000I-20000J0D01*
G01*
X18883748Y-10227439D02*
G75*
G03*
X18883748Y-10227439I-20000J0D01*
G01*
X18923417Y-11965520D02*
G75*
G03*
X18923417Y-11965520I-20000J0D01*
G01*
X19017500Y-5695000D02*
G75*
G03*
X19017500Y-5695000I-20000J0D01*
G01*
X19017500Y-5975000D02*
G75*
G03*
X19017500Y-5975000I-20000J0D01*
G01*
X19181165Y-8556960D02*
G75*
G03*
X19181165Y-8556960I-20000J0D01*
G01*
X19218583Y-10286480D02*
G75*
G03*
X19218583Y-10286480I-20000J0D01*
G01*
X19516000Y-8616000D02*
G75*
G03*
X19516000Y-8616000I-20000J0D01*
G01*
D14*
X16122500Y-12797500D02*
X16122500Y-12872500D01*
X16085000Y-12835000D02*
X16160000Y-12835000D01*
X16322500Y-12797500D02*
X16322500Y-12872500D01*
X16285000Y-12835000D02*
X16360000Y-12835000D01*
D15*
X9011941Y-9496941D02*
X9011941Y-9443059D01*
X8958059Y-9443059D01*
X8958059Y-9496941D01*
X9011941Y-9496941D01*
X9211941Y-9496941D02*
X9211941Y-9443059D01*
X9158059Y-9443059D01*
X9158059Y-9496941D01*
X9211941Y-9496941D01*
D16*
X8817250Y-5911640D02*
X8857890Y-5871000D01*
X8817250Y-5830360D01*
X8776610Y-5871000D01*
X8817250Y-5911640D01*
X8817250Y-6165640D02*
X8857890Y-6125000D01*
X8817250Y-6084360D01*
X8776610Y-6125000D01*
X8817250Y-6165640D01*
X8817250Y-6419640D02*
X8857890Y-6379000D01*
X8817250Y-6338360D01*
X8776610Y-6379000D01*
X8817250Y-6419640D01*
X8817250Y-6673640D02*
X8857890Y-6633000D01*
X8817250Y-6592360D01*
X8776610Y-6633000D01*
X8817250Y-6673640D01*
X8817250Y-6927640D02*
X8857890Y-6887000D01*
X8817250Y-6846360D01*
X8776610Y-6887000D01*
X8817250Y-6927640D01*
X8817250Y-7181640D02*
X8857890Y-7141000D01*
X8817250Y-7100360D01*
X8776610Y-7141000D01*
X8817250Y-7181640D01*
X8817250Y-7435640D02*
X8857890Y-7395000D01*
X8817250Y-7354360D01*
X8776610Y-7395000D01*
X8817250Y-7435640D01*
X8817250Y-7689640D02*
X8857890Y-7649000D01*
X8817250Y-7608360D01*
X8776610Y-7649000D01*
X8817250Y-7689640D01*
X8817250Y-7943640D02*
X8857890Y-7903000D01*
X8817250Y-7862360D01*
X8776610Y-7903000D01*
X8817250Y-7943640D01*
X8817250Y-8197640D02*
X8857890Y-8157000D01*
X8817250Y-8116360D01*
X8776610Y-8157000D01*
X8817250Y-8197640D01*
X8817250Y-8451640D02*
X8857890Y-8411000D01*
X8817250Y-8370360D01*
X8776610Y-8411000D01*
X8817250Y-8451640D01*
X8817250Y-8705640D02*
X8857890Y-8665000D01*
X8817250Y-8624360D01*
X8776610Y-8665000D01*
X8817250Y-8705640D01*
X8949890Y-5784640D02*
X8990530Y-5744000D01*
X8949890Y-5703360D01*
X8909250Y-5744000D01*
X8949890Y-5784640D01*
X8949890Y-6038640D02*
X8990530Y-5998000D01*
X8949890Y-5957360D01*
X8909250Y-5998000D01*
X8949890Y-6038640D01*
X8949890Y-6292640D02*
X8990530Y-6252000D01*
X8949890Y-6211360D01*
X8909250Y-6252000D01*
X8949890Y-6292640D01*
X8949890Y-6546640D02*
X8990530Y-6506000D01*
X8949890Y-6465360D01*
X8909250Y-6506000D01*
X8949890Y-6546640D01*
X8949890Y-6800640D02*
X8990530Y-6760000D01*
X8949890Y-6719360D01*
X8909250Y-6760000D01*
X8949890Y-6800640D01*
X8949890Y-7054640D02*
X8990530Y-7014000D01*
X8949890Y-6973360D01*
X8909250Y-7014000D01*
X8949890Y-7054640D01*
X8949890Y-7308640D02*
X8990530Y-7268000D01*
X8949890Y-7227360D01*
X8909250Y-7268000D01*
X8949890Y-7308640D01*
X8949890Y-7562640D02*
X8990530Y-7522000D01*
X8949890Y-7481360D01*
X8909250Y-7522000D01*
X8949890Y-7562640D01*
X8949890Y-7816640D02*
X8990530Y-7776000D01*
X8949890Y-7735360D01*
X8909250Y-7776000D01*
X8949890Y-7816640D01*
X8949890Y-8070640D02*
X8990530Y-8030000D01*
X8949890Y-7989360D01*
X8909250Y-8030000D01*
X8949890Y-8070640D01*
X8949890Y-8324640D02*
X8990530Y-8284000D01*
X8949890Y-8243360D01*
X8909250Y-8284000D01*
X8949890Y-8324640D01*
X8949890Y-8578640D02*
X8990530Y-8538000D01*
X8949890Y-8497360D01*
X8909250Y-8538000D01*
X8949890Y-8578640D01*
X10341250Y-5911640D02*
X10381890Y-5871000D01*
X10341250Y-5830360D01*
X10300610Y-5871000D01*
X10341250Y-5911640D01*
X10341250Y-6165640D02*
X10381890Y-6125000D01*
X10341250Y-6084360D01*
X10300610Y-6125000D01*
X10341250Y-6165640D01*
X10341250Y-6419640D02*
X10381890Y-6379000D01*
X10341250Y-6338360D01*
X10300610Y-6379000D01*
X10341250Y-6419640D01*
X10341250Y-6673640D02*
X10381890Y-6633000D01*
X10341250Y-6592360D01*
X10300610Y-6633000D01*
X10341250Y-6673640D01*
X10341250Y-6927640D02*
X10381890Y-6887000D01*
X10341250Y-6846360D01*
X10300610Y-6887000D01*
X10341250Y-6927640D01*
X10341250Y-7181640D02*
X10381890Y-7141000D01*
X10341250Y-7100360D01*
X10300610Y-7141000D01*
X10341250Y-7181640D01*
X10341250Y-7435640D02*
X10381890Y-7395000D01*
X10341250Y-7354360D01*
X10300610Y-7395000D01*
X10341250Y-7435640D01*
X10341250Y-7689640D02*
X10381890Y-7649000D01*
X10341250Y-7608360D01*
X10300610Y-7649000D01*
X10341250Y-7689640D01*
X10341250Y-7943640D02*
X10381890Y-7903000D01*
X10341250Y-7862360D01*
X10300610Y-7903000D01*
X10341250Y-7943640D01*
X10341250Y-8197640D02*
X10381890Y-8157000D01*
X10341250Y-8116360D01*
X10300610Y-8157000D01*
X10341250Y-8197640D01*
X10341250Y-8451640D02*
X10381890Y-8411000D01*
X10341250Y-8370360D01*
X10300610Y-8411000D01*
X10341250Y-8451640D01*
X10341250Y-8705640D02*
X10381890Y-8665000D01*
X10341250Y-8624360D01*
X10300610Y-8665000D01*
X10341250Y-8705640D01*
X10471890Y-5784640D02*
X10512530Y-5744000D01*
X10471890Y-5703360D01*
X10431250Y-5744000D01*
X10471890Y-5784640D01*
X10471890Y-6038640D02*
X10512530Y-5998000D01*
X10471890Y-5957360D01*
X10431250Y-5998000D01*
X10471890Y-6038640D01*
X10471890Y-6292640D02*
X10512530Y-6252000D01*
X10471890Y-6211360D01*
X10431250Y-6252000D01*
X10471890Y-6292640D01*
X10471890Y-6546640D02*
X10512530Y-6506000D01*
X10471890Y-6465360D01*
X10431250Y-6506000D01*
X10471890Y-6546640D01*
X10471890Y-6800640D02*
X10512530Y-6760000D01*
X10471890Y-6719360D01*
X10431250Y-6760000D01*
X10471890Y-6800640D01*
X10471890Y-7054640D02*
X10512530Y-7014000D01*
X10471890Y-6973360D01*
X10431250Y-7014000D01*
X10471890Y-7054640D01*
X10471890Y-7308640D02*
X10512530Y-7268000D01*
X10471890Y-7227360D01*
X10431250Y-7268000D01*
X10471890Y-7308640D01*
X10471890Y-7562640D02*
X10512530Y-7522000D01*
X10471890Y-7481360D01*
X10431250Y-7522000D01*
X10471890Y-7562640D01*
X10471890Y-7816640D02*
X10512530Y-7776000D01*
X10471890Y-7735360D01*
X10431250Y-7776000D01*
X10471890Y-7816640D01*
X10471890Y-8070640D02*
X10512530Y-8030000D01*
X10471890Y-7989360D01*
X10431250Y-8030000D01*
X10471890Y-8070640D01*
X10471890Y-8324640D02*
X10512530Y-8284000D01*
X10471890Y-8243360D01*
X10431250Y-8284000D01*
X10471890Y-8324640D01*
X10471890Y-8578640D02*
X10512530Y-8538000D01*
X10471890Y-8497360D01*
X10431250Y-8538000D01*
X10471890Y-8578640D01*
D17*
X16676595Y-5730535D02*
X16775655Y-5829595D01*
X16775655Y-5730535D02*
X16676595Y-5829595D01*
X16775655Y-5780065D02*
G75*
G03*
X16775655Y-5780065I-49530J0D01*
G01*
X16928995Y-5730535D02*
X17028055Y-5829595D01*
X17028055Y-5730535D02*
X16928995Y-5829595D01*
X17028055Y-5780065D02*
G75*
G03*
X17028055Y-5780065I-49530J0D01*
G01*
X17250920Y-5767342D02*
X17349980Y-5866402D01*
X17349980Y-5767342D02*
X17250920Y-5866402D01*
X17349980Y-5816872D02*
G75*
G03*
X17349980Y-5816872I-49530J0D01*
G01*
X17503320Y-5767342D02*
X17602380Y-5866402D01*
X17602380Y-5767342D02*
X17503320Y-5866402D01*
X17602380Y-5816872D02*
G75*
G03*
X17602380Y-5816872I-49530J0D01*
G01*
X17822372Y-5798349D02*
X17921432Y-5897409D01*
X17921432Y-5798349D02*
X17822372Y-5897409D01*
X17921432Y-5847879D02*
G75*
G03*
X17921432Y-5847879I-49530J0D01*
G01*
X18074772Y-5798349D02*
X18173832Y-5897409D01*
X18173832Y-5798349D02*
X18074772Y-5897409D01*
X18173832Y-5847879D02*
G75*
G03*
X18173832Y-5847879I-49530J0D01*
G01*
D18*
X9100000Y-9720000D02*
X9200000Y-9820000D01*
X9200000Y-9720000D02*
X9100000Y-9820000D01*
X9150000Y-9720000D02*
X9150000Y-9820000D01*
X9100000Y-9770000D02*
X9200000Y-9770000D01*
X9100000Y-9974000D02*
X9200000Y-10074000D01*
X9200000Y-9974000D02*
X9100000Y-10074000D01*
X9150000Y-9974000D02*
X9150000Y-10074000D01*
X9100000Y-10024000D02*
X9200000Y-10024000D01*
X9100000Y-10228000D02*
X9200000Y-10328000D01*
X9200000Y-10228000D02*
X9100000Y-10328000D01*
X9150000Y-10228000D02*
X9150000Y-10328000D01*
X9100000Y-10278000D02*
X9200000Y-10278000D01*
X9100000Y-10482000D02*
X9200000Y-10582000D01*
X9200000Y-10482000D02*
X9100000Y-10582000D01*
X9150000Y-10482000D02*
X9150000Y-10582000D01*
X9100000Y-10532000D02*
X9200000Y-10532000D01*
D19*
X9288699Y-12685592D02*
X9415699Y-12812592D01*
X9415699Y-12685592D02*
X9288699Y-12812592D01*
X9397100Y-12793994D02*
X9397100Y-12704190D01*
X9307297Y-12704190D01*
X9307297Y-12793994D01*
X9397100Y-12793994D01*
X9813059Y-12823962D02*
X9940059Y-12950962D01*
X9940059Y-12823962D02*
X9813059Y-12950962D01*
X9921461Y-12932363D02*
X9921461Y-12842560D01*
X9831657Y-12842560D01*
X9831657Y-12932363D01*
X9921461Y-12932363D01*
X10278967Y-12546419D02*
X10405967Y-12673419D01*
X10405967Y-12546419D02*
X10278967Y-12673419D01*
X10387368Y-12654820D02*
X10387368Y-12565017D01*
X10297565Y-12565017D01*
X10297565Y-12654820D01*
X10387368Y-12654820D01*
X11132500Y-7147887D02*
X11259500Y-7274887D01*
X11259500Y-7147887D02*
X11132500Y-7274887D01*
X11240902Y-7256289D02*
X11240902Y-7166485D01*
X11151098Y-7166485D01*
X11151098Y-7256289D01*
X11240902Y-7256289D01*
X11132500Y-8848348D02*
X11259500Y-8975348D01*
X11259500Y-8848348D02*
X11132500Y-8975348D01*
X11240902Y-8956750D02*
X11240902Y-8866947D01*
X11151098Y-8866947D01*
X11151098Y-8956750D01*
X11240902Y-8956750D01*
X11132500Y-10545281D02*
X11259500Y-10672281D01*
X11259500Y-10545281D02*
X11132500Y-10672281D01*
X11240902Y-10653683D02*
X11240902Y-10563880D01*
X11151098Y-10563880D01*
X11151098Y-10653683D01*
X11240902Y-10653683D01*
X11153073Y-12447787D02*
X11280073Y-12574787D01*
X11280073Y-12447787D02*
X11153073Y-12574787D01*
X11261475Y-12556188D02*
X11261475Y-12466385D01*
X11171671Y-12466385D01*
X11171671Y-12556188D01*
X11261475Y-12556188D01*
X11632500Y-7357887D02*
X11759500Y-7484887D01*
X11759500Y-7357887D02*
X11632500Y-7484887D01*
X11740902Y-7466289D02*
X11740902Y-7376485D01*
X11651098Y-7376485D01*
X11651098Y-7466289D01*
X11740902Y-7466289D01*
X11632500Y-9058348D02*
X11759500Y-9185348D01*
X11759500Y-9058348D02*
X11632500Y-9185348D01*
X11740902Y-9166750D02*
X11740902Y-9076947D01*
X11651098Y-9076947D01*
X11651098Y-9166750D01*
X11740902Y-9166750D01*
X11632500Y-10755281D02*
X11759500Y-10882281D01*
X11759500Y-10755281D02*
X11632500Y-10882281D01*
X11740902Y-10863683D02*
X11740902Y-10773880D01*
X11651098Y-10773880D01*
X11651098Y-10863683D01*
X11740902Y-10863683D01*
X11663378Y-12631331D02*
X11790378Y-12758331D01*
X11790378Y-12631331D02*
X11663378Y-12758331D01*
X11771780Y-12739733D02*
X11771780Y-12649929D01*
X11681976Y-12649929D01*
X11681976Y-12739733D01*
X11771780Y-12739733D01*
X12132500Y-7147887D02*
X12259500Y-7274887D01*
X12259500Y-7147887D02*
X12132500Y-7274887D01*
X12240902Y-7256289D02*
X12240902Y-7166485D01*
X12151098Y-7166485D01*
X12151098Y-7256289D01*
X12240902Y-7256289D01*
X12132500Y-8848348D02*
X12259500Y-8975348D01*
X12259500Y-8848348D02*
X12132500Y-8975348D01*
X12240902Y-8956750D02*
X12240902Y-8866947D01*
X12151098Y-8866947D01*
X12151098Y-8956750D01*
X12240902Y-8956750D01*
X12132500Y-10545281D02*
X12259500Y-10672281D01*
X12259500Y-10545281D02*
X12132500Y-10672281D01*
X12240902Y-10653683D02*
X12240902Y-10563880D01*
X12151098Y-10563880D01*
X12151098Y-10653683D01*
X12240902Y-10653683D01*
X12151702Y-12395451D02*
X12278702Y-12522451D01*
X12278702Y-12395451D02*
X12151702Y-12522451D01*
X12260104Y-12503852D02*
X12260104Y-12414049D01*
X12170301Y-12414049D01*
X12170301Y-12503852D01*
X12260104Y-12503852D01*
X12931743Y-6879765D02*
X13058743Y-7006765D01*
X13058743Y-6879765D02*
X12931743Y-7006765D01*
X13040145Y-6988166D02*
X13040145Y-6898363D01*
X12950341Y-6898363D01*
X12950341Y-6988166D01*
X13040145Y-6988166D01*
X12931743Y-8580226D02*
X13058743Y-8707226D01*
X13058743Y-8580226D02*
X12931743Y-8707226D01*
X13040145Y-8688628D02*
X13040145Y-8598824D01*
X12950341Y-8598824D01*
X12950341Y-8688628D01*
X13040145Y-8688628D01*
X12931743Y-10280687D02*
X13058743Y-10407687D01*
X13058743Y-10280687D02*
X12931743Y-10407687D01*
X13040145Y-10389088D02*
X13040145Y-10299285D01*
X12950341Y-10299285D01*
X12950341Y-10389088D01*
X13040145Y-10389088D01*
X13431743Y-7089765D02*
X13558743Y-7216765D01*
X13558743Y-7089765D02*
X13431743Y-7216765D01*
X13540145Y-7198166D02*
X13540145Y-7108363D01*
X13450341Y-7108363D01*
X13450341Y-7198166D01*
X13540145Y-7198166D01*
X13431743Y-8790226D02*
X13558743Y-8917226D01*
X13558743Y-8790226D02*
X13431743Y-8917226D01*
X13540145Y-8898628D02*
X13540145Y-8808824D01*
X13450341Y-8808824D01*
X13450341Y-8898628D01*
X13540145Y-8898628D01*
X13431743Y-10490687D02*
X13558743Y-10617687D01*
X13558743Y-10490687D02*
X13431743Y-10617687D01*
X13540145Y-10599088D02*
X13540145Y-10509285D01*
X13450341Y-10509285D01*
X13450341Y-10599088D01*
X13540145Y-10599088D01*
X13931743Y-6879765D02*
X14058743Y-7006765D01*
X14058743Y-6879765D02*
X13931743Y-7006765D01*
X14040145Y-6988166D02*
X14040145Y-6898363D01*
X13950341Y-6898363D01*
X13950341Y-6988166D01*
X14040145Y-6988166D01*
X13931743Y-8580226D02*
X14058743Y-8707226D01*
X14058743Y-8580226D02*
X13931743Y-8707226D01*
X14040145Y-8688628D02*
X14040145Y-8598824D01*
X13950341Y-8598824D01*
X13950341Y-8688628D01*
X14040145Y-8688628D01*
X13931743Y-10280687D02*
X14058743Y-10407687D01*
X14058743Y-10280687D02*
X13931743Y-10407687D01*
X14040145Y-10389088D02*
X14040145Y-10299285D01*
X13950341Y-10299285D01*
X13950341Y-10389088D01*
X14040145Y-10389088D01*
X14730986Y-6153012D02*
X14857986Y-6280012D01*
X14857986Y-6153012D02*
X14730986Y-6280012D01*
X14839388Y-6261413D02*
X14839388Y-6171610D01*
X14749584Y-6171610D01*
X14749584Y-6261413D01*
X14839388Y-6261413D01*
X14730986Y-7849945D02*
X14857986Y-7976945D01*
X14857986Y-7849945D02*
X14730986Y-7976945D01*
X14839388Y-7958346D02*
X14839388Y-7868543D01*
X14749584Y-7868543D01*
X14749584Y-7958346D01*
X14839388Y-7958346D01*
X14730986Y-9550406D02*
X14857986Y-9677406D01*
X14857986Y-9550406D02*
X14730986Y-9677406D01*
X14839388Y-9658808D02*
X14839388Y-9569004D01*
X14749584Y-9569004D01*
X14749584Y-9658808D01*
X14839388Y-9658808D01*
X15230986Y-6363012D02*
X15357986Y-6490012D01*
X15357986Y-6363012D02*
X15230986Y-6490012D01*
X15339388Y-6471413D02*
X15339388Y-6381610D01*
X15249584Y-6381610D01*
X15249584Y-6471413D01*
X15339388Y-6471413D01*
X15230986Y-8059945D02*
X15357986Y-8186945D01*
X15357986Y-8059945D02*
X15230986Y-8186945D01*
X15339388Y-8168346D02*
X15339388Y-8078543D01*
X15249584Y-8078543D01*
X15249584Y-8168346D01*
X15339388Y-8168346D01*
X15230986Y-9760406D02*
X15357986Y-9887406D01*
X15357986Y-9760406D02*
X15230986Y-9887406D01*
X15339388Y-9868808D02*
X15339388Y-9779004D01*
X15249584Y-9779004D01*
X15249584Y-9868808D01*
X15339388Y-9868808D01*
X15730986Y-6153012D02*
X15857986Y-6280012D01*
X15857986Y-6153012D02*
X15730986Y-6280012D01*
X15839388Y-6261413D02*
X15839388Y-6171610D01*
X15749584Y-6171610D01*
X15749584Y-6261413D01*
X15839388Y-6261413D01*
X15730986Y-7849945D02*
X15857986Y-7976945D01*
X15857986Y-7849945D02*
X15730986Y-7976945D01*
X15839388Y-7958346D02*
X15839388Y-7868543D01*
X15749584Y-7868543D01*
X15749584Y-7958346D01*
X15839388Y-7958346D01*
X15730986Y-9550406D02*
X15857986Y-9677406D01*
X15857986Y-9550406D02*
X15730986Y-9677406D01*
X15839388Y-9658808D02*
X15839388Y-9569004D01*
X15749584Y-9569004D01*
X15749584Y-9658808D01*
X15839388Y-9658808D01*
X16504940Y-10587093D02*
X16631940Y-10714093D01*
X16631940Y-10587093D02*
X16504940Y-10714093D01*
X16613342Y-10695494D02*
X16613342Y-10605691D01*
X16523538Y-10605691D01*
X16523538Y-10695494D01*
X16613342Y-10695494D01*
X16621361Y-8893687D02*
X16748361Y-9020687D01*
X16748361Y-8893687D02*
X16621361Y-9020687D01*
X16729763Y-9002089D02*
X16729763Y-8912286D01*
X16639959Y-8912286D01*
X16639959Y-9002089D01*
X16729763Y-9002089D01*
X16741311Y-7196754D02*
X16868311Y-7323754D01*
X16868311Y-7196754D02*
X16741311Y-7323754D01*
X16849713Y-7305155D02*
X16849713Y-7215352D01*
X16759910Y-7215352D01*
X16759910Y-7305155D01*
X16849713Y-7305155D01*
X16989073Y-10831459D02*
X17116073Y-10958459D01*
X17116073Y-10831459D02*
X16989073Y-10958459D01*
X17097475Y-10939861D02*
X17097475Y-10850058D01*
X17007671Y-10850058D01*
X17007671Y-10939861D01*
X17097475Y-10939861D01*
X17105494Y-9138054D02*
X17232494Y-9265054D01*
X17232494Y-9138054D02*
X17105494Y-9265054D01*
X17213896Y-9246456D02*
X17213896Y-9156652D01*
X17124093Y-9156652D01*
X17124093Y-9246456D01*
X17213896Y-9246456D01*
X17225445Y-7441120D02*
X17352445Y-7568120D01*
X17352445Y-7441120D02*
X17225445Y-7568120D01*
X17333846Y-7549522D02*
X17333846Y-7459719D01*
X17244043Y-7459719D01*
X17244043Y-7549522D01*
X17333846Y-7549522D01*
X17502504Y-10656849D02*
X17629504Y-10783849D01*
X17629504Y-10656849D02*
X17502504Y-10783849D01*
X17610906Y-10765251D02*
X17610906Y-10675447D01*
X17521102Y-10675447D01*
X17521102Y-10765251D01*
X17610906Y-10765251D01*
X17618925Y-8963444D02*
X17745925Y-9090444D01*
X17745925Y-8963444D02*
X17618925Y-9090444D01*
X17727327Y-9071845D02*
X17727327Y-8982042D01*
X17637524Y-8982042D01*
X17637524Y-9071845D01*
X17727327Y-9071845D01*
X17738876Y-7266510D02*
X17865876Y-7393510D01*
X17865876Y-7266510D02*
X17738876Y-7393510D01*
X17847277Y-7374912D02*
X17847277Y-7285108D01*
X17757474Y-7285108D01*
X17757474Y-7374912D01*
X17847277Y-7374912D01*
X18161716Y-11860328D02*
X18288716Y-11987328D01*
X18288716Y-11860328D02*
X18161716Y-11987328D01*
X18270118Y-11968729D02*
X18270118Y-11878926D01*
X18180315Y-11878926D01*
X18180315Y-11968729D01*
X18270118Y-11968729D01*
X18458062Y-10188090D02*
X18585062Y-10315090D01*
X18585062Y-10188090D02*
X18458062Y-10315090D01*
X18566464Y-10296491D02*
X18566464Y-10206688D01*
X18476660Y-10206688D01*
X18476660Y-10296491D01*
X18566464Y-10296491D01*
X18617654Y-12153961D02*
X18744654Y-12280961D01*
X18744654Y-12153961D02*
X18617654Y-12280961D01*
X18726056Y-12262363D02*
X18726056Y-12172560D01*
X18636252Y-12172560D01*
X18636252Y-12262363D01*
X18726056Y-12262363D01*
X18750881Y-8512324D02*
X18877881Y-8639324D01*
X18877881Y-8512324D02*
X18750881Y-8639324D01*
X18859283Y-8620726D02*
X18859283Y-8530922D01*
X18769479Y-8530922D01*
X18769479Y-8620726D01*
X18859283Y-8620726D01*
X18914000Y-10481723D02*
X19041000Y-10608723D01*
X19041000Y-10481723D02*
X18914000Y-10608723D01*
X19022402Y-10590125D02*
X19022402Y-10500322D01*
X18932598Y-10500322D01*
X18932598Y-10590125D01*
X19022402Y-10590125D01*
X19146524Y-12033976D02*
X19273524Y-12160976D01*
X19273524Y-12033976D02*
X19146524Y-12160976D01*
X19254926Y-12142377D02*
X19254926Y-12052574D01*
X19165122Y-12052574D01*
X19165122Y-12142377D01*
X19254926Y-12142377D01*
X19206819Y-8805958D02*
X19333819Y-8932958D01*
X19333819Y-8805958D02*
X19206819Y-8932958D01*
X19315220Y-8914359D02*
X19315220Y-8824556D01*
X19225417Y-8824556D01*
X19225417Y-8914359D01*
X19315220Y-8914359D01*
X19442870Y-10361738D02*
X19569870Y-10488738D01*
X19569870Y-10361738D02*
X19442870Y-10488738D01*
X19551272Y-10470139D02*
X19551272Y-10380336D01*
X19461468Y-10380336D01*
X19461468Y-10470139D01*
X19551272Y-10470139D01*
X19735689Y-8685972D02*
X19862689Y-8812972D01*
X19862689Y-8685972D02*
X19735689Y-8812972D01*
X19844090Y-8794374D02*
X19844090Y-8704570D01*
X19754287Y-8704570D01*
X19754287Y-8794374D01*
X19844090Y-8794374D01*
D20*
X10892000Y-5617000D02*
X11022000Y-5747000D01*
X11022000Y-5617000D02*
X10892000Y-5747000D01*
X10957000Y-5747000D02*
X11022000Y-5682000D01*
X10957000Y-5617000D01*
X10892000Y-5682000D01*
X10957000Y-5747000D01*
X11542000Y-5617000D02*
X11672000Y-5747000D01*
X11672000Y-5617000D02*
X11542000Y-5747000D01*
X11607000Y-5747000D02*
X11672000Y-5682000D01*
X11607000Y-5617000D01*
X11542000Y-5682000D01*
X11607000Y-5747000D01*
D21*
X17190000Y-12710000D02*
X17190000Y-12865000D01*
X17112500Y-12787500D02*
X17267500Y-12787500D01*
X17267500Y-12787500D02*
G75*
G03*
X17267500Y-12787500I-77500J0D01*
G01*
X17890000Y-12710000D02*
X17890000Y-12865000D01*
X17812500Y-12787500D02*
X17967500Y-12787500D01*
X17967500Y-12787500D02*
G75*
G03*
X17967500Y-12787500I-77500J0D01*
G01*
D22*
X8967783Y-11480782D02*
X8967783Y-11325217D01*
X8812218Y-11325217D01*
X8812218Y-11480782D01*
X8967783Y-11480782D01*
X9000000Y-11403000D02*
G75*
G03*
X9000000Y-11403000I-110000J0D01*
G01*
X12242997Y-5833152D02*
X12242997Y-5677587D01*
X12087432Y-5677587D01*
X12087432Y-5833152D01*
X12242997Y-5833152D01*
X12275214Y-5755369D02*
G75*
G03*
X12275214Y-5755369I-110000J0D01*
G01*
X12685032Y-9091751D02*
X12685032Y-8936186D01*
X12529467Y-8936186D01*
X12529467Y-9091751D01*
X12685032Y-9091751D01*
X12717249Y-9013968D02*
G75*
G03*
X12717249Y-9013968I-110000J0D01*
G01*
X14895998Y-10617022D02*
X14895998Y-10461457D01*
X14740433Y-10461457D01*
X14740433Y-10617022D01*
X14895998Y-10617022D01*
X14928216Y-10539239D02*
G75*
G03*
X14928216Y-10539239I-110000J0D01*
G01*
X16480533Y-9423814D02*
X16480533Y-9268249D01*
X16324968Y-9268249D01*
X16324968Y-9423814D01*
X16480533Y-9423814D01*
X16512751Y-9346032D02*
G75*
G03*
X16512751Y-9346032I-110000J0D01*
G01*
X19517584Y-5833152D02*
X19517584Y-5677587D01*
X19362019Y-5677587D01*
X19362019Y-5833152D01*
X19517584Y-5833152D01*
X19549801Y-5755369D02*
G75*
G03*
X19549801Y-5755369I-110000J0D01*
G01*
X19517584Y-12853728D02*
X19517584Y-12698163D01*
X19362019Y-12698163D01*
X19362019Y-12853728D01*
X19517584Y-12853728D01*
X19549801Y-12775946D02*
G75*
G03*
X19549801Y-12775946I-110000J0D01*
G01*
D11*
X8742506Y-13719630D02*
X8742506Y-13519630D01*
X8742506Y-13519630D02*
X8790125Y-13519630D01*
X8790125Y-13519630D02*
X8818697Y-13529153D01*
X8818697Y-13529153D02*
X8837744Y-13548201D01*
X8837744Y-13548201D02*
X8847268Y-13567249D01*
X8847268Y-13567249D02*
X8856792Y-13605344D01*
X8856792Y-13605344D02*
X8856792Y-13633915D01*
X8856792Y-13633915D02*
X8847268Y-13672011D01*
X8847268Y-13672011D02*
X8837744Y-13691058D01*
X8837744Y-13691058D02*
X8818697Y-13710106D01*
X8818697Y-13710106D02*
X8790125Y-13719630D01*
X8790125Y-13719630D02*
X8742506Y-13719630D01*
X8942506Y-13719630D02*
X8942506Y-13586296D01*
X8942506Y-13624392D02*
X8952030Y-13605344D01*
X8952030Y-13605344D02*
X8961554Y-13595820D01*
X8961554Y-13595820D02*
X8980601Y-13586296D01*
X8980601Y-13586296D02*
X8999649Y-13586296D01*
X9066316Y-13719630D02*
X9066316Y-13586296D01*
X9066316Y-13519630D02*
X9056792Y-13529153D01*
X9056792Y-13529153D02*
X9066316Y-13538677D01*
X9066316Y-13538677D02*
X9075839Y-13529153D01*
X9075839Y-13529153D02*
X9066316Y-13519630D01*
X9066316Y-13519630D02*
X9066316Y-13538677D01*
X9190125Y-13719630D02*
X9171077Y-13710106D01*
X9171077Y-13710106D02*
X9161554Y-13691058D01*
X9161554Y-13691058D02*
X9161554Y-13519630D01*
X9294887Y-13719630D02*
X9275839Y-13710106D01*
X9275839Y-13710106D02*
X9266316Y-13691058D01*
X9266316Y-13691058D02*
X9266316Y-13519630D01*
X9523458Y-13719630D02*
X9523458Y-13519630D01*
X9523458Y-13519630D02*
X9590125Y-13662487D01*
X9590125Y-13662487D02*
X9656792Y-13519630D01*
X9656792Y-13519630D02*
X9656792Y-13719630D01*
X9837744Y-13719630D02*
X9837744Y-13614868D01*
X9837744Y-13614868D02*
X9828220Y-13595820D01*
X9828220Y-13595820D02*
X9809173Y-13586296D01*
X9809173Y-13586296D02*
X9771077Y-13586296D01*
X9771077Y-13586296D02*
X9752030Y-13595820D01*
X9837744Y-13710106D02*
X9818697Y-13719630D01*
X9818697Y-13719630D02*
X9771077Y-13719630D01*
X9771077Y-13719630D02*
X9752030Y-13710106D01*
X9752030Y-13710106D02*
X9742506Y-13691058D01*
X9742506Y-13691058D02*
X9742506Y-13672011D01*
X9742506Y-13672011D02*
X9752030Y-13652963D01*
X9752030Y-13652963D02*
X9771077Y-13643439D01*
X9771077Y-13643439D02*
X9818697Y-13643439D01*
X9818697Y-13643439D02*
X9837744Y-13633915D01*
X9932982Y-13586296D02*
X9932982Y-13786296D01*
X9932982Y-13595820D02*
X9952030Y-13586296D01*
X9952030Y-13586296D02*
X9990125Y-13586296D01*
X9990125Y-13586296D02*
X10009173Y-13595820D01*
X10009173Y-13595820D02*
X10018697Y-13605344D01*
X10018697Y-13605344D02*
X10028220Y-13624392D01*
X10028220Y-13624392D02*
X10028220Y-13681534D01*
X10028220Y-13681534D02*
X10018697Y-13700582D01*
X10018697Y-13700582D02*
X10009173Y-13710106D01*
X10009173Y-13710106D02*
X9990125Y-13719630D01*
X9990125Y-13719630D02*
X9952030Y-13719630D01*
X9952030Y-13719630D02*
X9932982Y-13710106D01*
X10113935Y-13700582D02*
X10123458Y-13710106D01*
X10123458Y-13710106D02*
X10113935Y-13719630D01*
X10113935Y-13719630D02*
X10104411Y-13710106D01*
X10104411Y-13710106D02*
X10113935Y-13700582D01*
X10113935Y-13700582D02*
X10113935Y-13719630D01*
X10113935Y-13595820D02*
X10123458Y-13605344D01*
X10123458Y-13605344D02*
X10113935Y-13614868D01*
X10113935Y-13614868D02*
X10104411Y-13605344D01*
X10104411Y-13605344D02*
X10113935Y-13595820D01*
X10113935Y-13595820D02*
X10113935Y-13614868D01*
D12*
X8451729Y-14033146D02*
X8481729Y-14063146D01*
X8481729Y-14033146D02*
X8451729Y-14063146D01*
D11*
X8780601Y-13939630D02*
X8799649Y-13939630D01*
X8799649Y-13939630D02*
X8818697Y-13949153D01*
X8818697Y-13949153D02*
X8828220Y-13958677D01*
X8828220Y-13958677D02*
X8837744Y-13977725D01*
X8837744Y-13977725D02*
X8847268Y-14015820D01*
X8847268Y-14015820D02*
X8847268Y-14063439D01*
X8847268Y-14063439D02*
X8837744Y-14101534D01*
X8837744Y-14101534D02*
X8828220Y-14120582D01*
X8828220Y-14120582D02*
X8818697Y-14130106D01*
X8818697Y-14130106D02*
X8799649Y-14139630D01*
X8799649Y-14139630D02*
X8780601Y-14139630D01*
X8780601Y-14139630D02*
X8761554Y-14130106D01*
X8761554Y-14130106D02*
X8752030Y-14120582D01*
X8752030Y-14120582D02*
X8742506Y-14101534D01*
X8742506Y-14101534D02*
X8732982Y-14063439D01*
X8732982Y-14063439D02*
X8732982Y-14015820D01*
X8732982Y-14015820D02*
X8742506Y-13977725D01*
X8742506Y-13977725D02*
X8752030Y-13958677D01*
X8752030Y-13958677D02*
X8761554Y-13949153D01*
X8761554Y-13949153D02*
X8780601Y-13939630D01*
X8932982Y-14120582D02*
X8942506Y-14130106D01*
X8942506Y-14130106D02*
X8932982Y-14139630D01*
X8932982Y-14139630D02*
X8923458Y-14130106D01*
X8923458Y-14130106D02*
X8932982Y-14120582D01*
X8932982Y-14120582D02*
X8932982Y-14139630D01*
X9009173Y-13939630D02*
X9132982Y-13939630D01*
X9132982Y-13939630D02*
X9066316Y-14015820D01*
X9066316Y-14015820D02*
X9094887Y-14015820D01*
X9094887Y-14015820D02*
X9113935Y-14025344D01*
X9113935Y-14025344D02*
X9123458Y-14034868D01*
X9123458Y-14034868D02*
X9132982Y-14053915D01*
X9132982Y-14053915D02*
X9132982Y-14101534D01*
X9132982Y-14101534D02*
X9123458Y-14120582D01*
X9123458Y-14120582D02*
X9113935Y-14130106D01*
X9113935Y-14130106D02*
X9094887Y-14139630D01*
X9094887Y-14139630D02*
X9037744Y-14139630D01*
X9037744Y-14139630D02*
X9018697Y-14130106D01*
X9018697Y-14130106D02*
X9009173Y-14120582D01*
X9256792Y-13939630D02*
X9275839Y-13939630D01*
X9275839Y-13939630D02*
X9294887Y-13949153D01*
X9294887Y-13949153D02*
X9304411Y-13958677D01*
X9304411Y-13958677D02*
X9313935Y-13977725D01*
X9313935Y-13977725D02*
X9323458Y-14015820D01*
X9323458Y-14015820D02*
X9323458Y-14063439D01*
X9323458Y-14063439D02*
X9313935Y-14101534D01*
X9313935Y-14101534D02*
X9304411Y-14120582D01*
X9304411Y-14120582D02*
X9294887Y-14130106D01*
X9294887Y-14130106D02*
X9275839Y-14139630D01*
X9275839Y-14139630D02*
X9256792Y-14139630D01*
X9256792Y-14139630D02*
X9237744Y-14130106D01*
X9237744Y-14130106D02*
X9228220Y-14120582D01*
X9228220Y-14120582D02*
X9218697Y-14101534D01*
X9218697Y-14101534D02*
X9209173Y-14063439D01*
X9209173Y-14063439D02*
X9209173Y-14015820D01*
X9209173Y-14015820D02*
X9218697Y-13977725D01*
X9218697Y-13977725D02*
X9228220Y-13958677D01*
X9228220Y-13958677D02*
X9237744Y-13949153D01*
X9237744Y-13949153D02*
X9256792Y-13939630D01*
X9447268Y-13939630D02*
X9466316Y-13939630D01*
X9466316Y-13939630D02*
X9485363Y-13949153D01*
X9485363Y-13949153D02*
X9494887Y-13958677D01*
X9494887Y-13958677D02*
X9504411Y-13977725D01*
X9504411Y-13977725D02*
X9513935Y-14015820D01*
X9513935Y-14015820D02*
X9513935Y-14063439D01*
X9513935Y-14063439D02*
X9504411Y-14101534D01*
X9504411Y-14101534D02*
X9494887Y-14120582D01*
X9494887Y-14120582D02*
X9485363Y-14130106D01*
X9485363Y-14130106D02*
X9466316Y-14139630D01*
X9466316Y-14139630D02*
X9447268Y-14139630D01*
X9447268Y-14139630D02*
X9428220Y-14130106D01*
X9428220Y-14130106D02*
X9418697Y-14120582D01*
X9418697Y-14120582D02*
X9409173Y-14101534D01*
X9409173Y-14101534D02*
X9399649Y-14063439D01*
X9399649Y-14063439D02*
X9399649Y-14015820D01*
X9399649Y-14015820D02*
X9409173Y-13977725D01*
X9409173Y-13977725D02*
X9418697Y-13958677D01*
X9418697Y-13958677D02*
X9428220Y-13949153D01*
X9428220Y-13949153D02*
X9447268Y-13939630D01*
X9599649Y-14139630D02*
X9599649Y-14006296D01*
X9599649Y-14025344D02*
X9609173Y-14015820D01*
X9609173Y-14015820D02*
X9628220Y-14006296D01*
X9628220Y-14006296D02*
X9656792Y-14006296D01*
X9656792Y-14006296D02*
X9675839Y-14015820D01*
X9675839Y-14015820D02*
X9685363Y-14034868D01*
X9685363Y-14034868D02*
X9685363Y-14139630D01*
X9685363Y-14034868D02*
X9694887Y-14015820D01*
X9694887Y-14015820D02*
X9713935Y-14006296D01*
X9713935Y-14006296D02*
X9742506Y-14006296D01*
X9742506Y-14006296D02*
X9761554Y-14015820D01*
X9761554Y-14015820D02*
X9771078Y-14034868D01*
X9771078Y-14034868D02*
X9771078Y-14139630D01*
X9866316Y-14139630D02*
X9866316Y-14006296D01*
X9866316Y-14025344D02*
X9875839Y-14015820D01*
X9875839Y-14015820D02*
X9894887Y-14006296D01*
X9894887Y-14006296D02*
X9923459Y-14006296D01*
X9923459Y-14006296D02*
X9942506Y-14015820D01*
X9942506Y-14015820D02*
X9952030Y-14034868D01*
X9952030Y-14034868D02*
X9952030Y-14139630D01*
X9952030Y-14034868D02*
X9961554Y-14015820D01*
X9961554Y-14015820D02*
X9980601Y-14006296D01*
X9980601Y-14006296D02*
X10009173Y-14006296D01*
X10009173Y-14006296D02*
X10028220Y-14015820D01*
X10028220Y-14015820D02*
X10037744Y-14034868D01*
X10037744Y-14034868D02*
X10037744Y-14139630D01*
X10428220Y-13930106D02*
X10256792Y-14187249D01*
X10685363Y-13939630D02*
X10704411Y-13939630D01*
X10704411Y-13939630D02*
X10723459Y-13949153D01*
X10723459Y-13949153D02*
X10732982Y-13958677D01*
X10732982Y-13958677D02*
X10742506Y-13977725D01*
X10742506Y-13977725D02*
X10752030Y-14015820D01*
X10752030Y-14015820D02*
X10752030Y-14063439D01*
X10752030Y-14063439D02*
X10742506Y-14101534D01*
X10742506Y-14101534D02*
X10732982Y-14120582D01*
X10732982Y-14120582D02*
X10723459Y-14130106D01*
X10723459Y-14130106D02*
X10704411Y-14139630D01*
X10704411Y-14139630D02*
X10685363Y-14139630D01*
X10685363Y-14139630D02*
X10666316Y-14130106D01*
X10666316Y-14130106D02*
X10656792Y-14120582D01*
X10656792Y-14120582D02*
X10647268Y-14101534D01*
X10647268Y-14101534D02*
X10637744Y-14063439D01*
X10637744Y-14063439D02*
X10637744Y-14015820D01*
X10637744Y-14015820D02*
X10647268Y-13977725D01*
X10647268Y-13977725D02*
X10656792Y-13958677D01*
X10656792Y-13958677D02*
X10666316Y-13949153D01*
X10666316Y-13949153D02*
X10685363Y-13939630D01*
X10837744Y-14120582D02*
X10847268Y-14130106D01*
X10847268Y-14130106D02*
X10837744Y-14139630D01*
X10837744Y-14139630D02*
X10828221Y-14130106D01*
X10828221Y-14130106D02*
X10837744Y-14120582D01*
X10837744Y-14120582D02*
X10837744Y-14139630D01*
X10971078Y-13939630D02*
X10990125Y-13939630D01*
X10990125Y-13939630D02*
X11009173Y-13949153D01*
X11009173Y-13949153D02*
X11018697Y-13958677D01*
X11018697Y-13958677D02*
X11028221Y-13977725D01*
X11028221Y-13977725D02*
X11037744Y-14015820D01*
X11037744Y-14015820D02*
X11037744Y-14063439D01*
X11037744Y-14063439D02*
X11028221Y-14101534D01*
X11028221Y-14101534D02*
X11018697Y-14120582D01*
X11018697Y-14120582D02*
X11009173Y-14130106D01*
X11009173Y-14130106D02*
X10990125Y-14139630D01*
X10990125Y-14139630D02*
X10971078Y-14139630D01*
X10971078Y-14139630D02*
X10952030Y-14130106D01*
X10952030Y-14130106D02*
X10942506Y-14120582D01*
X10942506Y-14120582D02*
X10932982Y-14101534D01*
X10932982Y-14101534D02*
X10923459Y-14063439D01*
X10923459Y-14063439D02*
X10923459Y-14015820D01*
X10923459Y-14015820D02*
X10932982Y-13977725D01*
X10932982Y-13977725D02*
X10942506Y-13958677D01*
X10942506Y-13958677D02*
X10952030Y-13949153D01*
X10952030Y-13949153D02*
X10971078Y-13939630D01*
X11228220Y-14139630D02*
X11113935Y-14139630D01*
X11171078Y-14139630D02*
X11171078Y-13939630D01*
X11171078Y-13939630D02*
X11152030Y-13968201D01*
X11152030Y-13968201D02*
X11132982Y-13987249D01*
X11132982Y-13987249D02*
X11113935Y-13996772D01*
X11418697Y-14139630D02*
X11304411Y-14139630D01*
X11361554Y-14139630D02*
X11361554Y-13939630D01*
X11361554Y-13939630D02*
X11342506Y-13968201D01*
X11342506Y-13968201D02*
X11323459Y-13987249D01*
X11323459Y-13987249D02*
X11304411Y-13996772D01*
X11532982Y-14025344D02*
X11513935Y-14015820D01*
X11513935Y-14015820D02*
X11504411Y-14006296D01*
X11504411Y-14006296D02*
X11494887Y-13987249D01*
X11494887Y-13987249D02*
X11494887Y-13977725D01*
X11494887Y-13977725D02*
X11504411Y-13958677D01*
X11504411Y-13958677D02*
X11513935Y-13949153D01*
X11513935Y-13949153D02*
X11532982Y-13939630D01*
X11532982Y-13939630D02*
X11571078Y-13939630D01*
X11571078Y-13939630D02*
X11590125Y-13949153D01*
X11590125Y-13949153D02*
X11599649Y-13958677D01*
X11599649Y-13958677D02*
X11609173Y-13977725D01*
X11609173Y-13977725D02*
X11609173Y-13987249D01*
X11609173Y-13987249D02*
X11599649Y-14006296D01*
X11599649Y-14006296D02*
X11590125Y-14015820D01*
X11590125Y-14015820D02*
X11571078Y-14025344D01*
X11571078Y-14025344D02*
X11532982Y-14025344D01*
X11532982Y-14025344D02*
X11513935Y-14034868D01*
X11513935Y-14034868D02*
X11504411Y-14044392D01*
X11504411Y-14044392D02*
X11494887Y-14063439D01*
X11494887Y-14063439D02*
X11494887Y-14101534D01*
X11494887Y-14101534D02*
X11504411Y-14120582D01*
X11504411Y-14120582D02*
X11513935Y-14130106D01*
X11513935Y-14130106D02*
X11532982Y-14139630D01*
X11532982Y-14139630D02*
X11571078Y-14139630D01*
X11571078Y-14139630D02*
X11590125Y-14130106D01*
X11590125Y-14130106D02*
X11599649Y-14120582D01*
X11599649Y-14120582D02*
X11609173Y-14101534D01*
X11609173Y-14101534D02*
X11609173Y-14063439D01*
X11609173Y-14063439D02*
X11599649Y-14044392D01*
X11599649Y-14044392D02*
X11590125Y-14034868D01*
X11590125Y-14034868D02*
X11571078Y-14025344D01*
X11685363Y-13939630D02*
X11685363Y-13977725D01*
X11761554Y-13939630D02*
X11761554Y-13977725D01*
X12056792Y-14215820D02*
X12047268Y-14206296D01*
X12047268Y-14206296D02*
X12028221Y-14177725D01*
X12028221Y-14177725D02*
X12018697Y-14158677D01*
X12018697Y-14158677D02*
X12009173Y-14130106D01*
X12009173Y-14130106D02*
X11999649Y-14082487D01*
X11999649Y-14082487D02*
X11999649Y-14044392D01*
X11999649Y-14044392D02*
X12009173Y-13996772D01*
X12009173Y-13996772D02*
X12018697Y-13968201D01*
X12018697Y-13968201D02*
X12028221Y-13949153D01*
X12028221Y-13949153D02*
X12047268Y-13920582D01*
X12047268Y-13920582D02*
X12056792Y-13911058D01*
X12237744Y-14139630D02*
X12123459Y-14139630D01*
X12180601Y-14139630D02*
X12180601Y-13939630D01*
X12180601Y-13939630D02*
X12161554Y-13968201D01*
X12161554Y-13968201D02*
X12142506Y-13987249D01*
X12142506Y-13987249D02*
X12123459Y-13996772D01*
X12361554Y-13939630D02*
X12380602Y-13939630D01*
X12380602Y-13939630D02*
X12399649Y-13949153D01*
X12399649Y-13949153D02*
X12409173Y-13958677D01*
X12409173Y-13958677D02*
X12418697Y-13977725D01*
X12418697Y-13977725D02*
X12428221Y-14015820D01*
X12428221Y-14015820D02*
X12428221Y-14063439D01*
X12428221Y-14063439D02*
X12418697Y-14101534D01*
X12418697Y-14101534D02*
X12409173Y-14120582D01*
X12409173Y-14120582D02*
X12399649Y-14130106D01*
X12399649Y-14130106D02*
X12380602Y-14139630D01*
X12380602Y-14139630D02*
X12361554Y-14139630D01*
X12361554Y-14139630D02*
X12342506Y-14130106D01*
X12342506Y-14130106D02*
X12332982Y-14120582D01*
X12332982Y-14120582D02*
X12323459Y-14101534D01*
X12323459Y-14101534D02*
X12313935Y-14063439D01*
X12313935Y-14063439D02*
X12313935Y-14015820D01*
X12313935Y-14015820D02*
X12323459Y-13977725D01*
X12323459Y-13977725D02*
X12332982Y-13958677D01*
X12332982Y-13958677D02*
X12342506Y-13949153D01*
X12342506Y-13949153D02*
X12361554Y-13939630D01*
X12599649Y-13939630D02*
X12561554Y-13939630D01*
X12561554Y-13939630D02*
X12542506Y-13949153D01*
X12542506Y-13949153D02*
X12532982Y-13958677D01*
X12532982Y-13958677D02*
X12513935Y-13987249D01*
X12513935Y-13987249D02*
X12504411Y-14025344D01*
X12504411Y-14025344D02*
X12504411Y-14101534D01*
X12504411Y-14101534D02*
X12513935Y-14120582D01*
X12513935Y-14120582D02*
X12523459Y-14130106D01*
X12523459Y-14130106D02*
X12542506Y-14139630D01*
X12542506Y-14139630D02*
X12580602Y-14139630D01*
X12580602Y-14139630D02*
X12599649Y-14130106D01*
X12599649Y-14130106D02*
X12609173Y-14120582D01*
X12609173Y-14120582D02*
X12618697Y-14101534D01*
X12618697Y-14101534D02*
X12618697Y-14053915D01*
X12618697Y-14053915D02*
X12609173Y-14034868D01*
X12609173Y-14034868D02*
X12599649Y-14025344D01*
X12599649Y-14025344D02*
X12580602Y-14015820D01*
X12580602Y-14015820D02*
X12542506Y-14015820D01*
X12542506Y-14015820D02*
X12523459Y-14025344D01*
X12523459Y-14025344D02*
X12513935Y-14034868D01*
X12513935Y-14034868D02*
X12504411Y-14053915D01*
X12856792Y-14139630D02*
X12856792Y-13939630D01*
X12942506Y-14139630D02*
X12942506Y-14034868D01*
X12942506Y-14034868D02*
X12932983Y-14015820D01*
X12932983Y-14015820D02*
X12913935Y-14006296D01*
X12913935Y-14006296D02*
X12885363Y-14006296D01*
X12885363Y-14006296D02*
X12866316Y-14015820D01*
X12866316Y-14015820D02*
X12856792Y-14025344D01*
X13066316Y-14139630D02*
X13047268Y-14130106D01*
X13047268Y-14130106D02*
X13037744Y-14120582D01*
X13037744Y-14120582D02*
X13028221Y-14101534D01*
X13028221Y-14101534D02*
X13028221Y-14044392D01*
X13028221Y-14044392D02*
X13037744Y-14025344D01*
X13037744Y-14025344D02*
X13047268Y-14015820D01*
X13047268Y-14015820D02*
X13066316Y-14006296D01*
X13066316Y-14006296D02*
X13094887Y-14006296D01*
X13094887Y-14006296D02*
X13113935Y-14015820D01*
X13113935Y-14015820D02*
X13123459Y-14025344D01*
X13123459Y-14025344D02*
X13132983Y-14044392D01*
X13132983Y-14044392D02*
X13132983Y-14101534D01*
X13132983Y-14101534D02*
X13123459Y-14120582D01*
X13123459Y-14120582D02*
X13113935Y-14130106D01*
X13113935Y-14130106D02*
X13094887Y-14139630D01*
X13094887Y-14139630D02*
X13066316Y-14139630D01*
X13247268Y-14139630D02*
X13228221Y-14130106D01*
X13228221Y-14130106D02*
X13218697Y-14111058D01*
X13218697Y-14111058D02*
X13218697Y-13939630D01*
X13399649Y-14130106D02*
X13380602Y-14139630D01*
X13380602Y-14139630D02*
X13342506Y-14139630D01*
X13342506Y-14139630D02*
X13323459Y-14130106D01*
X13323459Y-14130106D02*
X13313935Y-14111058D01*
X13313935Y-14111058D02*
X13313935Y-14034868D01*
X13313935Y-14034868D02*
X13323459Y-14015820D01*
X13323459Y-14015820D02*
X13342506Y-14006296D01*
X13342506Y-14006296D02*
X13380602Y-14006296D01*
X13380602Y-14006296D02*
X13399649Y-14015820D01*
X13399649Y-14015820D02*
X13409173Y-14034868D01*
X13409173Y-14034868D02*
X13409173Y-14053915D01*
X13409173Y-14053915D02*
X13313935Y-14072963D01*
X13485364Y-14130106D02*
X13504411Y-14139630D01*
X13504411Y-14139630D02*
X13542506Y-14139630D01*
X13542506Y-14139630D02*
X13561554Y-14130106D01*
X13561554Y-14130106D02*
X13571078Y-14111058D01*
X13571078Y-14111058D02*
X13571078Y-14101534D01*
X13571078Y-14101534D02*
X13561554Y-14082487D01*
X13561554Y-14082487D02*
X13542506Y-14072963D01*
X13542506Y-14072963D02*
X13513935Y-14072963D01*
X13513935Y-14072963D02*
X13494887Y-14063439D01*
X13494887Y-14063439D02*
X13485364Y-14044392D01*
X13485364Y-14044392D02*
X13485364Y-14034868D01*
X13485364Y-14034868D02*
X13494887Y-14015820D01*
X13494887Y-14015820D02*
X13513935Y-14006296D01*
X13513935Y-14006296D02*
X13542506Y-14006296D01*
X13542506Y-14006296D02*
X13561554Y-14015820D01*
X13637745Y-14215820D02*
X13647268Y-14206296D01*
X13647268Y-14206296D02*
X13666316Y-14177725D01*
X13666316Y-14177725D02*
X13675840Y-14158677D01*
X13675840Y-14158677D02*
X13685364Y-14130106D01*
X13685364Y-14130106D02*
X13694887Y-14082487D01*
X13694887Y-14082487D02*
X13694887Y-14044392D01*
X13694887Y-14044392D02*
X13685364Y-13996772D01*
X13685364Y-13996772D02*
X13675840Y-13968201D01*
X13675840Y-13968201D02*
X13666316Y-13949153D01*
X13666316Y-13949153D02*
X13647268Y-13920582D01*
X13647268Y-13920582D02*
X13637745Y-13911058D01*
D13*
X8481729Y-14312146D02*
G75*
G03*
X8481729Y-14312146I-20000J0D01*
G01*
D11*
X8780601Y-14203630D02*
X8799649Y-14203630D01*
X8799649Y-14203630D02*
X8818697Y-14213153D01*
X8818697Y-14213153D02*
X8828220Y-14222677D01*
X8828220Y-14222677D02*
X8837744Y-14241725D01*
X8837744Y-14241725D02*
X8847268Y-14279820D01*
X8847268Y-14279820D02*
X8847268Y-14327439D01*
X8847268Y-14327439D02*
X8837744Y-14365534D01*
X8837744Y-14365534D02*
X8828220Y-14384582D01*
X8828220Y-14384582D02*
X8818697Y-14394106D01*
X8818697Y-14394106D02*
X8799649Y-14403630D01*
X8799649Y-14403630D02*
X8780601Y-14403630D01*
X8780601Y-14403630D02*
X8761554Y-14394106D01*
X8761554Y-14394106D02*
X8752030Y-14384582D01*
X8752030Y-14384582D02*
X8742506Y-14365534D01*
X8742506Y-14365534D02*
X8732982Y-14327439D01*
X8732982Y-14327439D02*
X8732982Y-14279820D01*
X8732982Y-14279820D02*
X8742506Y-14241725D01*
X8742506Y-14241725D02*
X8752030Y-14222677D01*
X8752030Y-14222677D02*
X8761554Y-14213153D01*
X8761554Y-14213153D02*
X8780601Y-14203630D01*
X8932982Y-14384582D02*
X8942506Y-14394106D01*
X8942506Y-14394106D02*
X8932982Y-14403630D01*
X8932982Y-14403630D02*
X8923458Y-14394106D01*
X8923458Y-14394106D02*
X8932982Y-14384582D01*
X8932982Y-14384582D02*
X8932982Y-14403630D01*
X9113935Y-14270296D02*
X9113935Y-14403630D01*
X9066316Y-14194106D02*
X9018697Y-14336963D01*
X9018697Y-14336963D02*
X9142506Y-14336963D01*
X9256792Y-14203630D02*
X9275839Y-14203630D01*
X9275839Y-14203630D02*
X9294887Y-14213153D01*
X9294887Y-14213153D02*
X9304411Y-14222677D01*
X9304411Y-14222677D02*
X9313935Y-14241725D01*
X9313935Y-14241725D02*
X9323458Y-14279820D01*
X9323458Y-14279820D02*
X9323458Y-14327439D01*
X9323458Y-14327439D02*
X9313935Y-14365534D01*
X9313935Y-14365534D02*
X9304411Y-14384582D01*
X9304411Y-14384582D02*
X9294887Y-14394106D01*
X9294887Y-14394106D02*
X9275839Y-14403630D01*
X9275839Y-14403630D02*
X9256792Y-14403630D01*
X9256792Y-14403630D02*
X9237744Y-14394106D01*
X9237744Y-14394106D02*
X9228220Y-14384582D01*
X9228220Y-14384582D02*
X9218697Y-14365534D01*
X9218697Y-14365534D02*
X9209173Y-14327439D01*
X9209173Y-14327439D02*
X9209173Y-14279820D01*
X9209173Y-14279820D02*
X9218697Y-14241725D01*
X9218697Y-14241725D02*
X9228220Y-14222677D01*
X9228220Y-14222677D02*
X9237744Y-14213153D01*
X9237744Y-14213153D02*
X9256792Y-14203630D01*
X9447268Y-14203630D02*
X9466316Y-14203630D01*
X9466316Y-14203630D02*
X9485363Y-14213153D01*
X9485363Y-14213153D02*
X9494887Y-14222677D01*
X9494887Y-14222677D02*
X9504411Y-14241725D01*
X9504411Y-14241725D02*
X9513935Y-14279820D01*
X9513935Y-14279820D02*
X9513935Y-14327439D01*
X9513935Y-14327439D02*
X9504411Y-14365534D01*
X9504411Y-14365534D02*
X9494887Y-14384582D01*
X9494887Y-14384582D02*
X9485363Y-14394106D01*
X9485363Y-14394106D02*
X9466316Y-14403630D01*
X9466316Y-14403630D02*
X9447268Y-14403630D01*
X9447268Y-14403630D02*
X9428220Y-14394106D01*
X9428220Y-14394106D02*
X9418697Y-14384582D01*
X9418697Y-14384582D02*
X9409173Y-14365534D01*
X9409173Y-14365534D02*
X9399649Y-14327439D01*
X9399649Y-14327439D02*
X9399649Y-14279820D01*
X9399649Y-14279820D02*
X9409173Y-14241725D01*
X9409173Y-14241725D02*
X9418697Y-14222677D01*
X9418697Y-14222677D02*
X9428220Y-14213153D01*
X9428220Y-14213153D02*
X9447268Y-14203630D01*
X9599649Y-14403630D02*
X9599649Y-14270296D01*
X9599649Y-14289344D02*
X9609173Y-14279820D01*
X9609173Y-14279820D02*
X9628220Y-14270296D01*
X9628220Y-14270296D02*
X9656792Y-14270296D01*
X9656792Y-14270296D02*
X9675839Y-14279820D01*
X9675839Y-14279820D02*
X9685363Y-14298868D01*
X9685363Y-14298868D02*
X9685363Y-14403630D01*
X9685363Y-14298868D02*
X9694887Y-14279820D01*
X9694887Y-14279820D02*
X9713935Y-14270296D01*
X9713935Y-14270296D02*
X9742506Y-14270296D01*
X9742506Y-14270296D02*
X9761554Y-14279820D01*
X9761554Y-14279820D02*
X9771078Y-14298868D01*
X9771078Y-14298868D02*
X9771078Y-14403630D01*
X9866316Y-14403630D02*
X9866316Y-14270296D01*
X9866316Y-14289344D02*
X9875839Y-14279820D01*
X9875839Y-14279820D02*
X9894887Y-14270296D01*
X9894887Y-14270296D02*
X9923459Y-14270296D01*
X9923459Y-14270296D02*
X9942506Y-14279820D01*
X9942506Y-14279820D02*
X9952030Y-14298868D01*
X9952030Y-14298868D02*
X9952030Y-14403630D01*
X9952030Y-14298868D02*
X9961554Y-14279820D01*
X9961554Y-14279820D02*
X9980601Y-14270296D01*
X9980601Y-14270296D02*
X10009173Y-14270296D01*
X10009173Y-14270296D02*
X10028220Y-14279820D01*
X10028220Y-14279820D02*
X10037744Y-14298868D01*
X10037744Y-14298868D02*
X10037744Y-14403630D01*
X10428220Y-14194106D02*
X10256792Y-14451249D01*
X10685363Y-14203630D02*
X10704411Y-14203630D01*
X10704411Y-14203630D02*
X10723459Y-14213153D01*
X10723459Y-14213153D02*
X10732982Y-14222677D01*
X10732982Y-14222677D02*
X10742506Y-14241725D01*
X10742506Y-14241725D02*
X10752030Y-14279820D01*
X10752030Y-14279820D02*
X10752030Y-14327439D01*
X10752030Y-14327439D02*
X10742506Y-14365534D01*
X10742506Y-14365534D02*
X10732982Y-14384582D01*
X10732982Y-14384582D02*
X10723459Y-14394106D01*
X10723459Y-14394106D02*
X10704411Y-14403630D01*
X10704411Y-14403630D02*
X10685363Y-14403630D01*
X10685363Y-14403630D02*
X10666316Y-14394106D01*
X10666316Y-14394106D02*
X10656792Y-14384582D01*
X10656792Y-14384582D02*
X10647268Y-14365534D01*
X10647268Y-14365534D02*
X10637744Y-14327439D01*
X10637744Y-14327439D02*
X10637744Y-14279820D01*
X10637744Y-14279820D02*
X10647268Y-14241725D01*
X10647268Y-14241725D02*
X10656792Y-14222677D01*
X10656792Y-14222677D02*
X10666316Y-14213153D01*
X10666316Y-14213153D02*
X10685363Y-14203630D01*
X10837744Y-14384582D02*
X10847268Y-14394106D01*
X10847268Y-14394106D02*
X10837744Y-14403630D01*
X10837744Y-14403630D02*
X10828221Y-14394106D01*
X10828221Y-14394106D02*
X10837744Y-14384582D01*
X10837744Y-14384582D02*
X10837744Y-14403630D01*
X10971078Y-14203630D02*
X10990125Y-14203630D01*
X10990125Y-14203630D02*
X11009173Y-14213153D01*
X11009173Y-14213153D02*
X11018697Y-14222677D01*
X11018697Y-14222677D02*
X11028221Y-14241725D01*
X11028221Y-14241725D02*
X11037744Y-14279820D01*
X11037744Y-14279820D02*
X11037744Y-14327439D01*
X11037744Y-14327439D02*
X11028221Y-14365534D01*
X11028221Y-14365534D02*
X11018697Y-14384582D01*
X11018697Y-14384582D02*
X11009173Y-14394106D01*
X11009173Y-14394106D02*
X10990125Y-14403630D01*
X10990125Y-14403630D02*
X10971078Y-14403630D01*
X10971078Y-14403630D02*
X10952030Y-14394106D01*
X10952030Y-14394106D02*
X10942506Y-14384582D01*
X10942506Y-14384582D02*
X10932982Y-14365534D01*
X10932982Y-14365534D02*
X10923459Y-14327439D01*
X10923459Y-14327439D02*
X10923459Y-14279820D01*
X10923459Y-14279820D02*
X10932982Y-14241725D01*
X10932982Y-14241725D02*
X10942506Y-14222677D01*
X10942506Y-14222677D02*
X10952030Y-14213153D01*
X10952030Y-14213153D02*
X10971078Y-14203630D01*
X11228220Y-14403630D02*
X11113935Y-14403630D01*
X11171078Y-14403630D02*
X11171078Y-14203630D01*
X11171078Y-14203630D02*
X11152030Y-14232201D01*
X11152030Y-14232201D02*
X11132982Y-14251249D01*
X11132982Y-14251249D02*
X11113935Y-14260772D01*
X11409173Y-14203630D02*
X11313935Y-14203630D01*
X11313935Y-14203630D02*
X11304411Y-14298868D01*
X11304411Y-14298868D02*
X11313935Y-14289344D01*
X11313935Y-14289344D02*
X11332982Y-14279820D01*
X11332982Y-14279820D02*
X11380601Y-14279820D01*
X11380601Y-14279820D02*
X11399649Y-14289344D01*
X11399649Y-14289344D02*
X11409173Y-14298868D01*
X11409173Y-14298868D02*
X11418697Y-14317915D01*
X11418697Y-14317915D02*
X11418697Y-14365534D01*
X11418697Y-14365534D02*
X11409173Y-14384582D01*
X11409173Y-14384582D02*
X11399649Y-14394106D01*
X11399649Y-14394106D02*
X11380601Y-14403630D01*
X11380601Y-14403630D02*
X11332982Y-14403630D01*
X11332982Y-14403630D02*
X11313935Y-14394106D01*
X11313935Y-14394106D02*
X11304411Y-14384582D01*
X11485363Y-14203630D02*
X11618697Y-14203630D01*
X11618697Y-14203630D02*
X11532982Y-14403630D01*
X11685363Y-14203630D02*
X11685363Y-14241725D01*
X11761554Y-14203630D02*
X11761554Y-14241725D01*
X12056792Y-14479820D02*
X12047268Y-14470296D01*
X12047268Y-14470296D02*
X12028221Y-14441725D01*
X12028221Y-14441725D02*
X12018697Y-14422677D01*
X12018697Y-14422677D02*
X12009173Y-14394106D01*
X12009173Y-14394106D02*
X11999649Y-14346487D01*
X11999649Y-14346487D02*
X11999649Y-14308392D01*
X11999649Y-14308392D02*
X12009173Y-14260772D01*
X12009173Y-14260772D02*
X12018697Y-14232201D01*
X12018697Y-14232201D02*
X12028221Y-14213153D01*
X12028221Y-14213153D02*
X12047268Y-14184582D01*
X12047268Y-14184582D02*
X12056792Y-14175058D01*
X12218697Y-14270296D02*
X12218697Y-14403630D01*
X12171078Y-14194106D02*
X12123459Y-14336963D01*
X12123459Y-14336963D02*
X12247268Y-14336963D01*
X12361554Y-14203630D02*
X12380602Y-14203630D01*
X12380602Y-14203630D02*
X12399649Y-14213153D01*
X12399649Y-14213153D02*
X12409173Y-14222677D01*
X12409173Y-14222677D02*
X12418697Y-14241725D01*
X12418697Y-14241725D02*
X12428221Y-14279820D01*
X12428221Y-14279820D02*
X12428221Y-14327439D01*
X12428221Y-14327439D02*
X12418697Y-14365534D01*
X12418697Y-14365534D02*
X12409173Y-14384582D01*
X12409173Y-14384582D02*
X12399649Y-14394106D01*
X12399649Y-14394106D02*
X12380602Y-14403630D01*
X12380602Y-14403630D02*
X12361554Y-14403630D01*
X12361554Y-14403630D02*
X12342506Y-14394106D01*
X12342506Y-14394106D02*
X12332982Y-14384582D01*
X12332982Y-14384582D02*
X12323459Y-14365534D01*
X12323459Y-14365534D02*
X12313935Y-14327439D01*
X12313935Y-14327439D02*
X12313935Y-14279820D01*
X12313935Y-14279820D02*
X12323459Y-14241725D01*
X12323459Y-14241725D02*
X12332982Y-14222677D01*
X12332982Y-14222677D02*
X12342506Y-14213153D01*
X12342506Y-14213153D02*
X12361554Y-14203630D01*
X12666316Y-14403630D02*
X12666316Y-14203630D01*
X12752030Y-14403630D02*
X12752030Y-14298868D01*
X12752030Y-14298868D02*
X12742506Y-14279820D01*
X12742506Y-14279820D02*
X12723459Y-14270296D01*
X12723459Y-14270296D02*
X12694887Y-14270296D01*
X12694887Y-14270296D02*
X12675840Y-14279820D01*
X12675840Y-14279820D02*
X12666316Y-14289344D01*
X12875840Y-14403630D02*
X12856792Y-14394106D01*
X12856792Y-14394106D02*
X12847268Y-14384582D01*
X12847268Y-14384582D02*
X12837744Y-14365534D01*
X12837744Y-14365534D02*
X12837744Y-14308392D01*
X12837744Y-14308392D02*
X12847268Y-14289344D01*
X12847268Y-14289344D02*
X12856792Y-14279820D01*
X12856792Y-14279820D02*
X12875840Y-14270296D01*
X12875840Y-14270296D02*
X12904411Y-14270296D01*
X12904411Y-14270296D02*
X12923459Y-14279820D01*
X12923459Y-14279820D02*
X12932983Y-14289344D01*
X12932983Y-14289344D02*
X12942506Y-14308392D01*
X12942506Y-14308392D02*
X12942506Y-14365534D01*
X12942506Y-14365534D02*
X12932983Y-14384582D01*
X12932983Y-14384582D02*
X12923459Y-14394106D01*
X12923459Y-14394106D02*
X12904411Y-14403630D01*
X12904411Y-14403630D02*
X12875840Y-14403630D01*
X13056792Y-14403630D02*
X13037744Y-14394106D01*
X13037744Y-14394106D02*
X13028221Y-14375058D01*
X13028221Y-14375058D02*
X13028221Y-14203630D01*
X13209173Y-14394106D02*
X13190125Y-14403630D01*
X13190125Y-14403630D02*
X13152030Y-14403630D01*
X13152030Y-14403630D02*
X13132983Y-14394106D01*
X13132983Y-14394106D02*
X13123459Y-14375058D01*
X13123459Y-14375058D02*
X13123459Y-14298868D01*
X13123459Y-14298868D02*
X13132983Y-14279820D01*
X13132983Y-14279820D02*
X13152030Y-14270296D01*
X13152030Y-14270296D02*
X13190125Y-14270296D01*
X13190125Y-14270296D02*
X13209173Y-14279820D01*
X13209173Y-14279820D02*
X13218697Y-14298868D01*
X13218697Y-14298868D02*
X13218697Y-14317915D01*
X13218697Y-14317915D02*
X13123459Y-14336963D01*
X13294887Y-14394106D02*
X13313935Y-14403630D01*
X13313935Y-14403630D02*
X13352030Y-14403630D01*
X13352030Y-14403630D02*
X13371078Y-14394106D01*
X13371078Y-14394106D02*
X13380602Y-14375058D01*
X13380602Y-14375058D02*
X13380602Y-14365534D01*
X13380602Y-14365534D02*
X13371078Y-14346487D01*
X13371078Y-14346487D02*
X13352030Y-14336963D01*
X13352030Y-14336963D02*
X13323459Y-14336963D01*
X13323459Y-14336963D02*
X13304411Y-14327439D01*
X13304411Y-14327439D02*
X13294887Y-14308392D01*
X13294887Y-14308392D02*
X13294887Y-14298868D01*
X13294887Y-14298868D02*
X13304411Y-14279820D01*
X13304411Y-14279820D02*
X13323459Y-14270296D01*
X13323459Y-14270296D02*
X13352030Y-14270296D01*
X13352030Y-14270296D02*
X13371078Y-14279820D01*
X13447268Y-14479820D02*
X13456792Y-14470296D01*
X13456792Y-14470296D02*
X13475840Y-14441725D01*
X13475840Y-14441725D02*
X13485364Y-14422677D01*
X13485364Y-14422677D02*
X13494887Y-14394106D01*
X13494887Y-14394106D02*
X13504411Y-14346487D01*
X13504411Y-14346487D02*
X13504411Y-14308392D01*
X13504411Y-14308392D02*
X13494887Y-14260772D01*
X13494887Y-14260772D02*
X13485364Y-14232201D01*
X13485364Y-14232201D02*
X13475840Y-14213153D01*
X13475840Y-14213153D02*
X13456792Y-14184582D01*
X13456792Y-14184582D02*
X13447268Y-14175058D01*
D14*
X8444229Y-14538646D02*
X8444229Y-14613646D01*
X8406729Y-14576146D02*
X8481729Y-14576146D01*
D11*
X8780601Y-14467630D02*
X8799649Y-14467630D01*
X8799649Y-14467630D02*
X8818697Y-14477153D01*
X8818697Y-14477153D02*
X8828220Y-14486677D01*
X8828220Y-14486677D02*
X8837744Y-14505725D01*
X8837744Y-14505725D02*
X8847268Y-14543820D01*
X8847268Y-14543820D02*
X8847268Y-14591439D01*
X8847268Y-14591439D02*
X8837744Y-14629534D01*
X8837744Y-14629534D02*
X8828220Y-14648582D01*
X8828220Y-14648582D02*
X8818697Y-14658106D01*
X8818697Y-14658106D02*
X8799649Y-14667630D01*
X8799649Y-14667630D02*
X8780601Y-14667630D01*
X8780601Y-14667630D02*
X8761554Y-14658106D01*
X8761554Y-14658106D02*
X8752030Y-14648582D01*
X8752030Y-14648582D02*
X8742506Y-14629534D01*
X8742506Y-14629534D02*
X8732982Y-14591439D01*
X8732982Y-14591439D02*
X8732982Y-14543820D01*
X8732982Y-14543820D02*
X8742506Y-14505725D01*
X8742506Y-14505725D02*
X8752030Y-14486677D01*
X8752030Y-14486677D02*
X8761554Y-14477153D01*
X8761554Y-14477153D02*
X8780601Y-14467630D01*
X8932982Y-14648582D02*
X8942506Y-14658106D01*
X8942506Y-14658106D02*
X8932982Y-14667630D01*
X8932982Y-14667630D02*
X8923458Y-14658106D01*
X8923458Y-14658106D02*
X8932982Y-14648582D01*
X8932982Y-14648582D02*
X8932982Y-14667630D01*
X9009173Y-14467630D02*
X9142506Y-14467630D01*
X9142506Y-14467630D02*
X9056792Y-14667630D01*
X9313935Y-14467630D02*
X9218697Y-14467630D01*
X9218697Y-14467630D02*
X9209173Y-14562868D01*
X9209173Y-14562868D02*
X9218697Y-14553344D01*
X9218697Y-14553344D02*
X9237744Y-14543820D01*
X9237744Y-14543820D02*
X9285363Y-14543820D01*
X9285363Y-14543820D02*
X9304411Y-14553344D01*
X9304411Y-14553344D02*
X9313935Y-14562868D01*
X9313935Y-14562868D02*
X9323458Y-14581915D01*
X9323458Y-14581915D02*
X9323458Y-14629534D01*
X9323458Y-14629534D02*
X9313935Y-14648582D01*
X9313935Y-14648582D02*
X9304411Y-14658106D01*
X9304411Y-14658106D02*
X9285363Y-14667630D01*
X9285363Y-14667630D02*
X9237744Y-14667630D01*
X9237744Y-14667630D02*
X9218697Y-14658106D01*
X9218697Y-14658106D02*
X9209173Y-14648582D01*
X9447268Y-14467630D02*
X9466316Y-14467630D01*
X9466316Y-14467630D02*
X9485363Y-14477153D01*
X9485363Y-14477153D02*
X9494887Y-14486677D01*
X9494887Y-14486677D02*
X9504411Y-14505725D01*
X9504411Y-14505725D02*
X9513935Y-14543820D01*
X9513935Y-14543820D02*
X9513935Y-14591439D01*
X9513935Y-14591439D02*
X9504411Y-14629534D01*
X9504411Y-14629534D02*
X9494887Y-14648582D01*
X9494887Y-14648582D02*
X9485363Y-14658106D01*
X9485363Y-14658106D02*
X9466316Y-14667630D01*
X9466316Y-14667630D02*
X9447268Y-14667630D01*
X9447268Y-14667630D02*
X9428220Y-14658106D01*
X9428220Y-14658106D02*
X9418697Y-14648582D01*
X9418697Y-14648582D02*
X9409173Y-14629534D01*
X9409173Y-14629534D02*
X9399649Y-14591439D01*
X9399649Y-14591439D02*
X9399649Y-14543820D01*
X9399649Y-14543820D02*
X9409173Y-14505725D01*
X9409173Y-14505725D02*
X9418697Y-14486677D01*
X9418697Y-14486677D02*
X9428220Y-14477153D01*
X9428220Y-14477153D02*
X9447268Y-14467630D01*
X9599649Y-14667630D02*
X9599649Y-14534296D01*
X9599649Y-14553344D02*
X9609173Y-14543820D01*
X9609173Y-14543820D02*
X9628220Y-14534296D01*
X9628220Y-14534296D02*
X9656792Y-14534296D01*
X9656792Y-14534296D02*
X9675839Y-14543820D01*
X9675839Y-14543820D02*
X9685363Y-14562868D01*
X9685363Y-14562868D02*
X9685363Y-14667630D01*
X9685363Y-14562868D02*
X9694887Y-14543820D01*
X9694887Y-14543820D02*
X9713935Y-14534296D01*
X9713935Y-14534296D02*
X9742506Y-14534296D01*
X9742506Y-14534296D02*
X9761554Y-14543820D01*
X9761554Y-14543820D02*
X9771078Y-14562868D01*
X9771078Y-14562868D02*
X9771078Y-14667630D01*
X9866316Y-14667630D02*
X9866316Y-14534296D01*
X9866316Y-14553344D02*
X9875839Y-14543820D01*
X9875839Y-14543820D02*
X9894887Y-14534296D01*
X9894887Y-14534296D02*
X9923459Y-14534296D01*
X9923459Y-14534296D02*
X9942506Y-14543820D01*
X9942506Y-14543820D02*
X9952030Y-14562868D01*
X9952030Y-14562868D02*
X9952030Y-14667630D01*
X9952030Y-14562868D02*
X9961554Y-14543820D01*
X9961554Y-14543820D02*
X9980601Y-14534296D01*
X9980601Y-14534296D02*
X10009173Y-14534296D01*
X10009173Y-14534296D02*
X10028220Y-14543820D01*
X10028220Y-14543820D02*
X10037744Y-14562868D01*
X10037744Y-14562868D02*
X10037744Y-14667630D01*
X10428220Y-14458106D02*
X10256792Y-14715249D01*
X10685363Y-14467630D02*
X10704411Y-14467630D01*
X10704411Y-14467630D02*
X10723459Y-14477153D01*
X10723459Y-14477153D02*
X10732982Y-14486677D01*
X10732982Y-14486677D02*
X10742506Y-14505725D01*
X10742506Y-14505725D02*
X10752030Y-14543820D01*
X10752030Y-14543820D02*
X10752030Y-14591439D01*
X10752030Y-14591439D02*
X10742506Y-14629534D01*
X10742506Y-14629534D02*
X10732982Y-14648582D01*
X10732982Y-14648582D02*
X10723459Y-14658106D01*
X10723459Y-14658106D02*
X10704411Y-14667630D01*
X10704411Y-14667630D02*
X10685363Y-14667630D01*
X10685363Y-14667630D02*
X10666316Y-14658106D01*
X10666316Y-14658106D02*
X10656792Y-14648582D01*
X10656792Y-14648582D02*
X10647268Y-14629534D01*
X10647268Y-14629534D02*
X10637744Y-14591439D01*
X10637744Y-14591439D02*
X10637744Y-14543820D01*
X10637744Y-14543820D02*
X10647268Y-14505725D01*
X10647268Y-14505725D02*
X10656792Y-14486677D01*
X10656792Y-14486677D02*
X10666316Y-14477153D01*
X10666316Y-14477153D02*
X10685363Y-14467630D01*
X10837744Y-14648582D02*
X10847268Y-14658106D01*
X10847268Y-14658106D02*
X10837744Y-14667630D01*
X10837744Y-14667630D02*
X10828221Y-14658106D01*
X10828221Y-14658106D02*
X10837744Y-14648582D01*
X10837744Y-14648582D02*
X10837744Y-14667630D01*
X10971078Y-14467630D02*
X10990125Y-14467630D01*
X10990125Y-14467630D02*
X11009173Y-14477153D01*
X11009173Y-14477153D02*
X11018697Y-14486677D01*
X11018697Y-14486677D02*
X11028221Y-14505725D01*
X11028221Y-14505725D02*
X11037744Y-14543820D01*
X11037744Y-14543820D02*
X11037744Y-14591439D01*
X11037744Y-14591439D02*
X11028221Y-14629534D01*
X11028221Y-14629534D02*
X11018697Y-14648582D01*
X11018697Y-14648582D02*
X11009173Y-14658106D01*
X11009173Y-14658106D02*
X10990125Y-14667630D01*
X10990125Y-14667630D02*
X10971078Y-14667630D01*
X10971078Y-14667630D02*
X10952030Y-14658106D01*
X10952030Y-14658106D02*
X10942506Y-14648582D01*
X10942506Y-14648582D02*
X10932982Y-14629534D01*
X10932982Y-14629534D02*
X10923459Y-14591439D01*
X10923459Y-14591439D02*
X10923459Y-14543820D01*
X10923459Y-14543820D02*
X10932982Y-14505725D01*
X10932982Y-14505725D02*
X10942506Y-14486677D01*
X10942506Y-14486677D02*
X10952030Y-14477153D01*
X10952030Y-14477153D02*
X10971078Y-14467630D01*
X11113935Y-14486677D02*
X11123459Y-14477153D01*
X11123459Y-14477153D02*
X11142506Y-14467630D01*
X11142506Y-14467630D02*
X11190125Y-14467630D01*
X11190125Y-14467630D02*
X11209173Y-14477153D01*
X11209173Y-14477153D02*
X11218697Y-14486677D01*
X11218697Y-14486677D02*
X11228220Y-14505725D01*
X11228220Y-14505725D02*
X11228220Y-14524772D01*
X11228220Y-14524772D02*
X11218697Y-14553344D01*
X11218697Y-14553344D02*
X11104411Y-14667630D01*
X11104411Y-14667630D02*
X11228220Y-14667630D01*
X11323459Y-14667630D02*
X11361554Y-14667630D01*
X11361554Y-14667630D02*
X11380601Y-14658106D01*
X11380601Y-14658106D02*
X11390125Y-14648582D01*
X11390125Y-14648582D02*
X11409173Y-14620011D01*
X11409173Y-14620011D02*
X11418697Y-14581915D01*
X11418697Y-14581915D02*
X11418697Y-14505725D01*
X11418697Y-14505725D02*
X11409173Y-14486677D01*
X11409173Y-14486677D02*
X11399649Y-14477153D01*
X11399649Y-14477153D02*
X11380601Y-14467630D01*
X11380601Y-14467630D02*
X11342506Y-14467630D01*
X11342506Y-14467630D02*
X11323459Y-14477153D01*
X11323459Y-14477153D02*
X11313935Y-14486677D01*
X11313935Y-14486677D02*
X11304411Y-14505725D01*
X11304411Y-14505725D02*
X11304411Y-14553344D01*
X11304411Y-14553344D02*
X11313935Y-14572392D01*
X11313935Y-14572392D02*
X11323459Y-14581915D01*
X11323459Y-14581915D02*
X11342506Y-14591439D01*
X11342506Y-14591439D02*
X11380601Y-14591439D01*
X11380601Y-14591439D02*
X11399649Y-14581915D01*
X11399649Y-14581915D02*
X11409173Y-14572392D01*
X11409173Y-14572392D02*
X11418697Y-14553344D01*
X11599649Y-14467630D02*
X11504411Y-14467630D01*
X11504411Y-14467630D02*
X11494887Y-14562868D01*
X11494887Y-14562868D02*
X11504411Y-14553344D01*
X11504411Y-14553344D02*
X11523459Y-14543820D01*
X11523459Y-14543820D02*
X11571078Y-14543820D01*
X11571078Y-14543820D02*
X11590125Y-14553344D01*
X11590125Y-14553344D02*
X11599649Y-14562868D01*
X11599649Y-14562868D02*
X11609173Y-14581915D01*
X11609173Y-14581915D02*
X11609173Y-14629534D01*
X11609173Y-14629534D02*
X11599649Y-14648582D01*
X11599649Y-14648582D02*
X11590125Y-14658106D01*
X11590125Y-14658106D02*
X11571078Y-14667630D01*
X11571078Y-14667630D02*
X11523459Y-14667630D01*
X11523459Y-14667630D02*
X11504411Y-14658106D01*
X11504411Y-14658106D02*
X11494887Y-14648582D01*
X11685363Y-14467630D02*
X11685363Y-14505725D01*
X11761554Y-14467630D02*
X11761554Y-14505725D01*
X12056792Y-14743820D02*
X12047268Y-14734296D01*
X12047268Y-14734296D02*
X12028221Y-14705725D01*
X12028221Y-14705725D02*
X12018697Y-14686677D01*
X12018697Y-14686677D02*
X12009173Y-14658106D01*
X12009173Y-14658106D02*
X11999649Y-14610487D01*
X11999649Y-14610487D02*
X11999649Y-14572392D01*
X11999649Y-14572392D02*
X12009173Y-14524772D01*
X12009173Y-14524772D02*
X12018697Y-14496201D01*
X12018697Y-14496201D02*
X12028221Y-14477153D01*
X12028221Y-14477153D02*
X12047268Y-14448582D01*
X12047268Y-14448582D02*
X12056792Y-14439058D01*
X12123459Y-14486677D02*
X12132982Y-14477153D01*
X12132982Y-14477153D02*
X12152030Y-14467630D01*
X12152030Y-14467630D02*
X12199649Y-14467630D01*
X12199649Y-14467630D02*
X12218697Y-14477153D01*
X12218697Y-14477153D02*
X12228221Y-14486677D01*
X12228221Y-14486677D02*
X12237744Y-14505725D01*
X12237744Y-14505725D02*
X12237744Y-14524772D01*
X12237744Y-14524772D02*
X12228221Y-14553344D01*
X12228221Y-14553344D02*
X12113935Y-14667630D01*
X12113935Y-14667630D02*
X12237744Y-14667630D01*
X12475840Y-14667630D02*
X12475840Y-14467630D01*
X12561554Y-14667630D02*
X12561554Y-14562868D01*
X12561554Y-14562868D02*
X12552030Y-14543820D01*
X12552030Y-14543820D02*
X12532983Y-14534296D01*
X12532983Y-14534296D02*
X12504411Y-14534296D01*
X12504411Y-14534296D02*
X12485363Y-14543820D01*
X12485363Y-14543820D02*
X12475840Y-14553344D01*
X12685363Y-14667630D02*
X12666316Y-14658106D01*
X12666316Y-14658106D02*
X12656792Y-14648582D01*
X12656792Y-14648582D02*
X12647268Y-14629534D01*
X12647268Y-14629534D02*
X12647268Y-14572392D01*
X12647268Y-14572392D02*
X12656792Y-14553344D01*
X12656792Y-14553344D02*
X12666316Y-14543820D01*
X12666316Y-14543820D02*
X12685363Y-14534296D01*
X12685363Y-14534296D02*
X12713935Y-14534296D01*
X12713935Y-14534296D02*
X12732983Y-14543820D01*
X12732983Y-14543820D02*
X12742506Y-14553344D01*
X12742506Y-14553344D02*
X12752030Y-14572392D01*
X12752030Y-14572392D02*
X12752030Y-14629534D01*
X12752030Y-14629534D02*
X12742506Y-14648582D01*
X12742506Y-14648582D02*
X12732983Y-14658106D01*
X12732983Y-14658106D02*
X12713935Y-14667630D01*
X12713935Y-14667630D02*
X12685363Y-14667630D01*
X12866316Y-14667630D02*
X12847268Y-14658106D01*
X12847268Y-14658106D02*
X12837744Y-14639058D01*
X12837744Y-14639058D02*
X12837744Y-14467630D01*
X13018697Y-14658106D02*
X12999649Y-14667630D01*
X12999649Y-14667630D02*
X12961554Y-14667630D01*
X12961554Y-14667630D02*
X12942506Y-14658106D01*
X12942506Y-14658106D02*
X12932983Y-14639058D01*
X12932983Y-14639058D02*
X12932983Y-14562868D01*
X12932983Y-14562868D02*
X12942506Y-14543820D01*
X12942506Y-14543820D02*
X12961554Y-14534296D01*
X12961554Y-14534296D02*
X12999649Y-14534296D01*
X12999649Y-14534296D02*
X13018697Y-14543820D01*
X13018697Y-14543820D02*
X13028221Y-14562868D01*
X13028221Y-14562868D02*
X13028221Y-14581915D01*
X13028221Y-14581915D02*
X12932983Y-14600963D01*
X13104411Y-14658106D02*
X13123459Y-14667630D01*
X13123459Y-14667630D02*
X13161554Y-14667630D01*
X13161554Y-14667630D02*
X13180602Y-14658106D01*
X13180602Y-14658106D02*
X13190125Y-14639058D01*
X13190125Y-14639058D02*
X13190125Y-14629534D01*
X13190125Y-14629534D02*
X13180602Y-14610487D01*
X13180602Y-14610487D02*
X13161554Y-14600963D01*
X13161554Y-14600963D02*
X13132983Y-14600963D01*
X13132983Y-14600963D02*
X13113935Y-14591439D01*
X13113935Y-14591439D02*
X13104411Y-14572392D01*
X13104411Y-14572392D02*
X13104411Y-14562868D01*
X13104411Y-14562868D02*
X13113935Y-14543820D01*
X13113935Y-14543820D02*
X13132983Y-14534296D01*
X13132983Y-14534296D02*
X13161554Y-14534296D01*
X13161554Y-14534296D02*
X13180602Y-14543820D01*
X13256792Y-14743820D02*
X13266316Y-14734296D01*
X13266316Y-14734296D02*
X13285364Y-14705725D01*
X13285364Y-14705725D02*
X13294887Y-14686677D01*
X13294887Y-14686677D02*
X13304411Y-14658106D01*
X13304411Y-14658106D02*
X13313935Y-14610487D01*
X13313935Y-14610487D02*
X13313935Y-14572392D01*
X13313935Y-14572392D02*
X13304411Y-14524772D01*
X13304411Y-14524772D02*
X13294887Y-14496201D01*
X13294887Y-14496201D02*
X13285364Y-14477153D01*
X13285364Y-14477153D02*
X13266316Y-14448582D01*
X13266316Y-14448582D02*
X13256792Y-14439058D01*
D15*
X8470570Y-14867087D02*
X8470570Y-14813205D01*
X8416688Y-14813205D01*
X8416688Y-14867087D01*
X8470570Y-14867087D01*
D11*
X8780601Y-14731630D02*
X8799649Y-14731630D01*
X8799649Y-14731630D02*
X8818697Y-14741153D01*
X8818697Y-14741153D02*
X8828220Y-14750677D01*
X8828220Y-14750677D02*
X8837744Y-14769725D01*
X8837744Y-14769725D02*
X8847268Y-14807820D01*
X8847268Y-14807820D02*
X8847268Y-14855439D01*
X8847268Y-14855439D02*
X8837744Y-14893534D01*
X8837744Y-14893534D02*
X8828220Y-14912582D01*
X8828220Y-14912582D02*
X8818697Y-14922106D01*
X8818697Y-14922106D02*
X8799649Y-14931630D01*
X8799649Y-14931630D02*
X8780601Y-14931630D01*
X8780601Y-14931630D02*
X8761554Y-14922106D01*
X8761554Y-14922106D02*
X8752030Y-14912582D01*
X8752030Y-14912582D02*
X8742506Y-14893534D01*
X8742506Y-14893534D02*
X8732982Y-14855439D01*
X8732982Y-14855439D02*
X8732982Y-14807820D01*
X8732982Y-14807820D02*
X8742506Y-14769725D01*
X8742506Y-14769725D02*
X8752030Y-14750677D01*
X8752030Y-14750677D02*
X8761554Y-14741153D01*
X8761554Y-14741153D02*
X8780601Y-14731630D01*
X8932982Y-14912582D02*
X8942506Y-14922106D01*
X8942506Y-14922106D02*
X8932982Y-14931630D01*
X8932982Y-14931630D02*
X8923458Y-14922106D01*
X8923458Y-14922106D02*
X8932982Y-14912582D01*
X8932982Y-14912582D02*
X8932982Y-14931630D01*
X9009173Y-14731630D02*
X9142506Y-14731630D01*
X9142506Y-14731630D02*
X9056792Y-14931630D01*
X9304411Y-14731630D02*
X9266316Y-14731630D01*
X9266316Y-14731630D02*
X9247268Y-14741153D01*
X9247268Y-14741153D02*
X9237744Y-14750677D01*
X9237744Y-14750677D02*
X9218697Y-14779249D01*
X9218697Y-14779249D02*
X9209173Y-14817344D01*
X9209173Y-14817344D02*
X9209173Y-14893534D01*
X9209173Y-14893534D02*
X9218697Y-14912582D01*
X9218697Y-14912582D02*
X9228220Y-14922106D01*
X9228220Y-14922106D02*
X9247268Y-14931630D01*
X9247268Y-14931630D02*
X9285363Y-14931630D01*
X9285363Y-14931630D02*
X9304411Y-14922106D01*
X9304411Y-14922106D02*
X9313935Y-14912582D01*
X9313935Y-14912582D02*
X9323458Y-14893534D01*
X9323458Y-14893534D02*
X9323458Y-14845915D01*
X9323458Y-14845915D02*
X9313935Y-14826868D01*
X9313935Y-14826868D02*
X9304411Y-14817344D01*
X9304411Y-14817344D02*
X9285363Y-14807820D01*
X9285363Y-14807820D02*
X9247268Y-14807820D01*
X9247268Y-14807820D02*
X9228220Y-14817344D01*
X9228220Y-14817344D02*
X9218697Y-14826868D01*
X9218697Y-14826868D02*
X9209173Y-14845915D01*
X9399649Y-14750677D02*
X9409173Y-14741153D01*
X9409173Y-14741153D02*
X9428220Y-14731630D01*
X9428220Y-14731630D02*
X9475839Y-14731630D01*
X9475839Y-14731630D02*
X9494887Y-14741153D01*
X9494887Y-14741153D02*
X9504411Y-14750677D01*
X9504411Y-14750677D02*
X9513935Y-14769725D01*
X9513935Y-14769725D02*
X9513935Y-14788772D01*
X9513935Y-14788772D02*
X9504411Y-14817344D01*
X9504411Y-14817344D02*
X9390125Y-14931630D01*
X9390125Y-14931630D02*
X9513935Y-14931630D01*
X9599649Y-14931630D02*
X9599649Y-14798296D01*
X9599649Y-14817344D02*
X9609173Y-14807820D01*
X9609173Y-14807820D02*
X9628220Y-14798296D01*
X9628220Y-14798296D02*
X9656792Y-14798296D01*
X9656792Y-14798296D02*
X9675839Y-14807820D01*
X9675839Y-14807820D02*
X9685363Y-14826868D01*
X9685363Y-14826868D02*
X9685363Y-14931630D01*
X9685363Y-14826868D02*
X9694887Y-14807820D01*
X9694887Y-14807820D02*
X9713935Y-14798296D01*
X9713935Y-14798296D02*
X9742506Y-14798296D01*
X9742506Y-14798296D02*
X9761554Y-14807820D01*
X9761554Y-14807820D02*
X9771078Y-14826868D01*
X9771078Y-14826868D02*
X9771078Y-14931630D01*
X9866316Y-14931630D02*
X9866316Y-14798296D01*
X9866316Y-14817344D02*
X9875839Y-14807820D01*
X9875839Y-14807820D02*
X9894887Y-14798296D01*
X9894887Y-14798296D02*
X9923459Y-14798296D01*
X9923459Y-14798296D02*
X9942506Y-14807820D01*
X9942506Y-14807820D02*
X9952030Y-14826868D01*
X9952030Y-14826868D02*
X9952030Y-14931630D01*
X9952030Y-14826868D02*
X9961554Y-14807820D01*
X9961554Y-14807820D02*
X9980601Y-14798296D01*
X9980601Y-14798296D02*
X10009173Y-14798296D01*
X10009173Y-14798296D02*
X10028220Y-14807820D01*
X10028220Y-14807820D02*
X10037744Y-14826868D01*
X10037744Y-14826868D02*
X10037744Y-14931630D01*
X10428220Y-14722106D02*
X10256792Y-14979249D01*
X10685363Y-14731630D02*
X10704411Y-14731630D01*
X10704411Y-14731630D02*
X10723459Y-14741153D01*
X10723459Y-14741153D02*
X10732982Y-14750677D01*
X10732982Y-14750677D02*
X10742506Y-14769725D01*
X10742506Y-14769725D02*
X10752030Y-14807820D01*
X10752030Y-14807820D02*
X10752030Y-14855439D01*
X10752030Y-14855439D02*
X10742506Y-14893534D01*
X10742506Y-14893534D02*
X10732982Y-14912582D01*
X10732982Y-14912582D02*
X10723459Y-14922106D01*
X10723459Y-14922106D02*
X10704411Y-14931630D01*
X10704411Y-14931630D02*
X10685363Y-14931630D01*
X10685363Y-14931630D02*
X10666316Y-14922106D01*
X10666316Y-14922106D02*
X10656792Y-14912582D01*
X10656792Y-14912582D02*
X10647268Y-14893534D01*
X10647268Y-14893534D02*
X10637744Y-14855439D01*
X10637744Y-14855439D02*
X10637744Y-14807820D01*
X10637744Y-14807820D02*
X10647268Y-14769725D01*
X10647268Y-14769725D02*
X10656792Y-14750677D01*
X10656792Y-14750677D02*
X10666316Y-14741153D01*
X10666316Y-14741153D02*
X10685363Y-14731630D01*
X10837744Y-14912582D02*
X10847268Y-14922106D01*
X10847268Y-14922106D02*
X10837744Y-14931630D01*
X10837744Y-14931630D02*
X10828221Y-14922106D01*
X10828221Y-14922106D02*
X10837744Y-14912582D01*
X10837744Y-14912582D02*
X10837744Y-14931630D01*
X10971078Y-14731630D02*
X10990125Y-14731630D01*
X10990125Y-14731630D02*
X11009173Y-14741153D01*
X11009173Y-14741153D02*
X11018697Y-14750677D01*
X11018697Y-14750677D02*
X11028221Y-14769725D01*
X11028221Y-14769725D02*
X11037744Y-14807820D01*
X11037744Y-14807820D02*
X11037744Y-14855439D01*
X11037744Y-14855439D02*
X11028221Y-14893534D01*
X11028221Y-14893534D02*
X11018697Y-14912582D01*
X11018697Y-14912582D02*
X11009173Y-14922106D01*
X11009173Y-14922106D02*
X10990125Y-14931630D01*
X10990125Y-14931630D02*
X10971078Y-14931630D01*
X10971078Y-14931630D02*
X10952030Y-14922106D01*
X10952030Y-14922106D02*
X10942506Y-14912582D01*
X10942506Y-14912582D02*
X10932982Y-14893534D01*
X10932982Y-14893534D02*
X10923459Y-14855439D01*
X10923459Y-14855439D02*
X10923459Y-14807820D01*
X10923459Y-14807820D02*
X10932982Y-14769725D01*
X10932982Y-14769725D02*
X10942506Y-14750677D01*
X10942506Y-14750677D02*
X10952030Y-14741153D01*
X10952030Y-14741153D02*
X10971078Y-14731630D01*
X11104411Y-14731630D02*
X11228220Y-14731630D01*
X11228220Y-14731630D02*
X11161554Y-14807820D01*
X11161554Y-14807820D02*
X11190125Y-14807820D01*
X11190125Y-14807820D02*
X11209173Y-14817344D01*
X11209173Y-14817344D02*
X11218697Y-14826868D01*
X11218697Y-14826868D02*
X11228220Y-14845915D01*
X11228220Y-14845915D02*
X11228220Y-14893534D01*
X11228220Y-14893534D02*
X11218697Y-14912582D01*
X11218697Y-14912582D02*
X11209173Y-14922106D01*
X11209173Y-14922106D02*
X11190125Y-14931630D01*
X11190125Y-14931630D02*
X11132982Y-14931630D01*
X11132982Y-14931630D02*
X11113935Y-14922106D01*
X11113935Y-14922106D02*
X11104411Y-14912582D01*
X11352030Y-14731630D02*
X11371078Y-14731630D01*
X11371078Y-14731630D02*
X11390125Y-14741153D01*
X11390125Y-14741153D02*
X11399649Y-14750677D01*
X11399649Y-14750677D02*
X11409173Y-14769725D01*
X11409173Y-14769725D02*
X11418697Y-14807820D01*
X11418697Y-14807820D02*
X11418697Y-14855439D01*
X11418697Y-14855439D02*
X11409173Y-14893534D01*
X11409173Y-14893534D02*
X11399649Y-14912582D01*
X11399649Y-14912582D02*
X11390125Y-14922106D01*
X11390125Y-14922106D02*
X11371078Y-14931630D01*
X11371078Y-14931630D02*
X11352030Y-14931630D01*
X11352030Y-14931630D02*
X11332982Y-14922106D01*
X11332982Y-14922106D02*
X11323459Y-14912582D01*
X11323459Y-14912582D02*
X11313935Y-14893534D01*
X11313935Y-14893534D02*
X11304411Y-14855439D01*
X11304411Y-14855439D02*
X11304411Y-14807820D01*
X11304411Y-14807820D02*
X11313935Y-14769725D01*
X11313935Y-14769725D02*
X11323459Y-14750677D01*
X11323459Y-14750677D02*
X11332982Y-14741153D01*
X11332982Y-14741153D02*
X11352030Y-14731630D01*
X11542506Y-14731630D02*
X11561554Y-14731630D01*
X11561554Y-14731630D02*
X11580601Y-14741153D01*
X11580601Y-14741153D02*
X11590125Y-14750677D01*
X11590125Y-14750677D02*
X11599649Y-14769725D01*
X11599649Y-14769725D02*
X11609173Y-14807820D01*
X11609173Y-14807820D02*
X11609173Y-14855439D01*
X11609173Y-14855439D02*
X11599649Y-14893534D01*
X11599649Y-14893534D02*
X11590125Y-14912582D01*
X11590125Y-14912582D02*
X11580601Y-14922106D01*
X11580601Y-14922106D02*
X11561554Y-14931630D01*
X11561554Y-14931630D02*
X11542506Y-14931630D01*
X11542506Y-14931630D02*
X11523459Y-14922106D01*
X11523459Y-14922106D02*
X11513935Y-14912582D01*
X11513935Y-14912582D02*
X11504411Y-14893534D01*
X11504411Y-14893534D02*
X11494887Y-14855439D01*
X11494887Y-14855439D02*
X11494887Y-14807820D01*
X11494887Y-14807820D02*
X11504411Y-14769725D01*
X11504411Y-14769725D02*
X11513935Y-14750677D01*
X11513935Y-14750677D02*
X11523459Y-14741153D01*
X11523459Y-14741153D02*
X11542506Y-14731630D01*
X11685363Y-14731630D02*
X11685363Y-14769725D01*
X11761554Y-14731630D02*
X11761554Y-14769725D01*
X12056792Y-15007820D02*
X12047268Y-14998296D01*
X12047268Y-14998296D02*
X12028221Y-14969725D01*
X12028221Y-14969725D02*
X12018697Y-14950677D01*
X12018697Y-14950677D02*
X12009173Y-14922106D01*
X12009173Y-14922106D02*
X11999649Y-14874487D01*
X11999649Y-14874487D02*
X11999649Y-14836392D01*
X11999649Y-14836392D02*
X12009173Y-14788772D01*
X12009173Y-14788772D02*
X12018697Y-14760201D01*
X12018697Y-14760201D02*
X12028221Y-14741153D01*
X12028221Y-14741153D02*
X12047268Y-14712582D01*
X12047268Y-14712582D02*
X12056792Y-14703058D01*
X12123459Y-14750677D02*
X12132982Y-14741153D01*
X12132982Y-14741153D02*
X12152030Y-14731630D01*
X12152030Y-14731630D02*
X12199649Y-14731630D01*
X12199649Y-14731630D02*
X12218697Y-14741153D01*
X12218697Y-14741153D02*
X12228221Y-14750677D01*
X12228221Y-14750677D02*
X12237744Y-14769725D01*
X12237744Y-14769725D02*
X12237744Y-14788772D01*
X12237744Y-14788772D02*
X12228221Y-14817344D01*
X12228221Y-14817344D02*
X12113935Y-14931630D01*
X12113935Y-14931630D02*
X12237744Y-14931630D01*
X12475840Y-14931630D02*
X12475840Y-14731630D01*
X12561554Y-14931630D02*
X12561554Y-14826868D01*
X12561554Y-14826868D02*
X12552030Y-14807820D01*
X12552030Y-14807820D02*
X12532983Y-14798296D01*
X12532983Y-14798296D02*
X12504411Y-14798296D01*
X12504411Y-14798296D02*
X12485363Y-14807820D01*
X12485363Y-14807820D02*
X12475840Y-14817344D01*
X12685363Y-14931630D02*
X12666316Y-14922106D01*
X12666316Y-14922106D02*
X12656792Y-14912582D01*
X12656792Y-14912582D02*
X12647268Y-14893534D01*
X12647268Y-14893534D02*
X12647268Y-14836392D01*
X12647268Y-14836392D02*
X12656792Y-14817344D01*
X12656792Y-14817344D02*
X12666316Y-14807820D01*
X12666316Y-14807820D02*
X12685363Y-14798296D01*
X12685363Y-14798296D02*
X12713935Y-14798296D01*
X12713935Y-14798296D02*
X12732983Y-14807820D01*
X12732983Y-14807820D02*
X12742506Y-14817344D01*
X12742506Y-14817344D02*
X12752030Y-14836392D01*
X12752030Y-14836392D02*
X12752030Y-14893534D01*
X12752030Y-14893534D02*
X12742506Y-14912582D01*
X12742506Y-14912582D02*
X12732983Y-14922106D01*
X12732983Y-14922106D02*
X12713935Y-14931630D01*
X12713935Y-14931630D02*
X12685363Y-14931630D01*
X12866316Y-14931630D02*
X12847268Y-14922106D01*
X12847268Y-14922106D02*
X12837744Y-14903058D01*
X12837744Y-14903058D02*
X12837744Y-14731630D01*
X13018697Y-14922106D02*
X12999649Y-14931630D01*
X12999649Y-14931630D02*
X12961554Y-14931630D01*
X12961554Y-14931630D02*
X12942506Y-14922106D01*
X12942506Y-14922106D02*
X12932983Y-14903058D01*
X12932983Y-14903058D02*
X12932983Y-14826868D01*
X12932983Y-14826868D02*
X12942506Y-14807820D01*
X12942506Y-14807820D02*
X12961554Y-14798296D01*
X12961554Y-14798296D02*
X12999649Y-14798296D01*
X12999649Y-14798296D02*
X13018697Y-14807820D01*
X13018697Y-14807820D02*
X13028221Y-14826868D01*
X13028221Y-14826868D02*
X13028221Y-14845915D01*
X13028221Y-14845915D02*
X12932983Y-14864963D01*
X13104411Y-14922106D02*
X13123459Y-14931630D01*
X13123459Y-14931630D02*
X13161554Y-14931630D01*
X13161554Y-14931630D02*
X13180602Y-14922106D01*
X13180602Y-14922106D02*
X13190125Y-14903058D01*
X13190125Y-14903058D02*
X13190125Y-14893534D01*
X13190125Y-14893534D02*
X13180602Y-14874487D01*
X13180602Y-14874487D02*
X13161554Y-14864963D01*
X13161554Y-14864963D02*
X13132983Y-14864963D01*
X13132983Y-14864963D02*
X13113935Y-14855439D01*
X13113935Y-14855439D02*
X13104411Y-14836392D01*
X13104411Y-14836392D02*
X13104411Y-14826868D01*
X13104411Y-14826868D02*
X13113935Y-14807820D01*
X13113935Y-14807820D02*
X13132983Y-14798296D01*
X13132983Y-14798296D02*
X13161554Y-14798296D01*
X13161554Y-14798296D02*
X13180602Y-14807820D01*
X13256792Y-15007820D02*
X13266316Y-14998296D01*
X13266316Y-14998296D02*
X13285364Y-14969725D01*
X13285364Y-14969725D02*
X13294887Y-14950677D01*
X13294887Y-14950677D02*
X13304411Y-14922106D01*
X13304411Y-14922106D02*
X13313935Y-14874487D01*
X13313935Y-14874487D02*
X13313935Y-14836392D01*
X13313935Y-14836392D02*
X13304411Y-14788772D01*
X13304411Y-14788772D02*
X13294887Y-14760201D01*
X13294887Y-14760201D02*
X13285364Y-14741153D01*
X13285364Y-14741153D02*
X13266316Y-14712582D01*
X13266316Y-14712582D02*
X13256792Y-14703058D01*
D16*
X8441089Y-15144786D02*
X8481729Y-15104146D01*
X8441089Y-15063506D01*
X8400449Y-15104146D01*
X8441089Y-15144786D01*
D11*
X8780601Y-14995630D02*
X8799649Y-14995630D01*
X8799649Y-14995630D02*
X8818697Y-15005153D01*
X8818697Y-15005153D02*
X8828220Y-15014677D01*
X8828220Y-15014677D02*
X8837744Y-15033725D01*
X8837744Y-15033725D02*
X8847268Y-15071820D01*
X8847268Y-15071820D02*
X8847268Y-15119439D01*
X8847268Y-15119439D02*
X8837744Y-15157534D01*
X8837744Y-15157534D02*
X8828220Y-15176582D01*
X8828220Y-15176582D02*
X8818697Y-15186106D01*
X8818697Y-15186106D02*
X8799649Y-15195630D01*
X8799649Y-15195630D02*
X8780601Y-15195630D01*
X8780601Y-15195630D02*
X8761554Y-15186106D01*
X8761554Y-15186106D02*
X8752030Y-15176582D01*
X8752030Y-15176582D02*
X8742506Y-15157534D01*
X8742506Y-15157534D02*
X8732982Y-15119439D01*
X8732982Y-15119439D02*
X8732982Y-15071820D01*
X8732982Y-15071820D02*
X8742506Y-15033725D01*
X8742506Y-15033725D02*
X8752030Y-15014677D01*
X8752030Y-15014677D02*
X8761554Y-15005153D01*
X8761554Y-15005153D02*
X8780601Y-14995630D01*
X8932982Y-15176582D02*
X8942506Y-15186106D01*
X8942506Y-15186106D02*
X8932982Y-15195630D01*
X8932982Y-15195630D02*
X8923458Y-15186106D01*
X8923458Y-15186106D02*
X8932982Y-15176582D01*
X8932982Y-15176582D02*
X8932982Y-15195630D01*
X9056792Y-15081344D02*
X9037744Y-15071820D01*
X9037744Y-15071820D02*
X9028220Y-15062296D01*
X9028220Y-15062296D02*
X9018697Y-15043249D01*
X9018697Y-15043249D02*
X9018697Y-15033725D01*
X9018697Y-15033725D02*
X9028220Y-15014677D01*
X9028220Y-15014677D02*
X9037744Y-15005153D01*
X9037744Y-15005153D02*
X9056792Y-14995630D01*
X9056792Y-14995630D02*
X9094887Y-14995630D01*
X9094887Y-14995630D02*
X9113935Y-15005153D01*
X9113935Y-15005153D02*
X9123458Y-15014677D01*
X9123458Y-15014677D02*
X9132982Y-15033725D01*
X9132982Y-15033725D02*
X9132982Y-15043249D01*
X9132982Y-15043249D02*
X9123458Y-15062296D01*
X9123458Y-15062296D02*
X9113935Y-15071820D01*
X9113935Y-15071820D02*
X9094887Y-15081344D01*
X9094887Y-15081344D02*
X9056792Y-15081344D01*
X9056792Y-15081344D02*
X9037744Y-15090868D01*
X9037744Y-15090868D02*
X9028220Y-15100392D01*
X9028220Y-15100392D02*
X9018697Y-15119439D01*
X9018697Y-15119439D02*
X9018697Y-15157534D01*
X9018697Y-15157534D02*
X9028220Y-15176582D01*
X9028220Y-15176582D02*
X9037744Y-15186106D01*
X9037744Y-15186106D02*
X9056792Y-15195630D01*
X9056792Y-15195630D02*
X9094887Y-15195630D01*
X9094887Y-15195630D02*
X9113935Y-15186106D01*
X9113935Y-15186106D02*
X9123458Y-15176582D01*
X9123458Y-15176582D02*
X9132982Y-15157534D01*
X9132982Y-15157534D02*
X9132982Y-15119439D01*
X9132982Y-15119439D02*
X9123458Y-15100392D01*
X9123458Y-15100392D02*
X9113935Y-15090868D01*
X9113935Y-15090868D02*
X9094887Y-15081344D01*
X9323458Y-15195630D02*
X9209173Y-15195630D01*
X9266316Y-15195630D02*
X9266316Y-14995630D01*
X9266316Y-14995630D02*
X9247268Y-15024201D01*
X9247268Y-15024201D02*
X9228220Y-15043249D01*
X9228220Y-15043249D02*
X9209173Y-15052772D01*
X9390125Y-14995630D02*
X9513935Y-14995630D01*
X9513935Y-14995630D02*
X9447268Y-15071820D01*
X9447268Y-15071820D02*
X9475839Y-15071820D01*
X9475839Y-15071820D02*
X9494887Y-15081344D01*
X9494887Y-15081344D02*
X9504411Y-15090868D01*
X9504411Y-15090868D02*
X9513935Y-15109915D01*
X9513935Y-15109915D02*
X9513935Y-15157534D01*
X9513935Y-15157534D02*
X9504411Y-15176582D01*
X9504411Y-15176582D02*
X9494887Y-15186106D01*
X9494887Y-15186106D02*
X9475839Y-15195630D01*
X9475839Y-15195630D02*
X9418697Y-15195630D01*
X9418697Y-15195630D02*
X9399649Y-15186106D01*
X9399649Y-15186106D02*
X9390125Y-15176582D01*
X9599649Y-15195630D02*
X9599649Y-15062296D01*
X9599649Y-15081344D02*
X9609173Y-15071820D01*
X9609173Y-15071820D02*
X9628220Y-15062296D01*
X9628220Y-15062296D02*
X9656792Y-15062296D01*
X9656792Y-15062296D02*
X9675839Y-15071820D01*
X9675839Y-15071820D02*
X9685363Y-15090868D01*
X9685363Y-15090868D02*
X9685363Y-15195630D01*
X9685363Y-15090868D02*
X9694887Y-15071820D01*
X9694887Y-15071820D02*
X9713935Y-15062296D01*
X9713935Y-15062296D02*
X9742506Y-15062296D01*
X9742506Y-15062296D02*
X9761554Y-15071820D01*
X9761554Y-15071820D02*
X9771078Y-15090868D01*
X9771078Y-15090868D02*
X9771078Y-15195630D01*
X9866316Y-15195630D02*
X9866316Y-15062296D01*
X9866316Y-15081344D02*
X9875839Y-15071820D01*
X9875839Y-15071820D02*
X9894887Y-15062296D01*
X9894887Y-15062296D02*
X9923459Y-15062296D01*
X9923459Y-15062296D02*
X9942506Y-15071820D01*
X9942506Y-15071820D02*
X9952030Y-15090868D01*
X9952030Y-15090868D02*
X9952030Y-15195630D01*
X9952030Y-15090868D02*
X9961554Y-15071820D01*
X9961554Y-15071820D02*
X9980601Y-15062296D01*
X9980601Y-15062296D02*
X10009173Y-15062296D01*
X10009173Y-15062296D02*
X10028220Y-15071820D01*
X10028220Y-15071820D02*
X10037744Y-15090868D01*
X10037744Y-15090868D02*
X10037744Y-15195630D01*
X10428220Y-14986106D02*
X10256792Y-15243249D01*
X10685363Y-14995630D02*
X10704411Y-14995630D01*
X10704411Y-14995630D02*
X10723459Y-15005153D01*
X10723459Y-15005153D02*
X10732982Y-15014677D01*
X10732982Y-15014677D02*
X10742506Y-15033725D01*
X10742506Y-15033725D02*
X10752030Y-15071820D01*
X10752030Y-15071820D02*
X10752030Y-15119439D01*
X10752030Y-15119439D02*
X10742506Y-15157534D01*
X10742506Y-15157534D02*
X10732982Y-15176582D01*
X10732982Y-15176582D02*
X10723459Y-15186106D01*
X10723459Y-15186106D02*
X10704411Y-15195630D01*
X10704411Y-15195630D02*
X10685363Y-15195630D01*
X10685363Y-15195630D02*
X10666316Y-15186106D01*
X10666316Y-15186106D02*
X10656792Y-15176582D01*
X10656792Y-15176582D02*
X10647268Y-15157534D01*
X10647268Y-15157534D02*
X10637744Y-15119439D01*
X10637744Y-15119439D02*
X10637744Y-15071820D01*
X10637744Y-15071820D02*
X10647268Y-15033725D01*
X10647268Y-15033725D02*
X10656792Y-15014677D01*
X10656792Y-15014677D02*
X10666316Y-15005153D01*
X10666316Y-15005153D02*
X10685363Y-14995630D01*
X10837744Y-15176582D02*
X10847268Y-15186106D01*
X10847268Y-15186106D02*
X10837744Y-15195630D01*
X10837744Y-15195630D02*
X10828221Y-15186106D01*
X10828221Y-15186106D02*
X10837744Y-15176582D01*
X10837744Y-15176582D02*
X10837744Y-15195630D01*
X10971078Y-14995630D02*
X10990125Y-14995630D01*
X10990125Y-14995630D02*
X11009173Y-15005153D01*
X11009173Y-15005153D02*
X11018697Y-15014677D01*
X11018697Y-15014677D02*
X11028221Y-15033725D01*
X11028221Y-15033725D02*
X11037744Y-15071820D01*
X11037744Y-15071820D02*
X11037744Y-15119439D01*
X11037744Y-15119439D02*
X11028221Y-15157534D01*
X11028221Y-15157534D02*
X11018697Y-15176582D01*
X11018697Y-15176582D02*
X11009173Y-15186106D01*
X11009173Y-15186106D02*
X10990125Y-15195630D01*
X10990125Y-15195630D02*
X10971078Y-15195630D01*
X10971078Y-15195630D02*
X10952030Y-15186106D01*
X10952030Y-15186106D02*
X10942506Y-15176582D01*
X10942506Y-15176582D02*
X10932982Y-15157534D01*
X10932982Y-15157534D02*
X10923459Y-15119439D01*
X10923459Y-15119439D02*
X10923459Y-15071820D01*
X10923459Y-15071820D02*
X10932982Y-15033725D01*
X10932982Y-15033725D02*
X10942506Y-15014677D01*
X10942506Y-15014677D02*
X10952030Y-15005153D01*
X10952030Y-15005153D02*
X10971078Y-14995630D01*
X11104411Y-14995630D02*
X11228220Y-14995630D01*
X11228220Y-14995630D02*
X11161554Y-15071820D01*
X11161554Y-15071820D02*
X11190125Y-15071820D01*
X11190125Y-15071820D02*
X11209173Y-15081344D01*
X11209173Y-15081344D02*
X11218697Y-15090868D01*
X11218697Y-15090868D02*
X11228220Y-15109915D01*
X11228220Y-15109915D02*
X11228220Y-15157534D01*
X11228220Y-15157534D02*
X11218697Y-15176582D01*
X11218697Y-15176582D02*
X11209173Y-15186106D01*
X11209173Y-15186106D02*
X11190125Y-15195630D01*
X11190125Y-15195630D02*
X11132982Y-15195630D01*
X11132982Y-15195630D02*
X11113935Y-15186106D01*
X11113935Y-15186106D02*
X11104411Y-15176582D01*
X11304411Y-15014677D02*
X11313935Y-15005153D01*
X11313935Y-15005153D02*
X11332982Y-14995630D01*
X11332982Y-14995630D02*
X11380601Y-14995630D01*
X11380601Y-14995630D02*
X11399649Y-15005153D01*
X11399649Y-15005153D02*
X11409173Y-15014677D01*
X11409173Y-15014677D02*
X11418697Y-15033725D01*
X11418697Y-15033725D02*
X11418697Y-15052772D01*
X11418697Y-15052772D02*
X11409173Y-15081344D01*
X11409173Y-15081344D02*
X11294887Y-15195630D01*
X11294887Y-15195630D02*
X11418697Y-15195630D01*
X11542506Y-14995630D02*
X11561554Y-14995630D01*
X11561554Y-14995630D02*
X11580601Y-15005153D01*
X11580601Y-15005153D02*
X11590125Y-15014677D01*
X11590125Y-15014677D02*
X11599649Y-15033725D01*
X11599649Y-15033725D02*
X11609173Y-15071820D01*
X11609173Y-15071820D02*
X11609173Y-15119439D01*
X11609173Y-15119439D02*
X11599649Y-15157534D01*
X11599649Y-15157534D02*
X11590125Y-15176582D01*
X11590125Y-15176582D02*
X11580601Y-15186106D01*
X11580601Y-15186106D02*
X11561554Y-15195630D01*
X11561554Y-15195630D02*
X11542506Y-15195630D01*
X11542506Y-15195630D02*
X11523459Y-15186106D01*
X11523459Y-15186106D02*
X11513935Y-15176582D01*
X11513935Y-15176582D02*
X11504411Y-15157534D01*
X11504411Y-15157534D02*
X11494887Y-15119439D01*
X11494887Y-15119439D02*
X11494887Y-15071820D01*
X11494887Y-15071820D02*
X11504411Y-15033725D01*
X11504411Y-15033725D02*
X11513935Y-15014677D01*
X11513935Y-15014677D02*
X11523459Y-15005153D01*
X11523459Y-15005153D02*
X11542506Y-14995630D01*
X11685363Y-14995630D02*
X11685363Y-15033725D01*
X11761554Y-14995630D02*
X11761554Y-15033725D01*
X12056792Y-15271820D02*
X12047268Y-15262296D01*
X12047268Y-15262296D02*
X12028221Y-15233725D01*
X12028221Y-15233725D02*
X12018697Y-15214677D01*
X12018697Y-15214677D02*
X12009173Y-15186106D01*
X12009173Y-15186106D02*
X11999649Y-15138487D01*
X11999649Y-15138487D02*
X11999649Y-15100392D01*
X11999649Y-15100392D02*
X12009173Y-15052772D01*
X12009173Y-15052772D02*
X12018697Y-15024201D01*
X12018697Y-15024201D02*
X12028221Y-15005153D01*
X12028221Y-15005153D02*
X12047268Y-14976582D01*
X12047268Y-14976582D02*
X12056792Y-14967058D01*
X12218697Y-15062296D02*
X12218697Y-15195630D01*
X12171078Y-14986106D02*
X12123459Y-15128963D01*
X12123459Y-15128963D02*
X12247268Y-15128963D01*
X12352030Y-15081344D02*
X12332982Y-15071820D01*
X12332982Y-15071820D02*
X12323459Y-15062296D01*
X12323459Y-15062296D02*
X12313935Y-15043249D01*
X12313935Y-15043249D02*
X12313935Y-15033725D01*
X12313935Y-15033725D02*
X12323459Y-15014677D01*
X12323459Y-15014677D02*
X12332982Y-15005153D01*
X12332982Y-15005153D02*
X12352030Y-14995630D01*
X12352030Y-14995630D02*
X12390125Y-14995630D01*
X12390125Y-14995630D02*
X12409173Y-15005153D01*
X12409173Y-15005153D02*
X12418697Y-15014677D01*
X12418697Y-15014677D02*
X12428221Y-15033725D01*
X12428221Y-15033725D02*
X12428221Y-15043249D01*
X12428221Y-15043249D02*
X12418697Y-15062296D01*
X12418697Y-15062296D02*
X12409173Y-15071820D01*
X12409173Y-15071820D02*
X12390125Y-15081344D01*
X12390125Y-15081344D02*
X12352030Y-15081344D01*
X12352030Y-15081344D02*
X12332982Y-15090868D01*
X12332982Y-15090868D02*
X12323459Y-15100392D01*
X12323459Y-15100392D02*
X12313935Y-15119439D01*
X12313935Y-15119439D02*
X12313935Y-15157534D01*
X12313935Y-15157534D02*
X12323459Y-15176582D01*
X12323459Y-15176582D02*
X12332982Y-15186106D01*
X12332982Y-15186106D02*
X12352030Y-15195630D01*
X12352030Y-15195630D02*
X12390125Y-15195630D01*
X12390125Y-15195630D02*
X12409173Y-15186106D01*
X12409173Y-15186106D02*
X12418697Y-15176582D01*
X12418697Y-15176582D02*
X12428221Y-15157534D01*
X12428221Y-15157534D02*
X12428221Y-15119439D01*
X12428221Y-15119439D02*
X12418697Y-15100392D01*
X12418697Y-15100392D02*
X12409173Y-15090868D01*
X12409173Y-15090868D02*
X12390125Y-15081344D01*
X12666316Y-15195630D02*
X12666316Y-14995630D01*
X12752030Y-15195630D02*
X12752030Y-15090868D01*
X12752030Y-15090868D02*
X12742506Y-15071820D01*
X12742506Y-15071820D02*
X12723459Y-15062296D01*
X12723459Y-15062296D02*
X12694887Y-15062296D01*
X12694887Y-15062296D02*
X12675840Y-15071820D01*
X12675840Y-15071820D02*
X12666316Y-15081344D01*
X12875840Y-15195630D02*
X12856792Y-15186106D01*
X12856792Y-15186106D02*
X12847268Y-15176582D01*
X12847268Y-15176582D02*
X12837744Y-15157534D01*
X12837744Y-15157534D02*
X12837744Y-15100392D01*
X12837744Y-15100392D02*
X12847268Y-15081344D01*
X12847268Y-15081344D02*
X12856792Y-15071820D01*
X12856792Y-15071820D02*
X12875840Y-15062296D01*
X12875840Y-15062296D02*
X12904411Y-15062296D01*
X12904411Y-15062296D02*
X12923459Y-15071820D01*
X12923459Y-15071820D02*
X12932983Y-15081344D01*
X12932983Y-15081344D02*
X12942506Y-15100392D01*
X12942506Y-15100392D02*
X12942506Y-15157534D01*
X12942506Y-15157534D02*
X12932983Y-15176582D01*
X12932983Y-15176582D02*
X12923459Y-15186106D01*
X12923459Y-15186106D02*
X12904411Y-15195630D01*
X12904411Y-15195630D02*
X12875840Y-15195630D01*
X13056792Y-15195630D02*
X13037744Y-15186106D01*
X13037744Y-15186106D02*
X13028221Y-15167058D01*
X13028221Y-15167058D02*
X13028221Y-14995630D01*
X13209173Y-15186106D02*
X13190125Y-15195630D01*
X13190125Y-15195630D02*
X13152030Y-15195630D01*
X13152030Y-15195630D02*
X13132983Y-15186106D01*
X13132983Y-15186106D02*
X13123459Y-15167058D01*
X13123459Y-15167058D02*
X13123459Y-15090868D01*
X13123459Y-15090868D02*
X13132983Y-15071820D01*
X13132983Y-15071820D02*
X13152030Y-15062296D01*
X13152030Y-15062296D02*
X13190125Y-15062296D01*
X13190125Y-15062296D02*
X13209173Y-15071820D01*
X13209173Y-15071820D02*
X13218697Y-15090868D01*
X13218697Y-15090868D02*
X13218697Y-15109915D01*
X13218697Y-15109915D02*
X13123459Y-15128963D01*
X13294887Y-15186106D02*
X13313935Y-15195630D01*
X13313935Y-15195630D02*
X13352030Y-15195630D01*
X13352030Y-15195630D02*
X13371078Y-15186106D01*
X13371078Y-15186106D02*
X13380602Y-15167058D01*
X13380602Y-15167058D02*
X13380602Y-15157534D01*
X13380602Y-15157534D02*
X13371078Y-15138487D01*
X13371078Y-15138487D02*
X13352030Y-15128963D01*
X13352030Y-15128963D02*
X13323459Y-15128963D01*
X13323459Y-15128963D02*
X13304411Y-15119439D01*
X13304411Y-15119439D02*
X13294887Y-15100392D01*
X13294887Y-15100392D02*
X13294887Y-15090868D01*
X13294887Y-15090868D02*
X13304411Y-15071820D01*
X13304411Y-15071820D02*
X13323459Y-15062296D01*
X13323459Y-15062296D02*
X13352030Y-15062296D01*
X13352030Y-15062296D02*
X13371078Y-15071820D01*
X13447268Y-15271820D02*
X13456792Y-15262296D01*
X13456792Y-15262296D02*
X13475840Y-15233725D01*
X13475840Y-15233725D02*
X13485364Y-15214677D01*
X13485364Y-15214677D02*
X13494887Y-15186106D01*
X13494887Y-15186106D02*
X13504411Y-15138487D01*
X13504411Y-15138487D02*
X13504411Y-15100392D01*
X13504411Y-15100392D02*
X13494887Y-15052772D01*
X13494887Y-15052772D02*
X13485364Y-15024201D01*
X13485364Y-15024201D02*
X13475840Y-15005153D01*
X13475840Y-15005153D02*
X13456792Y-14976582D01*
X13456792Y-14976582D02*
X13447268Y-14967058D01*
D17*
X8382669Y-15318616D02*
X8481729Y-15417676D01*
X8481729Y-15318616D02*
X8382669Y-15417676D01*
X8481729Y-15368146D02*
G75*
G03*
X8481729Y-15368146I-49530J0D01*
G01*
D11*
X8780601Y-15259630D02*
X8799649Y-15259630D01*
X8799649Y-15259630D02*
X8818697Y-15269153D01*
X8818697Y-15269153D02*
X8828220Y-15278677D01*
X8828220Y-15278677D02*
X8837744Y-15297725D01*
X8837744Y-15297725D02*
X8847268Y-15335820D01*
X8847268Y-15335820D02*
X8847268Y-15383439D01*
X8847268Y-15383439D02*
X8837744Y-15421534D01*
X8837744Y-15421534D02*
X8828220Y-15440582D01*
X8828220Y-15440582D02*
X8818697Y-15450106D01*
X8818697Y-15450106D02*
X8799649Y-15459630D01*
X8799649Y-15459630D02*
X8780601Y-15459630D01*
X8780601Y-15459630D02*
X8761554Y-15450106D01*
X8761554Y-15450106D02*
X8752030Y-15440582D01*
X8752030Y-15440582D02*
X8742506Y-15421534D01*
X8742506Y-15421534D02*
X8732982Y-15383439D01*
X8732982Y-15383439D02*
X8732982Y-15335820D01*
X8732982Y-15335820D02*
X8742506Y-15297725D01*
X8742506Y-15297725D02*
X8752030Y-15278677D01*
X8752030Y-15278677D02*
X8761554Y-15269153D01*
X8761554Y-15269153D02*
X8780601Y-15259630D01*
X8932982Y-15440582D02*
X8942506Y-15450106D01*
X8942506Y-15450106D02*
X8932982Y-15459630D01*
X8932982Y-15459630D02*
X8923458Y-15450106D01*
X8923458Y-15450106D02*
X8932982Y-15440582D01*
X8932982Y-15440582D02*
X8932982Y-15459630D01*
X9037744Y-15459630D02*
X9075839Y-15459630D01*
X9075839Y-15459630D02*
X9094887Y-15450106D01*
X9094887Y-15450106D02*
X9104411Y-15440582D01*
X9104411Y-15440582D02*
X9123458Y-15412011D01*
X9123458Y-15412011D02*
X9132982Y-15373915D01*
X9132982Y-15373915D02*
X9132982Y-15297725D01*
X9132982Y-15297725D02*
X9123458Y-15278677D01*
X9123458Y-15278677D02*
X9113935Y-15269153D01*
X9113935Y-15269153D02*
X9094887Y-15259630D01*
X9094887Y-15259630D02*
X9056792Y-15259630D01*
X9056792Y-15259630D02*
X9037744Y-15269153D01*
X9037744Y-15269153D02*
X9028220Y-15278677D01*
X9028220Y-15278677D02*
X9018697Y-15297725D01*
X9018697Y-15297725D02*
X9018697Y-15345344D01*
X9018697Y-15345344D02*
X9028220Y-15364392D01*
X9028220Y-15364392D02*
X9037744Y-15373915D01*
X9037744Y-15373915D02*
X9056792Y-15383439D01*
X9056792Y-15383439D02*
X9094887Y-15383439D01*
X9094887Y-15383439D02*
X9113935Y-15373915D01*
X9113935Y-15373915D02*
X9123458Y-15364392D01*
X9123458Y-15364392D02*
X9132982Y-15345344D01*
X9228220Y-15459630D02*
X9266316Y-15459630D01*
X9266316Y-15459630D02*
X9285363Y-15450106D01*
X9285363Y-15450106D02*
X9294887Y-15440582D01*
X9294887Y-15440582D02*
X9313935Y-15412011D01*
X9313935Y-15412011D02*
X9323458Y-15373915D01*
X9323458Y-15373915D02*
X9323458Y-15297725D01*
X9323458Y-15297725D02*
X9313935Y-15278677D01*
X9313935Y-15278677D02*
X9304411Y-15269153D01*
X9304411Y-15269153D02*
X9285363Y-15259630D01*
X9285363Y-15259630D02*
X9247268Y-15259630D01*
X9247268Y-15259630D02*
X9228220Y-15269153D01*
X9228220Y-15269153D02*
X9218697Y-15278677D01*
X9218697Y-15278677D02*
X9209173Y-15297725D01*
X9209173Y-15297725D02*
X9209173Y-15345344D01*
X9209173Y-15345344D02*
X9218697Y-15364392D01*
X9218697Y-15364392D02*
X9228220Y-15373915D01*
X9228220Y-15373915D02*
X9247268Y-15383439D01*
X9247268Y-15383439D02*
X9285363Y-15383439D01*
X9285363Y-15383439D02*
X9304411Y-15373915D01*
X9304411Y-15373915D02*
X9313935Y-15364392D01*
X9313935Y-15364392D02*
X9323458Y-15345344D01*
X9513935Y-15459630D02*
X9399649Y-15459630D01*
X9456792Y-15459630D02*
X9456792Y-15259630D01*
X9456792Y-15259630D02*
X9437744Y-15288201D01*
X9437744Y-15288201D02*
X9418697Y-15307249D01*
X9418697Y-15307249D02*
X9399649Y-15316772D01*
X9599649Y-15459630D02*
X9599649Y-15326296D01*
X9599649Y-15345344D02*
X9609173Y-15335820D01*
X9609173Y-15335820D02*
X9628220Y-15326296D01*
X9628220Y-15326296D02*
X9656792Y-15326296D01*
X9656792Y-15326296D02*
X9675839Y-15335820D01*
X9675839Y-15335820D02*
X9685363Y-15354868D01*
X9685363Y-15354868D02*
X9685363Y-15459630D01*
X9685363Y-15354868D02*
X9694887Y-15335820D01*
X9694887Y-15335820D02*
X9713935Y-15326296D01*
X9713935Y-15326296D02*
X9742506Y-15326296D01*
X9742506Y-15326296D02*
X9761554Y-15335820D01*
X9761554Y-15335820D02*
X9771078Y-15354868D01*
X9771078Y-15354868D02*
X9771078Y-15459630D01*
X9866316Y-15459630D02*
X9866316Y-15326296D01*
X9866316Y-15345344D02*
X9875839Y-15335820D01*
X9875839Y-15335820D02*
X9894887Y-15326296D01*
X9894887Y-15326296D02*
X9923459Y-15326296D01*
X9923459Y-15326296D02*
X9942506Y-15335820D01*
X9942506Y-15335820D02*
X9952030Y-15354868D01*
X9952030Y-15354868D02*
X9952030Y-15459630D01*
X9952030Y-15354868D02*
X9961554Y-15335820D01*
X9961554Y-15335820D02*
X9980601Y-15326296D01*
X9980601Y-15326296D02*
X10009173Y-15326296D01*
X10009173Y-15326296D02*
X10028220Y-15335820D01*
X10028220Y-15335820D02*
X10037744Y-15354868D01*
X10037744Y-15354868D02*
X10037744Y-15459630D01*
X10428220Y-15250106D02*
X10256792Y-15507249D01*
X10685363Y-15259630D02*
X10704411Y-15259630D01*
X10704411Y-15259630D02*
X10723459Y-15269153D01*
X10723459Y-15269153D02*
X10732982Y-15278677D01*
X10732982Y-15278677D02*
X10742506Y-15297725D01*
X10742506Y-15297725D02*
X10752030Y-15335820D01*
X10752030Y-15335820D02*
X10752030Y-15383439D01*
X10752030Y-15383439D02*
X10742506Y-15421534D01*
X10742506Y-15421534D02*
X10732982Y-15440582D01*
X10732982Y-15440582D02*
X10723459Y-15450106D01*
X10723459Y-15450106D02*
X10704411Y-15459630D01*
X10704411Y-15459630D02*
X10685363Y-15459630D01*
X10685363Y-15459630D02*
X10666316Y-15450106D01*
X10666316Y-15450106D02*
X10656792Y-15440582D01*
X10656792Y-15440582D02*
X10647268Y-15421534D01*
X10647268Y-15421534D02*
X10637744Y-15383439D01*
X10637744Y-15383439D02*
X10637744Y-15335820D01*
X10637744Y-15335820D02*
X10647268Y-15297725D01*
X10647268Y-15297725D02*
X10656792Y-15278677D01*
X10656792Y-15278677D02*
X10666316Y-15269153D01*
X10666316Y-15269153D02*
X10685363Y-15259630D01*
X10837744Y-15440582D02*
X10847268Y-15450106D01*
X10847268Y-15450106D02*
X10837744Y-15459630D01*
X10837744Y-15459630D02*
X10828221Y-15450106D01*
X10828221Y-15450106D02*
X10837744Y-15440582D01*
X10837744Y-15440582D02*
X10837744Y-15459630D01*
X10971078Y-15259630D02*
X10990125Y-15259630D01*
X10990125Y-15259630D02*
X11009173Y-15269153D01*
X11009173Y-15269153D02*
X11018697Y-15278677D01*
X11018697Y-15278677D02*
X11028221Y-15297725D01*
X11028221Y-15297725D02*
X11037744Y-15335820D01*
X11037744Y-15335820D02*
X11037744Y-15383439D01*
X11037744Y-15383439D02*
X11028221Y-15421534D01*
X11028221Y-15421534D02*
X11018697Y-15440582D01*
X11018697Y-15440582D02*
X11009173Y-15450106D01*
X11009173Y-15450106D02*
X10990125Y-15459630D01*
X10990125Y-15459630D02*
X10971078Y-15459630D01*
X10971078Y-15459630D02*
X10952030Y-15450106D01*
X10952030Y-15450106D02*
X10942506Y-15440582D01*
X10942506Y-15440582D02*
X10932982Y-15421534D01*
X10932982Y-15421534D02*
X10923459Y-15383439D01*
X10923459Y-15383439D02*
X10923459Y-15335820D01*
X10923459Y-15335820D02*
X10932982Y-15297725D01*
X10932982Y-15297725D02*
X10942506Y-15278677D01*
X10942506Y-15278677D02*
X10952030Y-15269153D01*
X10952030Y-15269153D02*
X10971078Y-15259630D01*
X11104411Y-15259630D02*
X11228220Y-15259630D01*
X11228220Y-15259630D02*
X11161554Y-15335820D01*
X11161554Y-15335820D02*
X11190125Y-15335820D01*
X11190125Y-15335820D02*
X11209173Y-15345344D01*
X11209173Y-15345344D02*
X11218697Y-15354868D01*
X11218697Y-15354868D02*
X11228220Y-15373915D01*
X11228220Y-15373915D02*
X11228220Y-15421534D01*
X11228220Y-15421534D02*
X11218697Y-15440582D01*
X11218697Y-15440582D02*
X11209173Y-15450106D01*
X11209173Y-15450106D02*
X11190125Y-15459630D01*
X11190125Y-15459630D02*
X11132982Y-15459630D01*
X11132982Y-15459630D02*
X11113935Y-15450106D01*
X11113935Y-15450106D02*
X11104411Y-15440582D01*
X11323459Y-15459630D02*
X11361554Y-15459630D01*
X11361554Y-15459630D02*
X11380601Y-15450106D01*
X11380601Y-15450106D02*
X11390125Y-15440582D01*
X11390125Y-15440582D02*
X11409173Y-15412011D01*
X11409173Y-15412011D02*
X11418697Y-15373915D01*
X11418697Y-15373915D02*
X11418697Y-15297725D01*
X11418697Y-15297725D02*
X11409173Y-15278677D01*
X11409173Y-15278677D02*
X11399649Y-15269153D01*
X11399649Y-15269153D02*
X11380601Y-15259630D01*
X11380601Y-15259630D02*
X11342506Y-15259630D01*
X11342506Y-15259630D02*
X11323459Y-15269153D01*
X11323459Y-15269153D02*
X11313935Y-15278677D01*
X11313935Y-15278677D02*
X11304411Y-15297725D01*
X11304411Y-15297725D02*
X11304411Y-15345344D01*
X11304411Y-15345344D02*
X11313935Y-15364392D01*
X11313935Y-15364392D02*
X11323459Y-15373915D01*
X11323459Y-15373915D02*
X11342506Y-15383439D01*
X11342506Y-15383439D02*
X11380601Y-15383439D01*
X11380601Y-15383439D02*
X11399649Y-15373915D01*
X11399649Y-15373915D02*
X11409173Y-15364392D01*
X11409173Y-15364392D02*
X11418697Y-15345344D01*
X11542506Y-15259630D02*
X11561554Y-15259630D01*
X11561554Y-15259630D02*
X11580601Y-15269153D01*
X11580601Y-15269153D02*
X11590125Y-15278677D01*
X11590125Y-15278677D02*
X11599649Y-15297725D01*
X11599649Y-15297725D02*
X11609173Y-15335820D01*
X11609173Y-15335820D02*
X11609173Y-15383439D01*
X11609173Y-15383439D02*
X11599649Y-15421534D01*
X11599649Y-15421534D02*
X11590125Y-15440582D01*
X11590125Y-15440582D02*
X11580601Y-15450106D01*
X11580601Y-15450106D02*
X11561554Y-15459630D01*
X11561554Y-15459630D02*
X11542506Y-15459630D01*
X11542506Y-15459630D02*
X11523459Y-15450106D01*
X11523459Y-15450106D02*
X11513935Y-15440582D01*
X11513935Y-15440582D02*
X11504411Y-15421534D01*
X11504411Y-15421534D02*
X11494887Y-15383439D01*
X11494887Y-15383439D02*
X11494887Y-15335820D01*
X11494887Y-15335820D02*
X11504411Y-15297725D01*
X11504411Y-15297725D02*
X11513935Y-15278677D01*
X11513935Y-15278677D02*
X11523459Y-15269153D01*
X11523459Y-15269153D02*
X11542506Y-15259630D01*
X11685363Y-15259630D02*
X11685363Y-15297725D01*
X11761554Y-15259630D02*
X11761554Y-15297725D01*
X12056792Y-15535820D02*
X12047268Y-15526296D01*
X12047268Y-15526296D02*
X12028221Y-15497725D01*
X12028221Y-15497725D02*
X12018697Y-15478677D01*
X12018697Y-15478677D02*
X12009173Y-15450106D01*
X12009173Y-15450106D02*
X11999649Y-15402487D01*
X11999649Y-15402487D02*
X11999649Y-15364392D01*
X11999649Y-15364392D02*
X12009173Y-15316772D01*
X12009173Y-15316772D02*
X12018697Y-15288201D01*
X12018697Y-15288201D02*
X12028221Y-15269153D01*
X12028221Y-15269153D02*
X12047268Y-15240582D01*
X12047268Y-15240582D02*
X12056792Y-15231058D01*
X12218697Y-15259630D02*
X12180601Y-15259630D01*
X12180601Y-15259630D02*
X12161554Y-15269153D01*
X12161554Y-15269153D02*
X12152030Y-15278677D01*
X12152030Y-15278677D02*
X12132982Y-15307249D01*
X12132982Y-15307249D02*
X12123459Y-15345344D01*
X12123459Y-15345344D02*
X12123459Y-15421534D01*
X12123459Y-15421534D02*
X12132982Y-15440582D01*
X12132982Y-15440582D02*
X12142506Y-15450106D01*
X12142506Y-15450106D02*
X12161554Y-15459630D01*
X12161554Y-15459630D02*
X12199649Y-15459630D01*
X12199649Y-15459630D02*
X12218697Y-15450106D01*
X12218697Y-15450106D02*
X12228221Y-15440582D01*
X12228221Y-15440582D02*
X12237744Y-15421534D01*
X12237744Y-15421534D02*
X12237744Y-15373915D01*
X12237744Y-15373915D02*
X12228221Y-15354868D01*
X12228221Y-15354868D02*
X12218697Y-15345344D01*
X12218697Y-15345344D02*
X12199649Y-15335820D01*
X12199649Y-15335820D02*
X12161554Y-15335820D01*
X12161554Y-15335820D02*
X12142506Y-15345344D01*
X12142506Y-15345344D02*
X12132982Y-15354868D01*
X12132982Y-15354868D02*
X12123459Y-15373915D01*
X12475840Y-15459630D02*
X12475840Y-15259630D01*
X12561554Y-15459630D02*
X12561554Y-15354868D01*
X12561554Y-15354868D02*
X12552030Y-15335820D01*
X12552030Y-15335820D02*
X12532983Y-15326296D01*
X12532983Y-15326296D02*
X12504411Y-15326296D01*
X12504411Y-15326296D02*
X12485363Y-15335820D01*
X12485363Y-15335820D02*
X12475840Y-15345344D01*
X12685363Y-15459630D02*
X12666316Y-15450106D01*
X12666316Y-15450106D02*
X12656792Y-15440582D01*
X12656792Y-15440582D02*
X12647268Y-15421534D01*
X12647268Y-15421534D02*
X12647268Y-15364392D01*
X12647268Y-15364392D02*
X12656792Y-15345344D01*
X12656792Y-15345344D02*
X12666316Y-15335820D01*
X12666316Y-15335820D02*
X12685363Y-15326296D01*
X12685363Y-15326296D02*
X12713935Y-15326296D01*
X12713935Y-15326296D02*
X12732983Y-15335820D01*
X12732983Y-15335820D02*
X12742506Y-15345344D01*
X12742506Y-15345344D02*
X12752030Y-15364392D01*
X12752030Y-15364392D02*
X12752030Y-15421534D01*
X12752030Y-15421534D02*
X12742506Y-15440582D01*
X12742506Y-15440582D02*
X12732983Y-15450106D01*
X12732983Y-15450106D02*
X12713935Y-15459630D01*
X12713935Y-15459630D02*
X12685363Y-15459630D01*
X12866316Y-15459630D02*
X12847268Y-15450106D01*
X12847268Y-15450106D02*
X12837744Y-15431058D01*
X12837744Y-15431058D02*
X12837744Y-15259630D01*
X13018697Y-15450106D02*
X12999649Y-15459630D01*
X12999649Y-15459630D02*
X12961554Y-15459630D01*
X12961554Y-15459630D02*
X12942506Y-15450106D01*
X12942506Y-15450106D02*
X12932983Y-15431058D01*
X12932983Y-15431058D02*
X12932983Y-15354868D01*
X12932983Y-15354868D02*
X12942506Y-15335820D01*
X12942506Y-15335820D02*
X12961554Y-15326296D01*
X12961554Y-15326296D02*
X12999649Y-15326296D01*
X12999649Y-15326296D02*
X13018697Y-15335820D01*
X13018697Y-15335820D02*
X13028221Y-15354868D01*
X13028221Y-15354868D02*
X13028221Y-15373915D01*
X13028221Y-15373915D02*
X12932983Y-15392963D01*
X13104411Y-15450106D02*
X13123459Y-15459630D01*
X13123459Y-15459630D02*
X13161554Y-15459630D01*
X13161554Y-15459630D02*
X13180602Y-15450106D01*
X13180602Y-15450106D02*
X13190125Y-15431058D01*
X13190125Y-15431058D02*
X13190125Y-15421534D01*
X13190125Y-15421534D02*
X13180602Y-15402487D01*
X13180602Y-15402487D02*
X13161554Y-15392963D01*
X13161554Y-15392963D02*
X13132983Y-15392963D01*
X13132983Y-15392963D02*
X13113935Y-15383439D01*
X13113935Y-15383439D02*
X13104411Y-15364392D01*
X13104411Y-15364392D02*
X13104411Y-15354868D01*
X13104411Y-15354868D02*
X13113935Y-15335820D01*
X13113935Y-15335820D02*
X13132983Y-15326296D01*
X13132983Y-15326296D02*
X13161554Y-15326296D01*
X13161554Y-15326296D02*
X13180602Y-15335820D01*
X13256792Y-15535820D02*
X13266316Y-15526296D01*
X13266316Y-15526296D02*
X13285364Y-15497725D01*
X13285364Y-15497725D02*
X13294887Y-15478677D01*
X13294887Y-15478677D02*
X13304411Y-15450106D01*
X13304411Y-15450106D02*
X13313935Y-15402487D01*
X13313935Y-15402487D02*
X13313935Y-15364392D01*
X13313935Y-15364392D02*
X13304411Y-15316772D01*
X13304411Y-15316772D02*
X13294887Y-15288201D01*
X13294887Y-15288201D02*
X13285364Y-15269153D01*
X13285364Y-15269153D02*
X13266316Y-15240582D01*
X13266316Y-15240582D02*
X13256792Y-15231058D01*
D18*
X8381729Y-15582146D02*
X8481729Y-15682146D01*
X8481729Y-15582146D02*
X8381729Y-15682146D01*
X8431729Y-15582146D02*
X8431729Y-15682146D01*
X8381729Y-15632146D02*
X8481729Y-15632146D01*
D11*
X8847268Y-15723630D02*
X8732982Y-15723630D01*
X8790125Y-15723630D02*
X8790125Y-15523630D01*
X8790125Y-15523630D02*
X8771077Y-15552201D01*
X8771077Y-15552201D02*
X8752030Y-15571249D01*
X8752030Y-15571249D02*
X8732982Y-15580772D01*
X8932982Y-15704582D02*
X8942506Y-15714106D01*
X8942506Y-15714106D02*
X8932982Y-15723630D01*
X8932982Y-15723630D02*
X8923458Y-15714106D01*
X8923458Y-15714106D02*
X8932982Y-15704582D01*
X8932982Y-15704582D02*
X8932982Y-15723630D01*
X9066316Y-15523630D02*
X9085363Y-15523630D01*
X9085363Y-15523630D02*
X9104411Y-15533153D01*
X9104411Y-15533153D02*
X9113935Y-15542677D01*
X9113935Y-15542677D02*
X9123458Y-15561725D01*
X9123458Y-15561725D02*
X9132982Y-15599820D01*
X9132982Y-15599820D02*
X9132982Y-15647439D01*
X9132982Y-15647439D02*
X9123458Y-15685534D01*
X9123458Y-15685534D02*
X9113935Y-15704582D01*
X9113935Y-15704582D02*
X9104411Y-15714106D01*
X9104411Y-15714106D02*
X9085363Y-15723630D01*
X9085363Y-15723630D02*
X9066316Y-15723630D01*
X9066316Y-15723630D02*
X9047268Y-15714106D01*
X9047268Y-15714106D02*
X9037744Y-15704582D01*
X9037744Y-15704582D02*
X9028220Y-15685534D01*
X9028220Y-15685534D02*
X9018697Y-15647439D01*
X9018697Y-15647439D02*
X9018697Y-15599820D01*
X9018697Y-15599820D02*
X9028220Y-15561725D01*
X9028220Y-15561725D02*
X9037744Y-15542677D01*
X9037744Y-15542677D02*
X9047268Y-15533153D01*
X9047268Y-15533153D02*
X9066316Y-15523630D01*
X9256792Y-15523630D02*
X9275839Y-15523630D01*
X9275839Y-15523630D02*
X9294887Y-15533153D01*
X9294887Y-15533153D02*
X9304411Y-15542677D01*
X9304411Y-15542677D02*
X9313935Y-15561725D01*
X9313935Y-15561725D02*
X9323458Y-15599820D01*
X9323458Y-15599820D02*
X9323458Y-15647439D01*
X9323458Y-15647439D02*
X9313935Y-15685534D01*
X9313935Y-15685534D02*
X9304411Y-15704582D01*
X9304411Y-15704582D02*
X9294887Y-15714106D01*
X9294887Y-15714106D02*
X9275839Y-15723630D01*
X9275839Y-15723630D02*
X9256792Y-15723630D01*
X9256792Y-15723630D02*
X9237744Y-15714106D01*
X9237744Y-15714106D02*
X9228220Y-15704582D01*
X9228220Y-15704582D02*
X9218697Y-15685534D01*
X9218697Y-15685534D02*
X9209173Y-15647439D01*
X9209173Y-15647439D02*
X9209173Y-15599820D01*
X9209173Y-15599820D02*
X9218697Y-15561725D01*
X9218697Y-15561725D02*
X9228220Y-15542677D01*
X9228220Y-15542677D02*
X9237744Y-15533153D01*
X9237744Y-15533153D02*
X9256792Y-15523630D01*
X9447268Y-15523630D02*
X9466316Y-15523630D01*
X9466316Y-15523630D02*
X9485363Y-15533153D01*
X9485363Y-15533153D02*
X9494887Y-15542677D01*
X9494887Y-15542677D02*
X9504411Y-15561725D01*
X9504411Y-15561725D02*
X9513935Y-15599820D01*
X9513935Y-15599820D02*
X9513935Y-15647439D01*
X9513935Y-15647439D02*
X9504411Y-15685534D01*
X9504411Y-15685534D02*
X9494887Y-15704582D01*
X9494887Y-15704582D02*
X9485363Y-15714106D01*
X9485363Y-15714106D02*
X9466316Y-15723630D01*
X9466316Y-15723630D02*
X9447268Y-15723630D01*
X9447268Y-15723630D02*
X9428220Y-15714106D01*
X9428220Y-15714106D02*
X9418697Y-15704582D01*
X9418697Y-15704582D02*
X9409173Y-15685534D01*
X9409173Y-15685534D02*
X9399649Y-15647439D01*
X9399649Y-15647439D02*
X9399649Y-15599820D01*
X9399649Y-15599820D02*
X9409173Y-15561725D01*
X9409173Y-15561725D02*
X9418697Y-15542677D01*
X9418697Y-15542677D02*
X9428220Y-15533153D01*
X9428220Y-15533153D02*
X9447268Y-15523630D01*
X9599649Y-15723630D02*
X9599649Y-15590296D01*
X9599649Y-15609344D02*
X9609173Y-15599820D01*
X9609173Y-15599820D02*
X9628220Y-15590296D01*
X9628220Y-15590296D02*
X9656792Y-15590296D01*
X9656792Y-15590296D02*
X9675839Y-15599820D01*
X9675839Y-15599820D02*
X9685363Y-15618868D01*
X9685363Y-15618868D02*
X9685363Y-15723630D01*
X9685363Y-15618868D02*
X9694887Y-15599820D01*
X9694887Y-15599820D02*
X9713935Y-15590296D01*
X9713935Y-15590296D02*
X9742506Y-15590296D01*
X9742506Y-15590296D02*
X9761554Y-15599820D01*
X9761554Y-15599820D02*
X9771078Y-15618868D01*
X9771078Y-15618868D02*
X9771078Y-15723630D01*
X9866316Y-15723630D02*
X9866316Y-15590296D01*
X9866316Y-15609344D02*
X9875839Y-15599820D01*
X9875839Y-15599820D02*
X9894887Y-15590296D01*
X9894887Y-15590296D02*
X9923459Y-15590296D01*
X9923459Y-15590296D02*
X9942506Y-15599820D01*
X9942506Y-15599820D02*
X9952030Y-15618868D01*
X9952030Y-15618868D02*
X9952030Y-15723630D01*
X9952030Y-15618868D02*
X9961554Y-15599820D01*
X9961554Y-15599820D02*
X9980601Y-15590296D01*
X9980601Y-15590296D02*
X10009173Y-15590296D01*
X10009173Y-15590296D02*
X10028220Y-15599820D01*
X10028220Y-15599820D02*
X10037744Y-15618868D01*
X10037744Y-15618868D02*
X10037744Y-15723630D01*
X10428220Y-15514106D02*
X10256792Y-15771249D01*
X10685363Y-15523630D02*
X10704411Y-15523630D01*
X10704411Y-15523630D02*
X10723459Y-15533153D01*
X10723459Y-15533153D02*
X10732982Y-15542677D01*
X10732982Y-15542677D02*
X10742506Y-15561725D01*
X10742506Y-15561725D02*
X10752030Y-15599820D01*
X10752030Y-15599820D02*
X10752030Y-15647439D01*
X10752030Y-15647439D02*
X10742506Y-15685534D01*
X10742506Y-15685534D02*
X10732982Y-15704582D01*
X10732982Y-15704582D02*
X10723459Y-15714106D01*
X10723459Y-15714106D02*
X10704411Y-15723630D01*
X10704411Y-15723630D02*
X10685363Y-15723630D01*
X10685363Y-15723630D02*
X10666316Y-15714106D01*
X10666316Y-15714106D02*
X10656792Y-15704582D01*
X10656792Y-15704582D02*
X10647268Y-15685534D01*
X10647268Y-15685534D02*
X10637744Y-15647439D01*
X10637744Y-15647439D02*
X10637744Y-15599820D01*
X10637744Y-15599820D02*
X10647268Y-15561725D01*
X10647268Y-15561725D02*
X10656792Y-15542677D01*
X10656792Y-15542677D02*
X10666316Y-15533153D01*
X10666316Y-15533153D02*
X10685363Y-15523630D01*
X10837744Y-15704582D02*
X10847268Y-15714106D01*
X10847268Y-15714106D02*
X10837744Y-15723630D01*
X10837744Y-15723630D02*
X10828221Y-15714106D01*
X10828221Y-15714106D02*
X10837744Y-15704582D01*
X10837744Y-15704582D02*
X10837744Y-15723630D01*
X10971078Y-15523630D02*
X10990125Y-15523630D01*
X10990125Y-15523630D02*
X11009173Y-15533153D01*
X11009173Y-15533153D02*
X11018697Y-15542677D01*
X11018697Y-15542677D02*
X11028221Y-15561725D01*
X11028221Y-15561725D02*
X11037744Y-15599820D01*
X11037744Y-15599820D02*
X11037744Y-15647439D01*
X11037744Y-15647439D02*
X11028221Y-15685534D01*
X11028221Y-15685534D02*
X11018697Y-15704582D01*
X11018697Y-15704582D02*
X11009173Y-15714106D01*
X11009173Y-15714106D02*
X10990125Y-15723630D01*
X10990125Y-15723630D02*
X10971078Y-15723630D01*
X10971078Y-15723630D02*
X10952030Y-15714106D01*
X10952030Y-15714106D02*
X10942506Y-15704582D01*
X10942506Y-15704582D02*
X10932982Y-15685534D01*
X10932982Y-15685534D02*
X10923459Y-15647439D01*
X10923459Y-15647439D02*
X10923459Y-15599820D01*
X10923459Y-15599820D02*
X10932982Y-15561725D01*
X10932982Y-15561725D02*
X10942506Y-15542677D01*
X10942506Y-15542677D02*
X10952030Y-15533153D01*
X10952030Y-15533153D02*
X10971078Y-15523630D01*
X11104411Y-15523630D02*
X11228220Y-15523630D01*
X11228220Y-15523630D02*
X11161554Y-15599820D01*
X11161554Y-15599820D02*
X11190125Y-15599820D01*
X11190125Y-15599820D02*
X11209173Y-15609344D01*
X11209173Y-15609344D02*
X11218697Y-15618868D01*
X11218697Y-15618868D02*
X11228220Y-15637915D01*
X11228220Y-15637915D02*
X11228220Y-15685534D01*
X11228220Y-15685534D02*
X11218697Y-15704582D01*
X11218697Y-15704582D02*
X11209173Y-15714106D01*
X11209173Y-15714106D02*
X11190125Y-15723630D01*
X11190125Y-15723630D02*
X11132982Y-15723630D01*
X11132982Y-15723630D02*
X11113935Y-15714106D01*
X11113935Y-15714106D02*
X11104411Y-15704582D01*
X11323459Y-15723630D02*
X11361554Y-15723630D01*
X11361554Y-15723630D02*
X11380601Y-15714106D01*
X11380601Y-15714106D02*
X11390125Y-15704582D01*
X11390125Y-15704582D02*
X11409173Y-15676011D01*
X11409173Y-15676011D02*
X11418697Y-15637915D01*
X11418697Y-15637915D02*
X11418697Y-15561725D01*
X11418697Y-15561725D02*
X11409173Y-15542677D01*
X11409173Y-15542677D02*
X11399649Y-15533153D01*
X11399649Y-15533153D02*
X11380601Y-15523630D01*
X11380601Y-15523630D02*
X11342506Y-15523630D01*
X11342506Y-15523630D02*
X11323459Y-15533153D01*
X11323459Y-15533153D02*
X11313935Y-15542677D01*
X11313935Y-15542677D02*
X11304411Y-15561725D01*
X11304411Y-15561725D02*
X11304411Y-15609344D01*
X11304411Y-15609344D02*
X11313935Y-15628392D01*
X11313935Y-15628392D02*
X11323459Y-15637915D01*
X11323459Y-15637915D02*
X11342506Y-15647439D01*
X11342506Y-15647439D02*
X11380601Y-15647439D01*
X11380601Y-15647439D02*
X11399649Y-15637915D01*
X11399649Y-15637915D02*
X11409173Y-15628392D01*
X11409173Y-15628392D02*
X11418697Y-15609344D01*
X11590125Y-15590296D02*
X11590125Y-15723630D01*
X11542506Y-15514106D02*
X11494887Y-15656963D01*
X11494887Y-15656963D02*
X11618697Y-15656963D01*
X11685363Y-15523630D02*
X11685363Y-15561725D01*
X11761554Y-15523630D02*
X11761554Y-15561725D01*
X12056792Y-15799820D02*
X12047268Y-15790296D01*
X12047268Y-15790296D02*
X12028221Y-15761725D01*
X12028221Y-15761725D02*
X12018697Y-15742677D01*
X12018697Y-15742677D02*
X12009173Y-15714106D01*
X12009173Y-15714106D02*
X11999649Y-15666487D01*
X11999649Y-15666487D02*
X11999649Y-15628392D01*
X11999649Y-15628392D02*
X12009173Y-15580772D01*
X12009173Y-15580772D02*
X12018697Y-15552201D01*
X12018697Y-15552201D02*
X12028221Y-15533153D01*
X12028221Y-15533153D02*
X12047268Y-15504582D01*
X12047268Y-15504582D02*
X12056792Y-15495058D01*
X12218697Y-15590296D02*
X12218697Y-15723630D01*
X12171078Y-15514106D02*
X12123459Y-15656963D01*
X12123459Y-15656963D02*
X12247268Y-15656963D01*
X12475840Y-15723630D02*
X12475840Y-15523630D01*
X12561554Y-15723630D02*
X12561554Y-15618868D01*
X12561554Y-15618868D02*
X12552030Y-15599820D01*
X12552030Y-15599820D02*
X12532983Y-15590296D01*
X12532983Y-15590296D02*
X12504411Y-15590296D01*
X12504411Y-15590296D02*
X12485363Y-15599820D01*
X12485363Y-15599820D02*
X12475840Y-15609344D01*
X12685363Y-15723630D02*
X12666316Y-15714106D01*
X12666316Y-15714106D02*
X12656792Y-15704582D01*
X12656792Y-15704582D02*
X12647268Y-15685534D01*
X12647268Y-15685534D02*
X12647268Y-15628392D01*
X12647268Y-15628392D02*
X12656792Y-15609344D01*
X12656792Y-15609344D02*
X12666316Y-15599820D01*
X12666316Y-15599820D02*
X12685363Y-15590296D01*
X12685363Y-15590296D02*
X12713935Y-15590296D01*
X12713935Y-15590296D02*
X12732983Y-15599820D01*
X12732983Y-15599820D02*
X12742506Y-15609344D01*
X12742506Y-15609344D02*
X12752030Y-15628392D01*
X12752030Y-15628392D02*
X12752030Y-15685534D01*
X12752030Y-15685534D02*
X12742506Y-15704582D01*
X12742506Y-15704582D02*
X12732983Y-15714106D01*
X12732983Y-15714106D02*
X12713935Y-15723630D01*
X12713935Y-15723630D02*
X12685363Y-15723630D01*
X12866316Y-15723630D02*
X12847268Y-15714106D01*
X12847268Y-15714106D02*
X12837744Y-15695058D01*
X12837744Y-15695058D02*
X12837744Y-15523630D01*
X13018697Y-15714106D02*
X12999649Y-15723630D01*
X12999649Y-15723630D02*
X12961554Y-15723630D01*
X12961554Y-15723630D02*
X12942506Y-15714106D01*
X12942506Y-15714106D02*
X12932983Y-15695058D01*
X12932983Y-15695058D02*
X12932983Y-15618868D01*
X12932983Y-15618868D02*
X12942506Y-15599820D01*
X12942506Y-15599820D02*
X12961554Y-15590296D01*
X12961554Y-15590296D02*
X12999649Y-15590296D01*
X12999649Y-15590296D02*
X13018697Y-15599820D01*
X13018697Y-15599820D02*
X13028221Y-15618868D01*
X13028221Y-15618868D02*
X13028221Y-15637915D01*
X13028221Y-15637915D02*
X12932983Y-15656963D01*
X13104411Y-15714106D02*
X13123459Y-15723630D01*
X13123459Y-15723630D02*
X13161554Y-15723630D01*
X13161554Y-15723630D02*
X13180602Y-15714106D01*
X13180602Y-15714106D02*
X13190125Y-15695058D01*
X13190125Y-15695058D02*
X13190125Y-15685534D01*
X13190125Y-15685534D02*
X13180602Y-15666487D01*
X13180602Y-15666487D02*
X13161554Y-15656963D01*
X13161554Y-15656963D02*
X13132983Y-15656963D01*
X13132983Y-15656963D02*
X13113935Y-15647439D01*
X13113935Y-15647439D02*
X13104411Y-15628392D01*
X13104411Y-15628392D02*
X13104411Y-15618868D01*
X13104411Y-15618868D02*
X13113935Y-15599820D01*
X13113935Y-15599820D02*
X13132983Y-15590296D01*
X13132983Y-15590296D02*
X13161554Y-15590296D01*
X13161554Y-15590296D02*
X13180602Y-15599820D01*
X13256792Y-15799820D02*
X13266316Y-15790296D01*
X13266316Y-15790296D02*
X13285364Y-15761725D01*
X13285364Y-15761725D02*
X13294887Y-15742677D01*
X13294887Y-15742677D02*
X13304411Y-15714106D01*
X13304411Y-15714106D02*
X13313935Y-15666487D01*
X13313935Y-15666487D02*
X13313935Y-15628392D01*
X13313935Y-15628392D02*
X13304411Y-15580772D01*
X13304411Y-15580772D02*
X13294887Y-15552201D01*
X13294887Y-15552201D02*
X13285364Y-15533153D01*
X13285364Y-15533153D02*
X13266316Y-15504582D01*
X13266316Y-15504582D02*
X13256792Y-15495058D01*
D19*
X8354729Y-15832646D02*
X8481729Y-15959646D01*
X8481729Y-15832646D02*
X8354729Y-15959646D01*
X8463131Y-15941048D02*
X8463131Y-15851244D01*
X8373327Y-15851244D01*
X8373327Y-15941048D01*
X8463131Y-15941048D01*
D11*
X8847268Y-15987630D02*
X8732982Y-15987630D01*
X8790125Y-15987630D02*
X8790125Y-15787630D01*
X8790125Y-15787630D02*
X8771077Y-15816201D01*
X8771077Y-15816201D02*
X8752030Y-15835249D01*
X8752030Y-15835249D02*
X8732982Y-15844772D01*
X8932982Y-15968582D02*
X8942506Y-15978106D01*
X8942506Y-15978106D02*
X8932982Y-15987630D01*
X8932982Y-15987630D02*
X8923458Y-15978106D01*
X8923458Y-15978106D02*
X8932982Y-15968582D01*
X8932982Y-15968582D02*
X8932982Y-15987630D01*
X9018697Y-15806677D02*
X9028220Y-15797153D01*
X9028220Y-15797153D02*
X9047268Y-15787630D01*
X9047268Y-15787630D02*
X9094887Y-15787630D01*
X9094887Y-15787630D02*
X9113935Y-15797153D01*
X9113935Y-15797153D02*
X9123458Y-15806677D01*
X9123458Y-15806677D02*
X9132982Y-15825725D01*
X9132982Y-15825725D02*
X9132982Y-15844772D01*
X9132982Y-15844772D02*
X9123458Y-15873344D01*
X9123458Y-15873344D02*
X9009173Y-15987630D01*
X9009173Y-15987630D02*
X9132982Y-15987630D01*
X9199649Y-15787630D02*
X9332982Y-15787630D01*
X9332982Y-15787630D02*
X9247268Y-15987630D01*
X9447268Y-15787630D02*
X9466316Y-15787630D01*
X9466316Y-15787630D02*
X9485363Y-15797153D01*
X9485363Y-15797153D02*
X9494887Y-15806677D01*
X9494887Y-15806677D02*
X9504411Y-15825725D01*
X9504411Y-15825725D02*
X9513935Y-15863820D01*
X9513935Y-15863820D02*
X9513935Y-15911439D01*
X9513935Y-15911439D02*
X9504411Y-15949534D01*
X9504411Y-15949534D02*
X9494887Y-15968582D01*
X9494887Y-15968582D02*
X9485363Y-15978106D01*
X9485363Y-15978106D02*
X9466316Y-15987630D01*
X9466316Y-15987630D02*
X9447268Y-15987630D01*
X9447268Y-15987630D02*
X9428220Y-15978106D01*
X9428220Y-15978106D02*
X9418697Y-15968582D01*
X9418697Y-15968582D02*
X9409173Y-15949534D01*
X9409173Y-15949534D02*
X9399649Y-15911439D01*
X9399649Y-15911439D02*
X9399649Y-15863820D01*
X9399649Y-15863820D02*
X9409173Y-15825725D01*
X9409173Y-15825725D02*
X9418697Y-15806677D01*
X9418697Y-15806677D02*
X9428220Y-15797153D01*
X9428220Y-15797153D02*
X9447268Y-15787630D01*
X9599649Y-15987630D02*
X9599649Y-15854296D01*
X9599649Y-15873344D02*
X9609173Y-15863820D01*
X9609173Y-15863820D02*
X9628220Y-15854296D01*
X9628220Y-15854296D02*
X9656792Y-15854296D01*
X9656792Y-15854296D02*
X9675839Y-15863820D01*
X9675839Y-15863820D02*
X9685363Y-15882868D01*
X9685363Y-15882868D02*
X9685363Y-15987630D01*
X9685363Y-15882868D02*
X9694887Y-15863820D01*
X9694887Y-15863820D02*
X9713935Y-15854296D01*
X9713935Y-15854296D02*
X9742506Y-15854296D01*
X9742506Y-15854296D02*
X9761554Y-15863820D01*
X9761554Y-15863820D02*
X9771078Y-15882868D01*
X9771078Y-15882868D02*
X9771078Y-15987630D01*
X9866316Y-15987630D02*
X9866316Y-15854296D01*
X9866316Y-15873344D02*
X9875839Y-15863820D01*
X9875839Y-15863820D02*
X9894887Y-15854296D01*
X9894887Y-15854296D02*
X9923459Y-15854296D01*
X9923459Y-15854296D02*
X9942506Y-15863820D01*
X9942506Y-15863820D02*
X9952030Y-15882868D01*
X9952030Y-15882868D02*
X9952030Y-15987630D01*
X9952030Y-15882868D02*
X9961554Y-15863820D01*
X9961554Y-15863820D02*
X9980601Y-15854296D01*
X9980601Y-15854296D02*
X10009173Y-15854296D01*
X10009173Y-15854296D02*
X10028220Y-15863820D01*
X10028220Y-15863820D02*
X10037744Y-15882868D01*
X10037744Y-15882868D02*
X10037744Y-15987630D01*
X10428220Y-15778106D02*
X10256792Y-16035249D01*
X10685363Y-15787630D02*
X10704411Y-15787630D01*
X10704411Y-15787630D02*
X10723459Y-15797153D01*
X10723459Y-15797153D02*
X10732982Y-15806677D01*
X10732982Y-15806677D02*
X10742506Y-15825725D01*
X10742506Y-15825725D02*
X10752030Y-15863820D01*
X10752030Y-15863820D02*
X10752030Y-15911439D01*
X10752030Y-15911439D02*
X10742506Y-15949534D01*
X10742506Y-15949534D02*
X10732982Y-15968582D01*
X10732982Y-15968582D02*
X10723459Y-15978106D01*
X10723459Y-15978106D02*
X10704411Y-15987630D01*
X10704411Y-15987630D02*
X10685363Y-15987630D01*
X10685363Y-15987630D02*
X10666316Y-15978106D01*
X10666316Y-15978106D02*
X10656792Y-15968582D01*
X10656792Y-15968582D02*
X10647268Y-15949534D01*
X10647268Y-15949534D02*
X10637744Y-15911439D01*
X10637744Y-15911439D02*
X10637744Y-15863820D01*
X10637744Y-15863820D02*
X10647268Y-15825725D01*
X10647268Y-15825725D02*
X10656792Y-15806677D01*
X10656792Y-15806677D02*
X10666316Y-15797153D01*
X10666316Y-15797153D02*
X10685363Y-15787630D01*
X10837744Y-15968582D02*
X10847268Y-15978106D01*
X10847268Y-15978106D02*
X10837744Y-15987630D01*
X10837744Y-15987630D02*
X10828221Y-15978106D01*
X10828221Y-15978106D02*
X10837744Y-15968582D01*
X10837744Y-15968582D02*
X10837744Y-15987630D01*
X10971078Y-15787630D02*
X10990125Y-15787630D01*
X10990125Y-15787630D02*
X11009173Y-15797153D01*
X11009173Y-15797153D02*
X11018697Y-15806677D01*
X11018697Y-15806677D02*
X11028221Y-15825725D01*
X11028221Y-15825725D02*
X11037744Y-15863820D01*
X11037744Y-15863820D02*
X11037744Y-15911439D01*
X11037744Y-15911439D02*
X11028221Y-15949534D01*
X11028221Y-15949534D02*
X11018697Y-15968582D01*
X11018697Y-15968582D02*
X11009173Y-15978106D01*
X11009173Y-15978106D02*
X10990125Y-15987630D01*
X10990125Y-15987630D02*
X10971078Y-15987630D01*
X10971078Y-15987630D02*
X10952030Y-15978106D01*
X10952030Y-15978106D02*
X10942506Y-15968582D01*
X10942506Y-15968582D02*
X10932982Y-15949534D01*
X10932982Y-15949534D02*
X10923459Y-15911439D01*
X10923459Y-15911439D02*
X10923459Y-15863820D01*
X10923459Y-15863820D02*
X10932982Y-15825725D01*
X10932982Y-15825725D02*
X10942506Y-15806677D01*
X10942506Y-15806677D02*
X10952030Y-15797153D01*
X10952030Y-15797153D02*
X10971078Y-15787630D01*
X11218697Y-15787630D02*
X11123459Y-15787630D01*
X11123459Y-15787630D02*
X11113935Y-15882868D01*
X11113935Y-15882868D02*
X11123459Y-15873344D01*
X11123459Y-15873344D02*
X11142506Y-15863820D01*
X11142506Y-15863820D02*
X11190125Y-15863820D01*
X11190125Y-15863820D02*
X11209173Y-15873344D01*
X11209173Y-15873344D02*
X11218697Y-15882868D01*
X11218697Y-15882868D02*
X11228220Y-15901915D01*
X11228220Y-15901915D02*
X11228220Y-15949534D01*
X11228220Y-15949534D02*
X11218697Y-15968582D01*
X11218697Y-15968582D02*
X11209173Y-15978106D01*
X11209173Y-15978106D02*
X11190125Y-15987630D01*
X11190125Y-15987630D02*
X11142506Y-15987630D01*
X11142506Y-15987630D02*
X11123459Y-15978106D01*
X11123459Y-15978106D02*
X11113935Y-15968582D01*
X11352030Y-15787630D02*
X11371078Y-15787630D01*
X11371078Y-15787630D02*
X11390125Y-15797153D01*
X11390125Y-15797153D02*
X11399649Y-15806677D01*
X11399649Y-15806677D02*
X11409173Y-15825725D01*
X11409173Y-15825725D02*
X11418697Y-15863820D01*
X11418697Y-15863820D02*
X11418697Y-15911439D01*
X11418697Y-15911439D02*
X11409173Y-15949534D01*
X11409173Y-15949534D02*
X11399649Y-15968582D01*
X11399649Y-15968582D02*
X11390125Y-15978106D01*
X11390125Y-15978106D02*
X11371078Y-15987630D01*
X11371078Y-15987630D02*
X11352030Y-15987630D01*
X11352030Y-15987630D02*
X11332982Y-15978106D01*
X11332982Y-15978106D02*
X11323459Y-15968582D01*
X11323459Y-15968582D02*
X11313935Y-15949534D01*
X11313935Y-15949534D02*
X11304411Y-15911439D01*
X11304411Y-15911439D02*
X11304411Y-15863820D01*
X11304411Y-15863820D02*
X11313935Y-15825725D01*
X11313935Y-15825725D02*
X11323459Y-15806677D01*
X11323459Y-15806677D02*
X11332982Y-15797153D01*
X11332982Y-15797153D02*
X11352030Y-15787630D01*
X11542506Y-15787630D02*
X11561554Y-15787630D01*
X11561554Y-15787630D02*
X11580601Y-15797153D01*
X11580601Y-15797153D02*
X11590125Y-15806677D01*
X11590125Y-15806677D02*
X11599649Y-15825725D01*
X11599649Y-15825725D02*
X11609173Y-15863820D01*
X11609173Y-15863820D02*
X11609173Y-15911439D01*
X11609173Y-15911439D02*
X11599649Y-15949534D01*
X11599649Y-15949534D02*
X11590125Y-15968582D01*
X11590125Y-15968582D02*
X11580601Y-15978106D01*
X11580601Y-15978106D02*
X11561554Y-15987630D01*
X11561554Y-15987630D02*
X11542506Y-15987630D01*
X11542506Y-15987630D02*
X11523459Y-15978106D01*
X11523459Y-15978106D02*
X11513935Y-15968582D01*
X11513935Y-15968582D02*
X11504411Y-15949534D01*
X11504411Y-15949534D02*
X11494887Y-15911439D01*
X11494887Y-15911439D02*
X11494887Y-15863820D01*
X11494887Y-15863820D02*
X11504411Y-15825725D01*
X11504411Y-15825725D02*
X11513935Y-15806677D01*
X11513935Y-15806677D02*
X11523459Y-15797153D01*
X11523459Y-15797153D02*
X11542506Y-15787630D01*
X11685363Y-15787630D02*
X11685363Y-15825725D01*
X11761554Y-15787630D02*
X11761554Y-15825725D01*
X12056792Y-16063820D02*
X12047268Y-16054296D01*
X12047268Y-16054296D02*
X12028221Y-16025725D01*
X12028221Y-16025725D02*
X12018697Y-16006677D01*
X12018697Y-16006677D02*
X12009173Y-15978106D01*
X12009173Y-15978106D02*
X11999649Y-15930487D01*
X11999649Y-15930487D02*
X11999649Y-15892392D01*
X11999649Y-15892392D02*
X12009173Y-15844772D01*
X12009173Y-15844772D02*
X12018697Y-15816201D01*
X12018697Y-15816201D02*
X12028221Y-15797153D01*
X12028221Y-15797153D02*
X12047268Y-15768582D01*
X12047268Y-15768582D02*
X12056792Y-15759058D01*
X12228221Y-15787630D02*
X12132982Y-15787630D01*
X12132982Y-15787630D02*
X12123459Y-15882868D01*
X12123459Y-15882868D02*
X12132982Y-15873344D01*
X12132982Y-15873344D02*
X12152030Y-15863820D01*
X12152030Y-15863820D02*
X12199649Y-15863820D01*
X12199649Y-15863820D02*
X12218697Y-15873344D01*
X12218697Y-15873344D02*
X12228221Y-15882868D01*
X12228221Y-15882868D02*
X12237744Y-15901915D01*
X12237744Y-15901915D02*
X12237744Y-15949534D01*
X12237744Y-15949534D02*
X12228221Y-15968582D01*
X12228221Y-15968582D02*
X12218697Y-15978106D01*
X12218697Y-15978106D02*
X12199649Y-15987630D01*
X12199649Y-15987630D02*
X12152030Y-15987630D01*
X12152030Y-15987630D02*
X12132982Y-15978106D01*
X12132982Y-15978106D02*
X12123459Y-15968582D01*
X12428221Y-15987630D02*
X12313935Y-15987630D01*
X12371078Y-15987630D02*
X12371078Y-15787630D01*
X12371078Y-15787630D02*
X12352030Y-15816201D01*
X12352030Y-15816201D02*
X12332982Y-15835249D01*
X12332982Y-15835249D02*
X12313935Y-15844772D01*
X12666316Y-15987630D02*
X12666316Y-15787630D01*
X12752030Y-15987630D02*
X12752030Y-15882868D01*
X12752030Y-15882868D02*
X12742506Y-15863820D01*
X12742506Y-15863820D02*
X12723459Y-15854296D01*
X12723459Y-15854296D02*
X12694887Y-15854296D01*
X12694887Y-15854296D02*
X12675840Y-15863820D01*
X12675840Y-15863820D02*
X12666316Y-15873344D01*
X12875840Y-15987630D02*
X12856792Y-15978106D01*
X12856792Y-15978106D02*
X12847268Y-15968582D01*
X12847268Y-15968582D02*
X12837744Y-15949534D01*
X12837744Y-15949534D02*
X12837744Y-15892392D01*
X12837744Y-15892392D02*
X12847268Y-15873344D01*
X12847268Y-15873344D02*
X12856792Y-15863820D01*
X12856792Y-15863820D02*
X12875840Y-15854296D01*
X12875840Y-15854296D02*
X12904411Y-15854296D01*
X12904411Y-15854296D02*
X12923459Y-15863820D01*
X12923459Y-15863820D02*
X12932983Y-15873344D01*
X12932983Y-15873344D02*
X12942506Y-15892392D01*
X12942506Y-15892392D02*
X12942506Y-15949534D01*
X12942506Y-15949534D02*
X12932983Y-15968582D01*
X12932983Y-15968582D02*
X12923459Y-15978106D01*
X12923459Y-15978106D02*
X12904411Y-15987630D01*
X12904411Y-15987630D02*
X12875840Y-15987630D01*
X13056792Y-15987630D02*
X13037744Y-15978106D01*
X13037744Y-15978106D02*
X13028221Y-15959058D01*
X13028221Y-15959058D02*
X13028221Y-15787630D01*
X13209173Y-15978106D02*
X13190125Y-15987630D01*
X13190125Y-15987630D02*
X13152030Y-15987630D01*
X13152030Y-15987630D02*
X13132983Y-15978106D01*
X13132983Y-15978106D02*
X13123459Y-15959058D01*
X13123459Y-15959058D02*
X13123459Y-15882868D01*
X13123459Y-15882868D02*
X13132983Y-15863820D01*
X13132983Y-15863820D02*
X13152030Y-15854296D01*
X13152030Y-15854296D02*
X13190125Y-15854296D01*
X13190125Y-15854296D02*
X13209173Y-15863820D01*
X13209173Y-15863820D02*
X13218697Y-15882868D01*
X13218697Y-15882868D02*
X13218697Y-15901915D01*
X13218697Y-15901915D02*
X13123459Y-15920963D01*
X13294887Y-15978106D02*
X13313935Y-15987630D01*
X13313935Y-15987630D02*
X13352030Y-15987630D01*
X13352030Y-15987630D02*
X13371078Y-15978106D01*
X13371078Y-15978106D02*
X13380602Y-15959058D01*
X13380602Y-15959058D02*
X13380602Y-15949534D01*
X13380602Y-15949534D02*
X13371078Y-15930487D01*
X13371078Y-15930487D02*
X13352030Y-15920963D01*
X13352030Y-15920963D02*
X13323459Y-15920963D01*
X13323459Y-15920963D02*
X13304411Y-15911439D01*
X13304411Y-15911439D02*
X13294887Y-15892392D01*
X13294887Y-15892392D02*
X13294887Y-15882868D01*
X13294887Y-15882868D02*
X13304411Y-15863820D01*
X13304411Y-15863820D02*
X13323459Y-15854296D01*
X13323459Y-15854296D02*
X13352030Y-15854296D01*
X13352030Y-15854296D02*
X13371078Y-15863820D01*
X13447268Y-16063820D02*
X13456792Y-16054296D01*
X13456792Y-16054296D02*
X13475840Y-16025725D01*
X13475840Y-16025725D02*
X13485364Y-16006677D01*
X13485364Y-16006677D02*
X13494887Y-15978106D01*
X13494887Y-15978106D02*
X13504411Y-15930487D01*
X13504411Y-15930487D02*
X13504411Y-15892392D01*
X13504411Y-15892392D02*
X13494887Y-15844772D01*
X13494887Y-15844772D02*
X13485364Y-15816201D01*
X13485364Y-15816201D02*
X13475840Y-15797153D01*
X13475840Y-15797153D02*
X13456792Y-15768582D01*
X13456792Y-15768582D02*
X13447268Y-15759058D01*
D20*
X8351729Y-16095146D02*
X8481729Y-16225146D01*
X8481729Y-16095146D02*
X8351729Y-16225146D01*
X8416729Y-16225146D02*
X8481729Y-16160146D01*
X8416729Y-16095146D01*
X8351729Y-16160146D01*
X8416729Y-16225146D01*
D11*
X8847268Y-16251630D02*
X8732982Y-16251630D01*
X8790125Y-16251630D02*
X8790125Y-16051630D01*
X8790125Y-16051630D02*
X8771077Y-16080201D01*
X8771077Y-16080201D02*
X8752030Y-16099249D01*
X8752030Y-16099249D02*
X8732982Y-16108772D01*
X8932982Y-16232582D02*
X8942506Y-16242106D01*
X8942506Y-16242106D02*
X8932982Y-16251630D01*
X8932982Y-16251630D02*
X8923458Y-16242106D01*
X8923458Y-16242106D02*
X8932982Y-16232582D01*
X8932982Y-16232582D02*
X8932982Y-16251630D01*
X9009173Y-16051630D02*
X9132982Y-16051630D01*
X9132982Y-16051630D02*
X9066316Y-16127820D01*
X9066316Y-16127820D02*
X9094887Y-16127820D01*
X9094887Y-16127820D02*
X9113935Y-16137344D01*
X9113935Y-16137344D02*
X9123458Y-16146868D01*
X9123458Y-16146868D02*
X9132982Y-16165915D01*
X9132982Y-16165915D02*
X9132982Y-16213534D01*
X9132982Y-16213534D02*
X9123458Y-16232582D01*
X9123458Y-16232582D02*
X9113935Y-16242106D01*
X9113935Y-16242106D02*
X9094887Y-16251630D01*
X9094887Y-16251630D02*
X9037744Y-16251630D01*
X9037744Y-16251630D02*
X9018697Y-16242106D01*
X9018697Y-16242106D02*
X9009173Y-16232582D01*
X9256792Y-16051630D02*
X9275839Y-16051630D01*
X9275839Y-16051630D02*
X9294887Y-16061153D01*
X9294887Y-16061153D02*
X9304411Y-16070677D01*
X9304411Y-16070677D02*
X9313935Y-16089725D01*
X9313935Y-16089725D02*
X9323458Y-16127820D01*
X9323458Y-16127820D02*
X9323458Y-16175439D01*
X9323458Y-16175439D02*
X9313935Y-16213534D01*
X9313935Y-16213534D02*
X9304411Y-16232582D01*
X9304411Y-16232582D02*
X9294887Y-16242106D01*
X9294887Y-16242106D02*
X9275839Y-16251630D01*
X9275839Y-16251630D02*
X9256792Y-16251630D01*
X9256792Y-16251630D02*
X9237744Y-16242106D01*
X9237744Y-16242106D02*
X9228220Y-16232582D01*
X9228220Y-16232582D02*
X9218697Y-16213534D01*
X9218697Y-16213534D02*
X9209173Y-16175439D01*
X9209173Y-16175439D02*
X9209173Y-16127820D01*
X9209173Y-16127820D02*
X9218697Y-16089725D01*
X9218697Y-16089725D02*
X9228220Y-16070677D01*
X9228220Y-16070677D02*
X9237744Y-16061153D01*
X9237744Y-16061153D02*
X9256792Y-16051630D01*
X9447268Y-16051630D02*
X9466316Y-16051630D01*
X9466316Y-16051630D02*
X9485363Y-16061153D01*
X9485363Y-16061153D02*
X9494887Y-16070677D01*
X9494887Y-16070677D02*
X9504411Y-16089725D01*
X9504411Y-16089725D02*
X9513935Y-16127820D01*
X9513935Y-16127820D02*
X9513935Y-16175439D01*
X9513935Y-16175439D02*
X9504411Y-16213534D01*
X9504411Y-16213534D02*
X9494887Y-16232582D01*
X9494887Y-16232582D02*
X9485363Y-16242106D01*
X9485363Y-16242106D02*
X9466316Y-16251630D01*
X9466316Y-16251630D02*
X9447268Y-16251630D01*
X9447268Y-16251630D02*
X9428220Y-16242106D01*
X9428220Y-16242106D02*
X9418697Y-16232582D01*
X9418697Y-16232582D02*
X9409173Y-16213534D01*
X9409173Y-16213534D02*
X9399649Y-16175439D01*
X9399649Y-16175439D02*
X9399649Y-16127820D01*
X9399649Y-16127820D02*
X9409173Y-16089725D01*
X9409173Y-16089725D02*
X9418697Y-16070677D01*
X9418697Y-16070677D02*
X9428220Y-16061153D01*
X9428220Y-16061153D02*
X9447268Y-16051630D01*
X9599649Y-16251630D02*
X9599649Y-16118296D01*
X9599649Y-16137344D02*
X9609173Y-16127820D01*
X9609173Y-16127820D02*
X9628220Y-16118296D01*
X9628220Y-16118296D02*
X9656792Y-16118296D01*
X9656792Y-16118296D02*
X9675839Y-16127820D01*
X9675839Y-16127820D02*
X9685363Y-16146868D01*
X9685363Y-16146868D02*
X9685363Y-16251630D01*
X9685363Y-16146868D02*
X9694887Y-16127820D01*
X9694887Y-16127820D02*
X9713935Y-16118296D01*
X9713935Y-16118296D02*
X9742506Y-16118296D01*
X9742506Y-16118296D02*
X9761554Y-16127820D01*
X9761554Y-16127820D02*
X9771078Y-16146868D01*
X9771078Y-16146868D02*
X9771078Y-16251630D01*
X9866316Y-16251630D02*
X9866316Y-16118296D01*
X9866316Y-16137344D02*
X9875839Y-16127820D01*
X9875839Y-16127820D02*
X9894887Y-16118296D01*
X9894887Y-16118296D02*
X9923459Y-16118296D01*
X9923459Y-16118296D02*
X9942506Y-16127820D01*
X9942506Y-16127820D02*
X9952030Y-16146868D01*
X9952030Y-16146868D02*
X9952030Y-16251630D01*
X9952030Y-16146868D02*
X9961554Y-16127820D01*
X9961554Y-16127820D02*
X9980601Y-16118296D01*
X9980601Y-16118296D02*
X10009173Y-16118296D01*
X10009173Y-16118296D02*
X10028220Y-16127820D01*
X10028220Y-16127820D02*
X10037744Y-16146868D01*
X10037744Y-16146868D02*
X10037744Y-16251630D01*
X10428220Y-16042106D02*
X10256792Y-16299249D01*
X10685363Y-16051630D02*
X10704411Y-16051630D01*
X10704411Y-16051630D02*
X10723459Y-16061153D01*
X10723459Y-16061153D02*
X10732982Y-16070677D01*
X10732982Y-16070677D02*
X10742506Y-16089725D01*
X10742506Y-16089725D02*
X10752030Y-16127820D01*
X10752030Y-16127820D02*
X10752030Y-16175439D01*
X10752030Y-16175439D02*
X10742506Y-16213534D01*
X10742506Y-16213534D02*
X10732982Y-16232582D01*
X10732982Y-16232582D02*
X10723459Y-16242106D01*
X10723459Y-16242106D02*
X10704411Y-16251630D01*
X10704411Y-16251630D02*
X10685363Y-16251630D01*
X10685363Y-16251630D02*
X10666316Y-16242106D01*
X10666316Y-16242106D02*
X10656792Y-16232582D01*
X10656792Y-16232582D02*
X10647268Y-16213534D01*
X10647268Y-16213534D02*
X10637744Y-16175439D01*
X10637744Y-16175439D02*
X10637744Y-16127820D01*
X10637744Y-16127820D02*
X10647268Y-16089725D01*
X10647268Y-16089725D02*
X10656792Y-16070677D01*
X10656792Y-16070677D02*
X10666316Y-16061153D01*
X10666316Y-16061153D02*
X10685363Y-16051630D01*
X10837744Y-16232582D02*
X10847268Y-16242106D01*
X10847268Y-16242106D02*
X10837744Y-16251630D01*
X10837744Y-16251630D02*
X10828221Y-16242106D01*
X10828221Y-16242106D02*
X10837744Y-16232582D01*
X10837744Y-16232582D02*
X10837744Y-16251630D01*
X10971078Y-16051630D02*
X10990125Y-16051630D01*
X10990125Y-16051630D02*
X11009173Y-16061153D01*
X11009173Y-16061153D02*
X11018697Y-16070677D01*
X11018697Y-16070677D02*
X11028221Y-16089725D01*
X11028221Y-16089725D02*
X11037744Y-16127820D01*
X11037744Y-16127820D02*
X11037744Y-16175439D01*
X11037744Y-16175439D02*
X11028221Y-16213534D01*
X11028221Y-16213534D02*
X11018697Y-16232582D01*
X11018697Y-16232582D02*
X11009173Y-16242106D01*
X11009173Y-16242106D02*
X10990125Y-16251630D01*
X10990125Y-16251630D02*
X10971078Y-16251630D01*
X10971078Y-16251630D02*
X10952030Y-16242106D01*
X10952030Y-16242106D02*
X10942506Y-16232582D01*
X10942506Y-16232582D02*
X10932982Y-16213534D01*
X10932982Y-16213534D02*
X10923459Y-16175439D01*
X10923459Y-16175439D02*
X10923459Y-16127820D01*
X10923459Y-16127820D02*
X10932982Y-16089725D01*
X10932982Y-16089725D02*
X10942506Y-16070677D01*
X10942506Y-16070677D02*
X10952030Y-16061153D01*
X10952030Y-16061153D02*
X10971078Y-16051630D01*
X11218697Y-16051630D02*
X11123459Y-16051630D01*
X11123459Y-16051630D02*
X11113935Y-16146868D01*
X11113935Y-16146868D02*
X11123459Y-16137344D01*
X11123459Y-16137344D02*
X11142506Y-16127820D01*
X11142506Y-16127820D02*
X11190125Y-16127820D01*
X11190125Y-16127820D02*
X11209173Y-16137344D01*
X11209173Y-16137344D02*
X11218697Y-16146868D01*
X11218697Y-16146868D02*
X11228220Y-16165915D01*
X11228220Y-16165915D02*
X11228220Y-16213534D01*
X11228220Y-16213534D02*
X11218697Y-16232582D01*
X11218697Y-16232582D02*
X11209173Y-16242106D01*
X11209173Y-16242106D02*
X11190125Y-16251630D01*
X11190125Y-16251630D02*
X11142506Y-16251630D01*
X11142506Y-16251630D02*
X11123459Y-16242106D01*
X11123459Y-16242106D02*
X11113935Y-16232582D01*
X11418697Y-16251630D02*
X11304411Y-16251630D01*
X11361554Y-16251630D02*
X11361554Y-16051630D01*
X11361554Y-16051630D02*
X11342506Y-16080201D01*
X11342506Y-16080201D02*
X11323459Y-16099249D01*
X11323459Y-16099249D02*
X11304411Y-16108772D01*
X11494887Y-16070677D02*
X11504411Y-16061153D01*
X11504411Y-16061153D02*
X11523459Y-16051630D01*
X11523459Y-16051630D02*
X11571078Y-16051630D01*
X11571078Y-16051630D02*
X11590125Y-16061153D01*
X11590125Y-16061153D02*
X11599649Y-16070677D01*
X11599649Y-16070677D02*
X11609173Y-16089725D01*
X11609173Y-16089725D02*
X11609173Y-16108772D01*
X11609173Y-16108772D02*
X11599649Y-16137344D01*
X11599649Y-16137344D02*
X11485363Y-16251630D01*
X11485363Y-16251630D02*
X11609173Y-16251630D01*
X11685363Y-16051630D02*
X11685363Y-16089725D01*
X11761554Y-16051630D02*
X11761554Y-16089725D01*
X12056792Y-16327820D02*
X12047268Y-16318296D01*
X12047268Y-16318296D02*
X12028221Y-16289725D01*
X12028221Y-16289725D02*
X12018697Y-16270677D01*
X12018697Y-16270677D02*
X12009173Y-16242106D01*
X12009173Y-16242106D02*
X11999649Y-16194487D01*
X11999649Y-16194487D02*
X11999649Y-16156392D01*
X11999649Y-16156392D02*
X12009173Y-16108772D01*
X12009173Y-16108772D02*
X12018697Y-16080201D01*
X12018697Y-16080201D02*
X12028221Y-16061153D01*
X12028221Y-16061153D02*
X12047268Y-16032582D01*
X12047268Y-16032582D02*
X12056792Y-16023058D01*
X12123459Y-16070677D02*
X12132982Y-16061153D01*
X12132982Y-16061153D02*
X12152030Y-16051630D01*
X12152030Y-16051630D02*
X12199649Y-16051630D01*
X12199649Y-16051630D02*
X12218697Y-16061153D01*
X12218697Y-16061153D02*
X12228221Y-16070677D01*
X12228221Y-16070677D02*
X12237744Y-16089725D01*
X12237744Y-16089725D02*
X12237744Y-16108772D01*
X12237744Y-16108772D02*
X12228221Y-16137344D01*
X12228221Y-16137344D02*
X12113935Y-16251630D01*
X12113935Y-16251630D02*
X12237744Y-16251630D01*
X12475840Y-16251630D02*
X12475840Y-16051630D01*
X12561554Y-16251630D02*
X12561554Y-16146868D01*
X12561554Y-16146868D02*
X12552030Y-16127820D01*
X12552030Y-16127820D02*
X12532983Y-16118296D01*
X12532983Y-16118296D02*
X12504411Y-16118296D01*
X12504411Y-16118296D02*
X12485363Y-16127820D01*
X12485363Y-16127820D02*
X12475840Y-16137344D01*
X12685363Y-16251630D02*
X12666316Y-16242106D01*
X12666316Y-16242106D02*
X12656792Y-16232582D01*
X12656792Y-16232582D02*
X12647268Y-16213534D01*
X12647268Y-16213534D02*
X12647268Y-16156392D01*
X12647268Y-16156392D02*
X12656792Y-16137344D01*
X12656792Y-16137344D02*
X12666316Y-16127820D01*
X12666316Y-16127820D02*
X12685363Y-16118296D01*
X12685363Y-16118296D02*
X12713935Y-16118296D01*
X12713935Y-16118296D02*
X12732983Y-16127820D01*
X12732983Y-16127820D02*
X12742506Y-16137344D01*
X12742506Y-16137344D02*
X12752030Y-16156392D01*
X12752030Y-16156392D02*
X12752030Y-16213534D01*
X12752030Y-16213534D02*
X12742506Y-16232582D01*
X12742506Y-16232582D02*
X12732983Y-16242106D01*
X12732983Y-16242106D02*
X12713935Y-16251630D01*
X12713935Y-16251630D02*
X12685363Y-16251630D01*
X12866316Y-16251630D02*
X12847268Y-16242106D01*
X12847268Y-16242106D02*
X12837744Y-16223058D01*
X12837744Y-16223058D02*
X12837744Y-16051630D01*
X13018697Y-16242106D02*
X12999649Y-16251630D01*
X12999649Y-16251630D02*
X12961554Y-16251630D01*
X12961554Y-16251630D02*
X12942506Y-16242106D01*
X12942506Y-16242106D02*
X12932983Y-16223058D01*
X12932983Y-16223058D02*
X12932983Y-16146868D01*
X12932983Y-16146868D02*
X12942506Y-16127820D01*
X12942506Y-16127820D02*
X12961554Y-16118296D01*
X12961554Y-16118296D02*
X12999649Y-16118296D01*
X12999649Y-16118296D02*
X13018697Y-16127820D01*
X13018697Y-16127820D02*
X13028221Y-16146868D01*
X13028221Y-16146868D02*
X13028221Y-16165915D01*
X13028221Y-16165915D02*
X12932983Y-16184963D01*
X13104411Y-16242106D02*
X13123459Y-16251630D01*
X13123459Y-16251630D02*
X13161554Y-16251630D01*
X13161554Y-16251630D02*
X13180602Y-16242106D01*
X13180602Y-16242106D02*
X13190125Y-16223058D01*
X13190125Y-16223058D02*
X13190125Y-16213534D01*
X13190125Y-16213534D02*
X13180602Y-16194487D01*
X13180602Y-16194487D02*
X13161554Y-16184963D01*
X13161554Y-16184963D02*
X13132983Y-16184963D01*
X13132983Y-16184963D02*
X13113935Y-16175439D01*
X13113935Y-16175439D02*
X13104411Y-16156392D01*
X13104411Y-16156392D02*
X13104411Y-16146868D01*
X13104411Y-16146868D02*
X13113935Y-16127820D01*
X13113935Y-16127820D02*
X13132983Y-16118296D01*
X13132983Y-16118296D02*
X13161554Y-16118296D01*
X13161554Y-16118296D02*
X13180602Y-16127820D01*
X13256792Y-16327820D02*
X13266316Y-16318296D01*
X13266316Y-16318296D02*
X13285364Y-16289725D01*
X13285364Y-16289725D02*
X13294887Y-16270677D01*
X13294887Y-16270677D02*
X13304411Y-16242106D01*
X13304411Y-16242106D02*
X13313935Y-16194487D01*
X13313935Y-16194487D02*
X13313935Y-16156392D01*
X13313935Y-16156392D02*
X13304411Y-16108772D01*
X13304411Y-16108772D02*
X13294887Y-16080201D01*
X13294887Y-16080201D02*
X13285364Y-16061153D01*
X13285364Y-16061153D02*
X13266316Y-16032582D01*
X13266316Y-16032582D02*
X13256792Y-16023058D01*
D21*
X8404229Y-16346646D02*
X8404229Y-16501646D01*
X8326729Y-16424146D02*
X8481729Y-16424146D01*
X8481729Y-16424146D02*
G75*
G03*
X8481729Y-16424146I-77500J0D01*
G01*
D11*
X8847268Y-16515630D02*
X8732982Y-16515630D01*
X8790125Y-16515630D02*
X8790125Y-16315630D01*
X8790125Y-16315630D02*
X8771077Y-16344201D01*
X8771077Y-16344201D02*
X8752030Y-16363249D01*
X8752030Y-16363249D02*
X8732982Y-16372772D01*
X8932982Y-16496582D02*
X8942506Y-16506106D01*
X8942506Y-16506106D02*
X8932982Y-16515630D01*
X8932982Y-16515630D02*
X8923458Y-16506106D01*
X8923458Y-16506106D02*
X8932982Y-16496582D01*
X8932982Y-16496582D02*
X8932982Y-16515630D01*
X9123458Y-16315630D02*
X9028220Y-16315630D01*
X9028220Y-16315630D02*
X9018697Y-16410868D01*
X9018697Y-16410868D02*
X9028220Y-16401344D01*
X9028220Y-16401344D02*
X9047268Y-16391820D01*
X9047268Y-16391820D02*
X9094887Y-16391820D01*
X9094887Y-16391820D02*
X9113935Y-16401344D01*
X9113935Y-16401344D02*
X9123458Y-16410868D01*
X9123458Y-16410868D02*
X9132982Y-16429915D01*
X9132982Y-16429915D02*
X9132982Y-16477534D01*
X9132982Y-16477534D02*
X9123458Y-16496582D01*
X9123458Y-16496582D02*
X9113935Y-16506106D01*
X9113935Y-16506106D02*
X9094887Y-16515630D01*
X9094887Y-16515630D02*
X9047268Y-16515630D01*
X9047268Y-16515630D02*
X9028220Y-16506106D01*
X9028220Y-16506106D02*
X9018697Y-16496582D01*
X9313935Y-16315630D02*
X9218697Y-16315630D01*
X9218697Y-16315630D02*
X9209173Y-16410868D01*
X9209173Y-16410868D02*
X9218697Y-16401344D01*
X9218697Y-16401344D02*
X9237744Y-16391820D01*
X9237744Y-16391820D02*
X9285363Y-16391820D01*
X9285363Y-16391820D02*
X9304411Y-16401344D01*
X9304411Y-16401344D02*
X9313935Y-16410868D01*
X9313935Y-16410868D02*
X9323458Y-16429915D01*
X9323458Y-16429915D02*
X9323458Y-16477534D01*
X9323458Y-16477534D02*
X9313935Y-16496582D01*
X9313935Y-16496582D02*
X9304411Y-16506106D01*
X9304411Y-16506106D02*
X9285363Y-16515630D01*
X9285363Y-16515630D02*
X9237744Y-16515630D01*
X9237744Y-16515630D02*
X9218697Y-16506106D01*
X9218697Y-16506106D02*
X9209173Y-16496582D01*
X9447268Y-16315630D02*
X9466316Y-16315630D01*
X9466316Y-16315630D02*
X9485363Y-16325153D01*
X9485363Y-16325153D02*
X9494887Y-16334677D01*
X9494887Y-16334677D02*
X9504411Y-16353725D01*
X9504411Y-16353725D02*
X9513935Y-16391820D01*
X9513935Y-16391820D02*
X9513935Y-16439439D01*
X9513935Y-16439439D02*
X9504411Y-16477534D01*
X9504411Y-16477534D02*
X9494887Y-16496582D01*
X9494887Y-16496582D02*
X9485363Y-16506106D01*
X9485363Y-16506106D02*
X9466316Y-16515630D01*
X9466316Y-16515630D02*
X9447268Y-16515630D01*
X9447268Y-16515630D02*
X9428220Y-16506106D01*
X9428220Y-16506106D02*
X9418697Y-16496582D01*
X9418697Y-16496582D02*
X9409173Y-16477534D01*
X9409173Y-16477534D02*
X9399649Y-16439439D01*
X9399649Y-16439439D02*
X9399649Y-16391820D01*
X9399649Y-16391820D02*
X9409173Y-16353725D01*
X9409173Y-16353725D02*
X9418697Y-16334677D01*
X9418697Y-16334677D02*
X9428220Y-16325153D01*
X9428220Y-16325153D02*
X9447268Y-16315630D01*
X9599649Y-16515630D02*
X9599649Y-16382296D01*
X9599649Y-16401344D02*
X9609173Y-16391820D01*
X9609173Y-16391820D02*
X9628220Y-16382296D01*
X9628220Y-16382296D02*
X9656792Y-16382296D01*
X9656792Y-16382296D02*
X9675839Y-16391820D01*
X9675839Y-16391820D02*
X9685363Y-16410868D01*
X9685363Y-16410868D02*
X9685363Y-16515630D01*
X9685363Y-16410868D02*
X9694887Y-16391820D01*
X9694887Y-16391820D02*
X9713935Y-16382296D01*
X9713935Y-16382296D02*
X9742506Y-16382296D01*
X9742506Y-16382296D02*
X9761554Y-16391820D01*
X9761554Y-16391820D02*
X9771078Y-16410868D01*
X9771078Y-16410868D02*
X9771078Y-16515630D01*
X9866316Y-16515630D02*
X9866316Y-16382296D01*
X9866316Y-16401344D02*
X9875839Y-16391820D01*
X9875839Y-16391820D02*
X9894887Y-16382296D01*
X9894887Y-16382296D02*
X9923459Y-16382296D01*
X9923459Y-16382296D02*
X9942506Y-16391820D01*
X9942506Y-16391820D02*
X9952030Y-16410868D01*
X9952030Y-16410868D02*
X9952030Y-16515630D01*
X9952030Y-16410868D02*
X9961554Y-16391820D01*
X9961554Y-16391820D02*
X9980601Y-16382296D01*
X9980601Y-16382296D02*
X10009173Y-16382296D01*
X10009173Y-16382296D02*
X10028220Y-16391820D01*
X10028220Y-16391820D02*
X10037744Y-16410868D01*
X10037744Y-16410868D02*
X10037744Y-16515630D01*
X10428220Y-16306106D02*
X10256792Y-16563249D01*
X10685363Y-16315630D02*
X10704411Y-16315630D01*
X10704411Y-16315630D02*
X10723459Y-16325153D01*
X10723459Y-16325153D02*
X10732982Y-16334677D01*
X10732982Y-16334677D02*
X10742506Y-16353725D01*
X10742506Y-16353725D02*
X10752030Y-16391820D01*
X10752030Y-16391820D02*
X10752030Y-16439439D01*
X10752030Y-16439439D02*
X10742506Y-16477534D01*
X10742506Y-16477534D02*
X10732982Y-16496582D01*
X10732982Y-16496582D02*
X10723459Y-16506106D01*
X10723459Y-16506106D02*
X10704411Y-16515630D01*
X10704411Y-16515630D02*
X10685363Y-16515630D01*
X10685363Y-16515630D02*
X10666316Y-16506106D01*
X10666316Y-16506106D02*
X10656792Y-16496582D01*
X10656792Y-16496582D02*
X10647268Y-16477534D01*
X10647268Y-16477534D02*
X10637744Y-16439439D01*
X10637744Y-16439439D02*
X10637744Y-16391820D01*
X10637744Y-16391820D02*
X10647268Y-16353725D01*
X10647268Y-16353725D02*
X10656792Y-16334677D01*
X10656792Y-16334677D02*
X10666316Y-16325153D01*
X10666316Y-16325153D02*
X10685363Y-16315630D01*
X10837744Y-16496582D02*
X10847268Y-16506106D01*
X10847268Y-16506106D02*
X10837744Y-16515630D01*
X10837744Y-16515630D02*
X10828221Y-16506106D01*
X10828221Y-16506106D02*
X10837744Y-16496582D01*
X10837744Y-16496582D02*
X10837744Y-16515630D01*
X10971078Y-16315630D02*
X10990125Y-16315630D01*
X10990125Y-16315630D02*
X11009173Y-16325153D01*
X11009173Y-16325153D02*
X11018697Y-16334677D01*
X11018697Y-16334677D02*
X11028221Y-16353725D01*
X11028221Y-16353725D02*
X11037744Y-16391820D01*
X11037744Y-16391820D02*
X11037744Y-16439439D01*
X11037744Y-16439439D02*
X11028221Y-16477534D01*
X11028221Y-16477534D02*
X11018697Y-16496582D01*
X11018697Y-16496582D02*
X11009173Y-16506106D01*
X11009173Y-16506106D02*
X10990125Y-16515630D01*
X10990125Y-16515630D02*
X10971078Y-16515630D01*
X10971078Y-16515630D02*
X10952030Y-16506106D01*
X10952030Y-16506106D02*
X10942506Y-16496582D01*
X10942506Y-16496582D02*
X10932982Y-16477534D01*
X10932982Y-16477534D02*
X10923459Y-16439439D01*
X10923459Y-16439439D02*
X10923459Y-16391820D01*
X10923459Y-16391820D02*
X10932982Y-16353725D01*
X10932982Y-16353725D02*
X10942506Y-16334677D01*
X10942506Y-16334677D02*
X10952030Y-16325153D01*
X10952030Y-16325153D02*
X10971078Y-16315630D01*
X11209173Y-16315630D02*
X11171078Y-16315630D01*
X11171078Y-16315630D02*
X11152030Y-16325153D01*
X11152030Y-16325153D02*
X11142506Y-16334677D01*
X11142506Y-16334677D02*
X11123459Y-16363249D01*
X11123459Y-16363249D02*
X11113935Y-16401344D01*
X11113935Y-16401344D02*
X11113935Y-16477534D01*
X11113935Y-16477534D02*
X11123459Y-16496582D01*
X11123459Y-16496582D02*
X11132982Y-16506106D01*
X11132982Y-16506106D02*
X11152030Y-16515630D01*
X11152030Y-16515630D02*
X11190125Y-16515630D01*
X11190125Y-16515630D02*
X11209173Y-16506106D01*
X11209173Y-16506106D02*
X11218697Y-16496582D01*
X11218697Y-16496582D02*
X11228220Y-16477534D01*
X11228220Y-16477534D02*
X11228220Y-16429915D01*
X11228220Y-16429915D02*
X11218697Y-16410868D01*
X11218697Y-16410868D02*
X11209173Y-16401344D01*
X11209173Y-16401344D02*
X11190125Y-16391820D01*
X11190125Y-16391820D02*
X11152030Y-16391820D01*
X11152030Y-16391820D02*
X11132982Y-16401344D01*
X11132982Y-16401344D02*
X11123459Y-16410868D01*
X11123459Y-16410868D02*
X11113935Y-16429915D01*
X11418697Y-16515630D02*
X11304411Y-16515630D01*
X11361554Y-16515630D02*
X11361554Y-16315630D01*
X11361554Y-16315630D02*
X11342506Y-16344201D01*
X11342506Y-16344201D02*
X11323459Y-16363249D01*
X11323459Y-16363249D02*
X11304411Y-16372772D01*
X11542506Y-16315630D02*
X11561554Y-16315630D01*
X11561554Y-16315630D02*
X11580601Y-16325153D01*
X11580601Y-16325153D02*
X11590125Y-16334677D01*
X11590125Y-16334677D02*
X11599649Y-16353725D01*
X11599649Y-16353725D02*
X11609173Y-16391820D01*
X11609173Y-16391820D02*
X11609173Y-16439439D01*
X11609173Y-16439439D02*
X11599649Y-16477534D01*
X11599649Y-16477534D02*
X11590125Y-16496582D01*
X11590125Y-16496582D02*
X11580601Y-16506106D01*
X11580601Y-16506106D02*
X11561554Y-16515630D01*
X11561554Y-16515630D02*
X11542506Y-16515630D01*
X11542506Y-16515630D02*
X11523459Y-16506106D01*
X11523459Y-16506106D02*
X11513935Y-16496582D01*
X11513935Y-16496582D02*
X11504411Y-16477534D01*
X11504411Y-16477534D02*
X11494887Y-16439439D01*
X11494887Y-16439439D02*
X11494887Y-16391820D01*
X11494887Y-16391820D02*
X11504411Y-16353725D01*
X11504411Y-16353725D02*
X11513935Y-16334677D01*
X11513935Y-16334677D02*
X11523459Y-16325153D01*
X11523459Y-16325153D02*
X11542506Y-16315630D01*
X11685363Y-16315630D02*
X11685363Y-16353725D01*
X11761554Y-16315630D02*
X11761554Y-16353725D01*
X12056792Y-16591820D02*
X12047268Y-16582296D01*
X12047268Y-16582296D02*
X12028221Y-16553725D01*
X12028221Y-16553725D02*
X12018697Y-16534677D01*
X12018697Y-16534677D02*
X12009173Y-16506106D01*
X12009173Y-16506106D02*
X11999649Y-16458487D01*
X11999649Y-16458487D02*
X11999649Y-16420392D01*
X11999649Y-16420392D02*
X12009173Y-16372772D01*
X12009173Y-16372772D02*
X12018697Y-16344201D01*
X12018697Y-16344201D02*
X12028221Y-16325153D01*
X12028221Y-16325153D02*
X12047268Y-16296582D01*
X12047268Y-16296582D02*
X12056792Y-16287058D01*
X12123459Y-16334677D02*
X12132982Y-16325153D01*
X12132982Y-16325153D02*
X12152030Y-16315630D01*
X12152030Y-16315630D02*
X12199649Y-16315630D01*
X12199649Y-16315630D02*
X12218697Y-16325153D01*
X12218697Y-16325153D02*
X12228221Y-16334677D01*
X12228221Y-16334677D02*
X12237744Y-16353725D01*
X12237744Y-16353725D02*
X12237744Y-16372772D01*
X12237744Y-16372772D02*
X12228221Y-16401344D01*
X12228221Y-16401344D02*
X12113935Y-16515630D01*
X12113935Y-16515630D02*
X12237744Y-16515630D01*
X12475840Y-16515630D02*
X12475840Y-16315630D01*
X12561554Y-16515630D02*
X12561554Y-16410868D01*
X12561554Y-16410868D02*
X12552030Y-16391820D01*
X12552030Y-16391820D02*
X12532983Y-16382296D01*
X12532983Y-16382296D02*
X12504411Y-16382296D01*
X12504411Y-16382296D02*
X12485363Y-16391820D01*
X12485363Y-16391820D02*
X12475840Y-16401344D01*
X12685363Y-16515630D02*
X12666316Y-16506106D01*
X12666316Y-16506106D02*
X12656792Y-16496582D01*
X12656792Y-16496582D02*
X12647268Y-16477534D01*
X12647268Y-16477534D02*
X12647268Y-16420392D01*
X12647268Y-16420392D02*
X12656792Y-16401344D01*
X12656792Y-16401344D02*
X12666316Y-16391820D01*
X12666316Y-16391820D02*
X12685363Y-16382296D01*
X12685363Y-16382296D02*
X12713935Y-16382296D01*
X12713935Y-16382296D02*
X12732983Y-16391820D01*
X12732983Y-16391820D02*
X12742506Y-16401344D01*
X12742506Y-16401344D02*
X12752030Y-16420392D01*
X12752030Y-16420392D02*
X12752030Y-16477534D01*
X12752030Y-16477534D02*
X12742506Y-16496582D01*
X12742506Y-16496582D02*
X12732983Y-16506106D01*
X12732983Y-16506106D02*
X12713935Y-16515630D01*
X12713935Y-16515630D02*
X12685363Y-16515630D01*
X12866316Y-16515630D02*
X12847268Y-16506106D01*
X12847268Y-16506106D02*
X12837744Y-16487058D01*
X12837744Y-16487058D02*
X12837744Y-16315630D01*
X13018697Y-16506106D02*
X12999649Y-16515630D01*
X12999649Y-16515630D02*
X12961554Y-16515630D01*
X12961554Y-16515630D02*
X12942506Y-16506106D01*
X12942506Y-16506106D02*
X12932983Y-16487058D01*
X12932983Y-16487058D02*
X12932983Y-16410868D01*
X12932983Y-16410868D02*
X12942506Y-16391820D01*
X12942506Y-16391820D02*
X12961554Y-16382296D01*
X12961554Y-16382296D02*
X12999649Y-16382296D01*
X12999649Y-16382296D02*
X13018697Y-16391820D01*
X13018697Y-16391820D02*
X13028221Y-16410868D01*
X13028221Y-16410868D02*
X13028221Y-16429915D01*
X13028221Y-16429915D02*
X12932983Y-16448963D01*
X13104411Y-16506106D02*
X13123459Y-16515630D01*
X13123459Y-16515630D02*
X13161554Y-16515630D01*
X13161554Y-16515630D02*
X13180602Y-16506106D01*
X13180602Y-16506106D02*
X13190125Y-16487058D01*
X13190125Y-16487058D02*
X13190125Y-16477534D01*
X13190125Y-16477534D02*
X13180602Y-16458487D01*
X13180602Y-16458487D02*
X13161554Y-16448963D01*
X13161554Y-16448963D02*
X13132983Y-16448963D01*
X13132983Y-16448963D02*
X13113935Y-16439439D01*
X13113935Y-16439439D02*
X13104411Y-16420392D01*
X13104411Y-16420392D02*
X13104411Y-16410868D01*
X13104411Y-16410868D02*
X13113935Y-16391820D01*
X13113935Y-16391820D02*
X13132983Y-16382296D01*
X13132983Y-16382296D02*
X13161554Y-16382296D01*
X13161554Y-16382296D02*
X13180602Y-16391820D01*
X13256792Y-16591820D02*
X13266316Y-16582296D01*
X13266316Y-16582296D02*
X13285364Y-16553725D01*
X13285364Y-16553725D02*
X13294887Y-16534677D01*
X13294887Y-16534677D02*
X13304411Y-16506106D01*
X13304411Y-16506106D02*
X13313935Y-16458487D01*
X13313935Y-16458487D02*
X13313935Y-16420392D01*
X13313935Y-16420392D02*
X13304411Y-16372772D01*
X13304411Y-16372772D02*
X13294887Y-16344201D01*
X13294887Y-16344201D02*
X13285364Y-16325153D01*
X13285364Y-16325153D02*
X13266316Y-16296582D01*
X13266316Y-16296582D02*
X13256792Y-16287058D01*
X8452441Y-16769857D02*
X8452441Y-16628434D01*
X8311018Y-16628434D01*
X8311018Y-16769857D01*
X8452441Y-16769857D01*
X8481729Y-16699146D02*
G75*
G03*
X8481729Y-16699146I-100000J0D01*
G01*
X8732982Y-16609677D02*
X8742506Y-16600153D01*
X8742506Y-16600153D02*
X8761554Y-16590630D01*
X8761554Y-16590630D02*
X8809173Y-16590630D01*
X8809173Y-16590630D02*
X8828220Y-16600153D01*
X8828220Y-16600153D02*
X8837744Y-16609677D01*
X8837744Y-16609677D02*
X8847268Y-16628725D01*
X8847268Y-16628725D02*
X8847268Y-16647772D01*
X8847268Y-16647772D02*
X8837744Y-16676344D01*
X8837744Y-16676344D02*
X8723458Y-16790630D01*
X8723458Y-16790630D02*
X8847268Y-16790630D01*
X8932982Y-16771582D02*
X8942506Y-16781106D01*
X8942506Y-16781106D02*
X8932982Y-16790630D01*
X8932982Y-16790630D02*
X8923458Y-16781106D01*
X8923458Y-16781106D02*
X8932982Y-16771582D01*
X8932982Y-16771582D02*
X8932982Y-16790630D01*
X9018697Y-16609677D02*
X9028220Y-16600153D01*
X9028220Y-16600153D02*
X9047268Y-16590630D01*
X9047268Y-16590630D02*
X9094887Y-16590630D01*
X9094887Y-16590630D02*
X9113935Y-16600153D01*
X9113935Y-16600153D02*
X9123458Y-16609677D01*
X9123458Y-16609677D02*
X9132982Y-16628725D01*
X9132982Y-16628725D02*
X9132982Y-16647772D01*
X9132982Y-16647772D02*
X9123458Y-16676344D01*
X9123458Y-16676344D02*
X9009173Y-16790630D01*
X9009173Y-16790630D02*
X9132982Y-16790630D01*
X9256792Y-16590630D02*
X9275839Y-16590630D01*
X9275839Y-16590630D02*
X9294887Y-16600153D01*
X9294887Y-16600153D02*
X9304411Y-16609677D01*
X9304411Y-16609677D02*
X9313935Y-16628725D01*
X9313935Y-16628725D02*
X9323458Y-16666820D01*
X9323458Y-16666820D02*
X9323458Y-16714439D01*
X9323458Y-16714439D02*
X9313935Y-16752534D01*
X9313935Y-16752534D02*
X9304411Y-16771582D01*
X9304411Y-16771582D02*
X9294887Y-16781106D01*
X9294887Y-16781106D02*
X9275839Y-16790630D01*
X9275839Y-16790630D02*
X9256792Y-16790630D01*
X9256792Y-16790630D02*
X9237744Y-16781106D01*
X9237744Y-16781106D02*
X9228220Y-16771582D01*
X9228220Y-16771582D02*
X9218697Y-16752534D01*
X9218697Y-16752534D02*
X9209173Y-16714439D01*
X9209173Y-16714439D02*
X9209173Y-16666820D01*
X9209173Y-16666820D02*
X9218697Y-16628725D01*
X9218697Y-16628725D02*
X9228220Y-16609677D01*
X9228220Y-16609677D02*
X9237744Y-16600153D01*
X9237744Y-16600153D02*
X9256792Y-16590630D01*
X9447268Y-16590630D02*
X9466316Y-16590630D01*
X9466316Y-16590630D02*
X9485363Y-16600153D01*
X9485363Y-16600153D02*
X9494887Y-16609677D01*
X9494887Y-16609677D02*
X9504411Y-16628725D01*
X9504411Y-16628725D02*
X9513935Y-16666820D01*
X9513935Y-16666820D02*
X9513935Y-16714439D01*
X9513935Y-16714439D02*
X9504411Y-16752534D01*
X9504411Y-16752534D02*
X9494887Y-16771582D01*
X9494887Y-16771582D02*
X9485363Y-16781106D01*
X9485363Y-16781106D02*
X9466316Y-16790630D01*
X9466316Y-16790630D02*
X9447268Y-16790630D01*
X9447268Y-16790630D02*
X9428220Y-16781106D01*
X9428220Y-16781106D02*
X9418697Y-16771582D01*
X9418697Y-16771582D02*
X9409173Y-16752534D01*
X9409173Y-16752534D02*
X9399649Y-16714439D01*
X9399649Y-16714439D02*
X9399649Y-16666820D01*
X9399649Y-16666820D02*
X9409173Y-16628725D01*
X9409173Y-16628725D02*
X9418697Y-16609677D01*
X9418697Y-16609677D02*
X9428220Y-16600153D01*
X9428220Y-16600153D02*
X9447268Y-16590630D01*
X9599649Y-16790630D02*
X9599649Y-16657296D01*
X9599649Y-16676344D02*
X9609173Y-16666820D01*
X9609173Y-16666820D02*
X9628220Y-16657296D01*
X9628220Y-16657296D02*
X9656792Y-16657296D01*
X9656792Y-16657296D02*
X9675839Y-16666820D01*
X9675839Y-16666820D02*
X9685363Y-16685868D01*
X9685363Y-16685868D02*
X9685363Y-16790630D01*
X9685363Y-16685868D02*
X9694887Y-16666820D01*
X9694887Y-16666820D02*
X9713935Y-16657296D01*
X9713935Y-16657296D02*
X9742506Y-16657296D01*
X9742506Y-16657296D02*
X9761554Y-16666820D01*
X9761554Y-16666820D02*
X9771078Y-16685868D01*
X9771078Y-16685868D02*
X9771078Y-16790630D01*
X9866316Y-16790630D02*
X9866316Y-16657296D01*
X9866316Y-16676344D02*
X9875839Y-16666820D01*
X9875839Y-16666820D02*
X9894887Y-16657296D01*
X9894887Y-16657296D02*
X9923459Y-16657296D01*
X9923459Y-16657296D02*
X9942506Y-16666820D01*
X9942506Y-16666820D02*
X9952030Y-16685868D01*
X9952030Y-16685868D02*
X9952030Y-16790630D01*
X9952030Y-16685868D02*
X9961554Y-16666820D01*
X9961554Y-16666820D02*
X9980601Y-16657296D01*
X9980601Y-16657296D02*
X10009173Y-16657296D01*
X10009173Y-16657296D02*
X10028220Y-16666820D01*
X10028220Y-16666820D02*
X10037744Y-16685868D01*
X10037744Y-16685868D02*
X10037744Y-16790630D01*
X10428220Y-16581106D02*
X10256792Y-16838249D01*
X10685363Y-16590630D02*
X10704411Y-16590630D01*
X10704411Y-16590630D02*
X10723459Y-16600153D01*
X10723459Y-16600153D02*
X10732982Y-16609677D01*
X10732982Y-16609677D02*
X10742506Y-16628725D01*
X10742506Y-16628725D02*
X10752030Y-16666820D01*
X10752030Y-16666820D02*
X10752030Y-16714439D01*
X10752030Y-16714439D02*
X10742506Y-16752534D01*
X10742506Y-16752534D02*
X10732982Y-16771582D01*
X10732982Y-16771582D02*
X10723459Y-16781106D01*
X10723459Y-16781106D02*
X10704411Y-16790630D01*
X10704411Y-16790630D02*
X10685363Y-16790630D01*
X10685363Y-16790630D02*
X10666316Y-16781106D01*
X10666316Y-16781106D02*
X10656792Y-16771582D01*
X10656792Y-16771582D02*
X10647268Y-16752534D01*
X10647268Y-16752534D02*
X10637744Y-16714439D01*
X10637744Y-16714439D02*
X10637744Y-16666820D01*
X10637744Y-16666820D02*
X10647268Y-16628725D01*
X10647268Y-16628725D02*
X10656792Y-16609677D01*
X10656792Y-16609677D02*
X10666316Y-16600153D01*
X10666316Y-16600153D02*
X10685363Y-16590630D01*
X10837744Y-16771582D02*
X10847268Y-16781106D01*
X10847268Y-16781106D02*
X10837744Y-16790630D01*
X10837744Y-16790630D02*
X10828221Y-16781106D01*
X10828221Y-16781106D02*
X10837744Y-16771582D01*
X10837744Y-16771582D02*
X10837744Y-16790630D01*
X10971078Y-16590630D02*
X10990125Y-16590630D01*
X10990125Y-16590630D02*
X11009173Y-16600153D01*
X11009173Y-16600153D02*
X11018697Y-16609677D01*
X11018697Y-16609677D02*
X11028221Y-16628725D01*
X11028221Y-16628725D02*
X11037744Y-16666820D01*
X11037744Y-16666820D02*
X11037744Y-16714439D01*
X11037744Y-16714439D02*
X11028221Y-16752534D01*
X11028221Y-16752534D02*
X11018697Y-16771582D01*
X11018697Y-16771582D02*
X11009173Y-16781106D01*
X11009173Y-16781106D02*
X10990125Y-16790630D01*
X10990125Y-16790630D02*
X10971078Y-16790630D01*
X10971078Y-16790630D02*
X10952030Y-16781106D01*
X10952030Y-16781106D02*
X10942506Y-16771582D01*
X10942506Y-16771582D02*
X10932982Y-16752534D01*
X10932982Y-16752534D02*
X10923459Y-16714439D01*
X10923459Y-16714439D02*
X10923459Y-16666820D01*
X10923459Y-16666820D02*
X10932982Y-16628725D01*
X10932982Y-16628725D02*
X10942506Y-16609677D01*
X10942506Y-16609677D02*
X10952030Y-16600153D01*
X10952030Y-16600153D02*
X10971078Y-16590630D01*
X11152030Y-16676344D02*
X11132982Y-16666820D01*
X11132982Y-16666820D02*
X11123459Y-16657296D01*
X11123459Y-16657296D02*
X11113935Y-16638249D01*
X11113935Y-16638249D02*
X11113935Y-16628725D01*
X11113935Y-16628725D02*
X11123459Y-16609677D01*
X11123459Y-16609677D02*
X11132982Y-16600153D01*
X11132982Y-16600153D02*
X11152030Y-16590630D01*
X11152030Y-16590630D02*
X11190125Y-16590630D01*
X11190125Y-16590630D02*
X11209173Y-16600153D01*
X11209173Y-16600153D02*
X11218697Y-16609677D01*
X11218697Y-16609677D02*
X11228220Y-16628725D01*
X11228220Y-16628725D02*
X11228220Y-16638249D01*
X11228220Y-16638249D02*
X11218697Y-16657296D01*
X11218697Y-16657296D02*
X11209173Y-16666820D01*
X11209173Y-16666820D02*
X11190125Y-16676344D01*
X11190125Y-16676344D02*
X11152030Y-16676344D01*
X11152030Y-16676344D02*
X11132982Y-16685868D01*
X11132982Y-16685868D02*
X11123459Y-16695392D01*
X11123459Y-16695392D02*
X11113935Y-16714439D01*
X11113935Y-16714439D02*
X11113935Y-16752534D01*
X11113935Y-16752534D02*
X11123459Y-16771582D01*
X11123459Y-16771582D02*
X11132982Y-16781106D01*
X11132982Y-16781106D02*
X11152030Y-16790630D01*
X11152030Y-16790630D02*
X11190125Y-16790630D01*
X11190125Y-16790630D02*
X11209173Y-16781106D01*
X11209173Y-16781106D02*
X11218697Y-16771582D01*
X11218697Y-16771582D02*
X11228220Y-16752534D01*
X11228220Y-16752534D02*
X11228220Y-16714439D01*
X11228220Y-16714439D02*
X11218697Y-16695392D01*
X11218697Y-16695392D02*
X11209173Y-16685868D01*
X11209173Y-16685868D02*
X11190125Y-16676344D01*
X11399649Y-16590630D02*
X11361554Y-16590630D01*
X11361554Y-16590630D02*
X11342506Y-16600153D01*
X11342506Y-16600153D02*
X11332982Y-16609677D01*
X11332982Y-16609677D02*
X11313935Y-16638249D01*
X11313935Y-16638249D02*
X11304411Y-16676344D01*
X11304411Y-16676344D02*
X11304411Y-16752534D01*
X11304411Y-16752534D02*
X11313935Y-16771582D01*
X11313935Y-16771582D02*
X11323459Y-16781106D01*
X11323459Y-16781106D02*
X11342506Y-16790630D01*
X11342506Y-16790630D02*
X11380601Y-16790630D01*
X11380601Y-16790630D02*
X11399649Y-16781106D01*
X11399649Y-16781106D02*
X11409173Y-16771582D01*
X11409173Y-16771582D02*
X11418697Y-16752534D01*
X11418697Y-16752534D02*
X11418697Y-16704915D01*
X11418697Y-16704915D02*
X11409173Y-16685868D01*
X11409173Y-16685868D02*
X11399649Y-16676344D01*
X11399649Y-16676344D02*
X11380601Y-16666820D01*
X11380601Y-16666820D02*
X11342506Y-16666820D01*
X11342506Y-16666820D02*
X11323459Y-16676344D01*
X11323459Y-16676344D02*
X11313935Y-16685868D01*
X11313935Y-16685868D02*
X11304411Y-16704915D01*
X11590125Y-16590630D02*
X11552030Y-16590630D01*
X11552030Y-16590630D02*
X11532982Y-16600153D01*
X11532982Y-16600153D02*
X11523459Y-16609677D01*
X11523459Y-16609677D02*
X11504411Y-16638249D01*
X11504411Y-16638249D02*
X11494887Y-16676344D01*
X11494887Y-16676344D02*
X11494887Y-16752534D01*
X11494887Y-16752534D02*
X11504411Y-16771582D01*
X11504411Y-16771582D02*
X11513935Y-16781106D01*
X11513935Y-16781106D02*
X11532982Y-16790630D01*
X11532982Y-16790630D02*
X11571078Y-16790630D01*
X11571078Y-16790630D02*
X11590125Y-16781106D01*
X11590125Y-16781106D02*
X11599649Y-16771582D01*
X11599649Y-16771582D02*
X11609173Y-16752534D01*
X11609173Y-16752534D02*
X11609173Y-16704915D01*
X11609173Y-16704915D02*
X11599649Y-16685868D01*
X11599649Y-16685868D02*
X11590125Y-16676344D01*
X11590125Y-16676344D02*
X11571078Y-16666820D01*
X11571078Y-16666820D02*
X11532982Y-16666820D01*
X11532982Y-16666820D02*
X11513935Y-16676344D01*
X11513935Y-16676344D02*
X11504411Y-16685868D01*
X11504411Y-16685868D02*
X11494887Y-16704915D01*
X11685363Y-16590630D02*
X11685363Y-16628725D01*
X11761554Y-16590630D02*
X11761554Y-16628725D01*
X12056792Y-16866820D02*
X12047268Y-16857296D01*
X12047268Y-16857296D02*
X12028221Y-16828725D01*
X12028221Y-16828725D02*
X12018697Y-16809677D01*
X12018697Y-16809677D02*
X12009173Y-16781106D01*
X12009173Y-16781106D02*
X11999649Y-16733487D01*
X11999649Y-16733487D02*
X11999649Y-16695392D01*
X11999649Y-16695392D02*
X12009173Y-16647772D01*
X12009173Y-16647772D02*
X12018697Y-16619201D01*
X12018697Y-16619201D02*
X12028221Y-16600153D01*
X12028221Y-16600153D02*
X12047268Y-16571582D01*
X12047268Y-16571582D02*
X12056792Y-16562058D01*
X12113935Y-16590630D02*
X12247268Y-16590630D01*
X12247268Y-16590630D02*
X12161554Y-16790630D01*
X12475840Y-16790630D02*
X12475840Y-16590630D01*
X12561554Y-16790630D02*
X12561554Y-16685868D01*
X12561554Y-16685868D02*
X12552030Y-16666820D01*
X12552030Y-16666820D02*
X12532983Y-16657296D01*
X12532983Y-16657296D02*
X12504411Y-16657296D01*
X12504411Y-16657296D02*
X12485363Y-16666820D01*
X12485363Y-16666820D02*
X12475840Y-16676344D01*
X12685363Y-16790630D02*
X12666316Y-16781106D01*
X12666316Y-16781106D02*
X12656792Y-16771582D01*
X12656792Y-16771582D02*
X12647268Y-16752534D01*
X12647268Y-16752534D02*
X12647268Y-16695392D01*
X12647268Y-16695392D02*
X12656792Y-16676344D01*
X12656792Y-16676344D02*
X12666316Y-16666820D01*
X12666316Y-16666820D02*
X12685363Y-16657296D01*
X12685363Y-16657296D02*
X12713935Y-16657296D01*
X12713935Y-16657296D02*
X12732983Y-16666820D01*
X12732983Y-16666820D02*
X12742506Y-16676344D01*
X12742506Y-16676344D02*
X12752030Y-16695392D01*
X12752030Y-16695392D02*
X12752030Y-16752534D01*
X12752030Y-16752534D02*
X12742506Y-16771582D01*
X12742506Y-16771582D02*
X12732983Y-16781106D01*
X12732983Y-16781106D02*
X12713935Y-16790630D01*
X12713935Y-16790630D02*
X12685363Y-16790630D01*
X12866316Y-16790630D02*
X12847268Y-16781106D01*
X12847268Y-16781106D02*
X12837744Y-16762058D01*
X12837744Y-16762058D02*
X12837744Y-16590630D01*
X13018697Y-16781106D02*
X12999649Y-16790630D01*
X12999649Y-16790630D02*
X12961554Y-16790630D01*
X12961554Y-16790630D02*
X12942506Y-16781106D01*
X12942506Y-16781106D02*
X12932983Y-16762058D01*
X12932983Y-16762058D02*
X12932983Y-16685868D01*
X12932983Y-16685868D02*
X12942506Y-16666820D01*
X12942506Y-16666820D02*
X12961554Y-16657296D01*
X12961554Y-16657296D02*
X12999649Y-16657296D01*
X12999649Y-16657296D02*
X13018697Y-16666820D01*
X13018697Y-16666820D02*
X13028221Y-16685868D01*
X13028221Y-16685868D02*
X13028221Y-16704915D01*
X13028221Y-16704915D02*
X12932983Y-16723963D01*
X13104411Y-16781106D02*
X13123459Y-16790630D01*
X13123459Y-16790630D02*
X13161554Y-16790630D01*
X13161554Y-16790630D02*
X13180602Y-16781106D01*
X13180602Y-16781106D02*
X13190125Y-16762058D01*
X13190125Y-16762058D02*
X13190125Y-16752534D01*
X13190125Y-16752534D02*
X13180602Y-16733487D01*
X13180602Y-16733487D02*
X13161554Y-16723963D01*
X13161554Y-16723963D02*
X13132983Y-16723963D01*
X13132983Y-16723963D02*
X13113935Y-16714439D01*
X13113935Y-16714439D02*
X13104411Y-16695392D01*
X13104411Y-16695392D02*
X13104411Y-16685868D01*
X13104411Y-16685868D02*
X13113935Y-16666820D01*
X13113935Y-16666820D02*
X13132983Y-16657296D01*
X13132983Y-16657296D02*
X13161554Y-16657296D01*
X13161554Y-16657296D02*
X13180602Y-16666820D01*
X13256792Y-16866820D02*
X13266316Y-16857296D01*
X13266316Y-16857296D02*
X13285364Y-16828725D01*
X13285364Y-16828725D02*
X13294887Y-16809677D01*
X13294887Y-16809677D02*
X13304411Y-16781106D01*
X13304411Y-16781106D02*
X13313935Y-16733487D01*
X13313935Y-16733487D02*
X13313935Y-16695392D01*
X13313935Y-16695392D02*
X13304411Y-16647772D01*
X13304411Y-16647772D02*
X13294887Y-16619201D01*
X13294887Y-16619201D02*
X13285364Y-16600153D01*
X13285364Y-16600153D02*
X13266316Y-16571582D01*
X13266316Y-16571582D02*
X13256792Y-16562058D01*
M02*
